<?xml version="1.0" standalone="no"?> <!DOCTYPE svg PUBLIC "-//W3C//DTD SVG 1.0//EN" "http://www.w3.org/TR/2001/REC-SVG-20010904/DTD/svg10.dtd" > <svg xmlns="http://www.w3.org/2000/svg" width="100%" height="100%">
<defs >
<font id="FuturaBT-MediumItalic" horiz-adv-x="917" ><font-face
    font-family="Futura Md BT"
    units-per-em="2048"
    panose-1="2 11 6 2 2 2 4 9 3 3"
    ascent="1973"
    descent="-487"
    alphabetic="0" />
<missing-glyph horiz-adv-x="1228" d="M102 -362V1444H1126V-362H102ZM217 -248H1012V1329H217V-248Z" />
<glyph unicode=" " glyph-name="space" horiz-adv-x="602" />
<glyph unicode="!" glyph-name="exclam" horiz-adv-x="649" d="M166 338L322 1497H541L387 338H166ZM111 96Q111 151 150 188Q193 227 244 227Q299 227 338 191T377 97T338 0T244 -39T150 0T111 96Z" />
<glyph unicode="&quot;" glyph-name="quotedbl" horiz-adv-x="641" d="M395 1436H559V879H395V1436ZM86 1436H250V879H86V1436Z" />
<glyph unicode="#" glyph-name="numbersign" horiz-adv-x="1574" d="M709 852L618 598H874L965 852H709ZM735 1460H926L772 1024H1022L1178 1460H1368L1214 1024H1505L1446 852H1153L1063 600H1372L1311 428H1004L848 -6H657L813 428H561L403 -6H213L369 428H70L131
600H428L518 852H203L264 1024H580L735 1460Z" />
<glyph unicode="$" glyph-name="dollar" horiz-adv-x="1206" d="M68 252L229 381Q290 266 350 217Q418 162 494 160L557 659Q387 747 316 837T244 1049Q244 1223 362 1346Q477 1463 666 1473L688 1642H795L770 1470Q874 1458 956 1405Q1032 1356 1096 1260L958
1135Q909 1207 860 1241Q809 1276 748 1286L686 836Q854 756 932 654T1010 412Q1010 222 893 104Q778 -11 571 -29L543 -244H436L467 -31Q332 -25 231 45Q134 113 68 252ZM655 602L596 168Q684 191 731 250Q780 311 780 397Q780 460 748 516Q716 568 655 602ZM588
889L641 1280Q563 1262 520 1202Q473 1139 473 1063Q473 1012 502 967T588 889Z" />
<glyph unicode="%" glyph-name="percent" horiz-adv-x="1495" d="M412 1364Q332 1364 281 1266Q228 1166 227 1018Q227 924 254 879T336 834Q414 834 467 936T520 1196Q520 1276 492 1321Q464 1364 412 1364ZM410 1481Q549 1481 616 1401T684 1157Q684 967 586
840Q488 715 338 715Q201 715 131 795Q61 873 61 1032Q61 1229 160 1356Q258 1481 410 1481ZM1174 606Q1094 606 1042 508Q989 408 989 260Q989 166 1015 121T1098 76Q1176 76 1229 178T1282 436Q1282 522 1255 563Q1229 606 1174 606ZM1171 725Q1308 725 1376
643Q1446 557 1446 397Q1446 207 1348 84Q1248 -41 1100 -41Q963 -41 893 39Q823 117 823 274Q823 471 921 598T1171 725ZM250 -41L1100 1481H1247L395 -41H250Z" />
<glyph unicode="&amp;" glyph-name="ampersand" horiz-adv-x="1320" d="M604 956Q733 1046 778 1098Q821 1147 821 1198Q821 1261 780 1296T668 1331Q598 1331 559 1292T520 1190Q520 1143 541 1087Q563 1028 604 956ZM801 324L676 508Q608 608 543 721Q367 617
299 541Q229 463 229 367Q229 269 294 207T463 145Q541 145 621 188Q707 234 801 324ZM1030 0L901 172Q786 61 678 12Q563 -39 440 -39Q254 -39 142 69T29 356Q29 503 123 623Q215 740 446 866Q387 962 356 1044Q327 1120 328 1186Q328 1331 420 1417Q510 1501
672 1501Q828 1501 915 1425Q1005 1347 1006 1217Q1006 1106 934 1012Q866 922 690 819L807 641L940 455L1128 662L1247 522L1040 305L1270 0H1030Z" />
<glyph unicode="&apos;" glyph-name="quotesingle" horiz-adv-x="333" d="M86 1436H250V879H86V1436Z" />
<glyph unicode="(" glyph-name="parenleft" horiz-adv-x="667" d="M322 -487Q232 -290 188 -90Q143 123 143 322Q143 664 258 979T596 1561L719 1466Q520 1220 416 926Q312 634 311 324Q311 127 354 -63Q397 -256 477 -424L322 -487Z" />
<glyph unicode=")" glyph-name="parenright" horiz-adv-x="667" d="M291 1561Q383 1358 424 1163Q469 950 469 752Q469 410 355 95T16 -487L-106 -391Q93 -145 197 150Q301 443 301 750Q301 949 258 1139Q213 1340 135 1497L291 1561Z" />
<glyph unicode="*" glyph-name="asterisk" horiz-adv-x="899" d="M158 1053L403 1137L186 1282L266 1389L457 1217L467 1464L602 1448L551 1206L776 1327L829 1204L582 1118L799 973L717 868L530 1040L520 793L385 807L436 1051L211 930L158 1053Z" />
<glyph unicode="+" glyph-name="plus" horiz-adv-x="1705" d="M768 1221H938V694H1452V528H938V0H768V528H254V694H768V1221Z" />
<glyph unicode="," glyph-name="comma" horiz-adv-x="602" d="M215 293L393 188L45 -293L-74 -221L215 293Z" />
<glyph unicode="-" glyph-name="hyphen" horiz-adv-x="749" d="M72 375L96 567H608L584 375H72Z" />
<glyph unicode="." glyph-name="period" horiz-adv-x="602" d="M96 57T96 110T133 205Q170 244 227 244Q282 244 319 205Q358 162 358 111T320 21T227 -18Q172 -18 133 20Q96 57 96 110Z" />
<glyph unicode="/" glyph-name="slash" horiz-adv-x="946" d="M0 -190L782 1497H948L166 -190H0Z" />
<glyph unicode="0" glyph-name="zero" horiz-adv-x="1206" d="M666 1282Q506 1282 408 1081Q312 886 311 543Q311 353 366 257T532 160Q698 160 796 356T895 887Q895 1090 840 1186T666 1282ZM1128 872Q1128 690 1083 510Q1040 340 956 209Q874 84 768 23Q659
-38 522 -39Q309 -39 195 118T80 567Q80 755 125 932Q168 1098 252 1233Q332 1356 438 1417Q546 1478 684 1479Q901 1479 1014 1323Q1128 1165 1128 872Z" />
<glyph unicode="1" glyph-name="one" horiz-adv-x="1206" d="M473 0L639 1255H350L455 1450H889L696 0H473Z" />
<glyph unicode="2" glyph-name="two" horiz-adv-x="1206" d="M-10 0L575 588Q775 788 834 883Q891 977 891 1067Q891 1173 826 1232T639 1292Q533 1292 457 1217Q385 1145 375 1016H152Q160 1233 295 1358Q424 1479 659 1479Q876 1479 997 1372Q1120 1266 1120
1081Q1120 940 1032 795T618 336L475 197H1022L981 0H-10Z" />
<glyph unicode="3" glyph-name="three" horiz-adv-x="1206" d="M307 387V375Q307 281 372 220T541 158Q668 158 748 233Q826 307 825 430Q825 539 748 598Q672 655 520 655H483L508 838Q512 838 518 837T526 836H557Q702 836 786 901T870 1081Q870 1179 811 1232T641
1286Q543 1286 479 1235Q418 1184 401 1087H184Q209 1267 336 1374Q463 1478 651 1479Q850 1479 971 1379T1092 1118Q1092 979 1012 881T793 743Q920 704 985 616Q1048 532 1049 397Q1049 209 906 86T535 -37Q324 -37 201 76Q82 187 78 387H307Z" />
<glyph unicode="4" glyph-name="four" horiz-adv-x="1206" d="M707 500L764 887Q768 907 772 938T778 977Q782 1002 795 1047Q779 1027 767 1010T747 984T727 958L684 905L332 500H707ZM635 0L676 313H-43V348L973 1479H1044L915 502H1083L1059 313H891L850 0H635Z" />
<glyph unicode="5" glyph-name="five" horiz-adv-x="1206" d="M174 332Q233 242 307 201Q384 158 479 158Q629 158 733 256Q835 352 835 497T750 727Q666 809 512 809Q442 809 363 781T195 690L156 709L373 1450H1081L1057 1268H539L451 983Q474 985 514 989Q534
991 569 991Q784 991 922 858Q1057 725 1057 512Q1057 279 897 119T498 -41Q336 -41 223 14Q108 69 16 190L174 332Z" />
<glyph unicode="6" glyph-name="six" horiz-adv-x="1206" d="M999 1382L551 864Q569 868 612 872Q630 874 664 874Q852 874 966 760T1081 455Q1081 242 924 100Q767 -41 530 -41Q323 -41 203 78Q80 197 80 395Q80 635 424 1030L465 1079L848 1522L999 1382ZM594
713Q471 713 387 625Q305 541 305 408Q305 291 373 223Q443 153 557 154Q688 154 772 238T856 453Q856 574 787 643T594 713Z" />
<glyph unicode="7" glyph-name="seven" horiz-adv-x="1206" d="M166 45L868 1262H211L236 1450H1221L348 -59L166 45Z" />
<glyph unicode="8" glyph-name="eight" horiz-adv-x="1206" d="M311 389Q311 287 379 221Q445 158 553 158Q676 158 752 236Q830 318 829 438Q829 540 762 602T582 664Q465 664 387 586Q311 510 311 389ZM430 1061Q430 971 485 918Q542 865 637 864Q741 864 807
930Q870 993 870 1106Q870 1186 813 1237Q754 1290 668 1290Q564 1290 496 1227Q430 1165 430 1061ZM418 795Q314 850 265 923T215 1096Q215 1266 342 1372T676 1479Q869 1479 981 1382Q1092 1287 1092 1124Q1092 995 1018 907T801 772Q920 739 985 651Q1048 567
1049 440Q1049 225 912 94T545 -37Q334 -37 211 76Q90 187 90 383Q90 539 172 641Q252 742 418 795Z" />
<glyph unicode="9" glyph-name="nine" horiz-adv-x="1206" d="M610 725Q731 725 815 813Q897 897 897 1030Q897 1147 829 1214Q759 1284 647 1284Q516 1284 432 1200T348 985Q348 864 417 795T610 725ZM205 55L653 573Q635 569 592 565Q574 563 541 563Q353 563
238 678T123 981Q123 1196 279 1337Q436 1478 672 1479Q881 1479 1001 1360Q1124 1241 1124 1042Q1124 802 780 408L739 358L356 -84L205 55Z" />
<glyph unicode=":" glyph-name="colon" horiz-adv-x="649" d="M100 111Q100 166 139 205T231 244Q286 244 324 205Q363 162 363 111T324 21T231 -18Q176 -18 137 20Q100 58 100 111ZM190 795Q190 850 227 887T319 924Q372 924 414 887Q453 850 453 795T414 701T320
662T227 700Q190 742 190 795Z" />
<glyph unicode=";" glyph-name="semicolon" horiz-adv-x="649" d="M190 739T190 794T229 887Q270 924 322 924Q379 924 416 887T453 795Q453 740 414 701T322 662T229 700ZM229 293L408 188L59 -293L-59 -221L229 293Z" />
<glyph unicode="&lt;" glyph-name="less" horiz-adv-x="1705" d="M1442 1176V991L508 610L1442 229V47L264 530V690L1442 1176Z" />
<glyph unicode="=" glyph-name="equal" horiz-adv-x="1705" d="M254 487H1452V322H254V487ZM254 901H1452V733H254V901Z" />
<glyph unicode="&gt;" glyph-name="greater" horiz-adv-x="1705" d="M264 1176L1442 690V530L264 47V229L1198 610L264 991V1176Z" />
<glyph unicode="?" glyph-name="question" horiz-adv-x="1062" d="M281 96Q281 151 319 190Q356 227 414 227Q467 227 508 190Q547 153 547 96T508 0T414 -39T320 0T281 96ZM848 639Q830 487 741 406Q651 322 502 322T260 401T168 610Q168 725 225 801Q284 879
449 961L479 977Q717 1094 717 1198Q717 1251 674 1288T564 1325T446 1280Q401 1237 391 1161H193Q201 1317 307 1409Q409 1499 575 1499T834 1415Q930 1329 930 1188Q930 1096 870 1020Q809 942 684 877Q657 859 586 825Q369 714 369 627Q369 574 406 539Q441
506 500 506T598 541Q633 574 643 639H848Z" />
<glyph unicode="@" glyph-name="at" horiz-adv-x="2048" d="M1174 283Q1117 193 1047 156Q971 115 870 115Q716 115 637 201T557 451Q557 684 694 846T1028 1008Q1114 1008 1178 973Q1235 940 1276 866L1331 973H1485L1337 387Q1337 385 1336 381T1335 375Q1329
347 1329 338Q1329 297 1356 276Q1385 253 1425 254Q1476 254 1532 285Q1595 320 1638 369Q1714 451 1749 547Q1786 648 1786 762Q1786 1018 1599 1174Q1411 1332 1110 1331Q971 1331 854 1300Q735 1269 639 1206Q459 1093 361 915T262 520Q262 209 471 20Q678
-166 1030 -166Q1196 -166 1354 -117Q1510 -68 1645 25L1712 -74Q1567 -185 1393 -244Q1227 -301 1038 -301Q839 -301 686 -254Q528 -205 406 -111Q252 6 174 164Q98 318 98 522Q98 690 150 836Q203 988 303 1108Q453 1288 657 1380Q864 1472 1116 1473Q1284 1473
1431 1428T1686 1300Q1819 1198 1884 1065Q1950 930 1950 764Q1950 606 1884 463Q1821 326 1700 225Q1632 170 1550 142T1382 113Q1278 113 1225 154Q1174 193 1174 279V283ZM1233 707Q1217 793 1172 838T1049 883Q922 883 831 754Q741 623 741 444Q741 344 786
293Q833 240 915 240Q1005 240 1079 307T1178 479L1233 707Z" />
<glyph unicode="A" glyph-name="A" horiz-adv-x="1275" d="M-113 0L735 1522L1270 0H1032L913 346H330L137 0H-113ZM422 541H850L737 903Q733 911 721 973Q705 1047 698 1085L655 987Q626 926 612 899L422 541Z" />
<glyph unicode="B" glyph-name="B" horiz-adv-x="1175" d="M324 201H471Q555 201 621 209Q666 215 707 231Q770 262 801 315Q834 372 834 446Q834 561 762 608T489 655H383L324 201ZM463 1266L410 854H494Q703 854 780 905Q860 957 860 1077Q860 1179 795 1223Q730
1266 543 1266H463ZM70 0L262 1464H578Q742 1464 829 1444Q905 1428 963 1378Q1022 1325 1049 1262Q1078 1192 1077 1114Q1077 977 1006 883T807 764Q934 729 997 647Q1063 563 1063 442Q1063 325 1018 236Q971 142 887 84Q817 37 721 18Q623 0 391 0H70Z" />
<glyph unicode="C" glyph-name="C" horiz-adv-x="1372" d="M1337 1368L1300 1118Q1212 1208 1116 1251Q1018 1294 899 1294Q772 1294 676 1253Q574 1210 502 1133Q416 1041 371 924T326 678Q326 453 465 309Q602 168 823 168Q927 168 1034 207Q1130 242 1231 319L1180
39Q1071 -4 987 -20Q895 -38 811 -39Q489 -39 295 156Q98 353 98 670Q98 844 160 1004Q219 1160 338 1278Q447 1387 584 1442Q722 1497 879 1497Q1014 1497 1135 1464Q1245 1434 1337 1368Z" />
<glyph unicode="D" glyph-name="D" horiz-adv-x="1486" d="M326 209H410Q652 209 760 231Q862 251 938 309Q1042 385 1096 504Q1151 627 1151 772Q1151 901 1106 999T977 1163Q911 1214 829 1235Q749 1255 561 1255H463L326 209ZM70 0L262 1464H573Q817 1464 934
1434Q1047 1403 1145 1331Q1260 1243 1325 1100Q1388 961 1389 782Q1389 626 1340 485T1198 240Q1132 164 1051 113Q973 64 874 35Q815 19 737 8Q671 0 557 0H416H70Z" />
<glyph unicode="E" glyph-name="E" horiz-adv-x="1112" d="M70 0L262 1464H1083L1057 1257H463L416 889H1008L981 684H387L326 211H920L891 0H70Z" />
<glyph unicode="F" glyph-name="F" horiz-adv-x="1095" d="M70 0L262 1464H1083L1057 1257H463L416 889H1008L981 684H387L299 0H70Z" />
<glyph unicode="G" glyph-name="G" horiz-adv-x="1660" d="M1386 1049Q1291 1172 1171 1233Q1052 1294 907 1294Q790 1294 688 1251Q579 1206 508 1130Q420 1038 373 924Q326 807 326 684Q326 453 467 312T836 170Q1016 170 1143 272Q1266 372 1288 537H909L934
745H1559Q1559 380 1362 172T823 -37Q497 -37 297 158Q98 351 98 676Q98 856 160 1012Q219 1164 340 1278Q457 1389 600 1442Q754 1499 918 1499Q1123 1499 1268 1430Q1418 1358 1548 1202L1386 1049Z" />
<glyph unicode="H" glyph-name="H" horiz-adv-x="1495" d="M70 0L262 1464H492L418 909H1126L1198 1464H1430L1235 0H1006L1098 700H391L299 0H70Z" />
<glyph unicode="I" glyph-name="I" horiz-adv-x="567" d="M72 0L264 1464H498L303 0H72Z" />
<glyph unicode="J" glyph-name="J" horiz-adv-x="817" d="M100 287Q123 234 162 201Q199 170 242 170Q363 170 406 510Q408 526 411 546T414 569L530 1464H762L647 594L643 559Q594 178 524 82Q481 23 410 -8Q334 -41 248 -41Q135 -41 58 6T-72 156L100 287Z" />
<glyph unicode="K" glyph-name="K" horiz-adv-x="1232" d="M70 0L262 1464H492L414 862L997 1464H1282L596 772L1190 0H909L389 690L299 0H70Z" />
<glyph unicode="L" glyph-name="L" horiz-adv-x="962" d="M70 0L262 1464H492L330 225H877L846 0H70Z" />
<glyph unicode="M" glyph-name="M" horiz-adv-x="1808" d="M1436 745V780Q1436 837 1438 864L1444 948Q1434 915 1409 866Q1393 833 1343 760L815 -59L512 758Q500 785 487 829L453 948Q451 891 412 754L410 750L190 0H-43L438 1526L793 578Q820 510 836 457Q840
447 846 427T857 390T866 358Q889 411 922 471Q953 526 989 582L1606 1526L1673 0H1446L1436 745Z" />
<glyph unicode="N" glyph-name="N" horiz-adv-x="1622" d="M70 0L268 1522L1067 606Q1120 545 1145 512L1210 422Q1210 451 1214 520Q1216 538 1229 649L1339 1464H1554L1356 -57L555 858Q524 893 469 963Q436 1004 412 1044Q408 964 391 836Q389 822 389 815L285 0H70Z" />
<glyph unicode="O" glyph-name="O" horiz-adv-x="1742" d="M1415 780Q1415 1011 1274 1152T903 1294Q790 1294 686 1251Q584 1208 506 1128Q422 1044 373 924Q326 807 326 682Q326 455 465 312T825 168Q1075 168 1245 344T1415 780ZM915 1499Q1249 1499 1448 1305Q1645
1110 1645 784Q1645 606 1581 455Q1515 299 1397 186Q1284 80 1130 20Q983 -37 809 -37Q492 -37 295 159T98 674Q98 854 162 1008Q225 1164 342 1276Q453 1385 602 1442Q749 1499 915 1499Z" />
<glyph unicode="P" glyph-name="P" horiz-adv-x="1122" d="M408 834H485Q702 834 780 885T858 1063Q858 1169 793 1212Q730 1255 537 1255H463L408 834ZM299 0H70L262 1464H565Q743 1464 817 1444Q899 1421 954 1376Q1022 1321 1055 1247Q1090 1167 1090 1073Q1090
962 1049 870Q1010 782 932 721Q869 670 776 647Q682 624 502 625H436H381L299 0Z" />
<glyph unicode="Q" glyph-name="Q" horiz-adv-x="1742" d="M807 436H1081L1196 301Q1302 389 1360 514Q1417 637 1417 782Q1417 1009 1276 1150T905 1292Q784 1292 688 1251Q588 1208 508 1128Q420 1036 373 922Q326 805 326 682Q326 457 465 311Q602 168 815
168Q860 168 907 174Q946 180 1006 197L807 436ZM1307 -156L1147 29Q1059 -6 983 -20Q897 -36 827 -37Q493 -37 295 156Q98 346 98 674Q98 854 162 1008Q225 1164 342 1276Q455 1382 604 1442Q749 1499 920 1499Q1250 1499 1448 1305Q1645 1111 1645 788Q1645 588
1565 420Q1483 248 1337 135L1581 -156H1307Z" />
<glyph unicode="R" glyph-name="R" horiz-adv-x="1142" d="M297 0H70L262 1464H526Q704 1464 778 1444Q860 1421 915 1376Q978 1327 1018 1245Q1053 1173 1053 1073Q1053 892 954 778Q854 661 674 635L1079 0H821L434 627H381L297 0ZM403 813H449Q670 813 743
866Q821 921 821 1053Q821 1164 756 1210Q693 1255 500 1255H463L403 813Z" />
<glyph unicode="S" glyph-name="S" horiz-adv-x="1064" d="M-18 252L143 385Q206 262 272 211Q342 158 434 158Q553 158 623 225Q695 293 694 403Q694 477 655 532Q616 589 522 643L463 678Q295 774 242 831Q202 877 180 936Q160 991 160 1063Q160 1253 285 1378Q406
1499 608 1499Q741 1499 844 1444Q948 1387 1012 1280L872 1151Q823 1231 764 1270T629 1309Q520 1309 455 1245Q387 1179 387 1083Q387 962 580 858Q637 829 653 819Q800 733 862 641T924 414Q924 205 791 84Q656 -39 426 -39Q272 -39 160 33Q50 102 -18 252Z"
/>
<glyph unicode="T" glyph-name="T" horiz-adv-x="1040" d="M301 0L467 1253H72L100 1464H1100L1071 1253H698L532 0H301Z" />
<glyph unicode="U" glyph-name="U" horiz-adv-x="1478" d="M477 1464L365 614Q357 551 354 528Q352 501 352 461Q352 320 432 246T662 172Q773 172 852 209Q936 248 989 322Q1063 420 1094 676L1100 719L1198 1464H1427L1319 641Q1292 434 1257 338Q1223 243 1165
172Q1079 68 944 12Q813 -41 637 -41Q391 -41 256 84Q125 207 125 442Q125 505 133 588Q143 684 158 795L246 1464H477Z" />
<glyph unicode="V" glyph-name="V" horiz-adv-x="1202" d="M27 1464H256L489 590Q505 533 516 481Q520 465 524 440T530 408Q544 443 575 510Q608 580 616 594L1085 1464H1331L465 -57L27 1464Z" />
<glyph unicode="W" glyph-name="W" horiz-adv-x="1869" d="M31 1464H268L463 594Q465 584 477 516Q479 500 485 453L520 539Q536 580 545 592L1012 1522L1264 580Q1270 545 1272 535Q1272 529 1277 501T1284 453Q1290 469 1298 497T1311 539Q1325 582 1331 596L1706
1464H1964L1241 -57L983 897Q983 899 981 905T977 926T973 954Q969 970 965 996T958 1030Q940 973 928 942Q924 934 917 914T905 887L416 -57L31 1464Z" />
<glyph unicode="X" glyph-name="X" horiz-adv-x="1159" d="M-76 0L449 739L94 1464H330L549 1014L551 1011Q553 1008 555 1004Q586 938 600 889Q608 920 621 942Q644 985 659 1006L979 1464H1241L715 727L1071 0H831L610 457Q598 488 590 512Q590 514 582 539T569
580Q553 539 543 520Q523 483 510 467L182 0H-76Z" />
<glyph unicode="Y" glyph-name="Y" horiz-adv-x="1202" d="M51 1464H299L543 973Q553 955 582 885Q592 858 598 844Q625 891 633 903L684 979L1018 1464H1280L694 651L608 0H377L465 659L51 1464Z" />
<glyph unicode="Z" glyph-name="Z" horiz-adv-x="1175" d="M-59 0L805 1247H158L186 1464H1221L358 217H1075L1047 0H-59Z" />
<glyph unicode="[" glyph-name="bracketleft" horiz-adv-x="667" d="M94 -424L346 1497H719L698 1337H512L301 -262H487L467 -424H94Z" />
<glyph unicode="\" glyph-name="backslash" horiz-adv-x="946" d="M782 -190H614L166 1497H332L782 -190Z" />
<glyph unicode="]" glyph-name="bracketright" horiz-adv-x="667" d="M524 1497L270 -424H-102L-82 -262H104L315 1337H129L150 1497H524Z" />
<glyph unicode="^" glyph-name="asciicircum" horiz-adv-x="2048" d="M915 1460H1133L1628 899H1421L1024 1296L625 899H418L915 1460Z" />
<glyph unicode="_" glyph-name="underscore" horiz-adv-x="1024" d="M0 -311H1024V-483H0V-311Z" />
<glyph unicode="`" glyph-name="grave" horiz-adv-x="1024" d="M696 1092H580L276 1442H489L696 1092Z" />
<glyph unicode="a" glyph-name="a" horiz-adv-x="1175" d="M276 444Q276 307 339 232T514 156Q647 156 719 258Q793 362 793 543Q793 666 725 739Q659 811 545 811Q422 811 348 713Q276 616 276 444ZM938 0H723L739 104Q682 30 610 -2Q534 -37 442 -37Q255 -37
154 80Q54 195 53 414Q53 669 176 825T502 981Q598 981 678 942Q762 901 829 821L848 948H1063L938 0Z" />
<glyph unicode="b" glyph-name="b" horiz-adv-x="1175" d="M838 506Q838 647 779 719T602 791Q471 791 397 686Q321 580 322 401Q322 280 391 205Q459 131 573 131Q696 131 766 231Q838 334 838 506ZM256 1550H471L381 854Q447 920 516 950T672 981Q859 981 961
864Q1061 749 1061 530Q1061 272 936 117T608 -39Q522 -39 440 0Q362 37 285 121L266 0H51L256 1550Z" />
<glyph unicode="c" glyph-name="c" horiz-adv-x="956" d="M870 678Q805 733 735 764Q669 793 592 793Q449 793 356 690Q264 589 264 426Q264 299 331 226T518 152Q589 152 666 176Q736 199 819 252L774 23Q721 -6 649 -23Q579 -39 512 -39Q301 -39 170 88Q41 213
41 424Q41 668 195 825Q349 981 594 981Q684 981 764 956Q840 933 915 883L870 678Z" />
<glyph unicode="d" glyph-name="d" horiz-adv-x="1175" d="M276 442Q276 305 340 229Q406 151 514 152Q645 152 719 256T793 543Q793 666 725 739Q659 811 545 811Q424 811 348 711Q276 614 276 442ZM940 0H729L741 96Q673 26 604 -6Q532 -39 442 -39Q255 -39
154 78Q54 193 53 412Q53 668 176 825Q299 981 500 981Q596 981 682 940T831 817L928 1550H1143L940 0Z" />
<glyph unicode="e" glyph-name="e" horiz-adv-x="1101" d="M283 588H772Q770 684 713 739Q658 794 561 795Q452 795 379 740T283 588ZM760 291L915 170Q827 57 735 10Q637 -39 512 -39Q297 -39 170 88Q41 217 41 424Q41 670 190 825T571 981Q766 981 879 862Q994
741 993 541Q993 535 992 522T991 498Q991 484 987 434H264Q264 307 329 230T502 152Q578 152 645 188Q709 223 760 291Z" />
<glyph unicode="f" glyph-name="f" horiz-adv-x="643" d="M94 0L195 764H23L47 948H217L250 1184Q278 1402 348 1485Q420 1569 567 1569Q616 1569 655 1561Q704 1551 739 1534L715 1348Q674 1364 649 1370Q612 1378 600 1378Q543 1378 510 1333Q479 1290 461 1151L434
948H627L602 764H410L309 0H94Z" />
<glyph unicode="g" glyph-name="g" horiz-adv-x="1175" d="M276 459Q276 324 340 252Q406 178 514 178Q643 178 719 276Q795 372 795 541Q795 668 727 741Q657 817 545 817Q424 817 350 719T276 459ZM938 12Q907 -221 789 -333T453 -446Q263 -446 139 -352Q22
-262 0 -92L197 -66Q209 -167 270 -213Q333 -260 453 -260Q600 -260 662 -180Q721 -102 737 121Q674 55 602 25Q524 -8 442 -8Q260 -8 156 109Q54 224 53 432Q53 680 178 829Q305 981 502 981Q598 981 678 942Q764 901 834 825L852 948H1063L938 12Z" />
<glyph unicode="h" glyph-name="h" horiz-adv-x="1179" d="M735 0L807 547Q811 567 811 578V627Q811 721 766 768Q721 817 635 817Q504 817 426 731Q346 643 326 467L266 0H51L256 1550H471L377 840Q461 914 543 946Q631 981 723 981Q866 981 950 903Q1032 827
1032 690Q1032 633 1018 520Q1018 516 1017 510T1016 502L950 0H735Z" />
<glyph unicode="i" glyph-name="i" horiz-adv-x="524" d="M203 1280Q203 1333 239 1370T332 1407Q385 1407 422 1370T459 1280Q459 1225 422 1188T332 1151Q277 1151 240 1188T203 1280ZM61 0L186 948H401L276 0H61Z" />
<glyph unicode="j" glyph-name="j" horiz-adv-x="524" d="M203 1280Q203 1333 239 1370T332 1407Q385 1407 422 1370T459 1280Q459 1225 422 1188T332 1151Q277 1151 240 1188T203 1280ZM217 -446H2L186 948H401L217 -446Z" />
<glyph unicode="k" glyph-name="k" horiz-adv-x="1069" d="M51 0L256 1550H471L338 545L819 948H1098L580 512L983 0H723L334 504L266 0H51Z" />
<glyph unicode="l" glyph-name="l" horiz-adv-x="524" d="M276 0H61L264 1550H479L276 0Z" />
<glyph unicode="m" glyph-name="m" horiz-adv-x="1740" d="M1292 0L1364 547Q1368 572 1368 584Q1368 590 1369 602T1370 621Q1370 719 1331 766Q1290 817 1217 817Q1100 817 1034 733Q971 651 946 467L887 0H670L739 547Q743 584 743 588V614Q743 720 705 768Q664
817 584 817Q471 817 410 733Q349 651 324 467L264 0H51L176 948H389L358 834Q430 906 514 944Q594 981 684 981Q786 981 852 938Q920 893 952 805Q1032 895 1120 938Q1206 981 1307 981Q1442 981 1516 903Q1592 823 1591 682Q1591 666 1587 612Q1581 536 1577
504L1511 0H1292Z" />
<glyph unicode="n" glyph-name="n" horiz-adv-x="1179" d="M735 0L807 545Q811 565 811 575V625Q811 721 766 768Q721 817 635 817Q504 817 426 731Q346 643 326 465L266 0H51L176 948H383L367 834Q449 908 537 944Q623 981 723 981Q868 981 950 905T1032 690Q1032
670 1028 608Q1024 561 1016 500L950 0H735Z" />
<glyph unicode="o" glyph-name="o" horiz-adv-x="1167" d="M584 793Q439 793 350 690Q260 584 260 426Q260 299 327 226T514 152Q664 152 752 250Q842 350 842 514Q842 647 774 721Q709 793 584 793ZM582 983Q803 983 936 854Q1067 725 1067 508Q1067 270 911
115Q757 -39 514 -39Q299 -39 168 88T37 426Q37 670 188 827Q338 983 582 983Z" />
<glyph unicode="p" glyph-name="p" horiz-adv-x="1175" d="M838 504Q838 643 777 717T604 791Q471 791 397 688Q321 584 322 408Q322 287 389 213Q455 141 571 141Q696 141 766 238Q838 338 838 504ZM176 948H381L371 848Q432 914 510 948Q582 981 672 981Q859
981 961 864Q1061 749 1061 535Q1061 283 938 127T614 -29Q516 -29 436 10Q353 50 283 133L207 -449H-8L176 948Z" />
<glyph unicode="q" glyph-name="q" horiz-adv-x="1175" d="M276 444Q276 305 340 229Q406 151 512 152Q639 152 717 256Q793 358 793 543Q793 664 725 737T545 811Q422 811 348 713Q276 616 276 444ZM879 -446H664L735 90Q667 22 598 -6Q520 -39 442 -39Q255 -39
154 78Q54 193 53 412Q53 668 176 825Q299 981 502 981Q598 981 678 942Q762 901 834 821L852 948H1063L879 -446Z" />
<glyph unicode="r" glyph-name="r" horiz-adv-x="733" d="M698 758Q678 772 651 782Q628 790 596 791Q479 791 416 707Q346 615 326 444L266 0H51L176 948H383L367 825Q418 899 489 942Q555 981 633 981Q672 981 702 973Q735 965 768 944L698 758Z" />
<glyph unicode="s" glyph-name="s" horiz-adv-x="823" d="M94 279Q145 207 211 166Q274 127 344 127T453 158Q494 189 494 238Q494 310 342 393Q338 395 336 396L334 397Q190 480 143 539Q98 596 98 682Q98 815 197 899Q297 983 455 983Q553 983 635 946Q721 907
788 838L655 700Q612 755 553 786Q496 817 432 817Q381 817 344 786Q309 757 309 713Q309 645 436 582L510 543Q623 480 664 422Q705 363 705 272Q705 131 606 45Q510 -39 340 -39Q236 -39 135 6Q40 49 -31 135L94 279Z" />
<glyph unicode="t" glyph-name="t" horiz-adv-x="595" d="M76 0L176 764H12L37 948H199L246 1307H461L416 948H588L563 764H391L291 0H76Z" />
<glyph unicode="u" glyph-name="u" horiz-adv-x="1167" d="M168 948H383L332 551Q330 547 329 534T328 514Q310 385 309 342Q309 250 360 201Q413 152 506 152Q637 152 698 223Q757 293 786 502L846 948H1061L997 467Q974 291 940 205Q911 131 852 76Q791 19 700
-10Q608 -39 492 -39Q295 -39 193 51Q93 139 92 319Q92 366 111 508V510L168 948Z" />
<glyph unicode="v" glyph-name="v" horiz-adv-x="950" d="M346 -57L-16 948H207L354 494Q362 469 375 412Q383 369 387 322Q399 362 418 401Q443 454 459 481L731 948H975L346 -57Z" />
<glyph unicode="w" glyph-name="w" horiz-adv-x="1546" d="M-4 948H213L367 465L368 462Q370 458 371 453Q398 365 401 319Q421 374 430 393Q446 428 473 475L791 1018L946 459Q952 434 961 395Q969 352 971 319Q985 358 1001 395T1032 455L1319 948H1563L920
-59L760 471Q754 491 745 532Q737 577 733 604L694 524Q690 516 684 505T674 487T668 475L346 -59L-4 948Z" />
<glyph unicode="x" glyph-name="x" horiz-adv-x="976" d="M-90 0L328 496L55 948H297L428 717Q432 711 438 698Q465 655 475 623Q495 660 512 682Q516 686 520 693T527 704T534 714T543 723L731 948H985L596 494L889 0H643L485 297Q471 326 469 332Q467 336 462
349T455 371Q435 342 414 311Q408 301 402 292T391 279T387 272L164 0H-90Z" />
<glyph unicode="y" glyph-name="y" horiz-adv-x="950" d="M133 -446H-92L291 154L16 948H240L381 492Q391 463 397 422Q397 414 402 375T412 311Q418 327 446 395Q454 415 492 479L766 948H1006L133 -446Z" />
<glyph unicode="z" glyph-name="z" horiz-adv-x="966" d="M-45 0L467 668Q485 693 510 717Q518 725 527 733T548 751T567 768H98L121 948H938L420 274L377 223Q371 215 330 180H862L840 0H-45Z" />
<glyph unicode="{" glyph-name="braceleft" horiz-adv-x="1024" d="M874 1477V1298H850Q844 1298 837 1299T827 1300Q718 1300 680 1260T641 1085V844Q641 688 598 623Q555 560 438 530Q553 501 596 438Q641 370 641 217V-23Q641 -156 680 -197Q721 -240 829 -240H852Q858
-240 865 -239T874 -238V-414H811Q710 -414 645 -401Q582 -389 539 -365Q482 -332 459 -269T436 -66V182Q436 325 383 384T205 444Q203 444 197 443T184 442H162V621Q164 621 171 620T184 618H205Q330 618 383 677T436 879V1126Q436 1269 459 1333Q479 1392 539
1427Q580 1454 647 1466Q700 1476 829 1477H874Z" />
<glyph unicode="|" glyph-name="bar" horiz-adv-x="1024" d="M424 1565H602V-483H424V1565Z" />
<glyph unicode="}" glyph-name="braceright" horiz-adv-x="1024" d="M152 1477H197Q324 1477 377 1466Q445 1454 485 1427Q542 1394 565 1331T588 1126V879Q588 734 639 676T819 618H840Q846 618 853 619T862 621V442H840Q834 442 828 443T819 444Q694 444 641
385T588 182V-66Q588 -207 565 -270Q545 -329 485 -365Q438 -392 377 -403Q324 -413 197 -414H152V-238Q154 -238 161 -239T174 -240H197Q306 -240 344 -199T383 -23V217Q383 373 428 436Q475 504 588 530Q474 558 428 623Q383 686 383 844V1085Q383 1214 344 1260Q309
1301 199 1300Q197 1300 190 1299T176 1298H152V1477Z" />
<glyph unicode="~" glyph-name="asciitilde" horiz-adv-x="1705" d="M1530 784V600Q1415 522 1333 494Q1235 459 1149 459Q1100 459 1057 467Q1002 477 958 494Q950 496 940 500T914 510T883 520Q671 594 563 594Q487 594 389 555Q303 520 178 434V621Q289 695
381 729Q471 764 565 764Q626 764 690 752Q766 738 858 705Q872 701 901 688Q1061 631 1151 631Q1235 631 1327 667T1530 784Z" />
<glyph unicode="&#xa0;" glyph-name="uni00A0" horiz-adv-x="1206" />
<glyph unicode="&#xa1;" glyph-name="exclamdown" horiz-adv-x="649" d="M485 1122L332 -39H111L266 1122H485ZM541 1419T541 1364T502 1272Q459 1233 408 1233Q353 1233 314 1270T274 1364Q274 1419 313 1458T407 1497T502 1458Z" />
<glyph unicode="&#xa2;" glyph-name="cent" horiz-adv-x="1206" d="M961 711Q920 750 860 780Q815 805 743 821L647 186Q704 188 772 215Q844 242 911 285L866 55Q823 30 756 14Q705 2 618 -2L586 -231H475L510 2Q335 30 233 150Q133 269 133 449Q133 695 276
848Q415 998 664 1016L692 1194H801L772 1008Q842 996 905 973Q954 955 1008 915L961 711ZM543 193L641 825Q510 807 434 709Q356 609 356 461Q356 352 403 283Q451 216 543 193Z" />
<glyph unicode="&#xa3;" glyph-name="sterling" horiz-adv-x="1206" d="M-4 88Q66 166 135 211T266 264Q295 307 311 360Q325 405 326 467Q326 506 324 528Q320 577 315 600H78L96 735H276Q247 794 231 868Q215 940 215 1008Q215 1207 356 1342T711 1477Q914 1477
1026 1364Q1141 1249 1141 1049V1018Q1141 1016 1140 1010T1139 999H924V1018Q924 1151 866 1221Q807 1293 702 1292Q587 1292 512 1210Q438 1130 438 1001Q438 927 483 778Q487 770 490 756T496 735H848L831 600H528V575Q528 479 504 401Q477 321 430 264Q520
252 637 203T795 154Q846 154 889 178Q936 205 981 256L1085 119Q1009 41 932 0Q856 -39 770 -39Q737 -39 690 -29Q663 -23 582 8Q576 10 564 16T532 29Q405 80 336 80Q278 80 225 55Q176 30 113 -25L-4 88Z" />
<glyph unicode="&#xa4;" glyph-name="currency" horiz-adv-x="1239" d="M741 1176T623 1176T418 1090T332 885Q332 764 416 680T622 596T829 680T913 885Q913 1004 827 1090ZM168 1430L371 1227Q426 1267 487 1288Q546 1308 620 1308T756 1288Q815 1268 872 1227L1075
1430L1169 1337L965 1133Q1002 1084 1024 1016Q1044 957 1044 885Q1044 811 1024 752Q999 684 965 637L1169 432L1075 340L872 545Q821 508 754 483Q695 463 623 463Q549 463 487 483Q428 503 371 545L168 340L76 432L279 637Q244 684 219 752Q199 811 199 885Q199
957 219 1016Q242 1084 279 1133L76 1337L168 1430Z" />
<glyph unicode="&#xa5;" glyph-name="yen" horiz-adv-x="1206" d="M410 0L485 578H-14L2 709H471L383 879H25L41 1010H311L84 1452H319L561 963L596 891Q602 879 611 857T623 829Q648 872 659 893Q688 938 707 965L1047 1452H1298L977 1010H1241L1225 879H877L752
709H1202L1184 578H702L625 0H410Z" />
<glyph unicode="&#xa6;" glyph-name="brokenbar" horiz-adv-x="1024" d="M424 408H602V-350H424V408ZM424 1432H602V674H424V1432Z" />
<glyph unicode="&#xa7;" glyph-name="section" horiz-adv-x="1138" d="M244 -94Q250 -174 297 -219Q343 -262 426 -262Q524 -262 575 -225T627 -119Q627 -37 385 111L354 129Q178 235 127 317Q74 401 74 522Q74 680 164 788Q252 894 416 932Q327 981 287 1042Q246
1105 246 1184Q246 1319 354 1409Q460 1497 639 1497Q803 1497 901 1399T999 1133H807L808 1137Q809 1141 809 1145V1157Q809 1235 756 1278Q705 1321 612 1321Q534 1321 489 1282Q442 1241 442 1184Q442 1080 659 979Q665 977 670 974T678 971Q846 891 920 797Q994
702 993 563Q993 397 903 289T647 150Q745 104 788 39Q831 -24 831 -117Q831 -269 725 -354Q614 -442 432 -442Q260 -442 158 -352T55 -111V-94H244ZM274 524Q274 422 344 358Q416 292 528 293Q639 293 717 371T795 563Q795 667 727 733Q661 796 553 797Q428 797
352 721Q274 643 274 524Z" />
<glyph unicode="&#xa8;" glyph-name="dieresis" horiz-adv-x="1024" d="M629 1257Q629 1302 665 1339T747 1376T831 1341Q868 1306 868 1257Q868 1206 834 1172T748 1137Q699 1137 664 1171T629 1257ZM291 1257Q291 1302 328 1339T410 1376T494 1341Q531 1306
530 1257Q530 1206 496 1172T410 1137Q361 1137 326 1171T291 1257Z" />
<glyph unicode="&#xa9;" glyph-name="copyright" horiz-adv-x="1705" d="M1206 903H1040Q1030 977 981 1018Q934 1057 850 1057Q750 1057 695 971T639 732T696 496T860 414Q940 414 989 457Q1036 498 1049 582H1214Q1208 449 1108 365Q1012 283 854 283Q670 283
564 401T457 725Q457 934 567 1057T858 1180Q1008 1180 1102 1104T1206 903ZM854 1362Q727 1362 610 1315Q499 1270 410 1180Q322 1088 272 973Q223 856 223 731Q223 600 270 492Q321 371 410 287Q494 199 614 147Q723 100 854 100Q980 100 1094 150Q1211 201 1303
289Q1393 379 1438 489Q1485 606 1485 731Q1485 858 1438 975Q1392 1089 1303 1178Q1207 1272 1098 1315Q981 1362 854 1362ZM852 1470Q1004 1470 1139 1415Q1270 1362 1378 1253Q1480 1151 1538 1014Q1593 882 1593 731Q1593 577 1538 444Q1481 309 1380 211Q1278
109 1135 47Q1002 -10 852 -10Q711 -10 571 47Q440 100 332 208T170 449Q113 588 113 731Q113 878 170 1012Q231 1153 334 1255Q432 1355 569 1415Q698 1470 852 1470Z" />
<glyph unicode="&#xaa;" glyph-name="ordfeminine" horiz-adv-x="882" d="M207 1112Q207 1016 254 963T385 909Q485 909 539 981Q594 1055 594 1182Q594 1268 545 1317Q494 1368 410 1368Q320 1368 262 1298Q207 1231 207 1112ZM705 801H543L555 874Q514 823 457
799Q402 774 332 774Q193 774 117 856T41 1090Q41 1270 133 1378T377 1487Q451 1487 510 1460Q567 1433 623 1376L637 1464H797L705 801Z" />
<glyph unicode="&#xab;" glyph-name="guillemotleft" horiz-adv-x="980" d="M432 477L797 897L915 797L625 465L829 129L696 45L432 477ZM37 477L401 897L522 797L229 465L436 129L303 45L37 477Z" />
<glyph unicode="&#xac;" glyph-name="logicalnot" horiz-adv-x="1705" d="M254 862H1452V360H1286V696H254V862Z" />
<glyph unicode="&#xad;" glyph-name="uni00AD" horiz-adv-x="749" d="M72 375L96 567H608L584 375H72Z" />
<glyph unicode="&#xae;" glyph-name="registered" horiz-adv-x="1705" d="M729 1047V786H846Q946 786 991 817Q1038 848 1038 913T989 1014Q942 1047 838 1047H729ZM551 1159H870Q1044 1159 1132 1102T1221 934Q1221 840 1174 784Q1121 723 1036 705L1221 330H1022L858
676H729V330H551V1159ZM854 1362Q723 1362 614 1317Q501 1270 414 1182Q320 1084 272 973Q223 856 223 731Q223 608 270 492Q316 378 406 289Q490 201 610 150Q724 101 844 100Q971 100 1090 147Q1211 194 1300 285Q1388 371 1438 483Q1485 592 1485 721Q1485 858
1440 969Q1395 1082 1305 1174Q1213 1266 1098 1315Q989 1362 854 1362ZM702 1470T851 1470T1141 1413Q1272 1360 1382 1249Q1478 1153 1538 1012Q1593 881 1593 731Q1593 579 1538 444Q1483 311 1376 207Q1265 101 1133 45Q998 -10 852 -10Q702 -10 569 47T328
213Q224 321 168 453Q113 586 113 731Q113 881 170 1016T336 1260Q440 1364 571 1417Z" />
<glyph unicode="&#xaf;" glyph-name="overscore" horiz-adv-x="1024" d="M295 1182L313 1329H864L846 1182H295Z" />
<glyph unicode="&#xb0;" glyph-name="degree" horiz-adv-x="673" d="M338 1350Q260 1350 207 1296Q152 1241 152 1166T207 1035T338 979Q418 979 469 1034Q522 1091 522 1165T469 1296Q418 1350 338 1350ZM338 1460Q459 1460 547 1372Q633 1286 633 1163T547 954T336
868Q213 868 127 954Q43 1038 43 1163T129 1374T338 1460Z" />
<glyph unicode="&#xb1;" glyph-name="plusminus" horiz-adv-x="1705" d="M254 182H1452V14H254V182ZM768 1206H938V872H1452V707H938V373H768V707H254V872H768V1206Z" />
<glyph unicode="&#xb2;" glyph-name="uni00B2" horiz-adv-x="796" d="M-6 575L379 928Q514 1051 551 1106T588 1217Q588 1280 545 1317Q504 1352 422 1352Q348 1352 301 1307Q254 1264 248 1186H100Q106 1315 194 1388T436 1462Q581 1462 659 1399Q739 1336 739
1225Q739 1135 682 1051Q623 965 408 776L313 694H674L647 575H-6Z" />
<glyph unicode="&#xb3;" glyph-name="uni00B3" horiz-adv-x="796" d="M203 807V801Q203 744 246 707T356 670Q442 670 493 715T545 834Q545 902 494 934Q441 969 344 969H319L336 1077H369Q467 1077 520 1116Q575 1155 575 1225Q575 1280 535 1315Q496 1348 424
1348Q361 1348 317 1317Q276 1288 264 1229H121Q139 1342 221 1401Q304 1462 430 1462Q559 1462 641 1403Q721 1344 721 1247Q721 1163 668 1104Q613 1043 522 1022Q604 999 649 944Q692 893 692 813Q692 700 598 627Q503 553 352 553Q213 553 133 621Q51 691 51
807H203Z" />
<glyph unicode="&#xb4;" glyph-name="acute" horiz-adv-x="1024" d="M535 1092H403L625 1442H838L535 1092Z" />
<glyph unicode="&#xb5;" glyph-name="uni00B5" horiz-adv-x="1206" d="M205 1081H434L309 446Q301 411 299 391Q297 375 297 342Q297 246 344 195Q390 146 479 145Q602 145 672 233Q746 325 784 526L893 1081H1118L973 342Q959 270 958 260Q954 215 954 209Q954
172 968 158T1022 143H1042Q1044 143 1049 144T1057 145L1024 -14Q993 -23 956 -27Q907 -31 874 -31Q798 -31 762 0T725 94V109Q686 41 616 4Q548 -33 471 -33T334 -6Q273 21 236 76L137 -430H-92L205 1081Z" />
<glyph unicode="&#xb6;" glyph-name="paragraph" horiz-adv-x="1024" d="M969 1479V1380H852V0H723V1380H555V0H424V784Q256 790 156 884T55 1130Q55 1290 161 1384T446 1479H969Z" />
<glyph unicode="&#xb7;" glyph-name="middot" horiz-adv-x="602" d="M170 721Q170 774 209 813T301 852T393 813T432 721Q432 672 393 629Q356 590 301 590T209 629Q170 672 170 721Z" />
<glyph unicode="&#xb8;" glyph-name="cedilla" horiz-adv-x="1024" d="M102 -426L145 -315Q198 -333 268 -350Q323 -362 369 -362Q424 -362 455 -338Q488 -311 487 -272Q487 -231 451 -213Q418 -197 326 -197H287L356 0H446L412 -94H420Q533 -94 590 -137T647
-264Q647 -366 582 -422Q514 -479 397 -479Q340 -479 270 -467Q211 -457 102 -426Z" />
<glyph unicode="&#xb9;" glyph-name="uni00B9" horiz-adv-x="798" d="M313 575L422 1329H231L301 1446H588L461 575H313Z" />
<glyph unicode="&#xba;" glyph-name="ordmasculine" horiz-adv-x="876" d="M438 1356Q329 1356 262 1284T195 1100Q195 1010 246 959T385 907Q494 907 563 977Q631 1045 631 1161Q631 1255 582 1305Q530 1356 438 1356ZM436 1489Q602 1489 702 1399Q800 1311 801
1157Q801 988 684 881Q569 775 385 774Q223 774 127 862Q29 950 29 1100Q29 1272 143 1380T436 1489Z" />
<glyph unicode="&#xbb;" glyph-name="guillemotright" horiz-adv-x="980" d="M485 467L121 45L0 147L293 479L86 815L219 897L485 467ZM879 467L514 45L393 147L686 479L479 815L612 897L879 467Z" />
<glyph unicode="&#xbc;" glyph-name="onequarter" horiz-adv-x="1865" d="M1548 281L1585 496L1586 500Q1587 504 1587 506Q1599 574 1604 586Q1596 576 1585 564T1567 543T1556 530Q1544 514 1534 508L1313 281H1548ZM1503 0L1530 176H1077V195L1716 827H1761L1681
281H1786L1772 176H1665L1638 0H1503ZM420 -39L1286 1479H1444L573 -39H420ZM299 633L403 1335H221L287 1444H559L438 633H299Z" />
<glyph unicode="&#xbd;" glyph-name="onehalf" horiz-adv-x="1865" d="M1098 0L1466 330Q1593 441 1628 494Q1665 549 1665 598Q1665 655 1624 690Q1585 723 1507 723Q1435 723 1393 682T1339 569H1200Q1206 692 1290 760Q1372 828 1520 827Q1655 827 1732 768T1810
606Q1810 526 1755 446Q1698 362 1493 188L1403 111H1747L1722 0H1098ZM420 -39L1286 1479H1444L573 -39H420ZM299 633L403 1335H221L287 1444H559L438 633H299Z" />
<glyph unicode="&#xbe;" glyph-name="threequarters" horiz-adv-x="1863" d="M1548 281L1585 496L1586 500Q1587 504 1587 506Q1599 574 1604 586Q1596 576 1585 564T1567 543T1556 530Q1544 514 1534 508L1313 281H1548ZM1503 0L1530 176H1077V195L1716 827H1761L1681
281H1786L1772 176H1665L1638 0H1503ZM420 -39L1286 1479H1444L573 -39H420ZM195 850V842Q195 791 235 756T340 721Q422 721 471 764T520 874Q520 935 471 967Q418 1000 328 999H305L319 1102L325 1101Q330 1100 332 1100H350Q442 1100 495 1137T549 1239Q549 1292
512 1323T403 1354Q340 1354 303 1325Q264 1294 252 1241H117Q133 1343 211 1401Q293 1460 410 1460Q536 1460 612 1405T688 1260Q688 1182 639 1127T500 1049Q584 1022 621 977Q662 926 662 856Q662 747 571 682Q477 612 336 612Q203 612 127 676Q49 742 49 850H195Z"
/>
<glyph unicode="&#xbf;" glyph-name="questiondown" horiz-adv-x="1062" d="M770 1364Q770 1307 731 1270T637 1233T543 1270T504 1364Q504 1419 543 1458T637 1497T731 1458T770 1364ZM205 821Q223 975 311 1057T548 1139T790 1059T883 850Q883 733 827 657Q776
585 604 500Q602 500 590 494T569 483Q333 366 334 262Q334 209 377 172T487 135Q558 135 604 178Q649 221 659 299H858Q846 143 743 53Q639 -39 475 -39Q309 -39 217 45Q121 131 121 272Q121 362 180 438Q239 512 369 582L459 629Q682 746 682 834Q682 887 647
922Q614 955 553 954Q494 954 455 920Q420 887 410 821H205Z" />
<glyph unicode="&#xc0;" glyph-name="Agrave" horiz-adv-x="1275" d="M-113 0L735 1522L1270 0H1032L913 346H330L137 0H-113ZM422 541H850L737 903Q733 911 721 973Q705 1047 698 1085L655 987Q626 926 612 899L422 541ZM878 1608H762L458 1958H671L878 1608Z" />
<glyph unicode="&#xc1;" glyph-name="Aacute" horiz-adv-x="1275" d="M-113 0L735 1522L1270 0H1032L913 346H330L137 0H-113ZM422 541H850L737 903Q733 911 721 973Q705 1047 698 1085L655 987Q626 926 612 899L422 541ZM717 1608H585L807 1958H1020L717 1608Z" />
<glyph unicode="&#xc2;" glyph-name="Acircumflex" horiz-adv-x="1275" d="M-113 0L735 1522L1270 0H1032L913 346H330L137 0H-113ZM422 541H850L737 903Q733 911 721 973Q705 1047 698 1085L655 987Q626 926 612 899L422 541ZM1018 1608H901L770 1808L553 1608H424L678
1958H891L1018 1608Z" />
<glyph unicode="&#xc3;" glyph-name="Atilde" horiz-adv-x="1275" d="M-113 0L735 1522L1270 0H1032L913 346H330L137 0H-113ZM422 541H850L737 903Q733 911 721 973Q705 1047 698 1085L655 987Q626 926 612 899L422 541ZM1065 1905Q1034 1792 983 1741Q930 1688
854 1687Q829 1687 815 1690Q805 1692 774 1700L714 1718Q706 1720 694 1723T680 1726Q672 1728 657 1728Q622 1728 602 1708Q577 1683 567 1649H458Q489 1762 540 1812Q593 1865 671 1866Q683 1866 712 1862T755 1853L813 1837Q815 1837 818 1836T824 1834T831
1833Q864 1825 866 1825Q901 1825 921 1845Q946 1870 956 1905H1065Z" />
<glyph unicode="&#xc4;" glyph-name="Adieresis" horiz-adv-x="1275" d="M-113 0L735 1522L1270 0H1032L913 346H330L137 0H-113ZM422 541H850L737 903Q733 911 721 973Q705 1047 698 1085L655 987Q626 926 612 899L422 541ZM811 1773Q811 1818 847 1855T929 1892T1013
1857Q1050 1822 1050 1773Q1050 1722 1016 1688T930 1653Q881 1653 846 1687T811 1773ZM473 1773Q473 1818 510 1855T592 1892T676 1857Q713 1822 712 1773Q712 1722 678 1688T592 1653Q543 1653 508 1687T473 1773Z" />
<glyph unicode="&#xc5;" glyph-name="Aring" horiz-adv-x="1275" d="M623 1739Q623 1692 657 1657T739 1622T821 1657Q854 1690 854 1739T821 1820T739 1853Q692 1853 658 1819T623 1739ZM504 1739Q504 1835 573 1905Q641 1973 739 1973T905 1905T973 1739Q973
1639 906 1571T739 1503Q641 1503 573 1571Q504 1641 504 1739ZM-113 0L707 1462H754L1270 0H1032L913 346H330L137 0H-113ZM422 541H850L737 903Q733 911 721 973Q705 1047 698 1085L655 987Q626 926 612 899L422 541Z" />
<glyph unicode="&#xc6;" glyph-name="AE" horiz-adv-x="1773" d="M-109 0L705 1464H1452L1497 1257H961L1042 889H1579L1626 684H1087L1192 211H1731L1776 0H1014L938 346H342L156 0H-109ZM895 541L788 1014L772 1102Q768 1120 763 1144T754 1196L711 1096Q680
1024 672 1008L438 541H895Z" />
<glyph unicode="&#xc7;" glyph-name="Ccedilla" horiz-adv-x="1372" d="M1337 1368L1300 1118Q1212 1208 1116 1251Q1018 1294 899 1294Q772 1294 676 1253Q574 1210 502 1133Q416 1041 371 924T326 678Q326 453 465 309Q602 168 823 168Q927 168 1034 207Q1130
242 1231 319L1180 39Q1071 -4 987 -20Q895 -38 811 -39Q489 -39 295 156Q98 353 98 670Q98 844 160 1004Q219 1160 338 1278Q447 1387 584 1442Q722 1497 879 1497Q1014 1497 1135 1464Q1245 1434 1337 1368ZM450 -426L493 -315Q546 -333 616 -350Q671 -362 717
-362Q772 -362 803 -338Q836 -311 835 -272Q835 -231 799 -213Q766 -197 674 -197H635L704 0H794L760 -94H768Q881 -94 938 -137T995 -264Q995 -366 930 -422Q862 -479 745 -479Q688 -479 618 -467Q559 -457 450 -426Z" />
<glyph unicode="&#xc8;" glyph-name="Egrave" horiz-adv-x="1112" d="M70 0L262 1464H1083L1057 1257H463L416 889H1008L981 684H387L326 211H920L891 0H70ZM839 1608H723L419 1958H632L839 1608Z" />
<glyph unicode="&#xc9;" glyph-name="Eacute" horiz-adv-x="1112" d="M70 0L262 1464H1083L1057 1257H463L416 889H1008L981 684H387L326 211H920L891 0H70ZM678 1608H546L768 1958H981L678 1608Z" />
<glyph unicode="&#xca;" glyph-name="Ecircumflex" horiz-adv-x="1112" d="M70 0L262 1464H1083L1057 1257H463L416 889H1008L981 684H387L326 211H920L891 0H70ZM979 1608H862L731 1808L514 1608H385L639 1958H852L979 1608Z" />
<glyph unicode="&#xcb;" glyph-name="Edieresis" horiz-adv-x="1112" d="M70 0L262 1464H1083L1057 1257H463L416 889H1008L981 684H387L326 211H920L891 0H70ZM772 1773Q772 1818 808 1855T890 1892T974 1857Q1011 1822 1011 1773Q1011 1722 977 1688T891 1653Q842
1653 807 1687T772 1773ZM434 1773Q434 1818 471 1855T553 1892T637 1857Q674 1822 673 1773Q673 1722 639 1688T553 1653Q504 1653 469 1687T434 1773Z" />
<glyph unicode="&#xcc;" glyph-name="Igrave" horiz-adv-x="567" d="M72 0L264 1464H498L303 0H72ZM542 1608H426L122 1958H335L542 1608Z" />
<glyph unicode="&#xcd;" glyph-name="Iacute" horiz-adv-x="567" d="M72 0L264 1464H498L303 0H72ZM381 1608H249L471 1958H684L381 1608Z" />
<glyph unicode="&#xce;" glyph-name="Icircumflex" horiz-adv-x="567" d="M72 0L264 1464H498L303 0H72ZM682 1608H565L434 1808L217 1608H88L342 1958H555L682 1608Z" />
<glyph unicode="&#xcf;" glyph-name="Idieresis" horiz-adv-x="567" d="M72 0L264 1464H498L303 0H72ZM475 1773Q475 1818 511 1855T593 1892T677 1857Q714 1822 714 1773Q714 1722 680 1688T594 1653Q545 1653 510 1687T475 1773ZM137 1773Q137 1818 174 1855T256
1892T340 1857Q377 1822 376 1773Q376 1722 342 1688T256 1653Q207 1653 172 1687T137 1773Z" />
<glyph unicode="&#xd0;" glyph-name="Eth" horiz-adv-x="1507" d="M348 209H432Q676 209 784 231Q886 251 963 309Q1067 385 1120 504Q1175 627 1176 772Q1176 901 1130 999Q1083 1101 1001 1163Q935 1214 854 1235Q774 1255 586 1255H485L436 889H834L811 719H414L348
209ZM92 0L186 719H-16L6 889H211L287 1464H596Q840 1464 956 1434Q1069 1403 1167 1331Q1284 1245 1350 1100Q1413 961 1413 782Q1413 626 1364 485T1223 240Q1160 168 1075 115Q989 62 897 35Q838 19 760 8Q694 0 582 0H440H92Z" />
<glyph unicode="&#xd1;" glyph-name="Ntilde" horiz-adv-x="1622" d="M70 0L268 1522L1067 606Q1120 545 1145 512L1210 422Q1210 451 1214 520Q1216 538 1229 649L1339 1464H1554L1356 -57L555 858Q524 893 469 963Q436 1004 412 1044Q408 964 391 836Q389 822
389 815L285 0H70ZM1256 1905Q1225 1792 1174 1741Q1121 1688 1045 1687Q1020 1687 1006 1690Q996 1692 965 1700L905 1718Q897 1720 885 1723T871 1726Q863 1728 848 1728Q813 1728 793 1708Q768 1683 758 1649H649Q680 1762 731 1812Q784 1865 862 1866Q874 1866
903 1862T946 1853L1004 1837Q1006 1837 1009 1836T1015 1834T1022 1833Q1055 1825 1057 1825Q1092 1825 1112 1845Q1137 1870 1147 1905H1256Z" />
<glyph unicode="&#xd2;" glyph-name="Ograve" horiz-adv-x="1742" d="M1415 780Q1415 1011 1274 1152T903 1294Q790 1294 686 1251Q584 1208 506 1128Q422 1044 373 924Q326 807 326 682Q326 455 465 312T825 168Q1075 168 1245 344T1415 780ZM915 1499Q1249 1499
1448 1305Q1645 1110 1645 784Q1645 606 1581 455Q1515 299 1397 186Q1284 80 1130 20Q983 -37 809 -37Q492 -37 295 159T98 674Q98 854 162 1008Q225 1164 342 1276Q453 1385 602 1442Q749 1499 915 1499ZM1099 1608H983L679 1958H892L1099 1608Z" />
<glyph unicode="&#xd3;" glyph-name="Oacute" horiz-adv-x="1742" d="M1415 780Q1415 1011 1274 1152T903 1294Q790 1294 686 1251Q584 1208 506 1128Q422 1044 373 924Q326 807 326 682Q326 455 465 312T825 168Q1075 168 1245 344T1415 780ZM915 1499Q1249 1499
1448 1305Q1645 1110 1645 784Q1645 606 1581 455Q1515 299 1397 186Q1284 80 1130 20Q983 -37 809 -37Q492 -37 295 159T98 674Q98 854 162 1008Q225 1164 342 1276Q453 1385 602 1442Q749 1499 915 1499ZM938 1608H806L1028 1958H1241L938 1608Z" />
<glyph unicode="&#xd4;" glyph-name="Ocircumflex" horiz-adv-x="1742" d="M1415 780Q1415 1011 1274 1152T903 1294Q790 1294 686 1251Q584 1208 506 1128Q422 1044 373 924Q326 807 326 682Q326 455 465 312T825 168Q1075 168 1245 344T1415 780ZM915 1499Q1249
1499 1448 1305Q1645 1110 1645 784Q1645 606 1581 455Q1515 299 1397 186Q1284 80 1130 20Q983 -37 809 -37Q492 -37 295 159T98 674Q98 854 162 1008Q225 1164 342 1276Q453 1385 602 1442Q749 1499 915 1499ZM1239 1608H1122L991 1808L774 1608H645L899 1958H1112L1239
1608Z" />
<glyph unicode="&#xd5;" glyph-name="Otilde" horiz-adv-x="1742" d="M1415 780Q1415 1011 1274 1152T903 1294Q790 1294 686 1251Q584 1208 506 1128Q422 1044 373 924Q326 807 326 682Q326 455 465 312T825 168Q1075 168 1245 344T1415 780ZM915 1499Q1249 1499
1448 1305Q1645 1110 1645 784Q1645 606 1581 455Q1515 299 1397 186Q1284 80 1130 20Q983 -37 809 -37Q492 -37 295 159T98 674Q98 854 162 1008Q225 1164 342 1276Q453 1385 602 1442Q749 1499 915 1499ZM1286 1905Q1255 1792 1204 1741Q1151 1688 1075 1687Q1050
1687 1036 1690Q1026 1692 995 1700L935 1718Q927 1720 915 1723T901 1726Q893 1728 878 1728Q843 1728 823 1708Q798 1683 788 1649H679Q710 1762 761 1812Q814 1865 892 1866Q904 1866 933 1862T976 1853L1034 1837Q1036 1837 1039 1836T1045 1834T1052 1833Q1085
1825 1087 1825Q1122 1825 1142 1845Q1167 1870 1177 1905H1286Z" />
<glyph unicode="&#xd6;" glyph-name="Odieresis" horiz-adv-x="1742" d="M1415 780Q1415 1011 1274 1152T903 1294Q790 1294 686 1251Q584 1208 506 1128Q422 1044 373 924Q326 807 326 682Q326 455 465 312T825 168Q1075 168 1245 344T1415 780ZM915 1499Q1249
1499 1448 1305Q1645 1110 1645 784Q1645 606 1581 455Q1515 299 1397 186Q1284 80 1130 20Q983 -37 809 -37Q492 -37 295 159T98 674Q98 854 162 1008Q225 1164 342 1276Q453 1385 602 1442Q749 1499 915 1499ZM1032 1773Q1032 1818 1068 1855T1150 1892T1234
1857Q1271 1822 1271 1773Q1271 1722 1237 1688T1151 1653Q1102 1653 1067 1687T1032 1773ZM694 1773Q694 1818 731 1855T813 1892T897 1857Q934 1822 933 1773Q933 1722 899 1688T813 1653Q764 1653 729 1687T694 1773Z" />
<glyph unicode="&#xd7;" glyph-name="multiply" horiz-adv-x="1705" d="M403 1188L862 729L1323 1188L1440 1071L981 610L1440 152L1323 33L862 494L403 33L287 152L745 610L287 1071L403 1188Z" />
<glyph unicode="&#xd8;" glyph-name="Oslash" horiz-adv-x="1742" d="M63 63L233 227Q163 325 131 432T98 680Q98 862 159 1015T342 1284Q455 1395 602 1448Q758 1505 926 1505Q1073 1505 1190 1466Q1313 1425 1401 1352L1556 1503L1657 1386L1505 1243Q1571 1151
1608 1032Q1643 917 1642 786Q1642 610 1579 453Q1518 301 1397 182Q1283 74 1133 16Q986 -41 807 -41Q666 -41 551 -2T338 117L164 -51L63 63ZM502 274Q568 219 645 195Q731 168 827 168Q1079 168 1249 344Q1417 518 1417 782Q1417 868 1397 938Q1374 1018 1337
1079L502 274ZM401 391L1237 1194Q1165 1247 1085 1272Q999 1299 909 1298Q663 1298 494 1120Q326 944 326 680Q326 597 344 526Q360 463 401 391Z" />
<glyph unicode="&#xd9;" glyph-name="Ugrave" horiz-adv-x="1478" d="M477 1464L365 614Q357 551 354 528Q352 501 352 461Q352 320 432 246T662 172Q773 172 852 209Q936 248 989 322Q1063 420 1094 676L1100 719L1198 1464H1427L1319 641Q1292 434 1257 338Q1223
243 1165 172Q1079 68 944 12Q813 -41 637 -41Q391 -41 256 84Q125 207 125 442Q125 505 133 588Q143 684 158 795L246 1464H477ZM999 1608H883L579 1958H792L999 1608Z" />
<glyph unicode="&#xda;" glyph-name="Uacute" horiz-adv-x="1478" d="M477 1464L365 614Q357 551 354 528Q352 501 352 461Q352 320 432 246T662 172Q773 172 852 209Q936 248 989 322Q1063 420 1094 676L1100 719L1198 1464H1427L1319 641Q1292 434 1257 338Q1223
243 1165 172Q1079 68 944 12Q813 -41 637 -41Q391 -41 256 84Q125 207 125 442Q125 505 133 588Q143 684 158 795L246 1464H477ZM838 1608H706L928 1958H1141L838 1608Z" />
<glyph unicode="&#xdb;" glyph-name="Ucircumflex" horiz-adv-x="1478" d="M477 1464L365 614Q357 551 354 528Q352 501 352 461Q352 320 432 246T662 172Q773 172 852 209Q936 248 989 322Q1063 420 1094 676L1100 719L1198 1464H1427L1319 641Q1292 434 1257
338Q1223 243 1165 172Q1079 68 944 12Q813 -41 637 -41Q391 -41 256 84Q125 207 125 442Q125 505 133 588Q143 684 158 795L246 1464H477ZM1139 1608H1022L891 1808L674 1608H545L799 1958H1012L1139 1608Z" />
<glyph unicode="&#xdc;" glyph-name="Udieresis" horiz-adv-x="1478" d="M477 1464L365 614Q357 551 354 528Q352 501 352 461Q352 320 432 246T662 172Q773 172 852 209Q936 248 989 322Q1063 420 1094 676L1100 719L1198 1464H1427L1319 641Q1292 434 1257 338Q1223
243 1165 172Q1079 68 944 12Q813 -41 637 -41Q391 -41 256 84Q125 207 125 442Q125 505 133 588Q143 684 158 795L246 1464H477ZM932 1773Q932 1818 968 1855T1050 1892T1134 1857Q1171 1822 1171 1773Q1171 1722 1137 1688T1051 1653Q1002 1653 967 1687T932
1773ZM594 1773Q594 1818 631 1855T713 1892T797 1857Q834 1822 833 1773Q833 1722 799 1688T713 1653Q664 1653 629 1687T594 1773Z" />
<glyph unicode="&#xdd;" glyph-name="Yacute" horiz-adv-x="1202" d="M51 1464H299L543 973Q553 955 582 885Q592 858 598 844Q625 891 633 903L684 979L1018 1464H1280L694 651L608 0H377L465 659L51 1464ZM699 1608H567L789 1958H1002L699 1608Z" />
<glyph unicode="&#xde;" glyph-name="Thorn" horiz-adv-x="1122" d="M371 547H449Q664 547 741 598Q821 650 821 776Q821 885 754 928T500 971H426L371 547ZM504 1180Q701 1180 776 1159Q854 1139 915 1090Q978 1041 1018 961Q1053 889 1053 788Q1053 677 1012
586Q973 498 893 434Q834 385 741 362Q651 339 465 340H399H344L299 0H70L262 1464H492L451 1180H504Z" />
<glyph unicode="&#xdf;" glyph-name="germandbls" horiz-adv-x="1206" d="M55 0L156 768H63L88 948H180L201 1110Q232 1350 342 1460T662 1571Q865 1571 983 1473Q1104 1375 1104 1208Q1104 1056 1010 963Q918 871 745 848Q919 817 1007 717T1096 444Q1096 239
950 106Q803 -29 584 -29Q539 -29 489 -23Q448 -17 379 0L420 190Q459 176 502 166Q535 158 571 158Q704 158 793 246Q877 330 877 473Q877 620 789 694T526 768H492L514 948Q518 948 525 947T537 946H571Q725 946 807 1009T889 1194Q889 1290 829 1343Q768 1398
670 1399Q549 1399 492 1330T410 1067L270 0H55Z" />
<glyph unicode="&#xe0;" glyph-name="agrave" horiz-adv-x="1175" d="M276 444Q276 307 339 232T514 156Q647 156 719 258Q793 362 793 543Q793 666 725 739Q659 811 545 811Q422 811 348 713Q276 616 276 444ZM938 0H723L739 104Q682 30 610 -2Q534 -37 442 -37Q255
-37 154 80Q54 195 53 414Q53 669 176 825T502 981Q598 981 678 942Q762 901 829 821L848 948H1063L938 0ZM790 1092H674L370 1442H583L790 1092Z" />
<glyph unicode="&#xe1;" glyph-name="aacute" horiz-adv-x="1175" d="M276 444Q276 307 339 232T514 156Q647 156 719 258Q793 362 793 543Q793 666 725 739Q659 811 545 811Q422 811 348 713Q276 616 276 444ZM938 0H723L739 104Q682 30 610 -2Q534 -37 442 -37Q255
-37 154 80Q54 195 53 414Q53 669 176 825T502 981Q598 981 678 942Q762 901 829 821L848 948H1063L938 0ZM629 1092H497L719 1442H932L629 1092Z" />
<glyph unicode="&#xe2;" glyph-name="acircumflex" horiz-adv-x="1175" d="M276 444Q276 307 339 232T514 156Q647 156 719 258Q793 362 793 543Q793 666 725 739Q659 811 545 811Q422 811 348 713Q276 616 276 444ZM938 0H723L739 104Q682 30 610 -2Q534 -37
442 -37Q255 -37 154 80Q54 195 53 414Q53 669 176 825T502 981Q598 981 678 942Q762 901 829 821L848 948H1063L938 0ZM930 1092H813L682 1292L465 1092H336L590 1442H803L930 1092Z" />
<glyph unicode="&#xe3;" glyph-name="atilde" horiz-adv-x="1175" d="M276 444Q276 307 339 232T514 156Q647 156 719 258Q793 362 793 543Q793 666 725 739Q659 811 545 811Q422 811 348 713Q276 616 276 444ZM938 0H723L739 104Q682 30 610 -2Q534 -37 442 -37Q255
-37 154 80Q54 195 53 414Q53 669 176 825T502 981Q598 981 678 942Q762 901 829 821L848 948H1063L938 0ZM977 1389Q946 1276 895 1225Q842 1172 766 1171Q741 1171 727 1174Q717 1176 686 1184L626 1202Q618 1204 606 1207T592 1210Q584 1212 569 1212Q534 1212
514 1192Q489 1167 479 1133H370Q401 1246 452 1296Q505 1349 583 1350Q595 1350 624 1346T667 1337L725 1321Q727 1321 730 1320T736 1318T743 1317Q776 1309 778 1309Q813 1309 833 1329Q858 1354 868 1389H977Z" />
<glyph unicode="&#xe4;" glyph-name="adieresis" horiz-adv-x="1175" d="M276 444Q276 307 339 232T514 156Q647 156 719 258Q793 362 793 543Q793 666 725 739Q659 811 545 811Q422 811 348 713Q276 616 276 444ZM938 0H723L739 104Q682 30 610 -2Q534 -37 442
-37Q255 -37 154 80Q54 195 53 414Q53 669 176 825T502 981Q598 981 678 942Q762 901 829 821L848 948H1063L938 0ZM723 1257Q723 1302 759 1339T841 1376T925 1341Q962 1306 962 1257Q962 1206 928 1172T842 1137Q793 1137 758 1171T723 1257ZM385 1257Q385 1302
422 1339T504 1376T588 1341Q625 1306 624 1257Q624 1206 590 1172T504 1137Q455 1137 420 1171T385 1257Z" />
<glyph unicode="&#xe5;" glyph-name="aring" horiz-adv-x="1175" d="M500 1278Q500 1231 534 1196T614 1161Q663 1161 696 1194T729 1278Q729 1327 697 1360T615 1393T533 1360T500 1278ZM381 1278Q381 1376 448 1443T614 1511T780 1444T848 1278Q848 1178 781
1110T614 1042Q516 1042 449 1110T381 1278ZM938 0H723L739 104Q682 30 610 -2Q534 -37 442 -37Q255 -37 154 80Q54 195 53 414Q53 669 176 825T502 981Q596 981 682 940Q766 899 829 821L848 948H1063L938 0ZM276 444Q276 307 339 232T514 156Q647 156 719 258Q793
362 793 543Q793 666 725 739Q659 811 545 811Q422 811 348 713Q276 616 276 444Z" />
<glyph unicode="&#xe6;" glyph-name="ae" horiz-adv-x="1734" d="M911 588H1401Q1397 686 1342 741T1190 797Q1081 797 1008 742T911 588ZM459 442Q357 442 302 399T246 281Q246 209 299 170Q356 129 451 129Q564 129 623 170Q684 213 684 286T625 401T459 442ZM1389
291L1544 170Q1458 59 1362 12Q1262 -37 1130 -37Q1016 -37 922 6Q826 49 764 127Q692 43 604 2Q520 -37 406 -37Q232 -37 129 47Q29 129 29 279Q29 431 135 516Q243 602 436 602Q516 602 590 575Q651 552 698 500Q702 537 702 551Q702 559 703 575T705 598Q705
713 655 760Q604 807 485 807Q417 807 338 784Q256 761 178 721L203 928Q295 959 362 969Q448 983 500 983Q627 983 715 942Q799 903 834 825Q887 895 985 940Q1081 983 1192 983Q1392 983 1505 866Q1620 747 1620 545V485Q1620 469 1616 436H893Q893 305 956 230T1130
154Q1206 154 1274 190Q1340 225 1389 291Z" />
<glyph unicode="&#xe7;" glyph-name="ccedilla" horiz-adv-x="956" d="M870 678Q805 733 735 764Q669 793 592 793Q449 793 356 690Q264 589 264 426Q264 299 331 226T518 152Q589 152 666 176Q736 199 819 252L774 23Q721 -6 649 -23Q579 -39 512 -39Q301 -39
170 88Q41 213 41 424Q41 668 195 825Q349 981 594 981Q684 981 764 956Q840 933 915 883L870 678ZM141 -426L184 -315Q237 -333 307 -350Q362 -362 408 -362Q463 -362 494 -338Q527 -311 526 -272Q526 -231 490 -213Q457 -197 365 -197H326L395 0H485L451 -94H459Q572
-94 629 -137T686 -264Q686 -366 621 -422Q553 -479 436 -479Q379 -479 309 -467Q250 -457 141 -426Z" />
<glyph unicode="&#xe8;" glyph-name="egrave" horiz-adv-x="1101" d="M283 588H772Q770 684 713 739Q658 794 561 795Q452 795 379 740T283 588ZM760 291L915 170Q827 57 735 10Q637 -39 512 -39Q297 -39 170 88Q41 217 41 424Q41 670 190 825T571 981Q766 981
879 862Q994 741 993 541Q993 535 992 522T991 498Q991 484 987 434H264Q264 307 329 230T502 152Q578 152 645 188Q709 223 760 291ZM727 1092H611L307 1442H520L727 1092Z" />
<glyph unicode="&#xe9;" glyph-name="eacute" horiz-adv-x="1101" d="M283 588H772Q770 684 713 739Q658 794 561 795Q452 795 379 740T283 588ZM760 291L915 170Q827 57 735 10Q637 -39 512 -39Q297 -39 170 88Q41 217 41 424Q41 670 190 825T571 981Q766 981
879 862Q994 741 993 541Q993 535 992 522T991 498Q991 484 987 434H264Q264 307 329 230T502 152Q578 152 645 188Q709 223 760 291ZM566 1092H434L656 1442H869L566 1092Z" />
<glyph unicode="&#xea;" glyph-name="ecircumflex" horiz-adv-x="1101" d="M283 588H772Q770 684 713 739Q658 794 561 795Q452 795 379 740T283 588ZM760 291L915 170Q827 57 735 10Q637 -39 512 -39Q297 -39 170 88Q41 217 41 424Q41 670 190 825T571 981Q766
981 879 862Q994 741 993 541Q993 535 992 522T991 498Q991 484 987 434H264Q264 307 329 230T502 152Q578 152 645 188Q709 223 760 291ZM867 1092H750L619 1292L402 1092H273L527 1442H740L867 1092Z" />
<glyph unicode="&#xeb;" glyph-name="edieresis" horiz-adv-x="1101" d="M283 588H772Q770 684 713 739Q658 794 561 795Q452 795 379 740T283 588ZM760 291L915 170Q827 57 735 10Q637 -39 512 -39Q297 -39 170 88Q41 217 41 424Q41 670 190 825T571 981Q766
981 879 862Q994 741 993 541Q993 535 992 522T991 498Q991 484 987 434H264Q264 307 329 230T502 152Q578 152 645 188Q709 223 760 291ZM660 1257Q660 1302 696 1339T778 1376T862 1341Q899 1306 899 1257Q899 1206 865 1172T779 1137Q730 1137 695 1171T660
1257ZM322 1257Q322 1302 359 1339T441 1376T525 1341Q562 1306 561 1257Q561 1206 527 1172T441 1137Q392 1137 357 1171T322 1257Z" />
<glyph unicode="&#xec;" glyph-name="igrave" horiz-adv-x="524" d="M61 0L186 948H401L276 0H61ZM456 1092H340L36 1442H249L456 1092Z" />
<glyph unicode="&#xed;" glyph-name="iacute" horiz-adv-x="524" d="M61 0L186 948H401L276 0H61ZM295 1092H163L385 1442H598L295 1092Z" />
<glyph unicode="&#xee;" glyph-name="icircumflex" horiz-adv-x="524" d="M61 0L186 948H401L276 0H61ZM596 1092H479L348 1292L131 1092H2L256 1442H469L596 1092Z" />
<glyph unicode="&#xef;" glyph-name="idieresis" horiz-adv-x="524" d="M61 0L186 948H401L276 0H61ZM389 1257Q389 1302 425 1339T507 1376T591 1341Q628 1306 628 1257Q628 1206 594 1172T508 1137Q459 1137 424 1171T389 1257ZM51 1257Q51 1302 88 1339T170
1376T254 1341Q291 1306 290 1257Q290 1206 256 1172T170 1137Q121 1137 86 1171T51 1257Z" />
<glyph unicode="&#xf0;" glyph-name="eth" horiz-adv-x="1167" d="M571 721Q432 721 346 631T260 395Q260 280 329 215T518 150Q659 150 748 233Q834 315 834 459Q834 586 766 653T571 721ZM881 762Q875 873 844 977Q813 1079 754 1174L449 1104L416 1217L686
1280L600 1362Q563 1397 522 1423L670 1546Q727 1507 788 1450Q841 1399 897 1329L1143 1386L1178 1274L961 1223Q1024 1114 1055 977Q1088 834 1087 676Q1087 332 940 146T522 -41Q305 -41 168 80Q33 201 33 397Q33 618 178 759T555 901Q659 901 741 867T881 762Z"
/>
<glyph unicode="&#xf1;" glyph-name="ntilde" horiz-adv-x="1179" d="M735 0L807 545Q811 565 811 575V625Q811 721 766 768Q721 817 635 817Q504 817 426 731Q346 643 326 465L266 0H51L176 948H383L367 834Q449 908 537 944Q623 981 723 981Q868 981 950 905T1032
690Q1032 670 1028 608Q1024 561 1016 500L950 0H735ZM981 1389Q950 1276 899 1225Q846 1172 770 1171Q745 1171 731 1174Q721 1176 690 1184L630 1202Q622 1204 610 1207T596 1210Q588 1212 573 1212Q538 1212 518 1192Q493 1167 483 1133H374Q405 1246 456 1296Q509
1349 587 1350Q599 1350 628 1346T671 1337L729 1321Q731 1321 734 1320T740 1318T747 1317Q780 1309 782 1309Q817 1309 837 1329Q862 1354 872 1389H981Z" />
<glyph unicode="&#xf2;" glyph-name="ograve" horiz-adv-x="1167" d="M584 793Q439 793 350 690Q260 584 260 426Q260 299 327 226T514 152Q664 152 752 250Q842 350 842 514Q842 647 774 721Q709 793 584 793ZM582 983Q803 983 936 854Q1067 725 1067 508Q1067
270 911 115Q757 -39 514 -39Q299 -39 168 88T37 426Q37 670 188 827Q338 983 582 983ZM762 1092H646L342 1442H555L762 1092Z" />
<glyph unicode="&#xf3;" glyph-name="oacute" horiz-adv-x="1167" d="M584 793Q439 793 350 690Q260 584 260 426Q260 299 327 226T514 152Q664 152 752 250Q842 350 842 514Q842 647 774 721Q709 793 584 793ZM582 983Q803 983 936 854Q1067 725 1067 508Q1067
270 911 115Q757 -39 514 -39Q299 -39 168 88T37 426Q37 670 188 827Q338 983 582 983ZM601 1092H469L691 1442H904L601 1092Z" />
<glyph unicode="&#xf4;" glyph-name="ocircumflex" horiz-adv-x="1167" d="M584 793Q439 793 350 690Q260 584 260 426Q260 299 327 226T514 152Q664 152 752 250Q842 350 842 514Q842 647 774 721Q709 793 584 793ZM582 983Q803 983 936 854Q1067 725 1067 508Q1067
270 911 115Q757 -39 514 -39Q299 -39 168 88T37 426Q37 670 188 827Q338 983 582 983ZM902 1092H785L654 1292L437 1092H308L562 1442H775L902 1092Z" />
<glyph unicode="&#xf5;" glyph-name="otilde" horiz-adv-x="1167" d="M584 793Q439 793 350 690Q260 584 260 426Q260 299 327 226T514 152Q664 152 752 250Q842 350 842 514Q842 647 774 721Q709 793 584 793ZM582 983Q803 983 936 854Q1067 725 1067 508Q1067
270 911 115Q757 -39 514 -39Q299 -39 168 88T37 426Q37 670 188 827Q338 983 582 983ZM949 1389Q918 1276 867 1225Q814 1172 738 1171Q713 1171 699 1174Q689 1176 658 1184L598 1202Q590 1204 578 1207T564 1210Q556 1212 541 1212Q506 1212 486 1192Q461 1167
451 1133H342Q373 1246 424 1296Q477 1349 555 1350Q567 1350 596 1346T639 1337L697 1321Q699 1321 702 1320T708 1318T715 1317Q748 1309 750 1309Q785 1309 805 1329Q830 1354 840 1389H949Z" />
<glyph unicode="&#xf6;" glyph-name="odieresis" horiz-adv-x="1167" d="M584 793Q439 793 350 690Q260 584 260 426Q260 299 327 226T514 152Q664 152 752 250Q842 350 842 514Q842 647 774 721Q709 793 584 793ZM582 983Q803 983 936 854Q1067 725 1067 508Q1067
270 911 115Q757 -39 514 -39Q299 -39 168 88T37 426Q37 670 188 827Q338 983 582 983ZM695 1257Q695 1302 731 1339T813 1376T897 1341Q934 1306 934 1257Q934 1206 900 1172T814 1137Q765 1137 730 1171T695 1257ZM357 1257Q357 1302 394 1339T476 1376T560 1341Q597
1306 596 1257Q596 1206 562 1172T476 1137Q427 1137 392 1171T357 1257Z" />
<glyph unicode="&#xf7;" glyph-name="divide" horiz-adv-x="1705" d="M799 367T854 367T950 326T991 229Q991 172 952 133T854 94T756 133T717 229Q717 284 758 325ZM254 694H1452V528H254V694ZM799 1128T854 1128T950 1088T991 990T952 893T854 854T756 893T717
989T758 1087Z" />
<glyph unicode="&#xf8;" glyph-name="oslash" horiz-adv-x="1167" d="M328 207Q375 176 422 160Q471 144 510 143Q660 143 754 244Q850 346 850 502Q850 543 844 580Q838 621 825 655L328 207ZM770 741Q725 770 674 786Q631 800 582 801Q439 801 346 694Q252 583
252 420Q252 387 258 356Q266 311 274 293L770 741ZM25 -63L-39 14L111 150Q72 205 53 279Q35 349 35 436Q35 676 190 829Q348 983 588 983Q694 983 772 956Q848 929 911 870L1057 1006L1128 928L981 793Q1026 736 1046 668T1067 510Q1067 270 911 115Q757 -39
510 -39Q412 -39 330 -10Q246 19 182 76L25 -63Z" />
<glyph unicode="&#xf9;" glyph-name="ugrave" horiz-adv-x="1167" d="M168 948H383L332 551Q330 547 329 534T328 514Q310 385 309 342Q309 250 360 201Q413 152 506 152Q637 152 698 223Q757 293 786 502L846 948H1061L997 467Q974 291 940 205Q911 131 852 76Q791
19 700 -10Q608 -39 492 -39Q295 -39 193 51Q93 139 92 319Q92 366 111 508V510L168 948ZM788 1092H672L368 1442H581L788 1092Z" />
<glyph unicode="&#xfa;" glyph-name="uacute" horiz-adv-x="1167" d="M168 948H383L332 551Q330 547 329 534T328 514Q310 385 309 342Q309 250 360 201Q413 152 506 152Q637 152 698 223Q757 293 786 502L846 948H1061L997 467Q974 291 940 205Q911 131 852 76Q791
19 700 -10Q608 -39 492 -39Q295 -39 193 51Q93 139 92 319Q92 366 111 508V510L168 948ZM627 1092H495L717 1442H930L627 1092Z" />
<glyph unicode="&#xfb;" glyph-name="ucircumflex" horiz-adv-x="1167" d="M168 948H383L332 551Q330 547 329 534T328 514Q310 385 309 342Q309 250 360 201Q413 152 506 152Q637 152 698 223Q757 293 786 502L846 948H1061L997 467Q974 291 940 205Q911 131
852 76Q791 19 700 -10Q608 -39 492 -39Q295 -39 193 51Q93 139 92 319Q92 366 111 508V510L168 948ZM928 1092H811L680 1292L463 1092H334L588 1442H801L928 1092Z" />
<glyph unicode="&#xfc;" glyph-name="udieresis" horiz-adv-x="1167" d="M168 948H383L332 551Q330 547 329 534T328 514Q310 385 309 342Q309 250 360 201Q413 152 506 152Q637 152 698 223Q757 293 786 502L846 948H1061L997 467Q974 291 940 205Q911 131 852
76Q791 19 700 -10Q608 -39 492 -39Q295 -39 193 51Q93 139 92 319Q92 366 111 508V510L168 948ZM721 1257Q721 1302 757 1339T839 1376T923 1341Q960 1306 960 1257Q960 1206 926 1172T840 1137Q791 1137 756 1171T721 1257ZM383 1257Q383 1302 420 1339T502 1376T586
1341Q623 1306 622 1257Q622 1206 588 1172T502 1137Q453 1137 418 1171T383 1257Z" />
<glyph unicode="&#xfd;" glyph-name="yacute" horiz-adv-x="950" d="M133 -446H-92L291 154L16 948H240L381 492Q391 463 397 422Q397 414 402 375T412 311Q418 327 446 395Q454 415 492 479L766 948H1006L133 -446ZM756 1092H624L846 1442H1059L756 1092Z" />
<glyph unicode="&#xfe;" glyph-name="thorn" horiz-adv-x="1175" d="M838 504Q838 643 777 717T604 791Q473 791 398 689T322 406Q322 283 389 213Q457 141 571 141Q696 141 768 238Q838 332 838 504ZM283 133L207 -449H-8L256 1550H471L381 844Q440 914 510 946Q584
981 674 981Q860 981 961 864Q1061 749 1061 535Q1061 283 938 127T614 -29Q522 -29 436 12Q355 51 283 133Z" />
<glyph unicode="&#xff;" glyph-name="ydieresis" horiz-adv-x="950" d="M133 -446H-92L291 154L16 948H240L381 492Q391 463 397 422Q397 414 402 375T412 311Q418 327 446 395Q454 415 492 479L766 948H1006L133 -446ZM850 1257Q850 1302 886 1339T968 1376T1052
1341Q1089 1306 1089 1257Q1089 1206 1055 1172T969 1137Q920 1137 885 1171T850 1257ZM512 1257Q512 1302 549 1339T631 1376T715 1341Q752 1306 751 1257Q751 1206 717 1172T631 1137Q582 1137 547 1171T512 1257Z" />
<glyph unicode="&#x106;" glyph-name="Cacute" horiz-adv-x="1372" d="M1337 1368L1300 1118Q1212 1208 1116 1251Q1018 1294 899 1294Q772 1294 676 1253Q574 1210 502 1133Q416 1041 371 924T326 678Q326 453 465 309Q602 168 823 168Q927 168 1034 207Q1130
242 1231 319L1180 39Q1071 -4 987 -20Q895 -38 811 -39Q489 -39 295 156Q98 353 98 670Q98 844 160 1004Q219 1160 338 1278Q447 1387 584 1442Q722 1497 879 1497Q1014 1497 1135 1464Q1245 1434 1337 1368ZM900 1608H768L990 1958H1203L900 1608Z" />
<glyph unicode="&#x107;" glyph-name="cacute" horiz-adv-x="956" d="M870 678Q805 733 735 764Q669 793 592 793Q449 793 356 690Q264 589 264 426Q264 299 331 226T518 152Q589 152 666 176Q736 199 819 252L774 23Q721 -6 649 -23Q579 -39 512 -39Q301 -39
170 88Q41 213 41 424Q41 668 195 825Q349 981 594 981Q684 981 764 956Q840 933 915 883L870 678ZM603 1092H471L693 1442H906L603 1092Z" />
<glyph unicode="&#x10c;" glyph-name="Ccaron" horiz-adv-x="1372" d="M1337 1368L1300 1118Q1212 1208 1116 1251Q1018 1294 899 1294Q772 1294 676 1253Q574 1210 502 1133Q416 1041 371 924T326 678Q326 453 465 309Q602 168 823 168Q927 168 1034 207Q1130
242 1231 319L1180 39Q1071 -4 987 -20Q895 -38 811 -39Q489 -39 295 156Q98 353 98 670Q98 844 160 1004Q219 1160 338 1278Q447 1387 584 1442Q722 1497 879 1497Q1014 1497 1135 1464Q1245 1434 1337 1368ZM676 1958H793L922 1757L1139 1958H1270L1016 1608H803L676
1958Z" />
<glyph unicode="&#x10d;" glyph-name="ccaron" horiz-adv-x="956" d="M870 678Q805 733 735 764Q669 793 592 793Q449 793 356 690Q264 589 264 426Q264 299 331 226T518 152Q589 152 666 176Q736 199 819 252L774 23Q721 -6 649 -23Q579 -39 512 -39Q301 -39
170 88Q41 213 41 424Q41 668 195 825Q349 981 594 981Q684 981 764 956Q840 933 915 883L870 678ZM379 1442H496L625 1241L842 1442H973L719 1092H506L379 1442Z" />
<glyph unicode="&#x111;" glyph-name="" horiz-adv-x="1185" d="M276 442Q276 305 340 229Q406 151 514 152Q645 152 719 256T793 543Q793 664 725 737T545 811Q422 811 348 711Q276 612 276 442ZM1112 1319H1352L1331 1161H1092L940 0H729L741 96Q675 28 602
-6Q530 -39 442 -39Q255 -39 154 78Q54 193 53 412Q53 667 176 823Q299 981 500 981Q594 981 680 940Q764 899 831 817L877 1161H524L547 1319H897L928 1550H1143L1112 1319Z" />
<glyph unicode="&#x11e;" glyph-name="Gbreve" horiz-adv-x="1660" d="M1386 1049Q1291 1172 1171 1233Q1052 1294 907 1294Q790 1294 688 1251Q579 1206 508 1130Q420 1038 373 924Q326 807 326 684Q326 453 467 312T836 170Q1016 170 1143 272Q1266 372 1288
537H909L934 745H1559Q1559 380 1362 172T823 -37Q497 -37 297 158Q98 351 98 676Q98 856 160 1012Q219 1164 340 1278Q457 1389 600 1442Q754 1499 918 1499Q1123 1499 1268 1430Q1418 1358 1548 1202L1386 1049ZM702 1927H815V1921Q815 1847 850 1816Q887 1783
962 1784Q1050 1784 1102 1819Q1157 1856 1188 1927H1304Q1265 1786 1173 1710Q1083 1636 948 1636Q823 1636 762 1697T700 1884V1911Q700 1921 702 1927Z" />
<glyph unicode="&#x11f;" glyph-name="gbreve" horiz-adv-x="1175" d="M276 459Q276 324 340 252Q406 178 514 178Q643 178 719 276Q795 372 795 541Q795 668 727 741Q657 817 545 817Q424 817 350 719T276 459ZM938 12Q907 -221 789 -333T453 -446Q263 -446 139
-352Q22 -262 0 -92L197 -66Q209 -167 270 -213Q333 -260 453 -260Q600 -260 662 -180Q721 -102 737 121Q674 55 602 25Q524 -8 442 -8Q260 -8 156 109Q54 224 53 432Q53 680 178 829Q305 981 502 981Q598 981 678 942Q764 901 834 825L852 948H1063L938 12ZM387
1411H500V1405Q500 1331 535 1300Q572 1267 647 1268Q735 1268 787 1303Q842 1340 873 1411H989Q950 1270 858 1194Q768 1120 633 1120Q508 1120 447 1181T385 1368V1395Q385 1405 387 1411Z" />
<glyph unicode="&#x130;" glyph-name="Idot" horiz-adv-x="567" d="M72 0L264 1464H498L303 0H72ZM553 1771Q553 1724 514 1685T426 1646Q375 1646 338 1683T301 1771Q301 1824 337 1861T425 1898T516 1859Q553 1822 553 1771Z" />
<glyph unicode="&#x131;" glyph-name="dotlessi" horiz-adv-x="524" d="M61 0L186 948H401L276 0H61Z" />
<glyph unicode="&#x141;" glyph-name="Lslash" horiz-adv-x="983" d="M92 0L170 592L14 502L-66 651L199 805L287 1464H516L444 926L698 1073L788 926L416 713L352 225H899L870 0H92Z" />
<glyph unicode="&#x142;" glyph-name="lslash" horiz-adv-x="561" d="M414 909L549 987L625 852L389 715L295 0H80L158 602L23 522L-53 657L184 795L283 1550H500L414 909Z" />
<glyph unicode="&#x152;" glyph-name="OE" horiz-adv-x="2275" d="M1403 786Q1403 1013 1264 1152T899 1292Q784 1292 680 1249Q574 1204 502 1128Q418 1044 369 924Q322 807 322 682Q322 453 459 310T817 166Q1066 166 1235 344Q1403 520 1403 786ZM1294 0L1317
170Q1223 70 1090 12Q965 -41 807 -41Q483 -41 291 156Q96 355 96 674Q96 852 158 1008Q217 1162 336 1276Q450 1387 594 1442Q744 1499 909 1499Q1087 1499 1227 1436Q1360 1375 1458 1243L1487 1464H2300L2271 1257H1679L1630 889H2224L2195 684H1604L1542 211H2134L2107
0H1294Z" />
<glyph unicode="&#x153;" glyph-name="oe" horiz-adv-x="1871" d="M1055 588H1544Q1542 684 1485 741Q1430 796 1333 797Q1224 797 1151 742T1055 588ZM578 793Q437 793 348 692Q258 590 258 430Q258 301 326 227Q396 151 508 152Q655 152 745 252Q833 348 834
516Q834 653 768 721Q701 793 578 793ZM1532 291L1688 170Q1608 68 1505 12Q1409 -39 1280 -39Q1159 -39 1059 8Q965 53 911 137Q845 47 745 4Q643 -39 510 -39Q295 -39 164 88Q35 214 35 426Q35 670 186 827Q336 983 578 983Q704 983 799 940Q895 897 954 817Q1028
897 1122 940Q1217 983 1325 983Q1534 983 1648 869T1763 545Q1763 533 1762 514T1761 485Q1761 452 1759 436H1036Q1036 305 1100 229Q1166 151 1274 152Q1350 152 1417 188Q1481 223 1532 291Z" />
<glyph unicode="&#x15e;" glyph-name="Scedilla" horiz-adv-x="1064" d="M-18 252L143 385Q206 262 272 211Q342 158 434 158Q553 158 623 225Q695 293 694 403Q694 477 655 532Q616 589 522 643L463 678Q295 774 242 831Q202 877 180 936Q160 991 160 1063Q160
1253 285 1378Q406 1499 608 1499Q741 1499 844 1444Q948 1387 1012 1280L872 1151Q823 1231 764 1270T629 1309Q520 1309 455 1245Q387 1179 387 1083Q387 962 580 858Q637 829 653 819Q800 733 862 641T924 414Q924 205 791 84Q656 -39 426 -39Q272 -39 160 33Q50
102 -18 252ZM122 -426L165 -315Q218 -333 288 -350Q343 -362 389 -362Q444 -362 475 -338Q508 -311 507 -272Q507 -231 471 -213Q438 -197 346 -197H307L376 0H466L432 -94H440Q553 -94 610 -137T667 -264Q667 -366 602 -422Q534 -479 417 -479Q360 -479 290 -467Q231
-457 122 -426Z" />
<glyph unicode="&#x15f;" glyph-name="scedilla" horiz-adv-x="823" d="M94 279Q145 207 211 166Q274 127 344 127T453 158Q494 189 494 238Q494 310 342 393Q338 395 336 396L334 397Q190 480 143 539Q98 596 98 682Q98 815 197 899Q297 983 455 983Q553 983
635 946Q721 907 788 838L655 700Q612 755 553 786Q496 817 432 817Q381 817 344 786Q309 757 309 713Q309 645 436 582L510 543Q623 480 664 422Q705 363 705 272Q705 131 606 45Q510 -39 340 -39Q236 -39 135 6Q40 49 -31 135L94 279ZM260 -426L303 -315Q356
-333 426 -350Q481 -362 527 -362Q582 -362 613 -338Q646 -311 645 -272Q645 -231 609 -213Q576 -197 484 -197H445L514 0H604L570 -94H578Q691 -94 748 -137T805 -264Q805 -366 740 -422Q672 -479 555 -479Q498 -479 428 -467Q369 -457 260 -426Z" />
<glyph unicode="&#x160;" glyph-name="Scaron" horiz-adv-x="1064" d="M-18 252L143 385Q206 262 272 211Q342 158 434 158Q553 158 623 225Q695 293 694 403Q694 477 655 532Q616 589 522 643L463 678Q295 774 242 831Q202 877 180 936Q160 991 160 1063Q160
1253 285 1378Q406 1499 608 1499Q741 1499 844 1444Q948 1387 1012 1280L872 1151Q823 1231 764 1270T629 1309Q520 1309 455 1245Q387 1179 387 1083Q387 962 580 858Q637 829 653 819Q800 733 862 641T924 414Q924 205 791 84Q656 -39 426 -39Q272 -39 160 33Q50
102 -18 252ZM405 1958H522L651 1757L868 1958H999L745 1608H532L405 1958Z" />
<glyph unicode="&#x161;" glyph-name="scaron" horiz-adv-x="823" d="M94 279Q145 207 211 166Q274 127 344 127T453 158Q494 189 494 238Q494 310 342 393Q338 395 336 396L334 397Q190 480 143 539Q98 596 98 682Q98 815 197 899Q297 983 455 983Q553 983 635
946Q721 907 788 838L655 700Q612 755 553 786Q496 817 432 817Q381 817 344 786Q309 757 309 713Q309 645 436 582L510 543Q623 480 664 422Q705 363 705 272Q705 131 606 45Q510 -39 340 -39Q236 -39 135 6Q40 49 -31 135L94 279ZM469 1442H586L715 1241L932
1442H1063L809 1092H596L469 1442Z" />
<glyph unicode="&#x178;" glyph-name="Ydieresis" horiz-adv-x="1202" d="M51 1464H299L543 973Q553 955 582 885Q592 858 598 844Q625 891 633 903L684 979L1018 1464H1280L694 651L608 0H377L465 659L51 1464ZM793 1773Q793 1818 829 1855T911 1892T995 1857Q1032
1822 1032 1773Q1032 1722 998 1688T912 1653Q863 1653 828 1687T793 1773ZM455 1773Q455 1818 492 1855T574 1892T658 1857Q695 1822 694 1773Q694 1722 660 1688T574 1653Q525 1653 490 1687T455 1773Z" />
<glyph unicode="&#x17d;" glyph-name="Zcaron" horiz-adv-x="1175" d="M-59 0L805 1247H158L186 1464H1221L358 217H1075L1047 0H-59ZM461 1958H578L707 1757L924 1958H1055L801 1608H588L461 1958Z" />
<glyph unicode="&#x17e;" glyph-name="zcaron" horiz-adv-x="966" d="M-45 0L467 668Q485 693 510 717Q518 725 527 733T548 751T567 768H98L121 948H938L420 274L377 223Q371 215 330 180H862L840 0H-45ZM538 1442H655L784 1241L1001 1442H1132L878 1092H665L538 1442Z" />
<glyph unicode="&#x192;" glyph-name="florin" horiz-adv-x="1206" d="M682 782L588 25Q555 -254 479 -354Q407 -450 252 -451Q219 -451 182 -444Q139 -436 96 -424L137 -221L186 -238Q209 -244 221 -244Q289 -244 319 -193Q352 -138 379 86L463 782H252L268 948H479L500
1100Q525 1290 600 1386Q674 1478 811 1479Q860 1479 901 1470Q947 1461 993 1446L973 1255Q932 1271 907 1278Q880 1284 860 1284Q797 1284 766 1241Q737 1200 715 1057L698 948H930L913 782H682Z" />
<glyph unicode="&#x2c6;" glyph-name="circumflex" horiz-adv-x="1024" d="M836 1092H719L588 1292L371 1092H242L496 1442H709L836 1092Z" />
<glyph unicode="&#x2c7;" glyph-name="caron" horiz-adv-x="1024" d="M311 1442H428L557 1241L774 1442H905L651 1092H438L311 1442Z" />
<glyph unicode="&#x2d8;" glyph-name="breve" horiz-adv-x="1024" d="M311 1411H424V1405Q424 1331 459 1300Q496 1267 571 1268Q659 1268 711 1303Q766 1340 797 1411H913Q874 1270 782 1194Q692 1120 557 1120Q432 1120 371 1181T309 1368V1395Q309 1405 311 1411Z" />
<glyph unicode="&#x2d9;" glyph-name="dotaccent" horiz-adv-x="1024" d="M707 1255Q707 1208 668 1169T580 1130Q529 1130 492 1167T455 1255Q455 1308 491 1345T579 1382T670 1343Q707 1306 707 1255Z" />
<glyph unicode="&#x2da;" glyph-name="ring" horiz-adv-x="1024" d="M463 1329Q463 1276 504 1235Q543 1196 600 1196Q655 1196 694 1235T733 1329T694 1427Q657 1466 600 1466Q541 1466 502 1427T463 1329ZM340 1331Q340 1437 416 1513T598 1589T780 1514T856
1331Q856 1220 783 1147T598 1073T414 1146T340 1331Z" />
<glyph unicode="&#x2db;" glyph-name="ogonek" horiz-adv-x="1024" d="M483 0Q411 -61 383 -111Q352 -164 352 -213Q352 -256 373 -274Q395 -292 440 -293H541L520 -449H438Q319 -449 264 -406Q207 -361 207 -268Q207 -205 254 -139Q301 -71 395 0H483Z" />
<glyph unicode="&#x2dc;" glyph-name="tilde" horiz-adv-x="1024" d="M883 1389Q852 1276 801 1225Q748 1172 672 1171Q647 1171 633 1174Q623 1176 592 1184L532 1202Q524 1204 512 1207T498 1210Q490 1212 475 1212Q440 1212 420 1192Q395 1167 385 1133H276Q307
1246 358 1296Q411 1349 489 1350Q501 1350 530 1346T573 1337L631 1321Q633 1321 636 1320T642 1318T649 1317Q682 1309 684 1309Q719 1309 739 1329Q764 1354 774 1389H883Z" />
<glyph unicode="&#x2dd;" glyph-name="hungarumlaut" horiz-adv-x="1024" d="M801 1442H987L717 1092H614L801 1442ZM510 1442H698L467 1092H362L510 1442Z" />
<glyph unicode="&#x3a9;" glyph-name="Omega" horiz-adv-x="1568" d="M1194 213H1499V0H897V229Q1057 325 1139 473Q1221 623 1221 825Q1221 1034 1100 1167Q981 1298 785 1298T467 1165Q348 1034 348 813Q348 623 432 471Q514 321 672 229V0H70V213H375Q234 340
164 487Q96 630 96 809Q96 1122 286 1316T784 1511Q1087 1511 1280 1319T1473 825Q1473 639 1407 492Q1344 350 1194 213Z" />
<glyph unicode="&#x3c0;" glyph-name="pi" horiz-adv-x="1366" d="M360 889H315Q262 889 231 858Q202 829 193 758H18Q45 944 119 1014Q189 1082 360 1081H1313L1274 889H1081L997 453Q997 449 994 436T989 412Q966 293 967 264Q967 209 989 182Q1012 157 1067
158Q1094 158 1110 160Q1155 166 1169 168L1135 0Q1108 -8 1073 -12Q1032 -16 999 -16Q861 -16 797 33Q734 82 733 186Q733 268 784 530L786 537L856 889H588L414 0H188L360 889Z" />
<glyph unicode="&#x2013;" glyph-name="endash" horiz-adv-x="1024" d="M-41 401L-23 543H1001L983 401H-41Z" />
<glyph unicode="&#x2014;" glyph-name="emdash" horiz-adv-x="2048" d="M-41 401L-23 543H2025L2007 401H-41Z" />
<glyph unicode="&#x2018;" glyph-name="quoteleft" horiz-adv-x="602" d="M307 911L129 1016L477 1497L596 1425L307 911Z" />
<glyph unicode="&#x2019;" glyph-name="quoteright" horiz-adv-x="602" d="M416 1497L596 1395L248 911L127 983L416 1497Z" />
<glyph unicode="&#x201a;" glyph-name="quotesinglbase" horiz-adv-x="602" d="M215 293L393 188L45 -293L-74 -221L215 293Z" />
<glyph unicode="&#x201c;" glyph-name="quotedblleft" horiz-adv-x="962" d="M301 911L123 1016L471 1497L590 1425L301 911ZM659 911L481 1016L829 1497L948 1425L659 911Z" />
<glyph unicode="&#x201d;" glyph-name="quotedblright" horiz-adv-x="962" d="M772 1497L952 1395L602 911L483 983L772 1497ZM416 1497L594 1395L246 911L127 983L416 1497Z" />
<glyph unicode="&#x201e;" glyph-name="quotedblbase" horiz-adv-x="962" d="M215 293L393 188L45 -293L-74 -221L215 293ZM573 293L752 188L403 -293L285 -221L573 293Z" />
<glyph unicode="&#x2020;" glyph-name="dagger" horiz-adv-x="1138" d="M313 -446L471 748H63L86 922H494L565 1464H766L694 922H1102L1079 748H672L514 -446H313Z" />
<glyph unicode="&#x2021;" glyph-name="daggerdbl" horiz-adv-x="1138" d="M311 -446L375 31H-31L-6 203H397L479 838H76L98 1010H504L563 1464H768L709 1010H1112L1090 838H684L602 203H1006L983 31H580L516 -446H311Z" />
<glyph unicode="&#x2022;" glyph-name="bullet" horiz-adv-x="1206" d="M307 762Q307 885 393 971T604 1057Q727 1057 813 971T899 762Q899 641 811 553T602 465T393 553Q307 639 307 762Z" />
<glyph unicode="&#x2026;" glyph-name="ellipsis" horiz-adv-x="2048" d="M135 57T135 110T172 205Q209 244 266 244Q321 244 358 205Q397 162 397 111T359 21T266 -18Q211 -18 172 20Q135 57 135 110ZM817 57T817 110T854 205Q891 244 948 244Q1003 244 1040
205Q1079 162 1079 111T1041 21T948 -18Q893 -18 854 20Q817 57 817 110ZM1501 57T1501 110T1538 205Q1575 244 1632 244Q1687 244 1724 205Q1763 162 1763 111T1725 21T1632 -18Q1577 -18 1538 20Q1501 57 1501 110Z" />
<glyph unicode="&#x2030;" glyph-name="perthousand" horiz-adv-x="2244" d="M412 1364Q332 1364 281 1266Q228 1166 227 1018Q227 924 254 879T336 834Q414 834 467 936T520 1196Q520 1276 492 1321Q464 1364 412 1364ZM410 1481Q549 1481 616 1401T684 1157Q684
967 586 840Q488 715 338 715Q201 715 131 795Q61 873 61 1032Q61 1229 160 1356Q258 1481 410 1481ZM1907 606Q1827 606 1776 508Q1723 408 1722 260Q1722 166 1749 121T1831 76Q1909 76 1962 178T2015 436Q2015 518 1987 563Q1959 606 1907 606ZM1905 725Q2042
725 2109 643Q2179 557 2179 397Q2179 207 2081 84Q1981 -41 1833 -41Q1696 -41 1626 39Q1556 117 1556 274Q1556 471 1654 598T1905 725ZM1174 606Q1094 606 1042 508Q989 408 989 260Q989 166 1015 121T1098 76Q1176 76 1229 178T1282 436Q1282 522 1255 563Q1229
606 1174 606ZM1171 725Q1308 725 1376 643Q1446 557 1446 397Q1446 207 1348 84Q1248 -41 1100 -41Q963 -41 893 39Q823 117 823 274Q823 471 921 598T1171 725ZM250 -41L1100 1481H1247L395 -41H250Z" />
<glyph unicode="&#x2039;" glyph-name="guilsinglleft" horiz-adv-x="587" d="M37 477L401 897L522 797L229 465L436 129L303 45L37 477Z" />
<glyph unicode="&#x203a;" glyph-name="guilsinglright" horiz-adv-x="587" d="M485 467L121 45L0 147L293 479L86 815L219 897L485 467Z" />
<glyph unicode="&#x20a3;" glyph-name="franc" horiz-adv-x="1830" d="M70 0L262 1464H1083L1057 1257H463L416 889H1008L981 684H387L299 0H70ZM1794 758Q1774 772 1747 782Q1724 790 1692 791Q1575 791 1512 707Q1442 615 1422 444L1362 0H1147L1272 948H1479L1463
825Q1514 899 1585 942Q1651 981 1729 981Q1768 981 1798 973Q1831 965 1864 944L1794 758Z" />
<glyph unicode="&#x2122;" glyph-name="trademark" horiz-adv-x="1705" d="M809 1460H979L1120 1100L1253 1460H1423V918H1309V1346L1149 918H1090L924 1346V918H809V1460ZM225 1460H692V1366H524V918H395V1366H225V1460Z" />
<glyph unicode="&#x2202;" glyph-name="partialdiff" horiz-adv-x="1073" d="M758 639Q774 729 784 825Q792 899 793 973Q793 1090 764 1147Q736 1202 672 1202Q613 1202 524 1143Q440 1086 403 1085Q364 1085 338 1110T311 1171Q311 1239 389 1286Q469 1335 590
1335Q766 1335 877 1176Q990 1014 989 754Q989 414 840 195T463 -25Q301 -25 197 86T92 373Q92 570 205 696Q320 825 483 825Q585 825 651 780T758 639ZM705 504Q705 619 664 682T547 745Q443 745 373 614T303 276Q303 161 344 98Q384 37 461 37Q563 37 635 170Q705
301 705 504Z" />
<glyph unicode="&#x2206;" glyph-name="uni2206" horiz-adv-x="1394" d="M698 1196L319 213H1075L698 1196ZM569 1473H825L1399 0H-4L569 1473Z" />
<glyph unicode="&#x220f;" glyph-name="product" horiz-adv-x="1576" d="M154 1473H1421V-393H1135V1229H440V-393H154V1473Z" />
<glyph unicode="&#x2211;" glyph-name="summation" horiz-adv-x="1419" d="M61 1473H1341V1247H420L1067 563L406 -166H1380V-393H33V-233L745 553L61 1272V1473Z" />
<glyph unicode="&#x2212;" glyph-name="minus" horiz-adv-x="1705" d="M254 696H1452V526H254V696Z" />
<glyph unicode="&#x2215;" glyph-name="uni2215" horiz-adv-x="339" d="M-342 -39L524 1479H682L-188 -39H-342Z" />
<glyph unicode="&#x2219;" glyph-name="uni2219" horiz-adv-x="602" d="M170 721Q170 774 209 813T301 852T393 813T432 721Q432 672 393 629Q356 590 301 590T209 629Q170 672 170 721Z" />
<glyph unicode="&#x221a;" glyph-name="radical" horiz-adv-x="1320" d="M1128 1675H1325V1565H1217L623 -41H541L225 831L94 782L66 877L371 985L618 297L1128 1675Z" />
<glyph unicode="&#x221e;" glyph-name="infinity" horiz-adv-x="1705" d="M928 559Q974 479 1038 436Q1099 395 1184 395Q1282 395 1343 456T1405 614Q1405 708 1348 772T1206 836Q1128 836 1065 772Q996 702 928 559ZM780 662Q734 742 670 784Q607 827 524 827Q426
827 365 766T303 606Q303 512 360 449Q415 388 500 387Q582 387 645 448T780 662ZM862 471Q792 338 713 275T541 211Q406 211 310 325T213 610Q213 788 299 899T518 1010Q612 1010 686 950Q762 891 844 750Q916 891 993 950Q1073 1011 1178 1012Q1307 1012 1401
897T1495 612Q1495 432 1411 324Q1325 213 1190 213Q1096 213 1024 270Q944 334 862 471Z" />
<glyph unicode="&#x222b;" glyph-name="integral'" horiz-adv-x="1118" d="M324 -258Q430 -258 446 434Q448 516 449 557Q461 1098 561 1323Q663 1552 874 1552Q964 1552 1018 1507Q1073 1462 1073 1395Q1073 1336 1039 1301T944 1266Q903 1266 870 1288Q841 1306
829 1354Q825 1374 823 1399Q819 1440 797 1440Q697 1440 678 825Q676 762 673 674T670 575Q662 296 639 150Q616 -6 580 -96Q525 -231 441 -301T246 -371Q160 -371 105 -328T49 -215Q49 -152 84 -119Q123 -84 184 -84Q221 -84 250 -102Q277 -118 291 -156Q295
-168 299 -215Q302 -258 324 -258Z" />
<glyph unicode="&#x2248;" glyph-name="approxequal" horiz-adv-x="1705" d="M1530 592V406Q1428 334 1329 299Q1239 266 1141 266Q1047 266 862 332Q672 400 563 399Q479 399 389 362Q295 323 178 242V426Q297 506 385 537Q483 572 565 571Q684 571 874 504T1151
436Q1234 436 1323 473Q1417 512 1530 592ZM1530 979V795Q1421 719 1329 686Q1239 653 1141 653Q1053 653 863 720T563 788Q485 788 393 754Q313 723 178 631V815Q276 883 383 924Q479 961 565 961Q684 961 874 893T1143 825Q1231 825 1323 860Q1409 893 1530 979Z"
/>
<glyph unicode="&#x2260;" glyph-name="notequal" horiz-adv-x="1705" d="M1204 1212L1327 1112L1157 897H1452V735H1049L852 485H1452V324H745L496 10L373 109L543 324H254V485H647L846 735H254V897H954L1204 1212Z" />
<glyph unicode="&#x2264;" glyph-name="lessequal" horiz-adv-x="1705" d="M260 178H1446V12H260V178ZM1446 1223V1047L557 760L1446 473V297L260 686V831L1446 1223Z" />
<glyph unicode="&#x2265;" glyph-name="greaterequal" horiz-adv-x="1705" d="M260 178H1448V12H260V178ZM260 1223L1446 831V686L260 297V473L1151 760L260 1047V1223Z" />
<glyph unicode="&#x25ca;" glyph-name="lozenge" horiz-adv-x="1011" d="M506 1409L121 592L506 -233L891 592L506 1409ZM506 1653L1006 592L506 -477L6 592L506 1653Z" />
<glyph unicode="&#xf000;" glyph-name="uniF000" horiz-adv-x="1617" d="M836 1217Q836 1219 835 1223T834 1231V1253Q834 1376 930 1483Q1028 1589 1165 1614Q1165 1612 1166 1604T1167 1591V1552Q1167 1421 1063 1317Q961 1215 860 1214H852H844L840 1215L836
1217ZM1505 403Q1390 153 1300 61Q1208 -35 1096 -35Q1045 -35 965 -2T842 31Q795 31 711 -2T584 -35Q519 -35 455 8Q392 51 326 141Q220 288 168 436Q113 593 113 737Q113 956 237 1093T561 1231Q629 1231 717 1196Q801 1163 840 1163Q873 1163 961 1198T1114
1233Q1227 1233 1313 1194Q1395 1157 1473 1069Q1371 1003 1322 924T1272 741Q1272 624 1331 541Q1392 454 1505 403Z" />
<glyph unicode="&#xf001;" glyph-name="uniF001" horiz-adv-x="1126" d="M811 1333Q811 1386 848 1423T938 1460Q993 1460 1030 1423T1067 1333Q1067 1278 1030 1241T938 1204Q885 1204 848 1241T811 1333ZM664 0L786 948H1004L879 0H664ZM94 0L195 764H23L47
948H217L250 1184Q278 1402 348 1485Q420 1569 567 1569Q616 1569 655 1561Q704 1551 739 1534L715 1348Q674 1364 649 1370Q612 1378 600 1378Q543 1378 510 1333Q479 1290 461 1151L434 948H627L602 764H410L309 0H94Z" />
<glyph unicode="&#xf002;" glyph-name="uniF002" horiz-adv-x="1126" d="M879 0H664L866 1550H1081L879 0ZM94 0L195 764H23L47 948H217L250 1184Q278 1402 348 1485Q420 1569 567 1569Q616 1569 655 1561Q704 1551 739 1534L715 1348Q674 1364 649 1370Q612 1378
600 1378Q543 1378 510 1333Q479 1290 461 1151L434 948H627L602 764H410L309 0H94Z" />
</font>
</defs>
</svg>
