<?xml version="1.0" standalone="no"?> <!DOCTYPE svg PUBLIC "-//W3C//DTD SVG 1.0//EN" "http://www.w3.org/TR/2001/REC-SVG-20010904/DTD/svg10.dtd" > <svg xmlns="http://www.w3.org/2000/svg" width="100%" height="100%">
<defs >
<font id="FuturaBT-MediumCondensed" horiz-adv-x="630" ><font-face
    font-family="Futura MdCn BT"
    units-per-em="2048"
    panose-1="2 11 5 6 2 2 4 3 2 3"
    ascent="1970"
    descent="-483"
    alphabetic="0" />
<missing-glyph horiz-adv-x="1228" d="M102 -362V1444H1126V-362H102ZM217 -248H1012V1329H217V-248Z" />
<glyph unicode=" " glyph-name="space" horiz-adv-x="393" />
<glyph unicode="!" glyph-name="exclam" horiz-adv-x="555" d="M164 94Q164 143 196 176T279 209Q326 209 358 176T391 94Q391 47 359 15T279 -18Q230 -18 197 14T164 94ZM188 356V1460H369V356H188Z" />
<glyph unicode="&quot;" glyph-name="quotedbl" horiz-adv-x="589" d="M496 1434V881H377V1434H496ZM211 1434V881H94V1434H211Z" />
<glyph unicode="#" glyph-name="numbersign" horiz-adv-x="1574" d="M973 862H709L614 590H877L973 862ZM922 1456L756 985H1016L1184 1456H1327L1163 985H1470L1427 862H1116L1022 590H1352L1309 467H977L811 -2H666L834 467H569L401 -2H258L424 467H104L147
590H467L563 862H221L264 985H608L776 1456H922Z" />
<glyph unicode="$" glyph-name="dollar" horiz-adv-x="786" d="M215 291Q238 221 270 191T360 160Q444 160 487 215Q532 272 532 371Q532 455 500 514Q467 571 373 639L256 717Q176 769 152 797Q99 854 76 920Q53 988 53 1079Q53 1229 106 1325T262 1458V1671H344V1475Q348
1475 356 1476T371 1477H412H434V1671H516V1464Q579 1452 629 1403Q680 1352 721 1257L559 1176Q545 1239 508 1272Q473 1305 414 1305Q332 1305 289 1256T246 1112Q246 1030 276 975Q307 918 412 848Q420 842 431 834T459 814T489 795Q608 711 629 686Q682 623
707 557Q732 489 731 401Q731 251 676 147Q623 45 516 2V-211H434V-18H428Q383 -22 379 -23Q377 -23 372 -22T362 -20H346V-211H262V-6Q186 17 137 66Q86 117 53 201L215 291Z" />
<glyph unicode="%" glyph-name="percent" horiz-adv-x="1572" d="M1122 408Q1122 220 1145 168Q1170 113 1231 113T1317 170Q1342 225 1342 407T1317 645Q1292 702 1231 702T1145 649Q1122 603 1122 408ZM973 408Q973 660 1028 745T1231 831Q1378 831 1433 745T1489
408Q1489 154 1434 68T1231 -18Q1084 -18 1029 68T973 408ZM514 -18H387L1051 1479H1178L514 -18ZM223 1047Q223 865 248 809Q273 752 334 752Q397 752 420 807Q443 864 443 1046T420 1286Q397 1341 334 1341Q273 1341 248 1286T223 1047ZM76 793T76 1046T131 1386T334
1473Q479 1473 535 1386Q592 1296 592 1047Q592 793 537 707T334 621Q187 621 132 707Z" />
<glyph unicode="&amp;" glyph-name="ampersand" horiz-adv-x="1040" d="M606 276L381 643Q320 578 289 514Q260 455 260 385Q260 289 309 228T434 166Q481 166 522 193Q559 217 606 276ZM428 920Q508 998 553 1069Q592 1132 592 1198Q592 1257 559 1290Q524 1325
469 1325Q410 1325 377 1286T344 1180Q344 1127 362 1067Q379 1014 428 920ZM772 0L696 123Q628 51 559 18Q485 -17 412 -16Q271 -16 174 96Q80 205 80 379Q80 477 131 584Q180 684 291 795Q230 893 199 991Q166 1095 166 1176Q166 1315 248 1397Q332 1481 465
1481Q594 1481 682 1397T770 1190Q770 1094 709 991Q646 887 518 772L735 420L872 608L1008 512L829 268L993 0H772Z" />
<glyph unicode="&apos;" glyph-name="quotesingle" horiz-adv-x="303" d="M211 1434V881H94V1434H211Z" />
<glyph unicode="(" glyph-name="parenleft" horiz-adv-x="557" d="M315 -432Q215 -184 166 72Q117 324 117 588T166 1106T315 1610L487 1554Q397 1337 350 1087Q305 854 305 588Q305 324 350 90Q397 -154 487 -377L315 -432Z" />
<glyph unicode=")" glyph-name="parenright" horiz-adv-x="557" d="M242 1612Q342 1364 391 1106Q442 840 442 590Q442 328 393 76Q346 -170 242 -430L70 -375Q160 -152 207 92Q252 325 252 590Q252 856 207 1090Q160 1340 70 1556L242 1612Z" />
<glyph unicode="*" glyph-name="asterisk" horiz-adv-x="778" d="M342 838V1063L145 952L96 1036L293 1149L96 1264L145 1348L342 1235V1460H440V1235L635 1348L684 1262L487 1149L684 1036L635 952L440 1065V838H342Z" />
<glyph unicode="+" glyph-name="plus" horiz-adv-x="1705" d="M913 1221V670H1452V553H913V0H795V553H254V670H795V1221H913Z" />
<glyph unicode="," glyph-name="comma" horiz-adv-x="393" d="M340 197L154 -317L53 -287L186 244L340 197Z" />
<glyph unicode="-" glyph-name="hyphen" horiz-adv-x="557" d="M76 410V571H483V410H76Z" />
<glyph unicode="." glyph-name="period" horiz-adv-x="393" d="M84 92Q84 141 117 174T197 207T276 174Q311 139 311 92T279 13T197 -20Q150 -20 117 12T84 92Z" />
<glyph unicode="/" glyph-name="slash" horiz-adv-x="565" d="M0 -190L422 1479H567L145 -190H0Z" />
<glyph unicode="0" glyph-name="zero" horiz-adv-x="786" d="M254 1094T254 732T285 262Q316 153 395 154Q473 154 504 258T535 731T504 1204T395 1309Q315 1309 285 1202Q254 1094 254 732ZM63 471T63 729T74 1090Q86 1211 111 1272Q154 1381 221 1430T395 1479Q499
1479 567 1430T678 1272Q703 1207 715 1087Q725 987 725 729T715 371Q703 254 678 188Q635 79 568 31T395 -18Q289 -18 222 31T111 188Q86 249 74 371Q63 471 63 729Z" />
<glyph unicode="1" glyph-name="one" horiz-adv-x="786" d="M324 0V1284H143V1460H506V0H324Z" />
<glyph unicode="2" glyph-name="two" horiz-adv-x="786" d="M33 0L422 774Q473 876 498 963Q525 1057 524 1118Q524 1216 492 1262Q457 1309 391 1309Q315 1309 285 1247Q252 1181 252 1036V985H68Q66 995 66 1014V1059Q66 1268 150 1374Q234 1478 401 1479Q553
1479 639 1382Q725 1287 725 1118Q725 1014 692 914T578 662L317 186H696V0H33Z" />
<glyph unicode="3" glyph-name="three" horiz-adv-x="786" d="M43 381H215Q215 379 214 373T213 362V346Q213 250 252 205Q293 158 367 158Q451 158 485 217Q522 278 522 410Q522 576 471 631Q422 684 279 684H250V844Q254 844 261 843T274 842H313Q426 842 467
893Q506 940 506 1106Q506 1217 475 1268T381 1319Q309 1319 274 1262Q239 1207 238 1069H70Q70 1071 69 1079T68 1092V1130Q68 1308 143 1393Q220 1479 371 1479Q535 1479 614 1381T694 1081Q694 942 651 864T520 766Q622 748 670 670Q715 594 715 432Q715 195
629 88Q543 -18 352 -18Q198 -18 121 72T43 346V381Z" />
<glyph unicode="4" glyph-name="four" horiz-adv-x="786" d="M440 561V1139L178 561H440ZM436 0V397H41V584L453 1460H621V561H725V397H621V0H436Z" />
<glyph unicode="5" glyph-name="five" horiz-adv-x="786" d="M63 225Q114 186 158 174Q211 158 256 158Q385 158 450 248T516 514Q516 647 449 714T250 782Q201 782 160 776Q113 768 84 762L180 1460H690V1280H334L276 924Q292 928 330 932Q346 934 371 934Q518
934 610 817T702 506Q702 258 592 121Q481 -18 283 -18Q213 -18 145 0Q75 18 14 51L63 225Z" />
<glyph unicode="6" glyph-name="six" horiz-adv-x="786" d="M248 449Q248 293 283 225Q320 155 397 155T508 225Q543 299 543 451Q543 611 508 676T393 741Q317 741 283 672T248 449ZM281 831Q318 868 358 887Q397 905 446 905Q593 905 657 801Q720 699 721 459Q721
213 641 97T393 -20Q229 -20 150 102Q68 229 68 473Q68 673 135 885Q201 1090 395 1460H610L408 1094Q344 972 281 831Z" />
<glyph unicode="7" glyph-name="seven" horiz-adv-x="786" d="M78 0L512 1286H70V1460H766L279 0H78Z" />
<glyph unicode="8" glyph-name="eight" horiz-adv-x="786" d="M537 793Q635 758 674 680T713 424Q713 307 702 242Q694 189 670 139Q631 63 557 23Q485 -18 393 -18Q327 -18 260 8Q199 33 156 82Q113 129 92 201Q74 269 74 424Q74 596 115 678T252 793Q164 832
127 903T90 1126Q90 1308 164 1395Q236 1479 393 1479Q553 1479 625 1395Q699 1309 698 1126Q698 974 662 903T537 793ZM260 436Q260 276 291 215T393 154T496 211Q527 270 526 418Q526 580 496 641T394 702T291 641T260 436ZM393 868Q463 868 489 920Q518 973
518 1096Q518 1215 489 1268Q462 1319 393 1319Q327 1319 299 1270Q270 1219 270 1096Q270 969 299 918Q327 868 393 868Z" />
<glyph unicode="9" glyph-name="nine" horiz-adv-x="786" d="M541 1012Q541 1164 504 1235Q467 1305 389 1305Q313 1305 281 1235Q246 1161 246 1010Q246 848 279 784Q314 718 393 718T506 788Q541 862 541 1012ZM508 629Q471 592 430 574T342 555Q198 555 133
659Q67 765 68 1001Q68 1247 147 1364T395 1481Q559 1481 639 1358T719 985Q719 786 652 576T391 0H178L387 381Q467 533 508 629Z" />
<glyph unicode=":" glyph-name="colon" horiz-adv-x="555" d="M164 610Q164 659 196 692T279 725Q326 725 358 692T391 610Q391 563 359 531T279 498Q230 498 197 530T164 610ZM164 92Q164 141 196 174T279 207Q326 207 358 174T391 92Q391 45 359 13T279 -20Q230
-20 197 12T164 92Z" />
<glyph unicode=";" glyph-name="semicolon" horiz-adv-x="555" d="M195 610Q195 659 227 692T307 725Q356 725 389 692T422 610Q422 563 389 531T307 498Q260 498 228 530T195 610ZM135 -287L268 244L422 197L236 -317L135 -287Z" />
<glyph unicode="&lt;" glyph-name="less" horiz-adv-x="1705" d="M1442 1018L442 610L1442 205V76L264 559V662L1442 1145V1018Z" />
<glyph unicode="=" glyph-name="equal" horiz-adv-x="1705" d="M1452 477V360H254V477H1452ZM1452 860V743H254V860H1452Z" />
<glyph unicode="&gt;" glyph-name="greater" horiz-adv-x="1705" d="M1442 662V559L264 76V205L1264 610L264 1018V1145L1442 662Z" />
<glyph unicode="?" glyph-name="question" horiz-adv-x="559" d="M178 362V795H184Q286 795 324 842Q361 888 360 1075Q360 1216 340 1274Q322 1325 273 1325T201 1280Q181 1239 180 1112H14V1143Q14 1324 76 1401Q137 1479 276 1479Q417 1479 474 1407T532 1147Q532
848 494 764Q453 676 352 674V362H178ZM147 94Q147 143 180 176T262 209T344 176T377 94Q377 47 344 15T262 -18T180 14T147 94Z" />
<glyph unicode="@" glyph-name="at" horiz-adv-x="2048" d="M1292 844L1350 965H1460L1319 397Q1315 381 1311 353T1307 317Q1307 272 1335 250T1417 227Q1462 227 1518 252Q1571 277 1620 315Q1710 393 1759 512Q1810 637 1810 766Q1810 1032 1614 1194Q1419
1356 1096 1356Q926 1356 784 1305Q637 1252 524 1151Q385 1030 314 869T242 514Q242 344 303 211Q366 76 489 -20Q595 -104 729 -145Q867 -188 1024 -188Q1196 -188 1358 -139Q1524 -88 1655 0L1700 -66Q1544 -179 1386 -231Q1220 -286 1040 -287Q852 -287 692
-240T416 -102Q264 13 189 170T113 522Q113 678 164 831Q211 970 313 1100Q460 1274 662 1366Q865 1458 1116 1458Q1280 1458 1427 1415Q1568 1374 1675 1290Q1802 1194 1870 1061Q1938 929 1937 778Q1937 612 1874 469Q1815 334 1692 233Q1622 176 1544 150Q1462
121 1380 121Q1278 121 1231 160Q1182 200 1182 276L1183 280Q1184 283 1184 287V299Q1129 209 1057 166Q981 121 887 121Q733 121 653 207T573 453Q573 684 711 842Q849 1002 1042 1001Q1132 1001 1195 961T1292 844ZM1202 473L1262 715Q1244 807 1190 854Q1133
905 1055 905Q910 905 812 774T713 446Q713 333 764 276Q817 217 909 217Q1009 217 1091 286T1202 473Z" />
<glyph unicode="A" glyph-name="A" horiz-adv-x="899" d="M451 1083L319 451H582L451 1083ZM16 0L358 1460H543L885 0H686L616 287H283L215 0H16Z" />
<glyph unicode="B" glyph-name="B" horiz-adv-x="888" d="M313 834H385Q496 834 549 889Q600 942 600 1061Q600 1184 551 1235T385 1286H313V834ZM313 186H379Q516 186 565 238Q616 293 616 422Q616 557 561 614T381 672H313V186ZM117 0V1460H387Q602 1460 696
1372Q792 1282 793 1090Q793 947 745 864Q700 784 596 752Q715 723 764 647Q815 569 815 420Q815 203 715 102Q613 0 403 0H117Z" />
<glyph unicode="C" glyph-name="C" horiz-adv-x="778" d="M735 33Q678 4 637 -6Q588 -18 530 -18Q305 -18 195 166T84 717Q84 1094 203 1286T553 1479Q598 1479 649 1468Q692 1460 735 1440V1253Q690 1276 655 1284Q610 1294 582 1294Q422 1294 352 1157Q280 1018
281 719Q281 445 350 305Q418 170 561 170Q594 170 643 184Q682 194 735 225V33Z" />
<glyph unicode="D" glyph-name="D" horiz-adv-x="1013" d="M330 188H432Q598 188 665 307T733 733Q733 1037 666 1157Q598 1276 432 1276H330V188ZM131 0V1460H391Q688 1460 811 1296Q932 1136 932 731Q932 323 811 164Q688 0 391 0H131Z" />
<glyph unicode="E" glyph-name="E" horiz-adv-x="784" d="M125 0V1460H709V1284H322V850H676V676H322V182H709V0H125Z" />
<glyph unicode="F" glyph-name="F" horiz-adv-x="784" d="M131 0V1460H729V1284H328V848H696V674H328V0H131Z" />
<glyph unicode="G" glyph-name="G" horiz-adv-x="1003" d="M924 784Q928 723 928 694Q928 680 929 652T930 610Q930 288 826 135T504 -18Q281 -18 181 156T80 729Q80 1137 180 1307Q282 1479 510 1479Q674 1479 770 1403Q870 1325 907 1171L733 1087Q713 1193
657 1245Q600 1298 512 1298Q385 1298 332 1176Q279 1051 279 733Q279 418 332 293T512 168Q627 168 684 262T741 543V586Q741 592 740 600T739 612H530V784H924Z" />
<glyph unicode="H" glyph-name="H" horiz-adv-x="1007" d="M131 0V1460H328V905H680V1460H877V0H680V721H328V0H131Z" />
<glyph unicode="I" glyph-name="I" horiz-adv-x="460" d="M131 0V1460H328V0H131Z" />
<glyph unicode="J" glyph-name="J" horiz-adv-x="620" d="M297 1460H494V377Q494 176 420 78T190 -20Q139 -20 84 -4Q31 12 -18 45V246Q29 205 72 187T154 168Q230 168 262 217Q297 268 297 371V1460Z" />
<glyph unicode="K" glyph-name="K" horiz-adv-x="890" d="M121 0V1460H317V768L662 1460H866L518 766L866 0H655L317 750V0H121Z" />
<glyph unicode="L" glyph-name="L" horiz-adv-x="770" d="M131 0V1460H328V182H750V0H131Z" />
<glyph unicode="M" glyph-name="M" horiz-adv-x="1144" d="M72 0L197 1460H375L573 449L776 1460H948L1075 0H893L834 1024L639 0H506L311 1024L252 0H72Z" />
<glyph unicode="N" glyph-name="N" horiz-adv-x="1013" d="M129 0V1460H311L698 446V1460H885V0H700L315 1022V0H129Z" />
<glyph unicode="O" glyph-name="O" horiz-adv-x="1005" d="M287 733Q287 430 338 295Q387 168 506 168Q623 168 672 289Q719 404 719 733Q719 1048 670 1171Q621 1296 504 1296Q385 1296 336 1171Q287 1044 287 733ZM88 729Q88 1130 186 1304T504 1479Q721 1479
821 1305Q917 1137 918 729Q918 323 821 156Q721 -18 504 -18T186 156Q88 328 88 729Z" />
<glyph unicode="P" glyph-name="P" horiz-adv-x="894" d="M328 819H401Q534 819 589 874T645 1057Q645 1180 586 1235Q531 1288 387 1288H328V819ZM131 0V1460H371Q504 1460 578 1442Q648 1424 707 1378Q768 1327 807 1239Q842 1157 842 1049Q842 850 725 746T385
641H348Q344 641 337 642T328 643V0H131Z" />
<glyph unicode="Q" glyph-name="Q" horiz-adv-x="1005" d="M813 -113L707 35Q650 6 606 -4Q553 -16 500 -16Q281 -16 185 158T88 731T186 1304T504 1479Q721 1479 821 1305Q917 1137 918 731Q918 506 891 360Q864 213 811 135L930 -29L813 -113ZM465 369L582 453L686
309Q704 358 715 469Q723 561 723 758Q723 1051 672 1176Q623 1297 504 1296Q383 1296 334 1171Q283 1044 283 733Q283 428 332 299T498 170Q525 170 541 174T594 190L465 369Z" />
<glyph unicode="R" glyph-name="R" horiz-adv-x="890" d="M328 825H389Q510 825 559 880T608 1079Q608 1196 561 1243Q516 1288 383 1288H328V825ZM328 713V0H131V1460H369Q607 1460 707 1372T807 1079Q807 919 737 827Q669 737 532 719L879 0H668L334 713H328Z" />
<glyph unicode="S" glyph-name="S" horiz-adv-x="786" d="M94 256Q160 215 223 193Q278 173 334 172Q424 172 477 225T530 365Q530 494 328 659L291 690Q160 801 109 889Q58 979 57 1094Q57 1258 161 1368T422 1479Q483 1479 553 1462Q616 1448 678 1413V1217Q615
1260 567 1276Q506 1296 459 1296Q365 1296 310 1241T254 1096Q254 971 469 799Q477 793 487 785T500 774Q625 674 678 580Q729 490 729 367Q729 197 623 90Q514 -19 348 -18Q287 -18 223 0Q166 16 94 55V256Z" />
<glyph unicode="T" glyph-name="T" horiz-adv-x="778" d="M291 0V1278H20V1460H760V1278H489V0H291Z" />
<glyph unicode="U" glyph-name="U" horiz-adv-x="1007" d="M119 389V1460H313V373Q313 269 360 217Q405 168 503 168T647 217Q694 268 694 373V1460H889V389Q889 178 797 80T504 -18T211 80T119 389Z" />
<glyph unicode="V" glyph-name="V" horiz-adv-x="847" d="M506 0H340L20 1460H219L424 469L629 1460H827L506 0Z" />
<glyph unicode="W" glyph-name="W" horiz-adv-x="1234" d="M276 0L31 1460H225L367 461L537 1460H698L870 461L1010 1460H1204L961 0H799L618 1036L436 0H276Z" />
<glyph unicode="X" glyph-name="X" horiz-adv-x="782" d="M23 0L291 743L37 1460H233L393 981L551 1460H748L494 743L762 0H555L393 508L229 0H23Z" />
<glyph unicode="Y" glyph-name="Y" horiz-adv-x="786" d="M494 621V0H291V621L16 1460H219L342 1053Q354 1012 367 952Q369 940 375 914T385 865T393 819Q399 862 416 940Q422 971 444 1051L567 1460H772L494 621Z" />
<glyph unicode="Z" glyph-name="Z" horiz-adv-x="782" d="M18 0L492 1286H88V1460H760L291 182H719V0H18Z" />
<glyph unicode="[" glyph-name="bracketleft" horiz-adv-x="557" d="M141 -383V1561H516V1401H322V-223H516V-383H141Z" />
<glyph unicode="\" glyph-name="backslash" horiz-adv-x="565" d="M422 -190L0 1479H143L565 -190H422Z" />
<glyph unicode="]" glyph-name="bracketright" horiz-adv-x="557" d="M43 -383V-223H236V1401H43V1561H416V-383H43Z" />
<glyph unicode="^" glyph-name="asciicircum" horiz-adv-x="2048" d="M1104 1458L1624 901H1466L1024 1339L582 901H422L942 1458H1104Z" />
<glyph unicode="_" glyph-name="underscore" horiz-adv-x="1024" d="M1024 -365V-483H0V-365H1024Z" />
<glyph unicode="`" glyph-name="grave" horiz-adv-x="1024" d="M631 1114H526L289 1460H467L631 1114Z" />
<glyph unicode="a" glyph-name="a" horiz-adv-x="800" d="M518 0V96Q481 39 434 11T324 -18Q201 -18 135 111Q72 238 72 492Q72 744 135 870Q201 999 324 999Q390 999 434 973Q481 944 518 887V981H698V0H518ZM254 492Q254 305 285 227T389 150Q461 150 492 227Q525
309 524 492Q524 679 494 756Q463 832 389 832T285 756Q254 679 254 492Z" />
<glyph unicode="b" glyph-name="b" horiz-adv-x="800" d="M276 489Q276 302 307 225Q338 149 411 149T516 225Q547 302 547 489Q547 675 516 754Q485 830 412 830T307 754Q276 675 276 489ZM102 0V1550H283V885Q320 942 367 971Q412 998 477 997Q606 997 667 875T729
489Q729 229 668 106Q607 -19 477 -18Q414 -18 367 10T283 96V0H102Z" />
<glyph unicode="c" glyph-name="c" horiz-adv-x="520" d="M496 16Q463 0 422 -10T348 -20Q201 -20 129 104Q59 225 59 489Q59 743 129 870Q200 999 338 999Q375 999 420 989Q455 981 496 961V788Q476 808 446 823Q426 833 397 834Q319 834 281 745Q242 659 242
481Q242 317 278 238T393 158Q420 158 446 168Q466 176 496 201V16Z" />
<glyph unicode="d" glyph-name="d" horiz-adv-x="800" d="M254 489Q254 302 285 225Q316 149 389 149T494 225Q525 302 524 489Q524 675 494 754Q463 830 389 830T285 754Q254 675 254 489ZM518 0V96Q481 39 434 11T324 -18Q197 -18 133 106Q72 229 72 489Q72
751 133 874T324 997Q390 997 434 971Q481 942 518 885V1550H698V0H518Z" />
<glyph unicode="e" glyph-name="e" horiz-adv-x="739" d="M231 598H506V623Q506 740 473 799Q444 852 371 852Q303 852 266 788Q231 727 231 598ZM670 328V315Q670 161 592 72T379 -18Q213 -18 137 104Q61 225 61 496Q61 750 137 874T369 999Q533 999 606 885T680
514V457H231V428Q231 278 266 205Q299 135 377 135Q440 135 469 182Q502 233 504 328H670Z" />
<glyph unicode="f" glyph-name="f" horiz-adv-x="444" d="M125 0V842H27V981H125V1325Q125 1438 182 1505Q237 1571 336 1571Q361 1571 387 1565Q436 1555 453 1548V1384Q418 1394 416 1395Q404 1397 385 1397Q342 1397 326 1374Q308 1349 307 1298V981H442V842H307V0H125Z"
/>
<glyph unicode="g" glyph-name="g" horiz-adv-x="800" d="M254 492Q254 304 284 228T389 152T493 227T524 492Q524 679 494 756Q463 832 389 832T285 756Q254 679 254 492ZM698 -23Q698 -224 623 -311Q551 -395 375 -395Q234 -395 156 -322Q80 -248 80 -115V-84H252Q256
-164 285 -203Q316 -242 377 -242Q451 -242 485 -195Q518 -150 518 -41V98Q481 41 434 13T324 -16Q195 -16 134 106T72 492Q72 752 133 874Q196 999 324 999Q390 999 434 973Q481 944 518 887V981H698V-23Z" />
<glyph unicode="h" glyph-name="h" horiz-adv-x="815" d="M113 0V1550H293V883Q324 936 375 963Q428 992 498 991Q609 991 660 932T711 748V0H530V659Q530 753 504 795Q479 832 414 831Q357 831 324 793Q293 756 293 682V0H113Z" />
<glyph unicode="i" glyph-name="i" horiz-adv-x="409" d="M90 1274Q90 1325 123 1358T205 1391T286 1358T319 1274Q319 1227 285 1192Q252 1159 205 1159Q156 1159 123 1192T90 1274ZM115 0V981H295V0H115Z" />
<glyph unicode="j" glyph-name="j" horiz-adv-x="409" d="M90 1274Q90 1325 123 1358T205 1391T286 1358T319 1274Q319 1227 285 1192Q252 1159 205 1159Q156 1159 123 1192T90 1274ZM115 -395V981H295V-395H115Z" />
<glyph unicode="k" glyph-name="k" horiz-adv-x="782" d="M119 0V1550H299V545L559 981H752L481 530L764 0H569L299 516V0H119Z" />
<glyph unicode="l" glyph-name="l" horiz-adv-x="409" d="M115 0V1550H295V0H115Z" />
<glyph unicode="m" glyph-name="m" horiz-adv-x="1228" d="M113 0V981H291V883Q324 936 375 965Q422 992 492 991Q560 991 606 963T690 872Q727 927 784 961Q839 992 907 991Q1016 991 1067 932Q1120 869 1120 748V0H940V659Q940 753 913 795Q888 832 823 831Q766
831 733 793Q702 756 702 682V0H524V659Q524 753 498 795Q473 832 410 831Q355 831 322 793Q293 758 293 682V0H113Z" />
<glyph unicode="n" glyph-name="n" horiz-adv-x="815" d="M113 0V981H291V883Q328 938 379 964T498 991Q609 991 660 932T711 748V0H530V659Q530 753 504 795Q479 832 414 831Q357 831 324 793Q293 756 293 682V0H113Z" />
<glyph unicode="o" glyph-name="o" horiz-adv-x="782" d="M244 678T244 494T279 231Q316 147 391 147T504 231T541 493T504 756T391 840T279 756Q244 678 244 494ZM61 238T61 491T145 870Q231 999 391 999Q551 999 637 870Q721 745 721 492T637 113Q549 -18 391
-18T145 113Q61 238 61 491Z" />
<glyph unicode="p" glyph-name="p" horiz-adv-x="800" d="M276 492Q276 304 307 228T411 152T516 227T547 492Q547 679 516 756Q485 832 412 832T307 756Q276 679 276 492ZM102 -395V981H283V887Q320 944 367 973Q412 1000 477 999Q606 999 668 874Q729 751 729
492Q729 230 668 107T477 -16Q414 -16 367 12T283 98V-395H102Z" />
<glyph unicode="q" glyph-name="q" horiz-adv-x="800" d="M254 492Q254 304 284 228T389 152T493 227T524 492Q524 679 494 756Q463 832 389 832T285 756Q254 679 254 492ZM518 -395V96Q481 39 434 11T324 -18Q197 -18 133 106Q72 229 72 492Q72 752 133 874Q196
999 324 999Q387 999 434 971T518 885V981H698V-395H518Z" />
<glyph unicode="r" glyph-name="r" horiz-adv-x="552" d="M115 0V981H289V838Q326 916 385 956Q443 996 526 999V809H496Q392 809 342 756Q293 705 293 592V0H115Z" />
<glyph unicode="s" glyph-name="s" horiz-adv-x="557" d="M57 207Q92 174 133 158Q172 142 209 141Q266 141 301 174Q338 209 338 262Q338 323 240 420Q236 424 229 430T219 438Q121 532 90 590Q57 649 57 721Q57 848 133 924Q211 1002 330 1001Q363 1001 408
991Q449 981 485 961V776Q458 809 422 825T342 842Q295 842 260 811Q227 780 227 729Q227 663 322 578Q328 572 338 563T350 551Q439 468 473 403Q508 337 508 256Q508 131 432 57Q352 -19 229 -18Q192 -18 145 -8T57 18V207Z" />
<glyph unicode="t" glyph-name="t" horiz-adv-x="448" d="M123 0V848H25V981H123V1247H303V981H438V848H303V0H123Z" />
<glyph unicode="u" glyph-name="u" horiz-adv-x="815" d="M109 289V981H289V279Q289 209 319 176Q350 141 407 141T496 176Q527 209 526 279V981H709V289Q709 131 637 55Q565 -19 408 -18Q251 -18 180 55Q109 131 109 289Z" />
<glyph unicode="v" glyph-name="v" horiz-adv-x="671" d="M18 981H205L307 469Q319 414 324 367Q330 312 336 244Q338 271 344 316T352 381Q356 414 367 467L467 981H653L408 0H264L18 981Z" />
<glyph unicode="w" glyph-name="w" horiz-adv-x="1009" d="M530 481Q526 506 518 571Q506 671 504 692Q500 649 492 575Q486 514 477 481L389 0H262L35 981H211L305 477Q311 432 317 389Q323 340 332 268Q334 295 346 391Q352 440 358 477L446 981H563L653 477Q665
411 676 289Q676 285 677 278T678 268Q682 309 690 383Q696 444 705 477L797 981H975L745 0H618L530 481Z" />
<glyph unicode="x" glyph-name="x" horiz-adv-x="669" d="M240 520L47 981H236L334 698L434 981H621L430 520L655 0H465L334 342L205 0H14L240 520Z" />
<glyph unicode="y" glyph-name="y" horiz-adv-x="671" d="M27 981H213L328 338L483 981H662L266 -395H80L231 86L27 981Z" />
<glyph unicode="z" glyph-name="z" horiz-adv-x="675" d="M27 0L391 823H49V981H649L283 162H621V0H27Z" />
<glyph unicode="{" glyph-name="braceleft" horiz-adv-x="1024" d="M858 1350Q856 1350 849 1351T836 1352H813Q692 1352 649 1305Q606 1259 606 1108V866Q606 700 563 631Q522 561 408 530Q523 499 563 430Q606 360 606 195V-47Q606 -197 649 -242Q692 -289 819
-289H858V-414H823Q725 -414 664 -402T561 -362Q504 -323 483 -262Q460 -194 461 -49V195Q461 347 406 408T217 469H195Q189 469 182 468T172 467V594H195Q201 594 208 593T217 592Q350 592 405 653T461 868V1112Q461 1264 483 1327Q506 1393 561 1425Q602 1452
663 1464T823 1477H858V1350Z" />
<glyph unicode="|" glyph-name="bar" horiz-adv-x="1024" d="M575 1565V-483H449V1565H575Z" />
<glyph unicode="}" glyph-name="braceright" horiz-adv-x="1024" d="M563 1112V868Q563 714 618 653T809 592Q811 592 818 593T831 594H854V467Q852 467 845 468T831 469H809Q674 469 619 408T563 193V-49Q563 -199 541 -266Q521 -327 465 -365Q420 -394 367 -403Q318
-413 207 -414H166V-289Q168 -289 175 -290T188 -291H211Q332 -291 375 -244T418 -45V195Q418 361 461 430Q502 500 616 530Q501 561 461 631Q418 701 418 866V1108Q418 1259 375 1305Q332 1352 205 1352H166V1477H201Q301 1477 362 1465T465 1425Q518 1392 541
1327Q563 1259 563 1112Z" />
<glyph unicode="~" glyph-name="asciitilde" horiz-adv-x="1705" d="M1530 627Q1426 553 1333 518Q1243 483 1143 483Q1094 483 1053 492Q996 504 952 518Q927 526 864 549Q659 621 563 621Q479 621 389 584Q295 545 178 461V594Q276 664 381 702Q479 739 565
739Q620 739 682 727Q735 717 856 674Q862 672 872 668T899 657Q1053 600 1145 600Q1229 600 1319 637T1530 758V627Z" />
<glyph unicode="&#xa0;" glyph-name="uni00A0" horiz-adv-x="786" />
<glyph unicode="&#xa1;" glyph-name="exclamdown" horiz-adv-x="555" d="M164 1366Q164 1413 196 1446T279 1479Q326 1479 358 1446T391 1366Q391 1317 359 1284T279 1251Q230 1251 197 1284T164 1366ZM188 1104H369V0H188V1104Z" />
<glyph unicode="&#xa2;" glyph-name="cent" horiz-adv-x="786" d="M592 252Q576 244 539 231Q512 223 485 219V27H393V221Q268 244 211 362Q154 483 154 727Q154 958 213 1087Q270 1212 393 1235V1427H485V1235Q487 1235 506 1230T537 1221Q565 1212 592 1196V1026Q565
1051 543 1061Q523 1071 494 1071Q416 1071 375 981Q336 895 336 717Q336 553 373 473T487 393Q520 393 541 403Q574 419 592 436V252Z" />
<glyph unicode="&#xa3;" glyph-name="sterling" horiz-adv-x="786" d="M33 61Q53 151 100 198T213 246Q217 246 225 245T238 244Q246 244 262 240Q278 275 285 307Q293 356 293 385Q293 420 287 463Q283 500 264 551H92V639H227Q151 821 129 909Q100 1020 100
1102Q100 1277 193 1378Q285 1478 446 1479Q589 1479 673 1397T758 1180V1171L598 1102V1116Q598 1214 559 1262Q520 1311 444 1311Q370 1311 330 1257Q287 1202 287 1108Q287 1042 315 938Q342 844 418 639H604V551H438Q444 528 453 479Q457 454 457 403Q457 342
444 293Q432 246 408 205Q412 203 416 201T425 196T438 188Q504 153 526 154Q551 154 569 172Q585 188 596 227L756 174Q723 74 672 27Q625 -18 547 -18Q479 -18 385 29T264 76Q241 76 221 59Q203 43 186 6L33 61Z" />
<glyph unicode="&#xa4;" glyph-name="currency" horiz-adv-x="1239" d="M936 887Q936 1016 844 1108T623 1200Q494 1200 402 1108T309 887Q309 756 401 664T623 571T844 663T936 887ZM365 1212Q426 1258 487 1280Q550 1303 621 1303Q689 1303 756 1280Q819 1260
881 1212L1085 1419L1157 1346L952 1141Q995 1084 1016 1020Q1039 952 1039 885T1016 750Q993 680 952 629L1157 424L1085 350L881 557Q818 510 760 492Q692 469 621 469T485 492Q417 517 365 557L158 350L86 424L293 629Q248 690 227 752Q204 820 204 885T227
1018Q247 1079 293 1141L86 1346L158 1419L365 1212Z" />
<glyph unicode="&#xa5;" glyph-name="yen" horiz-adv-x="833" d="M625 975H823V899H598L541 727H823V651H514L506 621V0H328V621L317 651H12V727H293L236 899H12V975H211L51 1460H225L381 958Q391 925 403 860Q409 825 418 748Q422 803 430 854Q438 903 459 967L610
1460H782L625 975Z" />
<glyph unicode="&#xa6;" glyph-name="brokenbar" horiz-adv-x="1024" d="M575 408V-350H449V408H575ZM575 1432V674H449V1432H575Z" />
<glyph unicode="&#xa7;" glyph-name="section" horiz-adv-x="778" d="M260 580Q260 482 297 426Q336 369 397 369Q463 369 494 422Q527 477 526 582Q526 674 492 727T397 780Q334 780 297 725T260 580ZM96 -6H268V-16Q268 -110 297 -162Q325 -211 383 -211Q442
-211 471 -170Q502 -127 502 -49Q502 19 471 63Q438 110 324 184Q166 284 119 362Q70 442 70 565Q70 682 117 770Q162 856 254 907Q184 958 152 1024Q117 1094 117 1178Q117 1313 195 1397Q271 1479 397 1479Q532 1479 610 1393Q686 1309 686 1151Q686 1149 685
1143T684 1133V1112H512V1122Q512 1222 485 1270Q458 1319 403 1319Q350 1319 322 1284T293 1188Q293 1073 449 973Q488 948 508 934Q621 856 668 770Q717 681 717 561Q717 440 672 363T532 244Q610 178 645 109T680 -41Q680 -192 600 -281Q520 -371 385 -371Q244
-371 168 -283Q96 -199 96 -20V-6Z" />
<glyph unicode="&#xa8;" glyph-name="dieresis" horiz-adv-x="1024" d="M252 1229T252 1274T283 1350Q316 1383 358 1383T434 1350T467 1274T434 1198Q403 1167 358 1167T283 1198ZM555 1229T555 1274T586 1350Q619 1383 662 1383T737 1350T770 1274T737 1198Q706
1167 661 1167T586 1198Z" />
<glyph unicode="&#xa9;" glyph-name="copyright" horiz-adv-x="1705" d="M1065 911Q1049 991 995 1032Q940 1075 856 1075Q737 1075 674 983Q608 889 608 723Q608 561 674 471Q742 379 856 379Q942 379 1001 428T1075 561H1204Q1192 432 1096 354Q998 274 850
274Q674 274 569 395Q465 515 465 721Q465 926 573 1053Q679 1178 860 1178Q997 1178 1089 1104T1194 911H1065ZM1501 725Q1501 856 1452 975Q1405 1088 1313 1184Q1225 1272 1104 1323Q987 1372 852 1372Q723 1372 604 1325Q491 1280 399 1186Q303 1086 256 973Q207
852 207 725T256 481Q305 366 397 270Q489 178 606 129T852 80Q979 80 1100 129Q1217 176 1315 272Q1409 364 1454 477Q1501 596 1501 725ZM852 1460Q1002 1460 1137 1405T1376 1245Q1476 1145 1531 1010T1587 725Q1587 569 1534 442Q1477 307 1376 209Q1272 105
1130 47Q991 -10 852 -10Q705 -10 574 45T336 207Q232 307 174 446Q119 577 119 725Q119 864 176 1003T338 1247Q436 1347 571 1405Q705 1460 852 1460Z" />
<glyph unicode="&#xaa;" glyph-name="ordfeminine" horiz-adv-x="598" d="M389 774V842Q360 799 326 782Q285 762 244 762Q152 762 103 854T53 1118Q53 1294 102 1384T244 1475Q291 1475 326 1454Q363 1431 389 1395V1460H524V774H389ZM190 1118Q190 985 213 934Q238
879 293 879T371 934Q394 991 393 1118Q393 1247 371 1303Q348 1356 293 1356T213 1303Q190 1255 190 1118Z" />
<glyph unicode="&#xab;" glyph-name="guillemotleft" horiz-adv-x="720" d="M39 489L274 926L389 862L184 489L389 117L274 55L39 489ZM332 489L569 926L682 862L479 489L682 117L569 55L332 489Z" />
<glyph unicode="&#xac;" glyph-name="logicalnot" horiz-adv-x="1705" d="M1452 858V356H1337V741H254V858H1452Z" />
<glyph unicode="&#xad;" glyph-name="uni00AD" horiz-adv-x="557" d="M76 410V571H483V410H76Z" />
<glyph unicode="&#xae;" glyph-name="registered" horiz-adv-x="1705" d="M846 1065H702V774H850Q973 774 1024 807Q1077 842 1077 915Q1077 993 1022 1030Q971 1065 846 1065ZM872 1157Q1052 1157 1137 1100Q1223 1041 1223 926Q1223 838 1169 778Q1114 717 1026
702L1214 317H1057L881 682H702V317H561V1157H872ZM1501 721Q1501 853 1452 973Q1405 1090 1315 1182Q1219 1274 1104 1323Q987 1372 852 1372Q721 1372 604 1325Q493 1280 401 1188Q303 1090 256 975Q207 856 207 725Q207 598 256 481Q305 366 397 270Q491 176
604 129Q721 80 850 80T1100 129Q1217 176 1313 270Q1403 356 1452 475Q1501 592 1501 721ZM852 1460Q1002 1460 1137 1405Q1268 1352 1376 1243Q1474 1145 1532 1008Q1587 876 1587 725T1532 442Q1475 307 1374 209Q1270 105 1131 48T852 -10Q705 -10 574 45T334
209Q230 313 174 446Q119 577 119 725Q119 875 176 1008Q235 1145 340 1249Q440 1351 571 1407Q698 1460 852 1460Z" />
<glyph unicode="&#xaf;" glyph-name="overscore" horiz-adv-x="1024" d="M291 1202V1350H733V1202H291Z" />
<glyph unicode="&#xb0;" glyph-name="degree" horiz-adv-x="673" d="M539 1171Q539 1255 481 1313Q422 1372 338 1372T195 1313T135 1171Q135 1087 194 1028T338 969T481 1028Q539 1085 539 1171ZM338 1454Q455 1454 539 1370Q621 1288 621 1171Q621 1056 537
973T336 889T137 971T55 1171T137 1372T338 1454Z" />
<glyph unicode="&#xb1;" glyph-name="plusminus" horiz-adv-x="1705" d="M1452 158V41H254V158H1452ZM913 1180V836H1452V719H913V375H795V719H254V836H795V1180H913Z" />
<glyph unicode="&#xb2;" glyph-name="uni00B2" horiz-adv-x="518" d="M23 584L279 1049Q310 1102 330 1159Q346 1206 346 1255Q346 1310 324 1339T258 1368Q209 1368 188 1331Q165 1292 166 1206V1176H45Q45 1178 44 1183T43 1192V1219Q43 1346 98 1407Q155 1470
264 1470Q364 1470 421 1413T479 1255Q479 1200 457 1133Q437 1070 381 981L209 696H459V584H23Z" />
<glyph unicode="&#xb3;" glyph-name="uni00B3" horiz-adv-x="518" d="M29 813H141V791Q141 734 166 707Q191 678 242 678Q295 678 319 715T344 829Q344 929 311 961Q274 994 184 993H166V1090H207Q283 1090 307 1120Q334 1153 334 1247Q334 1315 313 1343Q291
1374 252 1374Q201 1374 180 1341Q162 1310 158 1225H45V1262Q45 1368 94 1419T244 1470Q353 1470 406 1411T459 1233Q459 1149 430 1102T344 1042Q412 1033 442 987Q471 944 471 844Q471 705 414 637Q359 574 233 573Q127 573 80 627Q29 684 29 791V813Z" />
<glyph unicode="&#xb4;" glyph-name="acute" horiz-adv-x="1024" d="M393 1114L557 1460H735L498 1114H393Z" />
<glyph unicode="&#xb5;" glyph-name="uni00B5" horiz-adv-x="1126" d="M362 1069L236 473Q230 450 225 408Q221 363 221 336Q221 225 279 168Q338 109 438 109Q561 109 645 211Q728 312 774 518L895 1069H1051L889 315Q885 299 882 284T877 253T872 231Q866 200
866 180Q866 147 885 131Q905 115 938 115H956Q958 115 964 116T973 117L946 -8Q934 -12 901 -16Q887 -18 854 -18Q784 -18 750 16T709 129Q670 61 592 20Q516 -19 420 -18Q334 -18 268 16Q200 51 158 119L45 -426H-111L205 1069H362Z" />
<glyph unicode="&#xb6;" glyph-name="paragraph" horiz-adv-x="1024" d="M948 1401H823V0H729V1401H547V0H451V782Q275 792 176 885Q76 979 76 1130Q76 1286 184 1382T469 1479H948V1401Z" />
<glyph unicode="&#xb7;" glyph-name="middot" horiz-adv-x="393" d="M84 729Q84 778 117 811T197 844T276 811Q311 776 311 729T279 649T197 616Q150 616 117 649T84 729Z" />
<glyph unicode="&#xb8;" glyph-name="cedilla" horiz-adv-x="1024" d="M283 -434V-315Q361 -342 397 -348Q452 -358 485 -358Q531 -358 553 -340Q576 -322 575 -283Q575 -240 547 -221Q520 -203 459 -203Q457 -203 452 -204T442 -205H424V0H510V-94H522Q612 -94
664 -141Q713 -188 713 -281Q713 -377 659 -426Q604 -477 506 -477Q453 -477 403 -467Q342 -454 283 -434Z" />
<glyph unicode="&#xb9;" glyph-name="uni00B9" horiz-adv-x="518" d="M213 584V1354H94V1460H334V584H213Z" />
<glyph unicode="&#xba;" glyph-name="ordmasculine" horiz-adv-x="587" d="M182 1120Q182 991 209 936Q238 877 293 877Q350 877 379 936Q406 991 406 1120T379 1305Q352 1362 293 1362Q236 1362 209 1305Q182 1249 182 1120ZM47 1118Q47 1294 110 1384T293 1475Q414
1475 477 1385T541 1118Q541 944 477 854Q412 762 293 762Q170 762 109 852T47 1118Z" />
<glyph unicode="&#xbb;" glyph-name="guillemotright" horiz-adv-x="720" d="M682 489L446 55L332 117L537 489L332 862L446 926L682 489ZM389 489L152 55L39 117L242 489L39 862L152 926L389 489Z" />
<glyph unicode="&#xbc;" glyph-name="onequarter" horiz-adv-x="1333" d="M1116 313V637L952 313H1116ZM1114 0V223H866V328L1124 817H1231V313H1296V223H1231V0H1114ZM156 -18L1042 1479H1180L293 -18H156ZM203 641V1360H90V1458H317V641H203Z" />
<glyph unicode="&#xbd;" glyph-name="onehalf" horiz-adv-x="1333" d="M860 0L1106 434Q1139 493 1153 539Q1169 592 1169 627Q1169 684 1149 707Q1126 734 1085 733Q1038 733 1018 699T997 580V551H883Q883 553 882 558T881 567V594Q881 709 934 768T1092 827Q1184
827 1241 774Q1296 721 1296 627Q1296 570 1276 514Q1251 451 1204 371L1040 104H1278V0H860ZM156 -18L1042 1479H1180L293 -18H156ZM203 641V1360H90V1458H317V641H203Z" />
<glyph unicode="&#xbe;" glyph-name="threequarters" horiz-adv-x="1333" d="M1116 313V637L952 313H1116ZM1114 0V223H866V328L1124 817H1231V313H1296V223H1231V0H1114ZM156 -18L1042 1479H1180L293 -18H156ZM27 854H135V836Q135 783 159 756T231 729Q280 729
305 764T330 870Q330 962 299 993T176 1024H158V1114Q160 1114 166 1113T174 1112H197Q271 1112 295 1141Q320 1168 319 1260Q319 1321 299 1352Q281 1381 240 1380Q193 1380 172 1348Q154 1317 150 1239H43V1274Q43 1368 90 1419Q135 1468 233 1468Q337 1468 387
1413Q438 1356 438 1247Q438 1165 412 1124Q385 1081 328 1069Q394 1059 422 1016Q451 971 451 883Q451 752 395 690Q342 631 221 631Q127 631 76 682Q27 731 27 836V854Z" />
<glyph unicode="&#xbf;" glyph-name="questiondown" horiz-adv-x="559" d="M412 1364Q412 1317 379 1284T297 1251Q250 1251 217 1284T184 1364Q184 1413 217 1446T297 1479Q346 1479 379 1446T412 1364ZM381 1098V666H375Q273 666 236 618Q199 573 199 383Q199
244 219 186Q237 135 287 135Q338 135 358 176T379 326V346H545V315Q545 134 483 57Q422 -21 283 -21T84 53Q27 125 27 313Q27 610 66 694Q107 782 207 784V1098H381Z" />
<glyph unicode="&#xc0;" glyph-name="Agrave" horiz-adv-x="899" d="M451 1083L319 451H582L451 1083ZM16 0L358 1460H543L885 0H686L616 287H283L215 0H16ZM570 1593H465L228 1939H406L570 1593Z" />
<glyph unicode="&#xc1;" glyph-name="Aacute" horiz-adv-x="899" d="M451 1083L319 451H582L451 1083ZM16 0L358 1460H543L885 0H686L616 287H283L215 0H16ZM332 1593L496 1939H674L437 1593H332Z" />
<glyph unicode="&#xc2;" glyph-name="Acircumflex" horiz-adv-x="899" d="M451 1083L319 451H582L451 1083ZM16 0L358 1460H543L885 0H686L616 287H283L215 0H16ZM213 1591L365 1939H537L689 1591H584L451 1802L318 1591H213Z" />
<glyph unicode="&#xc3;" glyph-name="Atilde" horiz-adv-x="899" d="M451 1083L319 451H582L451 1083ZM16 0L358 1460H543L885 0H686L616 287H283L215 0H16ZM691 1876Q673 1763 633 1704Q598 1651 533 1650Q515 1650 506 1653Q490 1657 478 1661L410 1685Q402
1689 385 1693Q377 1695 361 1696Q334 1696 318 1679Q300 1663 291 1628H211Q225 1734 265 1792Q302 1847 365 1847Q369 1847 394 1843Q402 1841 433 1833L502 1808Q518 1804 523 1804Q525 1804 531 1803T539 1802Q568 1802 586 1820Q600 1834 611 1876H691Z" />
<glyph unicode="&#xc4;" glyph-name="Adieresis" horiz-adv-x="899" d="M451 1083L319 451H582L451 1083ZM16 0L358 1460H543L885 0H686L616 287H283L215 0H16ZM191 1708T191 1753T222 1829Q255 1862 297 1862T373 1829T406 1753T373 1677Q342 1646 297 1646T222
1677ZM494 1708T494 1753T525 1829Q558 1862 601 1862T676 1829T709 1753T676 1677Q645 1646 600 1646T525 1677Z" />
<glyph unicode="&#xc5;" glyph-name="Aring" horiz-adv-x="899" d="M227 1655T227 1747T292 1904T451 1970Q545 1970 610 1905T676 1747T611 1590T451 1524Q359 1524 293 1589ZM344 1747Q344 1702 377 1669Q408 1638 453 1638T528 1669Q561 1702 561 1747Q561
1794 531 1824T453 1855T375 1825T344 1747ZM451 1083L319 451H582L451 1083ZM16 0L358 1460H543L885 0H686L616 287H283L215 0H16Z" />
<glyph unicode="&#xc6;" glyph-name="AE" horiz-adv-x="1200" d="M463 1141L319 451H596L463 1141ZM16 0L365 1460H913L952 1284H608L698 850H1010L1042 676H733L831 186H1176L1210 0H686L627 287H283L215 0H16Z" />
<glyph unicode="&#xc7;" glyph-name="Ccedilla" horiz-adv-x="778" d="M735 33Q678 4 637 -6Q588 -18 530 -18Q305 -18 195 166T84 717Q84 1094 203 1286T553 1479Q598 1479 649 1468Q692 1460 735 1440V1253Q690 1276 655 1284Q610 1294 582 1294Q422 1294 352
1157Q280 1018 281 719Q281 445 350 305Q418 170 561 170Q594 170 643 184Q682 194 735 225V33ZM512 -434V-315Q590 -342 626 -348Q681 -358 714 -358Q760 -358 782 -340Q805 -322 804 -283Q804 -240 776 -221Q749 -203 688 -203Q686 -203 681 -204T671 -205H653V0H739V-94H751Q841
-94 893 -141Q942 -188 942 -281Q942 -377 888 -426Q833 -477 735 -477Q682 -477 632 -467Q571 -454 512 -434Z" />
<glyph unicode="&#xc8;" glyph-name="Egrave" horiz-adv-x="784" d="M125 0V1460H709V1284H322V850H676V676H322V182H709V0H125ZM533 1593H428L191 1939H369L533 1593Z" />
<glyph unicode="&#xc9;" glyph-name="Eacute" horiz-adv-x="784" d="M125 0V1460H709V1284H322V850H676V676H322V182H709V0H125ZM295 1593L459 1939H637L400 1593H295Z" />
<glyph unicode="&#xca;" glyph-name="Ecircumflex" horiz-adv-x="784" d="M125 0V1460H709V1284H322V850H676V676H322V182H709V0H125ZM176 1591L328 1939H500L652 1591H547L414 1802L281 1591H176Z" />
<glyph unicode="&#xcb;" glyph-name="Edieresis" horiz-adv-x="784" d="M125 0V1460H709V1284H322V850H676V676H322V182H709V0H125ZM154 1708T154 1753T185 1829Q218 1862 260 1862T336 1829T369 1753T336 1677Q305 1646 260 1646T185 1677ZM457 1708T457 1753T488
1829Q521 1862 564 1862T639 1829T672 1753T639 1677Q608 1646 563 1646T488 1677Z" />
<glyph unicode="&#xcc;" glyph-name="Igrave" horiz-adv-x="460" d="M131 0V1460H328V0H131ZM350 1593H245L8 1939H186L350 1593Z" />
<glyph unicode="&#xcd;" glyph-name="Iacute" horiz-adv-x="460" d="M131 0V1460H328V0H131ZM112 1593L276 1939H454L217 1593H112Z" />
<glyph unicode="&#xce;" glyph-name="Icircumflex" horiz-adv-x="460" d="M131 0V1460H328V0H131ZM-7 1591L145 1939H317L469 1591H364L231 1802L98 1591H-7Z" />
<glyph unicode="&#xcf;" glyph-name="Idieresis" horiz-adv-x="460" d="M131 0V1460H328V0H131ZM-29 1708T-29 1753T2 1829Q35 1862 77 1862T153 1829T186 1753T153 1677Q122 1646 77 1646T2 1677ZM274 1708T274 1753T305 1829Q338 1862 381 1862T456 1829T489
1753T456 1677Q425 1646 380 1646T305 1677Z" />
<glyph unicode="&#xd0;" glyph-name="Eth" horiz-adv-x="1021" d="M338 188H440Q606 188 673 307T741 733Q741 1037 674 1157Q606 1276 440 1276H338V893H518V731H338V188ZM141 0V731H0V893H141V1460H401Q698 1460 821 1296Q942 1136 942 731Q942 323 821 164Q698
0 401 0H141Z" />
<glyph unicode="&#xd1;" glyph-name="Ntilde" horiz-adv-x="1013" d="M129 0V1460H311L698 446V1460H885V0H700L315 1022V0H129ZM752 1876Q734 1763 694 1704Q659 1651 594 1650Q576 1650 567 1653Q551 1657 539 1661L471 1685Q463 1689 446 1693Q438 1695 422
1696Q395 1696 379 1679Q361 1663 352 1628H272Q286 1734 326 1792Q363 1847 426 1847Q430 1847 455 1843Q463 1841 494 1833L563 1808Q579 1804 584 1804Q586 1804 592 1803T600 1802Q629 1802 647 1820Q661 1834 672 1876H752Z" />
<glyph unicode="&#xd2;" glyph-name="Ograve" horiz-adv-x="1005" d="M287 733Q287 430 338 295Q387 168 506 168Q623 168 672 289Q719 404 719 733Q719 1048 670 1171Q621 1296 504 1296Q385 1296 336 1171Q287 1044 287 733ZM88 729Q88 1130 186 1304T504 1479Q721
1479 821 1305Q917 1137 918 729Q918 323 821 156Q721 -18 504 -18T186 156Q88 328 88 729ZM623 1593H518L281 1939H459L623 1593Z" />
<glyph unicode="&#xd3;" glyph-name="Oacute" horiz-adv-x="1005" d="M287 733Q287 430 338 295Q387 168 506 168Q623 168 672 289Q719 404 719 733Q719 1048 670 1171Q621 1296 504 1296Q385 1296 336 1171Q287 1044 287 733ZM88 729Q88 1130 186 1304T504 1479Q721
1479 821 1305Q917 1137 918 729Q918 323 821 156Q721 -18 504 -18T186 156Q88 328 88 729ZM385 1593L549 1939H727L490 1593H385Z" />
<glyph unicode="&#xd4;" glyph-name="Ocircumflex" horiz-adv-x="1005" d="M287 733Q287 430 338 295Q387 168 506 168Q623 168 672 289Q719 404 719 733Q719 1048 670 1171Q621 1296 504 1296Q385 1296 336 1171Q287 1044 287 733ZM88 729Q88 1130 186 1304T504
1479Q721 1479 821 1305Q917 1137 918 729Q918 323 821 156Q721 -18 504 -18T186 156Q88 328 88 729ZM266 1591L418 1939H590L742 1591H637L504 1802L371 1591H266Z" />
<glyph unicode="&#xd5;" glyph-name="Otilde" horiz-adv-x="1005" d="M287 733Q287 430 338 295Q387 168 506 168Q623 168 672 289Q719 404 719 733Q719 1048 670 1171Q621 1296 504 1296Q385 1296 336 1171Q287 1044 287 733ZM88 729Q88 1130 186 1304T504 1479Q721
1479 821 1305Q917 1137 918 729Q918 323 821 156Q721 -18 504 -18T186 156Q88 328 88 729ZM744 1876Q726 1763 686 1704Q651 1651 586 1650Q568 1650 559 1653Q543 1657 531 1661L463 1685Q455 1689 438 1693Q430 1695 414 1696Q387 1696 371 1679Q353 1663 344
1628H264Q278 1734 318 1792Q355 1847 418 1847Q422 1847 447 1843Q455 1841 486 1833L555 1808Q571 1804 576 1804Q578 1804 584 1803T592 1802Q621 1802 639 1820Q653 1834 664 1876H744Z" />
<glyph unicode="&#xd6;" glyph-name="Odieresis" horiz-adv-x="1005" d="M287 733Q287 430 338 295Q387 168 506 168Q623 168 672 289Q719 404 719 733Q719 1048 670 1171Q621 1296 504 1296Q385 1296 336 1171Q287 1044 287 733ZM88 729Q88 1130 186 1304T504
1479Q721 1479 821 1305Q917 1137 918 729Q918 323 821 156Q721 -18 504 -18T186 156Q88 328 88 729ZM244 1708T244 1753T275 1829Q308 1862 350 1862T426 1829T459 1753T426 1677Q395 1646 350 1646T275 1677ZM547 1708T547 1753T578 1829Q611 1862 654 1862T729
1829T762 1753T729 1677Q698 1646 653 1646T578 1677Z" />
<glyph unicode="&#xd7;" glyph-name="multiply" horiz-adv-x="1705" d="M858 692L1333 1169L1415 1087L940 610L1415 135L1333 53L858 528L381 53L301 135L776 610L301 1087L381 1169L858 692Z" />
<glyph unicode="&#xd8;" glyph-name="Oslash" horiz-adv-x="1005" d="M682 1137Q662 1211 614 1255Q573 1294 504 1294Q385 1294 336 1169Q287 1046 287 733Q287 684 291 598T299 469L682 1137ZM324 340Q344 256 391 213Q434 172 506 172Q623 172 672 293Q719
408 719 733Q719 833 717 879Q715 928 707 1008L324 340ZM117 -18L41 25L154 219Q121 325 104 451Q88 582 88 731Q88 1130 186 1304T504 1479Q596 1479 670 1444Q742 1409 799 1337L877 1473L952 1430L850 1249Q883 1165 901 1036Q917 927 918 743Q918 333 821
158Q727 -16 504 -16Q406 -16 332 20Q254 59 203 131L117 -18Z" />
<glyph unicode="&#xd9;" glyph-name="Ugrave" horiz-adv-x="1007" d="M119 389V1460H313V373Q313 269 360 217Q405 168 503 168T647 217Q694 268 694 373V1460H889V389Q889 178 797 80T504 -18T211 80T119 389ZM623 1593H518L281 1939H459L623 1593Z" />
<glyph unicode="&#xda;" glyph-name="Uacute" horiz-adv-x="1007" d="M119 389V1460H313V373Q313 269 360 217Q405 168 503 168T647 217Q694 268 694 373V1460H889V389Q889 178 797 80T504 -18T211 80T119 389ZM385 1593L549 1939H727L490 1593H385Z" />
<glyph unicode="&#xdb;" glyph-name="Ucircumflex" horiz-adv-x="1007" d="M119 389V1460H313V373Q313 269 360 217Q405 168 503 168T647 217Q694 268 694 373V1460H889V389Q889 178 797 80T504 -18T211 80T119 389ZM266 1591L418 1939H590L742 1591H637L504 1802L371
1591H266Z" />
<glyph unicode="&#xdc;" glyph-name="Udieresis" horiz-adv-x="1007" d="M119 389V1460H313V373Q313 269 360 217Q405 168 503 168T647 217Q694 268 694 373V1460H889V389Q889 178 797 80T504 -18T211 80T119 389ZM244 1708T244 1753T275 1829Q308 1862 350 1862T426
1829T459 1753T426 1677Q395 1646 350 1646T275 1677ZM547 1708T547 1753T578 1829Q611 1862 654 1862T729 1829T762 1753T729 1677Q698 1646 653 1646T578 1677Z" />
<glyph unicode="&#xdd;" glyph-name="Yacute" horiz-adv-x="786" d="M494 621V0H291V621L16 1460H219L342 1053Q354 1012 367 952Q369 940 375 914T385 865T393 819Q399 862 416 940Q422 971 444 1051L567 1460H772L494 621ZM276 1593L440 1939H618L381 1593H276Z" />
<glyph unicode="&#xde;" glyph-name="Thorn" horiz-adv-x="894" d="M328 528H401Q536 528 590 582Q645 637 645 764Q645 885 586 940Q529 995 387 995H328V528ZM328 352V0H131V1460H328V1165L371 1167Q375 1167 382 1168T393 1169H428Q621 1169 731 1059T842 756Q842
557 725 453Q610 351 385 350H350Q346 350 339 351T328 352Z" />
<glyph unicode="&#xdf;" glyph-name="germandbls" horiz-adv-x="776" d="M106 0V1262Q106 1403 178 1481Q248 1557 385 1556Q539 1556 602 1475T666 1188Q666 1061 635 1006Q602 949 520 924Q628 909 668 825Q707 745 707 475Q707 188 646 90T420 -8H387V152Q465
154 493 207T522 442Q522 712 492 776Q461 842 377 842H365V987Q439 991 465 1032Q494 1077 494 1186Q494 1309 471 1354Q451 1397 389 1397Q336 1397 311 1362Q284 1325 285 1257V0H106Z" />
<glyph unicode="&#xe0;" glyph-name="agrave" horiz-adv-x="800" d="M518 0V96Q481 39 434 11T324 -18Q201 -18 135 111Q72 238 72 492Q72 744 135 870Q201 999 324 999Q390 999 434 973Q481 944 518 887V981H698V0H518ZM254 492Q254 305 285 227T389 150Q461
150 492 227Q525 309 524 492Q524 679 494 756Q463 832 389 832T285 756Q254 679 254 492ZM809 1114H704L467 1460H645L809 1114Z" />
<glyph unicode="&#xe1;" glyph-name="aacute" horiz-adv-x="800" d="M518 0V96Q481 39 434 11T324 -18Q201 -18 135 111Q72 238 72 492Q72 744 135 870Q201 999 324 999Q390 999 434 973Q481 944 518 887V981H698V0H518ZM254 492Q254 305 285 227T389 150Q461
150 492 227Q525 309 524 492Q524 679 494 756Q463 832 389 832T285 756Q254 679 254 492ZM571 1114L735 1460H913L676 1114H571Z" />
<glyph unicode="&#xe2;" glyph-name="acircumflex" horiz-adv-x="800" d="M518 0V96Q481 39 434 11T324 -18Q201 -18 135 111Q72 238 72 492Q72 744 135 870Q201 999 324 999Q390 999 434 973Q481 944 518 887V981H698V0H518ZM254 492Q254 305 285 227T389 150Q461
150 492 227Q525 309 524 492Q524 679 494 756Q463 832 389 832T285 756Q254 679 254 492ZM452 1112L604 1460H776L928 1112H823L690 1323L557 1112H452Z" />
<glyph unicode="&#xe3;" glyph-name="atilde" horiz-adv-x="800" d="M518 0V96Q481 39 434 11T324 -18Q201 -18 135 111Q72 238 72 492Q72 744 135 870Q201 999 324 999Q390 999 434 973Q481 944 518 887V981H698V0H518ZM254 492Q254 305 285 227T389 150Q461
150 492 227Q525 309 524 492Q524 679 494 756Q463 832 389 832T285 756Q254 679 254 492ZM930 1397Q912 1284 872 1225Q837 1172 772 1171Q754 1171 745 1174Q729 1178 717 1182L649 1206Q641 1210 624 1214Q616 1216 600 1217Q573 1217 557 1200Q539 1184 530
1149H450Q464 1255 504 1313Q541 1368 604 1368Q608 1368 633 1364Q641 1362 672 1354L741 1329Q757 1325 762 1325Q764 1325 770 1324T778 1323Q807 1323 825 1341Q839 1355 850 1397H930Z" />
<glyph unicode="&#xe4;" glyph-name="adieresis" horiz-adv-x="800" d="M518 0V96Q481 39 434 11T324 -18Q201 -18 135 111Q72 238 72 492Q72 744 135 870Q201 999 324 999Q390 999 434 973Q481 944 518 887V981H698V0H518ZM254 492Q254 305 285 227T389 150Q461
150 492 227Q525 309 524 492Q524 679 494 756Q463 832 389 832T285 756Q254 679 254 492ZM430 1229T430 1274T461 1350Q494 1383 536 1383T612 1350T645 1274T612 1198Q581 1167 536 1167T461 1198ZM733 1229T733 1274T764 1350Q797 1383 840 1383T915 1350T948
1274T915 1198Q884 1167 839 1167T764 1198Z" />
<glyph unicode="&#xe5;" glyph-name="aring" horiz-adv-x="800" d="M207 1192T207 1284T272 1441T430 1507Q524 1507 589 1442T655 1284T590 1127T430 1061Q338 1061 273 1126ZM518 0V96Q481 39 434 11T324 -18Q201 -18 135 111Q72 238 72 492Q72 744 135 870Q201
999 324 999Q390 999 434 973Q481 944 518 887V981H698V0H518ZM254 492Q254 305 285 227T389 150Q461 150 492 227Q525 309 524 492Q524 679 494 756Q463 832 389 832T285 756Q254 679 254 492ZM322 1284Q322 1241 354 1209T430 1176Q475 1176 508 1208Q539 1239
539 1284Q539 1331 508 1362T430 1393T353 1362T322 1284Z" />
<glyph unicode="&#xe6;" glyph-name="ae" horiz-adv-x="1128" d="M350 508Q291 508 256 459Q223 412 223 324Q223 234 256 186Q291 137 350 137T440 188Q471 241 471 340Q471 418 438 463T350 508ZM625 598H899V623Q899 740 866 799Q837 852 764 852Q698 852 662
793T625 625V598ZM1063 328V315Q1063 161 985 74T772 -14Q680 -14 623 22T524 143Q493 66 438 27Q381 -14 307 -14Q186 -14 119 76Q51 164 51 330Q51 475 118 559T301 643Q350 643 387 629Q428 613 463 584V659Q463 755 426 799Q387 844 307 844Q264 844 221 829Q170
813 125 784V954Q174 974 227 987Q279 999 332 999Q406 999 459 969Q511 938 545 877Q586 938 639 969Q691 1000 762 999Q926 999 999 885T1073 514V457H625V430Q625 280 659 207Q692 137 770 137Q833 137 862 184Q895 235 897 328H1063Z" />
<glyph unicode="&#xe7;" glyph-name="ccedilla" horiz-adv-x="520" d="M496 16Q463 0 422 -10T348 -20Q201 -20 129 104Q59 225 59 489Q59 743 129 870Q200 999 338 999Q375 999 420 989Q455 981 496 961V788Q476 808 446 823Q426 833 397 834Q319 834 281 745Q242
659 242 481Q242 317 278 238T393 158Q420 158 446 168Q466 176 496 201V16ZM99 -434V-315Q177 -342 213 -348Q268 -358 301 -358Q347 -358 369 -340Q392 -322 391 -283Q391 -240 363 -221Q336 -203 275 -203Q273 -203 268 -204T258 -205H240V0H326V-94H338Q428
-94 480 -141Q529 -188 529 -281Q529 -377 475 -426Q420 -477 322 -477Q269 -477 219 -467Q158 -454 99 -434Z" />
<glyph unicode="&#xe8;" glyph-name="egrave" horiz-adv-x="739" d="M231 598H506V623Q506 740 473 799Q444 852 371 852Q303 852 266 788Q231 727 231 598ZM670 328V315Q670 161 592 72T379 -18Q213 -18 137 104Q61 225 61 496Q61 750 137 874T369 999Q533 999
606 885T680 514V457H231V428Q231 278 266 205Q299 135 377 135Q440 135 469 182Q502 233 504 328H670ZM490 1114H385L148 1460H326L490 1114Z" />
<glyph unicode="&#xe9;" glyph-name="eacute" horiz-adv-x="739" d="M231 598H506V623Q506 740 473 799Q444 852 371 852Q303 852 266 788Q231 727 231 598ZM670 328V315Q670 161 592 72T379 -18Q213 -18 137 104Q61 225 61 496Q61 750 137 874T369 999Q533 999
606 885T680 514V457H231V428Q231 278 266 205Q299 135 377 135Q440 135 469 182Q502 233 504 328H670ZM252 1114L416 1460H594L357 1114H252Z" />
<glyph unicode="&#xea;" glyph-name="ecircumflex" horiz-adv-x="739" d="M231 598H506V623Q506 740 473 799Q444 852 371 852Q303 852 266 788Q231 727 231 598ZM670 328V315Q670 161 592 72T379 -18Q213 -18 137 104Q61 225 61 496Q61 750 137 874T369 999Q533
999 606 885T680 514V457H231V428Q231 278 266 205Q299 135 377 135Q440 135 469 182Q502 233 504 328H670ZM133 1112L285 1460H457L609 1112H504L371 1323L238 1112H133Z" />
<glyph unicode="&#xeb;" glyph-name="edieresis" horiz-adv-x="739" d="M231 598H506V623Q506 740 473 799Q444 852 371 852Q303 852 266 788Q231 727 231 598ZM670 328V315Q670 161 592 72T379 -18Q213 -18 137 104Q61 225 61 496Q61 750 137 874T369 999Q533
999 606 885T680 514V457H231V428Q231 278 266 205Q299 135 377 135Q440 135 469 182Q502 233 504 328H670ZM111 1229T111 1274T142 1350Q175 1383 217 1383T293 1350T326 1274T293 1198Q262 1167 217 1167T142 1198ZM414 1229T414 1274T445 1350Q478 1383 521
1383T596 1350T629 1274T596 1198Q565 1167 520 1167T445 1198Z" />
<glyph unicode="&#xec;" glyph-name="igrave" horiz-adv-x="409" d="M115 0V981H295V0H115ZM324 1114H219L-18 1460H160L324 1114Z" />
<glyph unicode="&#xed;" glyph-name="iacute" horiz-adv-x="409" d="M115 0V981H295V0H115ZM86 1114L250 1460H428L191 1114H86Z" />
<glyph unicode="&#xee;" glyph-name="icircumflex" horiz-adv-x="409" d="M115 0V981H295V0H115ZM-33 1112L119 1460H291L443 1112H338L205 1323L72 1112H-33Z" />
<glyph unicode="&#xef;" glyph-name="idieresis" horiz-adv-x="409" d="M115 0V981H295V0H115ZM-55 1229T-55 1274T-24 1350Q9 1383 51 1383T127 1350T160 1274T127 1198Q96 1167 51 1167T-24 1198ZM248 1229T248 1274T279 1350Q312 1383 355 1383T430 1350T463
1274T430 1198Q399 1167 354 1167T279 1198Z" />
<glyph unicode="&#xf0;" glyph-name="eth" horiz-adv-x="782" d="M244 465Q244 299 279 227Q316 149 391 149T504 227Q541 303 541 465T504 704T391 782T279 705Q244 633 244 465ZM494 893Q476 946 430 1036Q389 1120 346 1186L174 1108L125 1194L287 1272Q262
1313 229 1354Q186 1409 154 1446L281 1522Q336 1459 354 1434Q360 1426 428 1333L596 1413L651 1325L485 1245Q602 1069 664 870Q721 684 721 461Q721 225 637 104Q551 -19 391 -18Q233 -18 145 106Q61 227 61 463Q61 688 143 815Q226 944 365 944Q398 944 428
932Q455 922 494 893Z" />
<glyph unicode="&#xf1;" glyph-name="ntilde" horiz-adv-x="815" d="M113 0V981H291V883Q328 938 379 964T498 991Q609 991 660 932T711 748V0H530V659Q530 753 504 795Q479 832 414 831Q357 831 324 793Q293 756 293 682V0H113ZM906 1397Q888 1284 848 1225Q813
1172 748 1171Q730 1171 721 1174Q705 1178 693 1182L625 1206Q617 1210 600 1214Q592 1216 576 1217Q549 1217 533 1200Q515 1184 506 1149H426Q440 1255 480 1313Q517 1368 580 1368Q584 1368 609 1364Q617 1362 648 1354L717 1329Q733 1325 738 1325Q740 1325
746 1324T754 1323Q783 1323 801 1341Q815 1355 826 1397H906Z" />
<glyph unicode="&#xf2;" glyph-name="ograve" horiz-adv-x="782" d="M244 678T244 494T279 231Q316 147 391 147T504 231T541 493T504 756T391 840T279 756Q244 678 244 494ZM61 238T61 491T145 870Q231 999 391 999Q551 999 637 870Q721 745 721 492T637 113Q549
-18 391 -18T145 113Q61 238 61 491ZM768 1114H663L426 1460H604L768 1114Z" />
<glyph unicode="&#xf3;" glyph-name="oacute" horiz-adv-x="782" d="M244 678T244 494T279 231Q316 147 391 147T504 231T541 493T504 756T391 840T279 756Q244 678 244 494ZM61 238T61 491T145 870Q231 999 391 999Q551 999 637 870Q721 745 721 492T637 113Q549
-18 391 -18T145 113Q61 238 61 491ZM530 1114L694 1460H872L635 1114H530Z" />
<glyph unicode="&#xf4;" glyph-name="ocircumflex" horiz-adv-x="782" d="M244 678T244 494T279 231Q316 147 391 147T504 231T541 493T504 756T391 840T279 756Q244 678 244 494ZM61 238T61 491T145 870Q231 999 391 999Q551 999 637 870Q721 745 721 492T637
113Q549 -18 391 -18T145 113Q61 238 61 491ZM411 1112L563 1460H735L887 1112H782L649 1323L516 1112H411Z" />
<glyph unicode="&#xf5;" glyph-name="otilde" horiz-adv-x="782" d="M244 678T244 494T279 231Q316 147 391 147T504 231T541 493T504 756T391 840T279 756Q244 678 244 494ZM61 238T61 491T145 870Q231 999 391 999Q551 999 637 870Q721 745 721 492T637 113Q549
-18 391 -18T145 113Q61 238 61 491ZM889 1397Q871 1284 831 1225Q796 1172 731 1171Q713 1171 704 1174Q688 1178 676 1182L608 1206Q600 1210 583 1214Q575 1216 559 1217Q532 1217 516 1200Q498 1184 489 1149H409Q423 1255 463 1313Q500 1368 563 1368Q567
1368 592 1364Q600 1362 631 1354L700 1329Q716 1325 721 1325Q723 1325 729 1324T737 1323Q766 1323 784 1341Q798 1355 809 1397H889Z" />
<glyph unicode="&#xf6;" glyph-name="odieresis" horiz-adv-x="782" d="M244 678T244 494T279 231Q316 147 391 147T504 231T541 493T504 756T391 840T279 756Q244 678 244 494ZM61 238T61 491T145 870Q231 999 391 999Q551 999 637 870Q721 745 721 492T637 113Q549
-18 391 -18T145 113Q61 238 61 491ZM389 1229T389 1274T420 1350Q453 1383 495 1383T571 1350T604 1274T571 1198Q540 1167 495 1167T420 1198ZM692 1229T692 1274T723 1350Q756 1383 799 1383T874 1350T907 1274T874 1198Q843 1167 798 1167T723 1198Z" />
<glyph unicode="&#xf7;" glyph-name="divide" horiz-adv-x="1705" d="M854 365Q903 365 936 332T969 250Q969 203 936 170Q901 135 854 135Q805 135 772 168T739 250T772 332T854 365ZM1452 670V553H254V670H1452ZM807 1085T854 1085T936 1051Q969 1018 969 971Q969
922 936 889T854 856T772 889T739 971Q739 1018 772 1051Q807 1085 854 1085Z" />
<glyph unicode="&#xf8;" glyph-name="oslash" horiz-adv-x="782" d="M481 797Q463 822 444 829Q419 839 391 840Q315 840 279 756Q244 678 244 494Q244 451 248 385Q250 348 258 297L481 797ZM295 201Q315 170 337 158T391 145Q467 145 504 231T541 494Q541 557
535 608Q527 669 518 705L295 201ZM115 -23L162 88Q111 154 86 252Q61 347 61 492Q61 746 145 872Q231 1001 395 1001Q436 1001 481 991Q516 983 551 958L594 1053L662 1022L610 905Q663 842 692 737Q721 628 721 492Q721 244 637 111Q555 -20 397 -20Q342 -20
299 -8Q260 4 221 29L184 -53L115 -23Z" />
<glyph unicode="&#xf9;" glyph-name="ugrave" horiz-adv-x="815" d="M109 289V981H289V279Q289 209 319 176Q350 141 407 141T496 176Q527 209 526 279V981H709V289Q709 131 637 55Q565 -19 408 -18Q251 -18 180 55Q109 131 109 289ZM785 1114H680L443 1460H621L785
1114Z" />
<glyph unicode="&#xfa;" glyph-name="uacute" horiz-adv-x="815" d="M109 289V981H289V279Q289 209 319 176Q350 141 407 141T496 176Q527 209 526 279V981H709V289Q709 131 637 55Q565 -19 408 -18Q251 -18 180 55Q109 131 109 289ZM547 1114L711 1460H889L652
1114H547Z" />
<glyph unicode="&#xfb;" glyph-name="ucircumflex" horiz-adv-x="815" d="M109 289V981H289V279Q289 209 319 176Q350 141 407 141T496 176Q527 209 526 279V981H709V289Q709 131 637 55Q565 -19 408 -18Q251 -18 180 55Q109 131 109 289ZM428 1112L580 1460H752L904
1112H799L666 1323L533 1112H428Z" />
<glyph unicode="&#xfc;" glyph-name="udieresis" horiz-adv-x="815" d="M109 289V981H289V279Q289 209 319 176Q350 141 407 141T496 176Q527 209 526 279V981H709V289Q709 131 637 55Q565 -19 408 -18Q251 -18 180 55Q109 131 109 289ZM406 1229T406 1274T437
1350Q470 1383 512 1383T588 1350T621 1274T588 1198Q557 1167 512 1167T437 1198ZM709 1229T709 1274T740 1350Q773 1383 816 1383T891 1350T924 1274T891 1198Q860 1167 815 1167T740 1198Z" />
<glyph unicode="&#xfd;" glyph-name="yacute" horiz-adv-x="671" d="M27 981H213L328 338L483 981H662L266 -395H80L231 86L27 981ZM217 1114L381 1460H559L322 1114H217Z" />
<glyph unicode="&#xfe;" glyph-name="thorn" horiz-adv-x="800" d="M276 492Q276 304 307 228T411 152T516 229T547 491T516 753T412 831T307 756Q276 679 276 492ZM283 98V-395H102V1550H283V887Q320 944 367 973Q412 1000 477 999Q606 999 668 874Q729 751 729
492Q729 230 668 107T477 -16Q414 -16 367 12T283 98Z" />
<glyph unicode="&#xff;" glyph-name="ydieresis" horiz-adv-x="671" d="M27 981H213L328 338L483 981H662L266 -395H80L231 86L27 981ZM76 1229T76 1274T107 1350Q140 1383 182 1383T258 1350T291 1274T258 1198Q227 1167 182 1167T107 1198ZM379 1229T379 1274T410
1350Q443 1383 486 1383T561 1350T594 1274T561 1198Q530 1167 485 1167T410 1198Z" />
<glyph unicode="&#x106;" glyph-name="Cacute" horiz-adv-x="778" d="M735 33Q678 4 637 -6Q588 -18 530 -18Q305 -18 195 166T84 717Q84 1094 203 1286T553 1479Q598 1479 649 1468Q692 1460 735 1440V1253Q690 1276 655 1284Q610 1294 582 1294Q422 1294 352
1157Q280 1018 281 719Q281 445 350 305Q418 170 561 170Q594 170 643 184Q682 194 735 225V33ZM409 1593L573 1939H751L514 1593H409Z" />
<glyph unicode="&#x107;" glyph-name="cacute" horiz-adv-x="520" d="M496 16Q463 0 422 -10T348 -20Q201 -20 129 104Q59 225 59 489Q59 743 129 870Q200 999 338 999Q375 999 420 989Q455 981 496 961V788Q476 808 446 823Q426 833 397 834Q319 834 281 745Q242
659 242 481Q242 317 278 238T393 158Q420 158 446 168Q466 176 496 201V16ZM211 1114L375 1460H553L316 1114H211Z" />
<glyph unicode="&#x10c;" glyph-name="Ccaron" horiz-adv-x="778" d="M735 33Q678 4 637 -6Q588 -18 530 -18Q305 -18 195 166T84 717Q84 1094 203 1286T553 1479Q598 1479 649 1468Q692 1460 735 1440V1253Q690 1276 655 1284Q610 1294 582 1294Q422 1294 352
1157Q280 1018 281 719Q281 445 350 305Q418 170 561 170Q594 170 643 184Q682 194 735 225V33ZM290 1939H395L528 1730L661 1939H766L614 1591H442L290 1939Z" />
<glyph unicode="&#x10d;" glyph-name="ccaron" horiz-adv-x="520" d="M496 16Q463 0 422 -10T348 -20Q201 -20 129 104Q59 225 59 489Q59 743 129 870Q200 999 338 999Q375 999 420 989Q455 981 496 961V788Q476 808 446 823Q426 833 397 834Q319 834 281 745Q242
659 242 481Q242 317 278 238T393 158Q420 158 446 168Q466 176 496 201V16ZM92 1460H197L330 1251L463 1460H568L416 1112H244L92 1460Z" />
<glyph unicode="&#x111;" glyph-name="" horiz-adv-x="806" d="M254 489Q254 302 285 225Q316 149 389 149T494 225Q525 299 525 489T494 754Q463 830 389 830T285 754Q254 675 254 489ZM518 0V96Q481 39 434 11T324 -18Q197 -18 133 106Q72 229 72 489Q72 751
133 874T324 997Q390 997 434 971Q481 942 518 885V1202H322V1315H518V1550H698V1315H825V1202H698V0H518Z" />
<glyph unicode="&#x11e;" glyph-name="Gbreve" horiz-adv-x="1003" d="M924 784Q928 723 928 694Q928 680 929 652T930 610Q930 288 826 135T504 -18Q281 -18 181 156T80 729Q80 1137 180 1307Q282 1479 510 1479Q674 1479 770 1403Q870 1325 907 1171L733 1087Q713
1193 657 1245Q600 1298 512 1298Q385 1298 332 1176Q279 1051 279 733Q279 418 332 293T512 168Q627 168 684 262T741 543V586Q741 592 740 600T739 612H530V784H924ZM264 1913H361Q364 1839 398 1802Q431 1767 502 1767Q572 1767 606 1802Q639 1835 643 1913H740Q734
1770 674 1693Q616 1619 502 1620Q389 1620 330 1691Q274 1759 264 1913Z" />
<glyph unicode="&#x11f;" glyph-name="gbreve" horiz-adv-x="800" d="M254 492Q254 304 284 228T389 152T493 227T524 492Q524 679 494 756Q463 832 389 832T285 756Q254 679 254 492ZM698 -23Q698 -224 623 -311Q551 -395 375 -395Q234 -395 156 -322Q80 -248
80 -115V-84H252Q256 -164 285 -203Q316 -242 377 -242Q451 -242 485 -195Q518 -150 518 -41V98Q481 41 434 13T324 -16Q195 -16 134 106T72 492Q72 752 133 874Q196 999 324 999Q390 999 434 973Q481 944 518 887V981H698V-23ZM419 1434H516Q519 1360 553 1323Q586
1288 657 1288Q727 1288 761 1323Q794 1356 798 1434H895Q889 1291 829 1214Q771 1140 657 1141Q544 1141 485 1212Q429 1280 419 1434Z" />
<glyph unicode="&#x130;" glyph-name="Idot" horiz-adv-x="460" d="M131 0V1460H328V0H131ZM122 1757Q122 1802 155 1835T233 1868Q280 1868 313 1835T346 1757Q346 1710 313 1677T233 1644Q188 1644 155 1677T122 1757Z" />
<glyph unicode="&#x131;" glyph-name="dotlessi" horiz-adv-x="409" d="M115 0V981H295V0H115Z" />
<glyph unicode="&#x141;" glyph-name="Lslash" horiz-adv-x="770" d="M135 0V635L0 539V713L135 809V1460H332V907L557 1063V889L332 733V182H754V0H135Z" />
<glyph unicode="&#x142;" glyph-name="lslash" horiz-adv-x="425" d="M123 0V668L0 580V715L123 801V1550H305V889L428 975V842L305 756V0H123Z" />
<glyph unicode="&#x152;" glyph-name="OE" horiz-adv-x="1339" d="M283 733Q283 423 332 297Q381 172 492 172Q605 172 651 293Q698 416 698 733Q698 1044 651 1169T489 1294Q375 1294 330 1171Q283 1046 283 733ZM1264 1462V1286H877V850H1231V676H877V182H1264V0H725V123Q680
51 616 18Q550 -17 473 -16Q272 -16 180 162T88 731Q88 1127 180 1303T481 1479Q565 1479 621 1444Q680 1407 725 1331V1462H1264Z" />
<glyph unicode="&#x153;" glyph-name="oe" horiz-adv-x="1200" d="M700 598H975V623Q975 746 942 799Q909 854 840 854Q774 854 737 795Q700 738 700 625V598ZM1139 328V315Q1139 161 1061 72T848 -18Q766 -18 709 10Q656 37 616 102Q581 45 522 12Q467 -19 387
-18Q229 -18 145 111Q63 238 63 489T145 868Q229 997 387 997Q461 997 518 969T612 881Q647 938 705 971Q760 1002 838 1001Q1002 1001 1075 887Q1149 774 1149 514V457H700V430Q700 274 735 207Q772 135 846 135Q907 135 938 184Q971 235 973 328H1139ZM231 494Q231
312 268 226T381 139T493 225T530 494Q530 674 494 760Q457 844 381 844T268 760Q231 674 231 494Z" />
<glyph unicode="&#x15e;" glyph-name="Scedilla" horiz-adv-x="786" d="M94 256Q160 215 223 193Q278 173 334 172Q424 172 477 225T530 365Q530 494 328 659L291 690Q160 801 109 889Q58 979 57 1094Q57 1258 161 1368T422 1479Q483 1479 553 1462Q616 1448 678
1413V1217Q615 1260 567 1276Q506 1296 459 1296Q365 1296 310 1241T254 1096Q254 971 469 799Q477 793 487 785T500 774Q625 674 678 580Q729 490 729 367Q729 197 623 90Q514 -19 348 -18Q287 -18 223 0Q166 16 94 55V256ZM422 -434V-315Q500 -342 536 -348Q591
-358 624 -358Q670 -358 692 -340Q715 -322 714 -283Q714 -240 686 -221Q659 -203 598 -203Q596 -203 591 -204T581 -205H563V0H649V-94H661Q751 -94 803 -141Q852 -188 852 -281Q852 -377 798 -426Q743 -477 645 -477Q592 -477 542 -467Q481 -454 422 -434Z" />
<glyph unicode="&#x15f;" glyph-name="scedilla" horiz-adv-x="557" d="M57 207Q92 174 133 158Q172 142 209 141Q266 141 301 174Q338 209 338 262Q338 323 240 420Q236 424 229 430T219 438Q121 532 90 590Q57 649 57 721Q57 848 133 924Q211 1002 330 1001Q363
1001 408 991Q449 981 485 961V776Q458 809 422 825T342 842Q295 842 260 811Q227 780 227 729Q227 663 322 578Q328 572 338 563T350 551Q439 468 473 403Q508 337 508 256Q508 131 432 57Q352 -19 229 -18Q192 -18 145 -8T57 18V207ZM52 -434V-315Q130 -342 166
-348Q221 -358 254 -358Q300 -358 322 -340Q345 -322 344 -283Q344 -240 316 -221Q289 -203 228 -203Q226 -203 221 -204T211 -205H193V0H279V-94H291Q381 -94 433 -141Q482 -188 482 -281Q482 -377 428 -426Q373 -477 275 -477Q222 -477 172 -467Q111 -454 52
-434Z" />
<glyph unicode="&#x160;" glyph-name="Scaron" horiz-adv-x="786" d="M94 256Q160 215 223 193Q278 173 334 172Q424 172 477 225T530 365Q530 494 328 659L291 690Q160 801 109 889Q58 979 57 1094Q57 1258 161 1368T422 1479Q483 1479 553 1462Q616 1448 678
1413V1217Q615 1260 567 1276Q506 1296 459 1296Q365 1296 310 1241T254 1096Q254 971 469 799Q477 793 487 785T500 774Q625 674 678 580Q729 490 729 367Q729 197 623 90Q514 -19 348 -18Q287 -18 223 0Q166 16 94 55V256ZM157 1939H262L395 1730L528 1939H633L481
1591H309L157 1939Z" />
<glyph unicode="&#x161;" glyph-name="scaron" horiz-adv-x="557" d="M57 207Q92 174 133 158Q172 142 209 141Q266 141 301 174Q338 209 338 262Q338 323 240 420Q236 424 229 430T219 438Q121 532 90 590Q57 649 57 721Q57 848 133 924Q211 1002 330 1001Q363
1001 408 991Q449 981 485 961V776Q458 809 422 825T342 842Q295 842 260 811Q227 780 227 729Q227 663 322 578Q328 572 338 563T350 551Q439 468 473 403Q508 337 508 256Q508 131 432 57Q352 -19 229 -18Q192 -18 145 -8T57 18V207ZM43 1460H148L281 1251L414
1460H519L367 1112H195L43 1460Z" />
<glyph unicode="&#x178;" glyph-name="Ydieresis" horiz-adv-x="786" d="M494 621V0H291V621L16 1460H219L342 1053Q354 1012 367 952Q369 940 375 914T385 865T393 819Q399 862 416 940Q422 971 444 1051L567 1460H772L494 621ZM135 1708T135 1753T166 1829Q199
1862 241 1862T317 1829T350 1753T317 1677Q286 1646 241 1646T166 1677ZM438 1708T438 1753T469 1829Q502 1862 545 1862T620 1829T653 1753T620 1677Q589 1646 544 1646T469 1677Z" />
<glyph unicode="&#x17d;" glyph-name="Zcaron" horiz-adv-x="782" d="M18 0L492 1286H88V1460H760L291 182H719V0H18ZM155 1939H260L393 1730L526 1939H631L479 1591H307L155 1939Z" />
<glyph unicode="&#x17e;" glyph-name="zcaron" horiz-adv-x="675" d="M27 0L391 823H49V981H649L283 162H621V0H27ZM100 1460H205L338 1251L471 1460H576L424 1112H252L100 1460Z" />
<glyph unicode="&#x192;" glyph-name="florin" horiz-adv-x="786" d="M37 -215Q53 -219 59 -219Q63 -219 71 -220T82 -221Q119 -221 137 -201T164 -135L313 754H145L170 881H336L406 1286Q421 1387 473 1434Q524 1479 618 1479Q663 1479 688 1475Q737 1467 760
1460L727 1305Q721 1307 711 1309T694 1311Q684 1313 664 1313Q625 1313 602 1290Q582 1270 571 1206L516 881H698L678 754H496L338 -190Q316 -307 270 -350Q221 -395 125 -395Q102 -395 72 -389Q45 -385 6 -371L37 -215Z" />
<glyph unicode="&#x2c6;" glyph-name="circumflex" horiz-adv-x="1024" d="M274 1112L426 1460H598L750 1112H645L512 1323L379 1112H274Z" />
<glyph unicode="&#x2c7;" glyph-name="caron" horiz-adv-x="1024" d="M274 1460H379L512 1251L645 1460H750L598 1112H426L274 1460Z" />
<glyph unicode="&#x2d8;" glyph-name="breve" horiz-adv-x="1024" d="M274 1434H371Q374 1360 408 1323Q441 1288 512 1288Q582 1288 616 1323Q649 1356 653 1434H750Q744 1291 684 1214Q626 1140 512 1141Q399 1141 340 1212Q284 1280 274 1434Z" />
<glyph unicode="&#x2d9;" glyph-name="dotaccent" horiz-adv-x="1024" d="M403 1278Q403 1323 436 1356T514 1389Q561 1389 594 1356T627 1278Q627 1231 594 1198T514 1165Q469 1165 436 1198T403 1278Z" />
<glyph unicode="&#x2da;" glyph-name="ring" horiz-adv-x="1024" d="M258 1352Q258 1461 332 1534T514 1608T696 1534T770 1352Q770 1248 694 1172T514 1096T334 1172T258 1352ZM383 1350Q383 1297 422 1260Q465 1221 514 1221Q571 1221 608 1257T645 1350Q645
1401 606 1444Q569 1483 514 1483T422 1444Q383 1401 383 1350Z" />
<glyph unicode="&#x2db;" glyph-name="ogonek" horiz-adv-x="1024" d="M604 0Q549 -55 524 -106Q497 -163 498 -215Q498 -254 514 -274Q528 -292 569 -293H639V-449H559Q465 -449 416 -406T367 -274Q367 -215 406 -143Q441 -77 522 0H604Z" />
<glyph unicode="&#x2dc;" glyph-name="tilde" horiz-adv-x="1024" d="M752 1397Q734 1284 694 1225Q659 1172 594 1171Q576 1171 567 1174Q551 1178 539 1182L471 1206Q463 1210 446 1214Q438 1216 422 1217Q395 1217 379 1200Q361 1184 352 1149H272Q286 1255
326 1313Q363 1368 426 1368Q430 1368 455 1364Q463 1362 494 1354L563 1329Q579 1325 584 1325Q586 1325 592 1324T600 1323Q629 1323 647 1341Q661 1355 672 1397H752Z" />
<glyph unicode="&#x2dd;" glyph-name="hungarumlaut" horiz-adv-x="1024" d="M686 1460H870L641 1114H543L686 1460ZM428 1460H602L410 1114H313L428 1460Z" />
<glyph unicode="&#x3a9;" glyph-name="Omega" horiz-adv-x="1572" d="M1473 156V0H883V150Q1076 261 1180 428Q1282 594 1282 803Q1282 1057 1145 1208Q1008 1362 787 1362T426 1206Q289 1054 289 803Q289 596 391 430Q495 260 690 150V0H100V156H432Q272 285
190 440Q110 590 111 776Q111 1104 299 1308T786 1513T1274 1311Q1462 1106 1462 780Q1462 592 1384 442Q1304 288 1141 156H1473Z" />
<glyph unicode="&#x3c0;" glyph-name="pi" horiz-adv-x="1185" d="M1139 930H954L844 414Q832 359 823 299Q815 233 815 225Q815 168 839 144T920 119Q951 119 967 121Q1000 125 1018 129L989 0H983Q913 -16 885 -16Q774 -16 717 35T659 186Q659 245 670 307Q684
397 715 537L799 930H451L254 0H96L293 930H254Q201 930 170 899Q141 870 129 799H-16Q9 949 78 1010Q148 1069 301 1069H1167L1139 930Z" />
<glyph unicode="&#x2013;" glyph-name="endash" horiz-adv-x="1024" d="M0 430V551H1024V430H0Z" />
<glyph unicode="&#x2014;" glyph-name="emdash" horiz-adv-x="2048" d="M0 430V551H2048V430H0Z" />
<glyph unicode="&#x2018;" glyph-name="quoteleft" horiz-adv-x="421" d="M68 1036L254 1550L354 1520L221 989L68 1036Z" />
<glyph unicode="&#x2019;" glyph-name="quoteright" horiz-adv-x="421" d="M354 1503L168 991L68 1020L201 1550L354 1503Z" />
<glyph unicode="&#x201a;" glyph-name="quotesinglbase" horiz-adv-x="421" d="M354 197L168 -317L68 -287L201 244L354 197Z" />
<glyph unicode="&#x201c;" glyph-name="quotedblleft" horiz-adv-x="671" d="M68 1036L254 1550L354 1520L221 989L68 1036ZM315 1036L502 1550L602 1520L469 989L315 1036Z" />
<glyph unicode="&#x201d;" glyph-name="quotedblright" horiz-adv-x="671" d="M354 1503L168 991L68 1020L201 1550L354 1503ZM602 1503L416 991L315 1020L449 1550L602 1503Z" />
<glyph unicode="&#x201e;" glyph-name="quotedblbase" horiz-adv-x="671" d="M602 197L416 -317L315 -287L449 244L602 197ZM354 197L168 -317L68 -287L201 244L354 197Z" />
<glyph unicode="&#x2020;" glyph-name="dagger" horiz-adv-x="778" d="M297 -403V823H27V995H297V1460H485V995H754V823H485V-403H297Z" />
<glyph unicode="&#x2021;" glyph-name="daggerdbl" horiz-adv-x="778" d="M477 -403H303V41H27V205H303V858H27V1022H303V1460H477V1022H754V858H477V205H754V41H477V-403Z" />
<glyph unicode="&#x2022;" glyph-name="bullet" horiz-adv-x="1206" d="M307 762Q307 885 393 971T604 1057Q727 1057 813 971T899 762Q899 641 811 553T602 465T393 553Q307 639 307 762Z" />
<glyph unicode="&#x2026;" glyph-name="ellipsis" horiz-adv-x="2048" d="M227 92Q227 141 260 174T340 207T419 174Q454 139 454 92T422 13T340 -20Q293 -20 260 12T227 92ZM909 92Q909 141 942 174T1022 207T1101 174Q1136 139 1136 92T1104 13T1022 -20Q975
-20 942 12T909 92ZM1593 92Q1593 141 1626 174T1706 207T1785 174Q1820 139 1820 92T1788 13T1706 -20Q1659 -20 1626 12T1593 92Z" />
<glyph unicode="&#x2030;" glyph-name="perthousand" horiz-adv-x="2207" d="M1765 408Q1765 220 1788 168Q1813 113 1874 113Q1937 113 1962 170Q1985 221 1985 407T1962 645Q1937 702 1874 702Q1813 702 1788 649Q1765 603 1765 408ZM1616 408Q1616 660 1671
745T1874 831Q2021 831 2076 745T2132 408Q2132 154 2077 68T1874 -18Q1727 -18 1672 68T1616 408ZM1122 408Q1122 220 1145 168Q1170 113 1231 113T1317 170Q1342 225 1342 407T1317 645Q1292 702 1231 702T1145 649Q1122 603 1122 408ZM973 408Q973 660 1028
745T1231 831Q1378 831 1433 745T1489 408Q1489 154 1434 68T1231 -18Q1084 -18 1029 68T973 408ZM514 -18H387L1051 1479H1178L514 -18ZM223 1047Q223 865 248 809Q273 752 334 752Q397 752 420 807Q443 864 443 1046T420 1286Q397 1341 334 1341Q273 1341 248
1286T223 1047ZM76 793T76 1046T131 1386T334 1473Q479 1473 535 1386Q592 1296 592 1047Q592 793 537 707T334 621Q187 621 132 707Z" />
<glyph unicode="&#x2039;" glyph-name="guilsinglleft" horiz-adv-x="468" d="M59 489L297 926L410 862L207 489L410 117L297 55L59 489Z" />
<glyph unicode="&#x203a;" glyph-name="guilsinglright" horiz-adv-x="468" d="M410 489L174 55L59 117L264 489L59 862L174 926L410 489Z" />
<glyph unicode="&#x20a3;" glyph-name="franc" horiz-adv-x="1339" d="M131 0V1460H729V1284H328V848H696V674H328V0H131ZM901 0V981H1075V838Q1112 916 1171 956Q1229 996 1312 999V809H1282Q1178 809 1128 756Q1079 705 1079 592V0H901Z" />
<glyph unicode="&#x2122;" glyph-name="trademark" horiz-adv-x="1705" d="M948 1456L1108 1051L1257 1456H1389V922H1307V1380L1135 922H1081L901 1380V922H819V1456H948ZM694 1456V1389H522V922H428V1389H254V1456H694Z" />
<glyph unicode="&#x2202;" glyph-name="partialdiff" horiz-adv-x="1042" d="M754 604Q770 708 774 766Q780 846 780 924Q780 1065 741 1141T629 1217Q576 1217 513 1154T403 1090Q374 1090 352 1112T330 1163Q330 1221 397 1268Q467 1315 561 1315Q733 1315 834
1163Q936 1007 936 750Q936 418 797 195Q660 -24 453 -25Q306 -25 212 81T117 354Q117 542 225 669T492 797Q590 797 655 750Q715 706 754 604ZM709 483Q709 600 664 663T537 727Q422 727 352 600Q280 469 281 266Q281 151 326 88Q369 27 453 27Q564 27 637 156Q709
280 709 483Z" />
<glyph unicode="&#x2206;" glyph-name="uni2206" horiz-adv-x="1355" d="M1122 158L678 1296L233 158H1122ZM780 1473L1366 0H-8L578 1473H780Z" />
<glyph unicode="&#x220f;" glyph-name="product" horiz-adv-x="1527" d="M160 1473H1368V-393H1167V1300H358V-393H160V1473Z" />
<glyph unicode="&#x2211;" glyph-name="summation" horiz-adv-x="1345" d="M51 1473H1290V1307H301L991 563L272 -229H1307V-393H18V-254L756 559L51 1317V1473Z" />
<glyph unicode="&#x2212;" glyph-name="minus" horiz-adv-x="1705" d="M1452 670V551H254V670H1452Z" />
<glyph unicode="&#x2215;" glyph-name="uni2215" horiz-adv-x="339" d="M-342 -18L545 1479H682L-205 -18H-342Z" />
<glyph unicode="&#x2219;" glyph-name="uni2219" horiz-adv-x="393" d="M84 729Q84 778 117 811T197 844T276 811Q311 776 311 729T279 649T197 616Q150 616 117 649T84 729Z" />
<glyph unicode="&#x221a;" glyph-name="radical" horiz-adv-x="1286" d="M1288 1647V1565H1169L575 -41H522L199 852L80 809L57 877L319 969L584 240L1106 1647H1288Z" />
<glyph unicode="&#x221e;" glyph-name="infinity" horiz-adv-x="1705" d="M905 559Q958 463 1024 418Q1094 371 1180 371Q1280 371 1348 442Q1416 512 1416 622T1354 803Q1293 875 1202 874Q1116 874 1049 801Q977 721 905 559ZM803 666Q748 766 684 809Q614 856
530 856Q424 856 359 785T293 602Q293 494 354 424Q415 352 506 352Q588 352 657 422Q725 492 803 666ZM840 727Q910 870 985 932Q1067 998 1161 997Q1294 997 1386 889Q1478 783 1479 616Q1479 446 1397 340T1184 233Q1088 233 1016 293Q942 354 866 494Q796 359
719 293Q643 230 545 229Q412 229 320 337T227 610Q227 784 309 887Q393 993 524 993Q624 993 696 930Q777 860 840 727Z" />
<glyph unicode="&#x222b;" glyph-name="integral'" horiz-adv-x="1019" d="M301 -268Q405 -268 418 395Q418 432 419 509T422 612Q434 1114 524 1331T805 1548Q883 1548 928 1509T973 1405Q973 1358 942 1327Q913 1298 860 1298Q805 1298 774 1333Q743 1367 743
1425Q743 1433 737 1440Q729 1448 723 1448Q621 1448 604 813Q602 661 598 569Q589 262 567 109Q547 -36 504 -139Q455 -253 381 -311Q305 -370 213 -371Q139 -371 94 -334Q47 -297 47 -236Q47 -183 78 -152T162 -121Q207 -121 242 -150Q275 -177 274 -217Q274
-242 281 -254Q287 -268 301 -268Z" />
<glyph unicode="&#x2248;" glyph-name="approxequal" horiz-adv-x="1705" d="M1530 453Q1422 379 1327 342Q1237 307 1141 307Q1043 307 855 376T563 446Q479 446 393 410Q295 369 178 287V418Q278 488 381 526Q476 563 565 563Q669 563 866 494Q1056 426 1143
426Q1233 426 1317 461T1530 584V453ZM1530 803Q1434 735 1329 694Q1239 659 1143 659Q1045 659 854 727Q657 797 563 797Q475 797 391 762T178 639V770Q278 840 381 879Q476 916 565 915Q669 915 866 846Q1056 778 1143 778Q1227 778 1319 813Q1403 844 1530 934V803Z"
/>
<glyph unicode="&#x2260;" glyph-name="notequal" horiz-adv-x="1705" d="M1298 1110L1102 860H1452V745H1028L817 475H1452V360H743L492 41L403 111L600 360H254V475H674L885 745H254V860H958L1210 1180L1298 1110Z" />
<glyph unicode="&#x2264;" glyph-name="lessequal" horiz-adv-x="1705" d="M1444 150V33H262V150H1444ZM1444 1067L467 743L1444 420V295L262 694V795L1444 1192V1067Z" />
<glyph unicode="&#x2265;" glyph-name="greaterequal" horiz-adv-x="1705" d="M1444 150V33H262V150H1444ZM1444 795V694L262 295V420L1241 743L262 1067V1192L1444 795Z" />
<glyph unicode="&#x25ca;" glyph-name="lozenge" horiz-adv-x="1011" d="M506 1409L121 592L506 -233L891 592L506 1409ZM506 1653L1006 592L506 -477L6 592L506 1653Z" />
<glyph unicode="&#xf000;" glyph-name="uniF000" horiz-adv-x="1617" d="M836 1217Q836 1219 835 1223T834 1231V1253Q834 1376 930 1483Q1028 1589 1165 1614Q1165 1612 1166 1604T1167 1591V1552Q1167 1421 1063 1317Q961 1215 860 1214H852H844L840 1215L836
1217ZM1505 403Q1390 153 1300 61Q1208 -35 1096 -35Q1045 -35 965 -2T842 31Q795 31 711 -2T584 -35Q519 -35 455 8Q392 51 326 141Q220 288 168 436Q113 593 113 737Q113 956 237 1093T561 1231Q629 1231 717 1196Q801 1163 840 1163Q873 1163 961 1198T1114
1233Q1227 1233 1313 1194Q1395 1157 1473 1069Q1371 1003 1322 924T1272 741Q1272 624 1331 541Q1392 454 1505 403Z" />
<glyph unicode="&#xf001;" glyph-name="uniF001" horiz-adv-x="839" d="M520 1274Q520 1325 553 1358T635 1391T717 1358T750 1274Q750 1225 717 1192T635 1159T553 1192T520 1274ZM545 0V981H725V0H545ZM125 0V842H27V981H125V1325Q125 1438 182 1505Q237 1571
336 1571Q361 1571 387 1565Q436 1555 453 1548V1384Q418 1394 416 1395Q404 1397 385 1397Q342 1397 326 1374Q308 1349 307 1298V981H442V842H307V0H125Z" />
<glyph unicode="&#xf002;" glyph-name="uniF002" horiz-adv-x="839" d="M545 0V1550H725V0H545ZM125 0V842H27V981H125V1325Q125 1438 182 1505Q237 1571 336 1571Q361 1571 387 1565Q436 1555 453 1548V1384Q418 1394 416 1395Q404 1397 385 1397Q342 1397 326
1374Q308 1349 307 1298V981H442V842H307V0H125Z" />
</font>
</defs>
</svg>
