<?xml version="1.0" standalone="no"?> <!DOCTYPE svg PUBLIC "-//W3C//DTD SVG 1.0//EN" "http://www.w3.org/TR/2001/REC-SVG-20010904/DTD/svg10.dtd" > <svg xmlns="http://www.w3.org/2000/svg" width="100%" height="100%">
<defs >
<font id="FuturaBT-BoldCondensed" horiz-adv-x="726" ><font-face
    font-family="Futura BdCn BT"
    units-per-em="2048"
    panose-1="2 11 7 6 2 2 4 2 2 4"
    ascent="1972"
    descent="-483"
    alphabetic="0" />
<missing-glyph horiz-adv-x="1228" d="M102 -362V1444H1126V-362H102ZM217 -248H1012V1329H217V-248Z" />
<glyph unicode=" " glyph-name="space" horiz-adv-x="450" />
<glyph unicode="!" glyph-name="exclam" horiz-adv-x="561" d="M145 428V1460H420V428H145ZM459 158Q459 84 408 33T283 -18Q213 -18 158 33Q107 82 107 157T158 283Q213 334 282 334T408 283Q459 234 459 158Z" />
<glyph unicode="&quot;" glyph-name="quotedbl" horiz-adv-x="641" d="M395 1436H559V879H395V1436ZM86 1436H250V879H86V1436Z" />
<glyph unicode="#" glyph-name="numbersign" horiz-adv-x="1574" d="M709 852L618 598H874L965 852H709ZM735 1460H926L772 1024H1022L1178 1460H1368L1214 1024H1505L1446 852H1153L1063 600H1372L1311 428H1004L848 -6H657L813 428H561L403 -6H213L369 428H70L131
600H428L518 852H203L264 1024H580L735 1460Z" />
<glyph unicode="$" glyph-name="dollar" horiz-adv-x="899" d="M37 172L154 375Q215 309 279 276Q345 241 406 242Q488 242 539 291T590 414Q590 525 403 625Q362 645 330 666Q176 752 111 846T45 1065Q45 1202 111 1298Q174 1392 297 1436V1620H383V1452H389Q434
1456 442 1456Q444 1456 451 1455T463 1454Q477 1454 487 1452V1620H573V1442Q649 1424 707 1391Q760 1360 807 1303L670 1106Q609 1161 555 1184Q492 1211 442 1210Q381 1210 342 1174T303 1079Q303 983 496 883L520 870Q715 774 780 680Q848 585 848 434Q848
282 774 172T573 25V-182H487V10Q467 6 455 4T418 2H397Q395 2 390 3T383 4V-182H297V18Q231 24 162 63Q100 98 37 172Z" />
<glyph unicode="%" glyph-name="percent" horiz-adv-x="1675" d="M385 -18L1110 1479H1272L551 -18H385ZM1212 418Q1212 267 1231 215Q1249 164 1298 164T1366 219Q1386 280 1386 418Q1386 561 1366 623Q1348 676 1299 676T1231 623Q1212 568 1212 418ZM1589 635T1589
420T1516 94Q1440 -19 1299 -19T1083 94Q1007 211 1008 420Q1008 631 1083 748Q1157 861 1298 860Q1441 860 1515 748ZM276 1042Q276 890 297 842Q320 789 365 788Q414 788 432 842Q450 893 451 1042Q451 1196 433 1247T365 1298Q320 1298 297 1243Q276 1189 276
1042ZM655 1038Q655 827 580 713Q504 600 365 600Q224 600 150 713Q74 830 74 1038Q74 1249 150 1366Q224 1479 365 1479T580 1366Q655 1249 655 1038Z" />
<glyph unicode="&amp;" glyph-name="ampersand" horiz-adv-x="1114" d="M614 295L432 584Q373 547 350 512Q325 475 326 428Q326 350 371 303Q418 252 483 252Q506 252 543 262Q571 270 614 295ZM489 940L520 967Q555 996 578 1038Q598 1077 598 1118Q598 1161
575 1190Q555 1217 518 1217Q473 1217 446 1188Q417 1155 418 1110Q418 1096 426 1059Q430 1036 446 1010L489 940ZM735 102Q674 45 610 18Q540 -11 465 -10Q293 -10 180 115Q65 242 66 420Q66 529 125 629Q186 731 295 805Q232 907 207 979Q182 1049 182 1112Q182
1259 276 1346Q371 1432 528 1432Q671 1432 758 1348Q846 1262 846 1130Q846 1024 786 930Q720 828 612 750L797 457L942 612L1090 406L924 256L1087 0H799L735 102Z" />
<glyph unicode="&apos;" glyph-name="quotesingle" horiz-adv-x="333" d="M86 1436H250V879H86V1436Z" />
<glyph unicode="(" glyph-name="parenleft" horiz-adv-x="565" d="M532 -383L309 -444Q192 -200 137 49Q80 303 80 555Q80 825 137 1069Q196 1321 309 1556L532 1495Q426 1272 375 1044Q324 815 324 555Q324 305 375 76Q426 -150 532 -383Z" />
<glyph unicode=")" glyph-name="parenright" horiz-adv-x="565" d="M33 -383Q139 -158 190 71T242 555Q242 817 191 1046T33 1495L258 1556Q373 1316 428 1069Q485 811 485 555Q485 301 428 47Q373 -195 258 -444L33 -383Z" />
<glyph unicode="*" glyph-name="asterisk" horiz-adv-x="899" d="M178 872L111 987L338 1106L111 1225L176 1339L395 1204L385 1460H516L506 1204L723 1339L791 1225L561 1106L788 987L723 872L506 1010L516 752H385L395 1010L178 872Z" />
<glyph unicode="+" glyph-name="plus" horiz-adv-x="1705" d="M768 1221H938V694H1452V528H938V0H768V528H254V694H768V1221Z" />
<glyph unicode="," glyph-name="comma" horiz-adv-x="450" d="M0 -281L162 326H451L203 -281H0Z" />
<glyph unicode="-" glyph-name="hyphen" horiz-adv-x="667" d="M76 332V649H592V332H76Z" />
<glyph unicode="." glyph-name="period" horiz-adv-x="450" d="M401 166Q401 94 350 39Q301 -12 225 -12Q151 -12 100 39T49 166T100 291Q155 342 225 342T350 291Q401 242 401 166Z" />
<glyph unicode="/" glyph-name="slash" horiz-adv-x="626" d="M451 1479H627L176 -190H0L451 1479Z" />
<glyph unicode="0" glyph-name="zero" horiz-adv-x="899" d="M330 727Q330 446 356 348Q385 246 450 246T543 346Q570 444 569 727Q569 1016 543 1114Q516 1214 451 1214T356 1112Q330 1014 330 727ZM848 729Q848 367 746 175T451 -18T156 174T53 729Q53 1094
155 1286T450 1479T745 1287T848 729Z" />
<glyph unicode="1" glyph-name="one" horiz-adv-x="899" d="M336 0V1219H197V1460H616V0H336Z" />
<glyph unicode="2" glyph-name="two" horiz-adv-x="899" d="M63 0L422 698Q490 831 524 936Q559 1038 559 1114Q559 1186 532 1221Q504 1258 453 1257Q381 1257 352 1198Q323 1137 324 963H86Q86 965 85 973T84 985V1022Q84 1245 182 1362T469 1479Q631 1479 725
1382Q821 1282 821 1118Q821 1003 772 868Q721 731 582 477L457 252H784V0H63Z" />
<glyph unicode="3" glyph-name="three" horiz-adv-x="899" d="M49 418H293V401Q293 313 322 272Q355 227 408 227Q471 227 504 283Q537 336 537 438Q537 555 494 604T352 653Q350 653 345 652T336 651H317V891H336Q455 891 506 934T557 1075Q557 1149 527 1192T444
1235Q387 1235 360 1194Q331 1149 332 1069V1053H96V1087Q96 1277 188 1378T459 1479Q623 1479 711 1377T799 1081Q799 950 743 870Q690 794 582 778V760Q714 735 778 649Q844 561 844 418Q844 211 731 96Q618 -21 420 -20Q244 -20 146 84T47 379V397Q47 401 48
408T49 418Z" />
<glyph unicode="4" glyph-name="four" horiz-adv-x="899" d="M246 582H489V995Q489 1026 492 1051Q492 1061 494 1080T497 1131T500 1190Q477 1110 451 1034Q426 963 401 911L246 582ZM479 0V362H59V582L442 1460H723V582H842V362H723V0H479Z" />
<glyph unicode="5" glyph-name="five" horiz-adv-x="899" d="M57 39L94 303Q162 264 203 254Q262 238 305 238Q414 238 473 299Q532 362 532 473Q532 602 440 674Q350 744 178 743Q172 743 119 739H104L205 1460H774V1212H408L371 946H381Q586 946 702 828T819
500Q819 258 690 121Q561 -18 340 -18Q252 -18 188 -4Q116 12 57 39Z" />
<glyph unicode="6" glyph-name="six" horiz-adv-x="899" d="M455 238Q512 238 539 295Q568 356 567 463Q567 582 543 637T463 692Q406 692 377 633Q350 578 350 446Q350 348 377 291Q402 238 455 238ZM377 866Q418 897 471 920Q510 936 559 936Q697 936 774 825Q852
712 852 516Q852 262 748 121T457 -20Q262 -20 158 111T53 487Q53 731 242 1116L258 1149L408 1460H688L455 1001Q426 946 414 926Q393 889 377 866Z" />
<glyph unicode="7" glyph-name="seven" horiz-adv-x="899" d="M90 0L551 1219H111V1460H909L379 0H90Z" />
<glyph unicode="8" glyph-name="eight" horiz-adv-x="899" d="M285 793V805Q195 828 147 907Q100 989 100 1114Q100 1292 190 1384Q282 1478 450 1478T711 1384Q801 1292 801 1114Q801 983 754 907Q705 825 616 805V793Q727 762 784 664Q841 568 842 410Q842 210
737 96Q633 -19 451 -19T164 96T59 410Q59 568 117 664Q176 762 285 793ZM449 1251Q400 1251 375 1214Q352 1179 352 1102Q352 1012 375 971Q395 932 451 932Q502 932 526 969Q549 1004 549 1092Q549 1172 524 1212Q500 1251 449 1251ZM451 651Q396 651 362 600Q331
551 332 451Q332 345 360 292T450 238T540 289T569 444Q569 546 541 600Q514 651 451 651Z" />
<glyph unicode="9" glyph-name="nine" horiz-adv-x="899" d="M440 1221Q385 1221 358 1165Q331 1112 331 993T358 821Q387 764 440 764Q495 764 522 819Q549 872 549 993Q549 1112 522 1165Q495 1221 440 1221ZM528 592Q477 555 434 537Q388 519 342 518Q203 518
127 633Q49 752 49 952Q49 1208 153 1343T453 1479Q637 1479 741 1343Q843 1210 844 969Q844 729 666 340L653 311L512 0H229L455 457Q455 459 459 467Q479 510 528 592Z" />
<glyph unicode=":" glyph-name="colon" horiz-adv-x="561" d="M459 754Q459 678 408 627T283 575T158 626T106 753T158 879Q213 930 282 930T408 879Q459 830 459 754ZM459 242T459 166T408 39T283 -12T158 39T106 166T158 291Q213 342 282 342T408 291Q459 242 459 166Z" />
<glyph unicode=";" glyph-name="semicolon" horiz-adv-x="561" d="M-29 -281L135 326H424L176 -281H-29ZM459 754Q459 678 408 627T283 575T158 626T106 753T158 879Q213 930 282 930T408 879Q459 830 459 754Z" />
<glyph unicode="&lt;" glyph-name="less" horiz-adv-x="1705" d="M1442 1176V991L508 610L1442 229V47L264 530V690L1442 1176Z" />
<glyph unicode="=" glyph-name="equal" horiz-adv-x="1705" d="M254 487H1452V322H254V487ZM254 901H1452V733H254V901Z" />
<glyph unicode="&gt;" glyph-name="greater" horiz-adv-x="1705" d="M264 1176L1442 690V530L264 47V229L1198 610L264 991V1176Z" />
<glyph unicode="?" glyph-name="question" horiz-adv-x="882" d="M289 461V801Q404 807 451 860Q502 917 502 1030Q502 1126 477 1169Q450 1214 403 1214Q360 1214 338 1176T315 1063V1053H45V1087Q45 1284 139 1380Q233 1478 418 1479Q606 1479 704 1364T803
1030Q803 866 743 772Q684 680 563 655V461H289ZM602 158Q602 84 551 33T426 -18T301 33T250 158Q250 234 301 283Q356 334 426 334T551 283Q602 234 602 158Z" />
<glyph unicode="@" glyph-name="at" horiz-adv-x="2048" d="M1174 283Q1117 193 1047 156Q971 115 870 115Q716 115 637 201T557 451Q557 684 694 846T1028 1008Q1114 1008 1178 973Q1235 940 1276 866L1331 973H1485L1337 387Q1337 385 1336 381T1335 375Q1329
347 1329 338Q1329 297 1356 276Q1385 253 1425 254Q1476 254 1532 285Q1595 320 1638 369Q1714 451 1749 547Q1786 648 1786 762Q1786 1018 1599 1174Q1411 1332 1110 1331Q971 1331 854 1300Q735 1269 639 1206Q459 1093 361 915T262 520Q262 209 471 20Q678
-166 1030 -166Q1196 -166 1354 -117Q1510 -68 1645 25L1712 -74Q1567 -185 1393 -244Q1227 -301 1038 -301Q839 -301 686 -254Q528 -205 406 -111Q252 6 174 164Q98 318 98 522Q98 690 150 836Q203 988 303 1108Q453 1288 657 1380Q864 1472 1116 1473Q1284 1473
1431 1428T1686 1300Q1819 1198 1884 1065Q1950 930 1950 764Q1950 606 1884 463Q1821 326 1700 225Q1632 170 1550 142T1382 113Q1278 113 1225 154Q1174 193 1174 279V283ZM1233 707Q1217 793 1172 838T1049 883Q922 883 831 754Q741 623 741 444Q741 344 786
293Q833 240 915 240Q1005 240 1079 307T1178 479L1233 707Z" />
<glyph unicode="A" glyph-name="A" horiz-adv-x="950" d="M381 483H575Q542 645 520 803Q502 932 479 1157L432 825L381 483ZM-8 0L332 1460H637L961 0H670L621 256H328L283 0H-8Z" />
<glyph unicode="B" glyph-name="B" horiz-adv-x="997" d="M397 854H428Q541 854 592 897Q645 940 645 1034Q645 1130 592 1178Q541 1223 426 1223H397V854ZM397 260Q399 260 406 259T418 258H438Q553 258 600 303Q651 350 651 446Q651 550 600 595T432 641H397V260ZM115
0V1460H399Q682 1460 803 1370Q922 1282 922 1071Q922 950 877 874Q830 796 737 752Q843 715 893 633Q944 547 944 418Q944 316 911 238Q876 156 815 102Q749 47 664 23Q582 0 385 0H115Z" />
<glyph unicode="C" glyph-name="C" horiz-adv-x="931" d="M866 16Q825 0 782 -10Q743 -18 696 -18Q416 -18 242 184Q68 385 68 717Q68 1063 238 1270Q410 1479 684 1479Q739 1479 780 1470Q829 1460 866 1444V1171Q837 1183 784 1196Q749 1204 707 1204Q562 1204
469 1075Q379 948 379 733Q379 530 473 401Q565 274 713 274Q754 274 788 283Q829 293 866 309V16Z" />
<glyph unicode="D" glyph-name="D" horiz-adv-x="1101" d="M403 270H426Q582 270 664 387Q746 502 745 725Q745 963 666 1079Q588 1194 422 1194H403V270ZM115 0V1460H365Q705 1460 870 1280Q1036 1098 1036 729Q1036 508 975 356Q914 206 784 109Q704 50 610
25Q512 0 334 0H115Z" />
<glyph unicode="E" glyph-name="E" horiz-adv-x="808" d="M115 0V1460H729V1190H397V895H698V627H397V285H729V0H115Z" />
<glyph unicode="F" glyph-name="F" horiz-adv-x="798" d="M115 0V1460H745V1190H397V887H715V618H397V0H115Z" />
<glyph unicode="G" glyph-name="G" horiz-adv-x="1138" d="M528 825H1071V791Q1071 783 1072 773T1073 758Q1073 392 938 186Q803 -19 567 -18Q336 -18 201 182T66 729Q66 1077 207 1278T588 1479Q752 1479 866 1382Q983 1284 1034 1104L772 983Q754 1089 707
1147Q662 1200 582 1200Q465 1200 410 1087Q357 978 356 729Q356 493 414 377Q473 256 582 256Q678 256 733 338Q788 422 788 567H528V825Z" />
<glyph unicode="H" glyph-name="H" horiz-adv-x="1132" d="M115 0V1460H403V920H729V1460H1020V0H729V635H403V0H115Z" />
<glyph unicode="I" glyph-name="I" horiz-adv-x="552" d="M127 0V1460H424V0H127Z" />
<glyph unicode="J" glyph-name="J" horiz-adv-x="643" d="M6 14V279Q35 263 68 252Q93 244 117 244Q189 244 217 297Q244 348 244 573V1460H539V442Q539 297 522 225Q506 157 469 106Q418 43 348 12Q272 -21 184 -20Q127 -20 86 -12Q41 -4 6 14Z" />
<glyph unicode="K" glyph-name="K" horiz-adv-x="974" d="M115 2V1460H397V823L682 1460H985L684 795L995 2H684L397 713V2H115Z" />
<glyph unicode="L" glyph-name="L" horiz-adv-x="733" d="M115 0V1460H403V285H735V0H115Z" />
<glyph unicode="M" glyph-name="M" horiz-adv-x="1363" d="M43 0L186 1460H561L637 903Q647 829 666 659Q678 542 684 432Q702 633 715 737Q729 866 735 903L829 1460H1200L1323 0H1028L997 678Q997 690 995 708T993 750Q981 1017 981 1186L791 0H580L401 1194Q401
1044 383 768L377 674L332 0H43Z" />
<glyph unicode="N" glyph-name="N" horiz-adv-x="1134" d="M115 0V1460H410L705 674Q717 637 741 557L795 373Q777 500 762 657Q750 786 750 899V1460H1020V0H750L430 817Q420 837 387 967Q371 1026 362 1061Q374 952 379 868Q383 796 383 614V0H115Z" />
<glyph unicode="O" glyph-name="O" horiz-adv-x="1155" d="M578 260Q691 260 746 377T801 729Q801 967 746 1083T578 1200Q467 1200 412 1084T356 729Q356 493 411 377T578 260ZM1092 709Q1092 373 952 178Q811 -19 578 -18Q338 -18 201 180Q66 377 66 729Q66
1077 203 1280Q338 1479 578 1479Q816 1479 954 1276Q1092 1076 1092 709Z" />
<glyph unicode="P" glyph-name="P" horiz-adv-x="931" d="M397 827Q399 827 403 826T412 825H428Q520 825 569 879Q618 931 618 1032Q618 1134 571 1186Q524 1235 428 1235H412Q408 1235 404 1234T397 1233V827ZM115 0V1460H418Q660 1460 776 1356T893 1036Q893
829 781 717T463 604H424Q420 604 411 605T397 606V0H115Z" />
<glyph unicode="Q" glyph-name="Q" horiz-adv-x="1155" d="M625 559L762 408Q780 461 791 545Q801 631 801 727Q801 964 745 1083Q690 1202 578 1202T410 1079T354 702Q354 483 409 369T575 254Q577 254 584 255T596 256Q610 256 621 258L467 428L625 559ZM1104
31L946 -106L809 45Q766 16 707 0Q656 -14 578 -14Q336 -14 201 186Q66 385 66 752Q66 1092 203 1284Q342 1479 578 1479Q824 1479 958 1278Q1091 1081 1092 711Q1092 529 1059 403Q1025 274 954 195L1104 31Z" />
<glyph unicode="R" glyph-name="R" horiz-adv-x="937" d="M397 827Q399 827 404 826T414 825H430Q524 825 573 879Q620 928 621 1034Q621 1138 578 1188Q537 1235 436 1235H414Q410 1235 405 1234T397 1233V827ZM115 0V1460H418Q667 1460 780 1362T893 1049Q893
893 836 799Q777 703 662 666L942 0H635L397 604V0H115Z" />
<glyph unicode="S" glyph-name="S" horiz-adv-x="784" d="M70 51V354Q119 311 178 283Q229 258 285 258Q361 258 401 297Q444 336 444 403Q444 485 330 584Q320 594 303 607T281 625Q146 745 96 840Q47 934 47 1057Q47 1247 154 1362Q263 1479 432 1479Q502 1479
553 1462Q616 1442 678 1407V1149Q606 1184 559 1200Q518 1214 483 1214Q422 1214 381 1174T340 1071Q340 1016 371 967Q402 916 510 823Q653 700 698 614Q741 532 741 412Q741 213 629 98Q515 -19 322 -18Q248 -18 186 0Q117 20 70 51Z" />
<glyph unicode="T" glyph-name="T" horiz-adv-x="796" d="M252 0V1190H29V1460H768V1190H545V0H252Z" />
<glyph unicode="U" glyph-name="U" horiz-adv-x="1122" d="M1018 1460V543Q1018 383 1008 305Q1000 239 975 188Q922 82 821 33Q715 -18 563 -18Q409 -18 303 33Q203 82 150 188Q127 231 117 305Q107 383 106 543V586V1460H397V520Q397 340 434 289T563 238Q657
238 694 291Q729 340 729 520V1460H1018Z" />
<glyph unicode="V" glyph-name="V" horiz-adv-x="993" d="M377 0L-39 1460H256L428 799Q455 697 471 592Q487 494 498 360Q502 440 522 582Q536 676 563 793L731 1460H1034L621 0H377Z" />
<glyph unicode="W" glyph-name="W" horiz-adv-x="1495" d="M2 1460H297L401 801Q407 760 426 602Q436 516 446 356L637 1460H879L1069 356Q1069 465 1077 555Q1089 690 1102 760L1210 1460H1497L1204 0H948L793 805Q783 856 772 948Q763 1031 760 1133Q758 1117
739 938Q731 854 721 807L559 0H297L2 1460Z" />
<glyph unicode="X" glyph-name="X" horiz-adv-x="862" d="M602 0L487 297Q471 338 455 397Q449 417 430 512Q422 471 406 397Q392 336 379 297L279 0H-53L285 739L-23 1460H283L393 1153Q397 1141 414 1085Q418 1073 421 1057T429 1017T438 977Q448 1026 463 1079Q477
1130 485 1153L594 1460H895L588 739L918 0H602Z" />
<glyph unicode="Y" glyph-name="Y" horiz-adv-x="800" d="M254 0V686L-84 1460H223L319 1196Q347 1125 369 1055Q377 1028 390 979T410 911Q433 1009 449 1063Q469 1129 492 1188L598 1460H883L543 686V0H254Z" />
<glyph unicode="Z" glyph-name="Z" horiz-adv-x="876" d="M-16 0L455 1192H53V1460H848L383 285H807V0H-16Z" />
<glyph unicode="[" glyph-name="bracketleft" horiz-adv-x="565" d="M66 -397V1507H530V1300H342V-190H530V-397H66Z" />
<glyph unicode="\" glyph-name="backslash" horiz-adv-x="626" d="M451 -190L0 1479H176L627 -190H451Z" />
<glyph unicode="]" glyph-name="bracketright" horiz-adv-x="565" d="M500 -397H35V-190H225V1300H35V1507H500V-397Z" />
<glyph unicode="^" glyph-name="asciicircum" horiz-adv-x="2048" d="M915 1460H1133L1628 899H1421L1024 1296L625 899H418L915 1460Z" />
<glyph unicode="_" glyph-name="underscore" horiz-adv-x="1024" d="M0 -311H1024V-483H0V-311Z" />
<glyph unicode="`" glyph-name="grave" horiz-adv-x="1024" d="M229 1485H475L662 1114H528L229 1485Z" />
<glyph unicode="a" glyph-name="a" horiz-adv-x="927" d="M571 506Q571 635 539 705Q508 771 442 770Q385 770 356 707Q329 648 330 504Q330 365 360 295T449 225Q517 225 543 293Q571 363 571 506ZM825 0H571V145Q526 61 473 23Q416 -18 350 -18Q211 -18 135
113Q61 242 61 489Q61 729 137 860T352 991Q420 991 471 952Q528 907 571 831V981H825V0Z" />
<glyph unicode="b" glyph-name="b" horiz-adv-x="927" d="M483 772Q420 772 389 709Q360 650 360 506Q360 350 387 289Q416 223 479 223Q540 223 567 293Q596 367 596 510Q596 651 569 711Q541 772 483 772ZM102 0V1550H362V842Q407 918 459 954Q511 991 575 991Q716
991 790 858T864 469Q864 236 788 109Q712 -20 582 -20Q508 -20 455 20Q400 63 362 143V0H102Z" />
<glyph unicode="c" glyph-name="c" horiz-adv-x="649" d="M614 702Q589 722 553 737Q528 747 492 748Q415 748 369 680Q322 610 322 498Q322 377 369 312T500 246Q533 246 559 258Q588 270 614 297V39Q569 10 526 -4T428 -18Q254 -18 154 119T53 492Q53 723 156
862Q256 999 428 999Q471 999 522 989Q563 981 614 961V702Z" />
<glyph unicode="d" glyph-name="d" horiz-adv-x="927" d="M563 506Q563 645 535 708T442 772Q383 772 356 709Q329 648 330 504Q330 365 360 293Q391 223 449 223Q510 223 537 287Q563 348 563 506ZM825 0H563V143Q522 59 469 20Q412 -21 344 -20Q209 -20 135
113T61 489T137 860Q215 991 352 991Q413 991 467 954Q518 917 563 842V1550H825V0Z" />
<glyph unicode="e" glyph-name="e" horiz-adv-x="876" d="M600 573Q596 682 561 733Q524 784 455 784T348 729T311 573H600ZM311 418V410Q311 299 350 242Q391 183 461 182Q504 182 539 211Q572 238 592 295H825Q794 150 692 66T446 -18Q262 -18 156 119Q47 258
47 489Q47 722 156 862Q262 999 446 999Q641 999 739 864T838 465V418H311Z" />
<glyph unicode="f" glyph-name="f" horiz-adv-x="528" d="M512 1559V1327Q510 1327 506 1328T500 1329H481Q430 1329 412 1300Q394 1272 393 1147V981H512V774H393V0H123V774H25V981H123V1241Q123 1339 135 1389Q147 1436 176 1475Q211 1518 272 1544Q330 1569
408 1569Q437 1569 453 1567Q498 1561 512 1559Z" />
<glyph unicode="g" glyph-name="g" horiz-adv-x="927" d="M563 981H825V74Q825 -237 741 -346Q659 -452 440 -453Q268 -453 172 -362Q78 -274 78 -113V-98H307Q307 -170 340 -205T436 -240Q507 -240 535 -203Q564 -164 563 -74V129Q514 57 463 25Q410 -10 350
-10Q209 -10 135 119T61 492Q61 734 137 860Q215 991 352 991Q420 991 471 952T563 831V981ZM563 506Q563 647 535 711Q507 772 442 772Q383 772 356 709Q329 648 330 504Q330 365 360 293Q391 223 449 223Q510 223 537 287Q563 348 563 506Z" />
<glyph unicode="h" glyph-name="h" horiz-adv-x="913" d="M553 0V594Q553 680 532 709Q509 742 465 741Q410 741 389 705Q366 666 367 582V0H96V1550H367V862Q426 932 483 961Q544 992 618 991Q733 991 778 928T823 670V0H553Z" />
<glyph unicode="i" glyph-name="i" horiz-adv-x="481" d="M86 1243Q86 1306 131 1356Q174 1401 242 1401Q308 1401 352 1356T397 1243Q397 1177 352 1135Q303 1090 242 1090Q174 1090 131 1133Q86 1177 86 1243ZM106 0V981H377V0H106Z" />
<glyph unicode="j" glyph-name="j" horiz-adv-x="481" d="M86 1243Q86 1306 131 1356Q174 1401 242 1401Q308 1401 352 1356T397 1243Q397 1177 352 1135Q303 1090 242 1090Q174 1090 131 1133Q86 1177 86 1243ZM106 -395V981H377V-395H106Z" />
<glyph unicode="k" glyph-name="k" horiz-adv-x="856" d="M371 578Q373 586 416 678L428 702L567 981H872L627 573L891 0H590L371 535V0H100V1550H371V578Z" />
<glyph unicode="l" glyph-name="l" horiz-adv-x="481" d="M106 0V1550H377V0H106Z" />
<glyph unicode="m" glyph-name="m" horiz-adv-x="1341" d="M98 0V981H348V829Q399 911 463 950Q529 991 606 991T735 950Q784 911 803 829Q862 915 924 952Q987 991 1059 991Q1165 991 1208 918T1251 612V0H985V594Q985 678 967 709Q947 742 905 741Q852 741 830
707T807 582V0H543V594Q543 676 524 709Q506 744 463 743Q410 743 385 707Q362 672 362 582V0H98Z" />
<glyph unicode="n" glyph-name="n" horiz-adv-x="913" d="M553 0V594Q553 680 532 709Q509 742 465 741Q410 741 389 705Q366 666 367 582V0H96V981H348V829Q399 909 467 950Q537 991 618 991Q731 991 778 926Q823 863 823 670V0H553Z" />
<glyph unicode="o" glyph-name="o" horiz-adv-x="907" d="M455 219Q527 219 567 291Q606 361 606 494T567 696Q526 768 455 768Q385 768 344 696Q305 626 305 493T344 291Q385 219 455 219ZM864 492Q864 263 752 121Q641 -18 455 -18T158 119Q47 258 47 491T157
862T455 999Q643 999 753 862T864 492Z" />
<glyph unicode="p" glyph-name="p" horiz-adv-x="927" d="M483 770Q418 770 391 709Q362 646 362 506Q362 350 389 289Q418 223 479 223T567 293Q596 367 596 510Q596 649 569 709Q541 770 483 770ZM102 -395V981H356V831Q401 911 457 952Q510 991 575 991Q714
991 788 860Q864 725 864 485Q864 242 791 111Q717 -22 582 -23Q510 -23 455 20T362 143V-395H102Z" />
<glyph unicode="q" glyph-name="q" horiz-adv-x="927" d="M563 506Q563 645 535 709Q507 770 442 770Q383 770 356 707Q329 646 330 502Q330 365 360 293Q391 223 449 223Q510 223 537 287Q563 348 563 506ZM825 -395H563V143Q524 61 469 18Q416 -23 344 -23Q209
-23 135 111Q61 243 61 485Q61 729 137 860T352 991Q420 991 471 952Q528 907 571 831V981H825V-395Z" />
<glyph unicode="r" glyph-name="r" horiz-adv-x="587" d="M100 0V981H352V807Q387 907 440 950Q499 999 573 999V741H555Q451 741 410 690Q371 643 371 461V0H100Z" />
<glyph unicode="s" glyph-name="s" horiz-adv-x="684" d="M27 84L139 283Q180 254 225 236Q264 220 293 219Q324 219 344 239T365 289Q365 342 264 403Q250 411 242 417T225 428Q131 491 90 555Q51 614 51 700Q51 837 137 918Q225 1000 369 999Q445 999 508 979Q578
956 637 915L522 721Q482 755 449 770Q412 786 387 786Q356 786 334 768Q314 750 313 721Q313 680 406 621Q414 615 429 606T451 592Q555 522 596 455Q637 389 637 303Q637 160 543 72Q447 -18 297 -18Q223 -18 156 6Q90 31 27 84Z" />
<glyph unicode="t" glyph-name="t" horiz-adv-x="524" d="M127 0V770H20V981H127V1264H397V981H504V770H397V0H127Z" />
<glyph unicode="u" glyph-name="u" horiz-adv-x="901" d="M811 981V473Q811 180 733 80Q655 -18 453 -18T170 80Q92 176 92 473V981H356V350Q356 272 376 246T450 219T526 248Q546 275 547 350V981H811Z" />
<glyph unicode="v" glyph-name="v" horiz-adv-x="770" d="M254 0L2 981H264L348 539Q358 492 367 420Q375 350 385 250Q394 342 403 416Q411 479 422 539L508 981H770L518 0H254Z" />
<glyph unicode="w" glyph-name="w" horiz-adv-x="1185" d="M698 981L778 559Q792 459 795 442Q803 379 813 270Q823 360 834 440Q838 473 845 517T852 563L928 981H1190L932 0H698L627 408Q623 424 612 520Q610 545 607 577T599 657T592 735L588 686Q568 471 559
408L487 0H254L-4 981H258L332 563Q335 545 356 379Q358 361 363 323T371 270Q377 340 387 430Q397 514 408 559L485 981H698Z" />
<glyph unicode="x" glyph-name="x" horiz-adv-x="757" d="M-12 0L238 526L4 981H264L346 817Q364 778 371 758Q377 742 381 705Q384 733 393 760Q403 791 418 819L494 981H762L514 530L770 0H500L412 223Q400 260 395 283Q393 291 388 316T381 356Q373 307 367
285Q357 250 346 225L250 0H-12Z" />
<glyph unicode="y" glyph-name="y" horiz-adv-x="757" d="M135 -395L256 0L2 981H268L362 547Q368 520 377 459Q383 414 383 362Q395 466 401 506Q409 557 412 563L502 981H768L399 -395H135Z" />
<glyph unicode="z" glyph-name="z" horiz-adv-x="673" d="M18 0L301 762H41V981H651L373 236H631V0H18Z" />
<glyph unicode="{" glyph-name="braceleft" horiz-adv-x="1024" d="M874 1477V1298H850Q844 1298 837 1299T827 1300Q718 1300 680 1260T641 1085V844Q641 688 598 623Q555 560 438 530Q553 501 596 438Q641 370 641 217V-23Q641 -156 680 -197Q721 -240 829 -240H852Q858
-240 865 -239T874 -238V-414H811Q710 -414 645 -401Q582 -389 539 -365Q482 -332 459 -269T436 -66V182Q436 325 383 384T205 444Q203 444 197 443T184 442H162V621Q164 621 171 620T184 618H205Q330 618 383 677T436 879V1126Q436 1269 459 1333Q479 1392 539
1427Q580 1454 647 1466Q700 1476 829 1477H874Z" />
<glyph unicode="|" glyph-name="bar" horiz-adv-x="1024" d="M424 1565H602V-483H424V1565Z" />
<glyph unicode="}" glyph-name="braceright" horiz-adv-x="1024" d="M152 1477H197Q324 1477 377 1466Q445 1454 485 1427Q542 1394 565 1331T588 1126V879Q588 734 639 676T819 618H840Q846 618 853 619T862 621V442H840Q834 442 828 443T819 444Q694 444 641
385T588 182V-66Q588 -207 565 -270Q545 -329 485 -365Q438 -392 377 -403Q324 -413 197 -414H152V-238Q154 -238 161 -239T174 -240H197Q306 -240 344 -199T383 -23V217Q383 373 428 436Q475 504 588 530Q474 558 428 623Q383 686 383 844V1085Q383 1214 344 1260Q309
1301 199 1300Q197 1300 190 1299T176 1298H152V1477Z" />
<glyph unicode="~" glyph-name="asciitilde" horiz-adv-x="1705" d="M1530 784V600Q1415 522 1333 494Q1235 459 1149 459Q1100 459 1057 467Q1002 477 958 494Q950 496 940 500T914 510T883 520Q671 594 563 594Q487 594 389 555Q303 520 178 434V621Q289 695
381 729Q471 764 565 764Q626 764 690 752Q766 738 858 705Q872 701 901 688Q1061 631 1151 631Q1235 631 1327 667T1530 784Z" />
<glyph unicode="&#xa0;" glyph-name="uni00A0" horiz-adv-x="899" />
<glyph unicode="&#xa1;" glyph-name="exclamdown" horiz-adv-x="561" d="M145 1032H420V0H145V1032ZM209 1479T282 1479T407 1428T459 1303T408 1178T283 1126T158 1177T106 1303Q106 1381 157 1430Z" />
<glyph unicode="&#xa2;" glyph-name="cent" horiz-adv-x="899" d="M369 33V238Q224 254 142 387T59 748Q59 947 139 1071T369 1231V1425H498V1231Q535 1231 565 1223Q600 1213 629 1196V946Q594 966 559 976T500 987Q414 987 373 928Q328 865 328 752Q328 623
371 555Q412 489 500 489Q525 489 559 499T629 530V276Q588 260 565 254Q520 242 498 238V33H369Z" />
<glyph unicode="&#xa3;" glyph-name="sterling" horiz-adv-x="899" d="M47 690H174Q119 792 92 893Q65 989 66 1065Q66 1262 178 1370T492 1479Q670 1479 766 1389T862 1130V1100L639 1032V1047Q639 1137 600 1182Q559 1229 485 1229Q413 1229 373 1178T332 1036Q332
958 385 813L428 690H692V551H455Q465 504 467 475Q469 455 469 424Q469 373 457 328Q445 282 420 236Q463 211 494 203Q535 193 571 193Q634 193 692 221Q745 248 809 311L922 119Q852 49 770 14Q692 -19 588 -18Q525 -18 410 14Q304 45 258 45Q227 45 182 29Q143
15 90 -18L-8 154Q43 209 92 231Q149 258 205 258L209 257Q213 256 217 256H231Q239 301 244 338Q248 383 248 403Q248 440 242 477T223 551H47V690Z" />
<glyph unicode="&#xa4;" glyph-name="currency" horiz-adv-x="1239" d="M741 1176T623 1176T418 1090T332 885Q332 764 416 680T622 596T829 680T913 885Q913 1004 827 1090ZM168 1430L371 1227Q426 1267 487 1288Q546 1308 620 1308T756 1288Q815 1268 872 1227L1075
1430L1169 1337L965 1133Q1002 1084 1024 1016Q1044 957 1044 885Q1044 811 1024 752Q999 684 965 637L1169 432L1075 340L872 545Q821 508 754 483Q695 463 623 463Q549 463 487 483Q428 503 371 545L168 340L76 432L279 637Q244 684 219 752Q199 811 199 885Q199
957 219 1016Q242 1084 279 1133L76 1337L168 1430Z" />
<glyph unicode="&#xa5;" glyph-name="yen" horiz-adv-x="987" d="M358 0V659H25V743H336L266 901H25V985H229L20 1460H297L401 1190Q403 1188 403 1186Q469 1018 502 901Q522 981 545 1057Q568 1129 590 1184L709 1460H969L762 985H967V901H725L655 743H967V659H631V0H358Z"
/>
<glyph unicode="&#xa6;" glyph-name="brokenbar" horiz-adv-x="1024" d="M424 408H602V-350H424V408ZM424 1432H602V674H424V1432Z" />
<glyph unicode="&#xa7;" glyph-name="section" horiz-adv-x="899" d="M453 397Q504 397 530 438T557 559T530 678Q501 719 452 719T375 678Q348 639 348 559T375 438T453 397ZM799 1096H555V1106Q555 1188 531 1225T453 1262Q412 1262 385 1233T358 1159Q358 1076
512 987Q555 962 578 948Q723 858 784 766Q841 678 842 541Q842 420 788 340Q731 256 633 219Q719 168 760 101T801 -66Q801 -222 707 -316T455 -410T211 -312T125 -25V-18H360V-37Q360 -114 385 -154Q410 -195 457 -195Q500 -195 524 -162Q551 -125 551 -76Q551
33 377 137L346 156Q182 256 121 340Q60 426 59 547Q59 662 119 750Q180 840 287 881Q207 940 164 1012Q125 1078 125 1165Q125 1306 219 1393Q315 1479 469 1479Q631 1479 715 1383T799 1102V1096Z" />
<glyph unicode="&#xa8;" glyph-name="dieresis" horiz-adv-x="1024" d="M229 1296Q229 1345 264 1380T348 1415T432 1380Q469 1343 469 1296Q469 1245 434 1211T348 1176Q299 1176 264 1212Q229 1251 229 1296ZM557 1296Q557 1345 592 1380T676 1415Q727 1415
762 1381T797 1296Q797 1245 762 1211T676 1176Q627 1176 592 1212Q557 1251 557 1296Z" />
<glyph unicode="&#xa9;" glyph-name="copyright" horiz-adv-x="1705" d="M1206 903H1040Q1030 977 981 1018Q934 1057 850 1057Q750 1057 695 971T639 732T696 496T860 414Q940 414 989 457Q1036 498 1049 582H1214Q1208 449 1108 365Q1012 283 854 283Q670 283
564 401T457 725Q457 934 567 1057T858 1180Q1008 1180 1102 1104T1206 903ZM854 1362Q727 1362 610 1315Q499 1270 410 1180Q322 1088 272 973Q223 856 223 731Q223 600 270 492Q321 371 410 287Q494 199 614 147Q723 100 854 100Q980 100 1094 150Q1211 201 1303
289Q1393 379 1438 489Q1485 606 1485 731Q1485 858 1438 975Q1392 1089 1303 1178Q1207 1272 1098 1315Q981 1362 854 1362ZM852 1470Q1004 1470 1139 1415Q1270 1362 1378 1253Q1480 1151 1538 1014Q1593 882 1593 731Q1593 577 1538 444Q1481 309 1380 211Q1278
109 1135 47Q1002 -10 852 -10Q711 -10 571 47Q440 100 332 208T170 449Q113 588 113 731Q113 878 170 1012Q231 1153 334 1255Q432 1355 569 1415Q698 1470 852 1470Z" />
<glyph unicode="&#xaa;" glyph-name="ordfeminine" horiz-adv-x="694" d="M428 1128Q428 1224 406 1268Q381 1313 332 1313Q287 1313 268 1270Q248 1223 248 1126Q248 1032 270 981Q290 932 336 932Q383 932 406 979Q428 1028 428 1128ZM618 774H428V877Q397 819
354 791Q309 762 262 762Q158 762 103 854T47 1116T104 1376Q163 1468 264 1468Q313 1468 354 1440T428 1356V1460H618V774Z" />
<glyph unicode="&#xab;" glyph-name="guillemotleft" horiz-adv-x="833" d="M434 135L285 51L33 500L285 928L434 844L236 500L434 135ZM801 135L653 51L401 500L653 928L801 844L604 500L801 135Z" />
<glyph unicode="&#xac;" glyph-name="logicalnot" horiz-adv-x="1705" d="M254 862H1452V360H1286V696H254V862Z" />
<glyph unicode="&#xad;" glyph-name="uni00AD" horiz-adv-x="667" d="M76 332V649H592V332H76Z" />
<glyph unicode="&#xae;" glyph-name="registered" horiz-adv-x="1705" d="M729 1047V786H846Q946 786 991 817Q1038 848 1038 913T989 1014Q942 1047 838 1047H729ZM551 1159H870Q1044 1159 1132 1102T1221 934Q1221 840 1174 784Q1121 723 1036 705L1221 330H1022L858
676H729V330H551V1159ZM854 1362Q723 1362 614 1317Q501 1270 414 1182Q320 1084 272 973Q223 856 223 731Q223 608 270 492Q316 378 406 289Q490 201 610 150Q724 101 844 100Q971 100 1090 147Q1211 194 1300 285Q1388 371 1438 483Q1485 592 1485 721Q1485 858
1440 969Q1395 1082 1305 1174Q1213 1266 1098 1315Q989 1362 854 1362ZM702 1470T851 1470T1141 1413Q1272 1360 1382 1249Q1478 1153 1538 1012Q1593 881 1593 731Q1593 579 1538 444Q1483 311 1376 207Q1265 101 1133 45Q998 -10 852 -10Q702 -10 569 47T328
213Q224 321 168 453Q113 586 113 731Q113 881 170 1016T336 1260Q440 1364 571 1417Z" />
<glyph unicode="&#xaf;" glyph-name="overscore" horiz-adv-x="1024" d="M266 1219V1364H760V1219H266Z" />
<glyph unicode="&#xb0;" glyph-name="degree" horiz-adv-x="673" d="M338 1350Q260 1350 207 1296Q152 1241 152 1166T207 1035T338 979Q418 979 469 1034Q522 1091 522 1165T469 1296Q418 1350 338 1350ZM338 1460Q459 1460 547 1372Q633 1286 633 1163T547 954T336
868Q213 868 127 954Q43 1038 43 1163T129 1374T338 1460Z" />
<glyph unicode="&#xb1;" glyph-name="plusminus" horiz-adv-x="1705" d="M254 182H1452V14H254V182ZM768 1206H938V872H1452V707H938V373H768V707H254V872H768V1206Z" />
<glyph unicode="&#xb2;" glyph-name="uni00B2" horiz-adv-x="593" d="M41 584L279 1004Q316 1065 344 1143Q369 1209 369 1251T350 1315Q332 1338 299 1337Q250 1337 232 1301T213 1161H57Q57 1163 56 1168T55 1176V1196Q55 1331 118 1400T309 1470Q413 1470 479
1411Q542 1354 543 1255Q543 1187 512 1108Q485 1038 383 870L301 735H518V584H41Z" />
<glyph unicode="&#xb3;" glyph-name="uni00B3" horiz-adv-x="593" d="M33 834H193V825Q193 778 213 748Q231 721 268 721Q309 721 331 753T354 846Q354 912 326 944Q298 975 233 975H209V1118H221Q297 1118 334 1145Q369 1170 369 1229Q369 1278 348 1300Q326
1325 293 1325Q256 1325 238 1301T219 1225V1214H63V1237Q63 1352 125 1411Q188 1470 303 1470Q411 1470 469 1409Q526 1350 526 1233Q526 1151 489 1106Q450 1057 383 1051V1040Q473 1022 514 973Q557 922 557 834Q557 713 481 641Q409 571 276 571Q159 571 96
635Q30 701 31 811L32 815Q33 819 33 821V834Z" />
<glyph unicode="&#xb4;" glyph-name="acute" horiz-adv-x="1024" d="M795 1485L496 1114H362L549 1485H795Z" />
<glyph unicode="&#xb5;" glyph-name="uni00B5" horiz-adv-x="1206" d="M205 1081H434L309 446Q301 411 299 391Q297 375 297 342Q297 246 344 195Q390 146 479 145Q602 145 672 233Q746 325 784 526L893 1081H1118L973 342Q959 270 958 260Q954 215 954 209Q954
172 968 158T1022 143H1042Q1044 143 1049 144T1057 145L1024 -14Q993 -23 956 -27Q907 -31 874 -31Q798 -31 762 0T725 94V109Q686 41 616 4Q548 -33 471 -33T334 -6Q273 21 236 76L137 -430H-92L205 1081Z" />
<glyph unicode="&#xb6;" glyph-name="paragraph" horiz-adv-x="1024" d="M969 1479V1380H852V0H723V1380H555V0H424V784Q256 790 156 884T55 1130Q55 1290 161 1384T446 1479H969Z" />
<glyph unicode="&#xb7;" glyph-name="middot" horiz-adv-x="450" d="M401 729Q401 655 350 604T225 553Q149 553 100 602Q49 653 49 729T100 854Q155 905 225 905T350 854Q401 805 401 729Z" />
<glyph unicode="&#xb8;" glyph-name="cedilla" horiz-adv-x="1024" d="M274 -438V-309Q331 -327 393 -342Q438 -352 485 -352Q528 -352 549 -334Q572 -316 572 -279T545 -226T463 -209H438Q434 -209 428 -210T420 -211V0H516V-90H528Q630 -90 678 -137Q727 -186
727 -281Q727 -381 670 -430Q609 -481 500 -481Q459 -481 399 -469Q315 -450 274 -438Z" />
<glyph unicode="&#xb9;" glyph-name="uni00B9" horiz-adv-x="593" d="M221 584V1315H129V1460H408V584H221Z" />
<glyph unicode="&#xba;" glyph-name="ordmasculine" horiz-adv-x="681" d="M342 928Q393 928 426 979Q455 1024 455 1120T426 1262Q393 1313 342 1313Q289 1313 258 1264Q229 1219 229 1120Q229 1028 258 977Q287 928 342 928ZM649 1282T649 1118T565 858T342
762T119 858T35 1118T119 1378T342 1475T565 1379Z" />
<glyph unicode="&#xbb;" glyph-name="guillemotright" horiz-adv-x="833" d="M401 135L598 500L401 844L551 928L801 500L551 51L401 135ZM33 135L229 500L33 844L182 928L434 500L182 51L33 135Z" />
<glyph unicode="&#xbc;" glyph-name="onequarter" horiz-adv-x="1476" d="M1065 326H1219V557Q1219 561 1220 575T1221 600Q1221 616 1225 666Q1219 648 1208 616T1190 571Q1174 530 1161 510L1065 326ZM1210 0V203H946V326L1188 817H1364V326H1440V203H1364V0H1210ZM225
-18L1079 1479H1249L395 -18H225ZM211 643V1325H123V1460H389V643H211Z" />
<glyph unicode="&#xbd;" glyph-name="onehalf" horiz-adv-x="1476" d="M950 0L1176 391Q1223 479 1239 524Q1262 587 1262 625Q1262 664 1244 684T1194 705Q1149 705 1130 672Q1114 641 1114 539H963V571Q963 697 1024 762Q1085 828 1204 827Q1304 827 1365 772T1427
627Q1427 561 1397 487Q1362 403 1276 266L1196 141H1403V0H950ZM225 -18L1079 1479H1249L395 -18H225ZM211 643V1325H123V1460H389V643H211Z" />
<glyph unicode="&#xbe;" glyph-name="threequarters" horiz-adv-x="1476" d="M1065 326H1219V557Q1219 561 1220 575T1221 600Q1221 616 1225 666Q1219 648 1208 616T1190 571Q1174 530 1161 510L1065 326ZM1210 0V203H946V326L1188 817H1364V326H1440V203H1364V0H1210ZM225
-18L1079 1479H1249L395 -18H225ZM31 877H184V868Q184 819 202 795T256 770Q296 770 317 801Q337 830 338 889Q338 955 311 981Q282 1010 221 1010H211Q209 1010 205 1009L201 1008V1143H211Q283 1143 317 1167Q350 1192 350 1245Q350 1286 332 1310T281 1335Q246
1335 228 1311T209 1241V1233H61V1251Q61 1357 119 1413Q180 1470 289 1470Q391 1470 449 1413Q504 1358 504 1249Q504 1171 469 1131T367 1079V1069Q453 1053 492 1006Q533 955 532 877Q532 762 461 697T264 631Q153 631 90 690Q29 748 29 856L30 860Q31 864 31
866V877Z" />
<glyph unicode="&#xbf;" glyph-name="questiondown" horiz-adv-x="882" d="M590 999V657Q475 651 426 596T377 414Q377 330 401 287T475 244Q520 244 541 283Q564 324 563 395V406H834V371Q834 176 739 80Q643 -20 461 -20Q273 -20 175 94T76 428Q76 592 135 686T315
805V999H590ZM276 1303Q276 1381 328 1430Q381 1479 453 1479Q527 1479 578 1428T629 1303T578 1178T453 1126T328 1177T276 1303Z" />
<glyph unicode="&#xc0;" glyph-name="Agrave" horiz-adv-x="950" d="M381 483H575Q542 645 520 803Q502 932 479 1157L432 825L381 483ZM-8 0L332 1460H637L961 0H670L621 256H328L283 0H-8ZM202 1964H448L635 1593H501L202 1964Z" />
<glyph unicode="&#xc1;" glyph-name="Aacute" horiz-adv-x="950" d="M381 483H575Q542 645 520 803Q502 932 479 1157L432 825L381 483ZM-8 0L332 1460H637L961 0H670L621 256H328L283 0H-8ZM768 1964L469 1593H335L522 1964H768Z" />
<glyph unicode="&#xc2;" glyph-name="Acircumflex" horiz-adv-x="950" d="M381 483H575Q542 645 520 803Q502 932 479 1157L432 825L381 483ZM-8 0L332 1460H637L961 0H670L621 256H328L283 0H-8ZM217 1593L385 1964H585L753 1593H632L485 1810L338 1593H217Z" />
<glyph unicode="&#xc3;" glyph-name="Atilde" horiz-adv-x="950" d="M381 483H575Q542 645 520 803Q502 932 479 1157L432 825L381 483ZM-8 0L332 1460H637L961 0H670L621 256H328L283 0H-8ZM753 1915Q735 1784 694 1728Q651 1671 577 1671Q559 1671 548 1673Q528
1677 516 1681L440 1708Q428 1712 411 1716Q401 1718 385 1718Q358 1718 340 1700Q324 1684 311 1640H217Q240 1761 280 1818Q323 1875 391 1876Q401 1876 425 1872T465 1861L540 1837Q544 1835 551 1833T563 1831Q571 1829 583 1829Q614 1829 632 1849Q648 1867
661 1915H753Z" />
<glyph unicode="&#xc4;" glyph-name="Adieresis" horiz-adv-x="950" d="M381 483H575Q542 645 520 803Q502 932 479 1157L432 825L381 483ZM-8 0L332 1460H637L961 0H670L621 256H328L283 0H-8ZM202 1775Q202 1824 237 1859T321 1894T405 1859Q442 1822 442 1775Q442
1724 407 1690T321 1655Q272 1655 237 1691Q202 1730 202 1775ZM530 1775Q530 1824 565 1859T649 1894Q700 1894 735 1860T770 1775Q770 1724 735 1690T649 1655Q600 1655 565 1691Q530 1730 530 1775Z" />
<glyph unicode="&#xc5;" glyph-name="Aring" horiz-adv-x="950" d="M383 1749Q383 1710 413 1680T485 1649Q524 1649 555 1679T586 1749Q586 1790 555 1820T485 1851Q444 1851 414 1821Q387 1794 383 1749ZM262 1749Q262 1841 327 1906T485 1972T643 1907Q706
1844 707 1749Q707 1657 643 1593Q577 1527 485 1527T328 1593T262 1749ZM-8 0L332 1460H637L961 0H670L621 256H328L283 0H-8ZM381 483H575Q542 645 520 803Q502 932 479 1157L432 825L381 483Z" />
<glyph unicode="&#xc6;" glyph-name="AE" horiz-adv-x="1155" d="M561 496L506 848Q500 891 492 963Q492 965 485 1090Q485 1020 459 883Q455 860 453 848L385 496H561ZM-10 0L346 1460H922L969 1192H702L758 893H1024L1073 625H807L870 285H1135L1188 0H635L598
248H340L285 0H-10Z" />
<glyph unicode="&#xc7;" glyph-name="Ccedilla" horiz-adv-x="931" d="M866 16Q825 0 782 -10Q743 -18 696 -18Q416 -18 242 184Q68 385 68 717Q68 1063 238 1270Q410 1479 684 1479Q739 1479 780 1470Q829 1460 866 1444V1171Q837 1183 784 1196Q749 1204 707
1204Q562 1204 469 1075Q379 948 379 733Q379 530 473 401Q565 274 713 274Q754 274 788 283Q829 293 866 309V16ZM385 -438V-309Q442 -327 504 -342Q549 -352 596 -352Q639 -352 660 -334Q683 -316 683 -279T656 -226T574 -209H549Q545 -209 539 -210T531 -211V0H627V-90H639Q741
-90 789 -137Q838 -186 838 -281Q838 -381 781 -430Q720 -481 611 -481Q570 -481 510 -469Q426 -450 385 -438Z" />
<glyph unicode="&#xc8;" glyph-name="Egrave" horiz-adv-x="808" d="M115 0V1460H729V1190H397V895H698V627H397V285H729V0H115ZM135 1964H381L568 1593H434L135 1964Z" />
<glyph unicode="&#xc9;" glyph-name="Eacute" horiz-adv-x="808" d="M115 0V1460H729V1190H397V895H698V627H397V285H729V0H115ZM701 1964L402 1593H268L455 1964H701Z" />
<glyph unicode="&#xca;" glyph-name="Ecircumflex" horiz-adv-x="808" d="M115 0V1460H729V1190H397V895H698V627H397V285H729V0H115ZM150 1593L318 1964H518L686 1593H565L418 1810L271 1593H150Z" />
<glyph unicode="&#xcb;" glyph-name="Edieresis" horiz-adv-x="808" d="M115 0V1460H729V1190H397V895H698V627H397V285H729V0H115ZM135 1775Q135 1824 170 1859T254 1894T338 1859Q375 1822 375 1775Q375 1724 340 1690T254 1655Q205 1655 170 1691Q135 1730
135 1775ZM463 1775Q463 1824 498 1859T582 1894Q633 1894 668 1860T703 1775Q703 1724 668 1690T582 1655Q533 1655 498 1691Q463 1730 463 1775Z" />
<glyph unicode="&#xcc;" glyph-name="Igrave" horiz-adv-x="552" d="M127 0V1460H424V0H127ZM-7 1964H239L426 1593H292L-7 1964Z" />
<glyph unicode="&#xcd;" glyph-name="Iacute" horiz-adv-x="552" d="M127 0V1460H424V0H127ZM559 1964L260 1593H126L313 1964H559Z" />
<glyph unicode="&#xce;" glyph-name="Icircumflex" horiz-adv-x="552" d="M127 0V1460H424V0H127ZM8 1593L176 1964H376L544 1593H423L276 1810L129 1593H8Z" />
<glyph unicode="&#xcf;" glyph-name="Idieresis" horiz-adv-x="552" d="M127 0V1460H424V0H127ZM-7 1775Q-7 1824 28 1859T112 1894T196 1859Q233 1822 233 1775Q233 1724 198 1690T112 1655Q63 1655 28 1691Q-7 1730 -7 1775ZM321 1775Q321 1824 356 1859T440
1894Q491 1894 526 1860T561 1775Q561 1724 526 1690T440 1655Q391 1655 356 1691Q321 1730 321 1775Z" />
<glyph unicode="&#xd0;" glyph-name="Eth" horiz-adv-x="1110" d="M412 270H436Q594 270 674 385Q754 499 754 729Q754 960 674 1077T432 1194H412V903H565V651H412V270ZM123 0V651H0V903H123V1460H375Q715 1460 881 1280Q1047 1098 1047 729Q1047 508 985 356Q924
206 795 109Q717 50 619 25T342 0H123Z" />
<glyph unicode="&#xd1;" glyph-name="Ntilde" horiz-adv-x="1134" d="M115 0V1460H410L705 674Q717 637 741 557L795 373Q777 500 762 657Q750 786 750 899V1460H1020V0H750L430 817Q420 837 387 967Q371 1026 362 1061Q374 952 379 868Q383 796 383 614V0H115ZM843
1915Q825 1784 784 1728Q741 1671 667 1671Q649 1671 638 1673Q618 1677 606 1681L530 1708Q518 1712 501 1716Q491 1718 475 1718Q448 1718 430 1700Q414 1684 401 1640H307Q330 1761 370 1818Q413 1875 481 1876Q491 1876 515 1872T555 1861L630 1837Q634 1835
641 1833T653 1831Q661 1829 673 1829Q704 1829 722 1849Q738 1867 751 1915H843Z" />
<glyph unicode="&#xd2;" glyph-name="Ograve" horiz-adv-x="1155" d="M578 260Q691 260 746 377T801 729Q801 967 746 1083T578 1200Q467 1200 412 1084T356 729Q356 493 411 377T578 260ZM1092 709Q1092 373 952 178Q811 -19 578 -18Q338 -18 201 180Q66 377
66 729Q66 1077 203 1280Q338 1479 578 1479Q816 1479 954 1276Q1092 1076 1092 709ZM297 1964H543L730 1593H596L297 1964Z" />
<glyph unicode="&#xd3;" glyph-name="Oacute" horiz-adv-x="1155" d="M578 260Q691 260 746 377T801 729Q801 967 746 1083T578 1200Q467 1200 412 1084T356 729Q356 493 411 377T578 260ZM1092 709Q1092 373 952 178Q811 -19 578 -18Q338 -18 201 180Q66 377
66 729Q66 1077 203 1280Q338 1479 578 1479Q816 1479 954 1276Q1092 1076 1092 709ZM863 1964L564 1593H430L617 1964H863Z" />
<glyph unicode="&#xd4;" glyph-name="Ocircumflex" horiz-adv-x="1155" d="M578 260Q691 260 746 377T801 729Q801 967 746 1083T578 1200Q467 1200 412 1084T356 729Q356 493 411 377T578 260ZM1092 709Q1092 373 952 178Q811 -19 578 -18Q338 -18 201 180Q66
377 66 729Q66 1077 203 1280Q338 1479 578 1479Q816 1479 954 1276Q1092 1076 1092 709ZM312 1593L480 1964H680L848 1593H727L580 1810L433 1593H312Z" />
<glyph unicode="&#xd5;" glyph-name="Otilde" horiz-adv-x="1155" d="M578 260Q691 260 746 377T801 729Q801 967 746 1083T578 1200Q467 1200 412 1084T356 729Q356 493 411 377T578 260ZM1092 709Q1092 373 952 178Q811 -19 578 -18Q338 -18 201 180Q66 377
66 729Q66 1077 203 1280Q338 1479 578 1479Q816 1479 954 1276Q1092 1076 1092 709ZM848 1915Q830 1784 789 1728Q746 1671 672 1671Q654 1671 643 1673Q623 1677 611 1681L535 1708Q523 1712 506 1716Q496 1718 480 1718Q453 1718 435 1700Q419 1684 406 1640H312Q335
1761 375 1818Q418 1875 486 1876Q496 1876 520 1872T560 1861L635 1837Q639 1835 646 1833T658 1831Q666 1829 678 1829Q709 1829 727 1849Q743 1867 756 1915H848Z" />
<glyph unicode="&#xd6;" glyph-name="Odieresis" horiz-adv-x="1155" d="M578 260Q691 260 746 377T801 729Q801 967 746 1083T578 1200Q467 1200 412 1084T356 729Q356 493 411 377T578 260ZM1092 709Q1092 373 952 178Q811 -19 578 -18Q338 -18 201 180Q66 377
66 729Q66 1077 203 1280Q338 1479 578 1479Q816 1479 954 1276Q1092 1076 1092 709ZM297 1775Q297 1824 332 1859T416 1894T500 1859Q537 1822 537 1775Q537 1724 502 1690T416 1655Q367 1655 332 1691Q297 1730 297 1775ZM625 1775Q625 1824 660 1859T744 1894Q795
1894 830 1860T865 1775Q865 1724 830 1690T744 1655Q695 1655 660 1691Q625 1730 625 1775Z" />
<glyph unicode="&#xd7;" glyph-name="multiply" horiz-adv-x="1705" d="M403 1188L862 729L1323 1188L1440 1071L981 610L1440 152L1323 33L862 494L403 33L287 152L745 610L287 1071L403 1188Z" />
<glyph unicode="&#xd8;" glyph-name="Oslash" horiz-adv-x="1155" d="M702 1163Q682 1183 647 1198Q616 1210 578 1210Q459 1210 404 1094T348 735Q348 649 356 584Q366 500 383 438L702 1163ZM164 -57L250 131Q154 237 111 387Q66 545 66 752Q66 1102 199 1290T578
1479Q641 1479 702 1462Q751 1450 813 1415L877 1556L973 1507L899 1339Q993 1235 1042 1083Q1089 936 1090 731Q1090 379 954 182Q817 -17 578 -16Q502 -16 451 0Q396 18 340 53L272 -98L164 -57ZM451 305Q482 274 508 264Q545 250 575 250Q694 250 752 369Q809
486 809 731Q809 797 799 883Q789 971 770 1038L451 305Z" />
<glyph unicode="&#xd9;" glyph-name="Ugrave" horiz-adv-x="1122" d="M1018 1460V543Q1018 383 1008 305Q1000 239 975 188Q922 82 821 33Q715 -18 563 -18Q409 -18 303 33Q203 82 150 188Q127 231 117 305Q107 383 106 543V586V1460H397V520Q397 340 434 289T563
238Q657 238 694 291Q729 340 729 520V1460H1018ZM280 1964H526L713 1593H579L280 1964Z" />
<glyph unicode="&#xda;" glyph-name="Uacute" horiz-adv-x="1122" d="M1018 1460V543Q1018 383 1008 305Q1000 239 975 188Q922 82 821 33Q715 -18 563 -18Q409 -18 303 33Q203 82 150 188Q127 231 117 305Q107 383 106 543V586V1460H397V520Q397 340 434 289T563
238Q657 238 694 291Q729 340 729 520V1460H1018ZM846 1964L547 1593H413L600 1964H846Z" />
<glyph unicode="&#xdb;" glyph-name="Ucircumflex" horiz-adv-x="1122" d="M1018 1460V543Q1018 383 1008 305Q1000 239 975 188Q922 82 821 33Q715 -18 563 -18Q409 -18 303 33Q203 82 150 188Q127 231 117 305Q107 383 106 543V586V1460H397V520Q397 340 434
289T563 238Q657 238 694 291Q729 340 729 520V1460H1018ZM295 1593L463 1964H663L831 1593H710L563 1810L416 1593H295Z" />
<glyph unicode="&#xdc;" glyph-name="Udieresis" horiz-adv-x="1122" d="M1018 1460V543Q1018 383 1008 305Q1000 239 975 188Q922 82 821 33Q715 -18 563 -18Q409 -18 303 33Q203 82 150 188Q127 231 117 305Q107 383 106 543V586V1460H397V520Q397 340 434 289T563
238Q657 238 694 291Q729 340 729 520V1460H1018ZM280 1775Q280 1824 315 1859T399 1894T483 1859Q520 1822 520 1775Q520 1724 485 1690T399 1655Q350 1655 315 1691Q280 1730 280 1775ZM608 1775Q608 1824 643 1859T727 1894Q778 1894 813 1860T848 1775Q848
1724 813 1690T727 1655Q678 1655 643 1691Q608 1730 608 1775Z" />
<glyph unicode="&#xdd;" glyph-name="Yacute" horiz-adv-x="800" d="M254 0V686L-84 1460H223L319 1196Q347 1125 369 1055Q377 1028 390 979T410 911Q433 1009 449 1063Q469 1129 492 1188L598 1460H883L543 686V0H254ZM684 1964L385 1593H251L438 1964H684Z" />
<glyph unicode="&#xde;" glyph-name="Thorn" horiz-adv-x="931" d="M397 551H412Q416 551 421 550T428 549Q520 549 569 602Q618 654 618 756T571 909Q524 958 428 958Q426 958 421 957T412 956H397V551ZM115 0V1460H397V1184H418Q660 1184 776 1080T893 760Q893
553 781 441T463 328H424Q418 328 410 329T397 330V0H115Z" />
<glyph unicode="&#xdf;" glyph-name="germandbls" horiz-adv-x="919" d="M104 0V1055Q104 1215 113 1274Q123 1346 141 1389Q176 1473 256 1516T444 1559Q626 1559 725 1454Q821 1352 821 1151Q821 1038 784 965Q745 889 670 852Q762 817 809 725Q854 635 854
481Q854 239 768 117T516 -6Q510 -6 498 -5T477 -4Q463 -4 430 0V266Q432 266 437 265T444 264H463Q531 264 557 322Q586 383 586 528Q586 624 553 672Q520 721 451 721H440Q438 721 434 720L430 719V952Q496 952 524 995Q553 1040 553 1137Q553 1243 528 1292Q503
1343 452 1343T383 1294T365 1077V922V0H104Z" />
<glyph unicode="&#xe0;" glyph-name="agrave" horiz-adv-x="927" d="M571 506Q571 635 539 705Q508 771 442 770Q385 770 356 707Q329 648 330 504Q330 365 360 295T449 225Q517 225 543 293Q571 363 571 506ZM825 0H571V145Q526 61 473 23Q416 -18 350 -18Q211
-18 135 113Q61 242 61 489Q61 729 137 860T352 991Q420 991 471 952Q528 907 571 831V981H825V0ZM477 1485H723L910 1114H776L477 1485Z" />
<glyph unicode="&#xe1;" glyph-name="aacute" horiz-adv-x="927" d="M571 506Q571 635 539 705Q508 771 442 770Q385 770 356 707Q329 648 330 504Q330 365 360 295T449 225Q517 225 543 293Q571 363 571 506ZM825 0H571V145Q526 61 473 23Q416 -18 350 -18Q211
-18 135 113Q61 242 61 489Q61 729 137 860T352 991Q420 991 471 952Q528 907 571 831V981H825V0ZM1043 1485L744 1114H610L797 1485H1043Z" />
<glyph unicode="&#xe2;" glyph-name="acircumflex" horiz-adv-x="927" d="M571 506Q571 635 539 705Q508 771 442 770Q385 770 356 707Q329 648 330 504Q330 365 360 295T449 225Q517 225 543 293Q571 363 571 506ZM825 0H571V145Q526 61 473 23Q416 -18 350 -18Q211
-18 135 113Q61 242 61 489Q61 729 137 860T352 991Q420 991 471 952Q528 907 571 831V981H825V0ZM492 1114L660 1485H860L1028 1114H907L760 1331L613 1114H492Z" />
<glyph unicode="&#xe3;" glyph-name="atilde" horiz-adv-x="927" d="M571 506Q571 635 539 705Q508 771 442 770Q385 770 356 707Q329 648 330 504Q330 365 360 295T449 225Q517 225 543 293Q571 363 571 506ZM825 0H571V145Q526 61 473 23Q416 -18 350 -18Q211
-18 135 113Q61 242 61 489Q61 729 137 860T352 991Q420 991 471 952Q528 907 571 831V981H825V0ZM1028 1436Q1010 1305 969 1249Q926 1192 852 1192Q834 1192 823 1194Q803 1198 791 1202L715 1229Q703 1233 686 1237Q676 1239 660 1239Q633 1239 615 1221Q599
1205 586 1161H492Q515 1282 555 1339Q598 1396 666 1397Q676 1397 700 1393T740 1382L815 1358Q819 1356 826 1354T838 1352Q846 1350 858 1350Q889 1350 907 1370Q923 1388 936 1436H1028Z" />
<glyph unicode="&#xe4;" glyph-name="adieresis" horiz-adv-x="927" d="M571 506Q571 635 539 705Q508 771 442 770Q385 770 356 707Q329 648 330 504Q330 365 360 295T449 225Q517 225 543 293Q571 363 571 506ZM825 0H571V145Q526 61 473 23Q416 -18 350 -18Q211
-18 135 113Q61 242 61 489Q61 729 137 860T352 991Q420 991 471 952Q528 907 571 831V981H825V0ZM477 1296Q477 1345 512 1380T596 1415T680 1380Q717 1343 717 1296Q717 1245 682 1211T596 1176Q547 1176 512 1212Q477 1251 477 1296ZM805 1296Q805 1345 840
1380T924 1415Q975 1415 1010 1381T1045 1296Q1045 1245 1010 1211T924 1176Q875 1176 840 1212Q805 1251 805 1296Z" />
<glyph unicode="&#xe5;" glyph-name="aring" horiz-adv-x="927" d="M391 1260Q391 1219 422 1188Q451 1159 494 1159Q533 1159 563 1190T594 1260Q594 1303 565 1331Q534 1362 494 1362Q451 1362 422 1333Q395 1307 391 1260ZM270 1260Q270 1352 335 1417T493
1483T651 1417Q714 1354 714 1260T652 1102T494 1038Q402 1038 336 1104T270 1260ZM825 0H567V145Q524 59 473 23Q416 -18 350 -18Q211 -18 135 113Q61 242 61 489Q61 729 137 860T352 991Q420 991 471 952Q524 911 567 831V981H825V0ZM567 506Q567 643 537 706T442
770Q385 770 356 707Q329 648 330 504Q330 365 360 295T449 225Q510 225 539 291Q567 359 567 506Z" />
<glyph unicode="&#xe6;" glyph-name="ae" horiz-adv-x="1400" d="M1122 571Q1118 680 1083 731Q1046 782 975 782Q905 782 864 729Q825 678 825 580V571H1122ZM356 170T421 170T522 200T557 288T522 377Q491 406 422 406Q350 406 319 377Q286 346 286 289T321
201ZM825 420V410Q825 299 866 244Q909 185 983 184Q1028 184 1061 211Q1092 236 1114 295H1348Q1313 148 1214 66Q1112 -18 971 -18Q877 -18 803 16Q727 53 668 127Q617 57 541 18Q471 -19 375 -18Q219 -18 127 68T35 297Q35 428 113 506Q193 586 319 586Q376
586 431 574T543 537Q547 570 547 573V594Q547 692 498 737Q451 782 346 782Q297 782 238 766Q187 752 119 715V948Q203 977 262 987Q330 999 393 999Q489 999 565 965Q639 932 684 864Q731 930 807 964T971 999Q1166 999 1264 864T1362 465V420H825Z" />
<glyph unicode="&#xe7;" glyph-name="ccedilla" horiz-adv-x="649" d="M614 702Q589 722 553 737Q528 747 492 748Q415 748 369 680Q322 610 322 498Q322 377 369 312T500 246Q533 246 559 258Q588 270 614 297V39Q569 10 526 -4T428 -18Q254 -18 154 119T53 492Q53
723 156 862Q256 999 428 999Q471 999 522 989Q563 981 614 961V702ZM417 -438V-309Q474 -327 536 -342Q581 -352 628 -352Q671 -352 692 -334Q715 -316 715 -279T688 -226T606 -209H581Q577 -209 571 -210T563 -211V0H659V-90H671Q773 -90 821 -137Q870 -186 870
-281Q870 -381 813 -430Q752 -481 643 -481Q602 -481 542 -469Q458 -450 417 -438Z" />
<glyph unicode="&#xe8;" glyph-name="egrave" horiz-adv-x="876" d="M600 573Q596 682 561 733Q524 784 455 784T348 729T311 573H600ZM311 418V410Q311 299 350 242Q391 183 461 182Q504 182 539 211Q572 238 592 295H825Q794 150 692 66T446 -18Q262 -18 156
119Q47 258 47 489Q47 722 156 862Q262 999 446 999Q641 999 739 864T838 465V418H311ZM417 1485H663L850 1114H716L417 1485Z" />
<glyph unicode="&#xe9;" glyph-name="eacute" horiz-adv-x="876" d="M600 573Q596 682 561 733Q524 784 455 784T348 729T311 573H600ZM311 418V410Q311 299 350 242Q391 183 461 182Q504 182 539 211Q572 238 592 295H825Q794 150 692 66T446 -18Q262 -18 156
119Q47 258 47 489Q47 722 156 862Q262 999 446 999Q641 999 739 864T838 465V418H311ZM983 1485L684 1114H550L737 1485H983Z" />
<glyph unicode="&#xea;" glyph-name="ecircumflex" horiz-adv-x="876" d="M600 573Q596 682 561 733Q524 784 455 784T348 729T311 573H600ZM311 418V410Q311 299 350 242Q391 183 461 182Q504 182 539 211Q572 238 592 295H825Q794 150 692 66T446 -18Q262 -18
156 119Q47 258 47 489Q47 722 156 862Q262 999 446 999Q641 999 739 864T838 465V418H311ZM432 1114L600 1485H800L968 1114H847L700 1331L553 1114H432Z" />
<glyph unicode="&#xeb;" glyph-name="edieresis" horiz-adv-x="876" d="M600 573Q596 682 561 733Q524 784 455 784T348 729T311 573H600ZM311 418V410Q311 299 350 242Q391 183 461 182Q504 182 539 211Q572 238 592 295H825Q794 150 692 66T446 -18Q262 -18
156 119Q47 258 47 489Q47 722 156 862Q262 999 446 999Q641 999 739 864T838 465V418H311ZM417 1296Q417 1345 452 1380T536 1415T620 1380Q657 1343 657 1296Q657 1245 622 1211T536 1176Q487 1176 452 1212Q417 1251 417 1296ZM745 1296Q745 1345 780 1380T864
1415Q915 1415 950 1381T985 1296Q985 1245 950 1211T864 1176Q815 1176 780 1212Q745 1251 745 1296Z" />
<glyph unicode="&#xec;" glyph-name="igrave" horiz-adv-x="481" d="M106 0V981H377V0H106ZM-41 1485H205L392 1114H258L-41 1485Z" />
<glyph unicode="&#xed;" glyph-name="iacute" horiz-adv-x="481" d="M106 0V981H377V0H106ZM525 1485L226 1114H92L279 1485H525Z" />
<glyph unicode="&#xee;" glyph-name="icircumflex" horiz-adv-x="481" d="M106 0V981H377V0H106ZM-26 1114L142 1485H342L510 1114H389L242 1331L95 1114H-26Z" />
<glyph unicode="&#xef;" glyph-name="idieresis" horiz-adv-x="481" d="M106 0V981H377V0H106ZM-41 1296Q-41 1345 -6 1380T78 1415T162 1380Q199 1343 199 1296Q199 1245 164 1211T78 1176Q29 1176 -6 1212Q-41 1251 -41 1296ZM287 1296Q287 1345 322 1380T406
1415Q457 1415 492 1381T527 1296Q527 1245 492 1211T406 1176Q357 1176 322 1212Q287 1251 287 1296Z" />
<glyph unicode="&#xf0;" glyph-name="eth" horiz-adv-x="907" d="M528 983Q516 1014 481 1100Q463 1147 438 1194L238 1100L176 1233L371 1321Q310 1432 293 1460Q262 1511 242 1542H506L541 1475Q551 1455 575 1417L735 1491L795 1360L645 1290Q759 1072 811
885Q864 695 864 520Q864 268 756 125T455 -18Q269 -18 158 119Q47 258 47 492Q47 722 158 860Q269 999 449 999Q461 999 489 995Q510 993 528 983ZM455 219Q527 219 567 291Q606 361 606 494T567 696Q526 768 455 768Q385 768 344 696Q305 626 305 493T344 291Q385
219 455 219Z" />
<glyph unicode="&#xf1;" glyph-name="ntilde" horiz-adv-x="913" d="M553 0V594Q553 680 532 709Q509 742 465 741Q410 741 389 705Q366 666 367 582V0H96V981H348V829Q399 909 467 950Q537 991 618 991Q731 991 778 926Q823 863 823 670V0H553ZM983 1436Q965
1305 924 1249Q881 1192 807 1192Q789 1192 778 1194Q758 1198 746 1202L670 1229Q658 1233 641 1237Q631 1239 615 1239Q588 1239 570 1221Q554 1205 541 1161H447Q470 1282 510 1339Q553 1396 621 1397Q631 1397 655 1393T695 1382L770 1358Q774 1356 781 1354T793
1352Q801 1350 813 1350Q844 1350 862 1370Q878 1388 891 1436H983Z" />
<glyph unicode="&#xf2;" glyph-name="ograve" horiz-adv-x="907" d="M455 219Q527 219 567 291Q606 361 606 494T567 696Q526 768 455 768Q385 768 344 696Q305 626 305 493T344 291Q385 219 455 219ZM864 492Q864 263 752 121Q641 -18 455 -18T158 119Q47 258
47 491T157 862T455 999Q643 999 753 862T864 492ZM428 1485H674L861 1114H727L428 1485Z" />
<glyph unicode="&#xf3;" glyph-name="oacute" horiz-adv-x="907" d="M455 219Q527 219 567 291Q606 361 606 494T567 696Q526 768 455 768Q385 768 344 696Q305 626 305 493T344 291Q385 219 455 219ZM864 492Q864 263 752 121Q641 -18 455 -18T158 119Q47 258
47 491T157 862T455 999Q643 999 753 862T864 492ZM994 1485L695 1114H561L748 1485H994Z" />
<glyph unicode="&#xf4;" glyph-name="ocircumflex" horiz-adv-x="907" d="M455 219Q527 219 567 291Q606 361 606 494T567 696Q526 768 455 768Q385 768 344 696Q305 626 305 493T344 291Q385 219 455 219ZM864 492Q864 263 752 121Q641 -18 455 -18T158 119Q47
258 47 491T157 862T455 999Q643 999 753 862T864 492ZM443 1114L611 1485H811L979 1114H858L711 1331L564 1114H443Z" />
<glyph unicode="&#xf5;" glyph-name="otilde" horiz-adv-x="907" d="M455 219Q527 219 567 291Q606 361 606 494T567 696Q526 768 455 768Q385 768 344 696Q305 626 305 493T344 291Q385 219 455 219ZM864 492Q864 263 752 121Q641 -18 455 -18T158 119Q47 258
47 491T157 862T455 999Q643 999 753 862T864 492ZM979 1436Q961 1305 920 1249Q877 1192 803 1192Q785 1192 774 1194Q754 1198 742 1202L666 1229Q654 1233 637 1237Q627 1239 611 1239Q584 1239 566 1221Q550 1205 537 1161H443Q466 1282 506 1339Q549 1396
617 1397Q627 1397 651 1393T691 1382L766 1358Q770 1356 777 1354T789 1352Q797 1350 809 1350Q840 1350 858 1370Q874 1388 887 1436H979Z" />
<glyph unicode="&#xf6;" glyph-name="odieresis" horiz-adv-x="907" d="M455 219Q527 219 567 291Q606 361 606 494T567 696Q526 768 455 768Q385 768 344 696Q305 626 305 493T344 291Q385 219 455 219ZM864 492Q864 263 752 121Q641 -18 455 -18T158 119Q47
258 47 491T157 862T455 999Q643 999 753 862T864 492ZM428 1296Q428 1345 463 1380T547 1415T631 1380Q668 1343 668 1296Q668 1245 633 1211T547 1176Q498 1176 463 1212Q428 1251 428 1296ZM756 1296Q756 1345 791 1380T875 1415Q926 1415 961 1381T996 1296Q996
1245 961 1211T875 1176Q826 1176 791 1212Q756 1251 756 1296Z" />
<glyph unicode="&#xf7;" glyph-name="divide" horiz-adv-x="1705" d="M799 367T854 367T950 326T991 229Q991 172 952 133T854 94T756 133T717 229Q717 284 758 325ZM254 694H1452V528H254V694ZM799 1128T854 1128T950 1088T991 990T952 893T854 854T756 893T717
989T758 1087Z" />
<glyph unicode="&#xf8;" glyph-name="oslash" horiz-adv-x="907" d="M530 748Q512 762 496 768Q478 774 453 774Q381 774 340 700Q301 628 301 489Q301 452 305 403Q307 372 319 334L530 748ZM377 242Q393 226 410 219Q428 213 455 213Q529 213 569 287Q610 363
610 494Q610 540 604 580Q596 629 590 653L377 242ZM123 -59L193 80Q121 146 84 248Q47 348 47 477Q47 721 156 860Q267 1001 455 1001Q502 1001 553 991Q590 983 637 958L694 1075L776 1030L715 903Q789 829 827 727Q864 629 864 492Q864 263 752 121Q641 -18
455 -18Q408 -18 356 -8Q315 0 270 23L205 -104L123 -59Z" />
<glyph unicode="&#xf9;" glyph-name="ugrave" horiz-adv-x="901" d="M811 981V473Q811 180 733 80Q655 -18 453 -18T170 80Q92 176 92 473V981H356V350Q356 272 376 246T450 219T526 248Q546 275 547 350V981H811ZM426 1485H672L859 1114H725L426 1485Z" />
<glyph unicode="&#xfa;" glyph-name="uacute" horiz-adv-x="901" d="M811 981V473Q811 180 733 80Q655 -18 453 -18T170 80Q92 176 92 473V981H356V350Q356 272 376 246T450 219T526 248Q546 275 547 350V981H811ZM992 1485L693 1114H559L746 1485H992Z" />
<glyph unicode="&#xfb;" glyph-name="ucircumflex" horiz-adv-x="901" d="M811 981V473Q811 180 733 80Q655 -18 453 -18T170 80Q92 176 92 473V981H356V350Q356 272 376 246T450 219T526 248Q546 275 547 350V981H811ZM441 1114L609 1485H809L977 1114H856L709
1331L562 1114H441Z" />
<glyph unicode="&#xfc;" glyph-name="udieresis" horiz-adv-x="901" d="M811 981V473Q811 180 733 80Q655 -18 453 -18T170 80Q92 176 92 473V981H356V350Q356 272 376 246T450 219T526 248Q546 275 547 350V981H811ZM426 1296Q426 1345 461 1380T545 1415T629
1380Q666 1343 666 1296Q666 1245 631 1211T545 1176Q496 1176 461 1212Q426 1251 426 1296ZM754 1296Q754 1345 789 1380T873 1415Q924 1415 959 1381T994 1296Q994 1245 959 1211T873 1176Q824 1176 789 1212Q754 1251 754 1296Z" />
<glyph unicode="&#xfd;" glyph-name="yacute" horiz-adv-x="757" d="M135 -395L256 0L2 981H268L362 547Q368 520 377 459Q383 414 383 362Q395 466 401 506Q409 557 412 563L502 981H768L399 -395H135ZM662 1485L363 1114H229L416 1485H662Z" />
<glyph unicode="&#xfe;" glyph-name="thorn" horiz-adv-x="927" d="M483 770Q418 770 391 709Q362 646 362 506Q362 350 389 289Q418 223 479 223T567 293Q596 367 596 510Q596 649 569 709Q541 770 483 770ZM102 -395V1550H362V842Q407 920 457 954Q508 991 575
991Q712 991 788 860Q864 727 864 485Q864 242 791 111Q717 -22 582 -23Q510 -23 455 20T362 143V-395H102Z" />
<glyph unicode="&#xff;" glyph-name="ydieresis" horiz-adv-x="757" d="M135 -395L256 0L2 981H268L362 547Q368 520 377 459Q383 414 383 362Q395 466 401 506Q409 557 412 563L502 981H768L399 -395H135ZM96 1296Q96 1345 131 1380T215 1415T299 1380Q336 1343
336 1296Q336 1245 301 1211T215 1176Q166 1176 131 1212Q96 1251 96 1296ZM424 1296Q424 1345 459 1380T543 1415Q594 1415 629 1381T664 1296Q664 1245 629 1211T543 1176Q494 1176 459 1212Q424 1251 424 1296Z" />
<glyph unicode="&#x106;" glyph-name="Cacute" horiz-adv-x="931" d="M866 16Q825 0 782 -10Q743 -18 696 -18Q416 -18 242 184Q68 385 68 717Q68 1063 238 1270Q410 1479 684 1479Q739 1479 780 1470Q829 1460 866 1444V1171Q837 1183 784 1196Q749 1204 707
1204Q562 1204 469 1075Q379 948 379 733Q379 530 473 401Q565 274 713 274Q754 274 788 283Q829 293 866 309V16ZM912 1964L613 1593H479L666 1964H912Z" />
<glyph unicode="&#x107;" glyph-name="cacute" horiz-adv-x="649" d="M614 702Q589 722 553 737Q528 747 492 748Q415 748 369 680Q322 610 322 498Q322 377 369 312T500 246Q533 246 559 258Q588 270 614 297V39Q569 10 526 -4T428 -18Q254 -18 154 119T53 492Q53
723 156 862Q256 999 428 999Q471 999 522 989Q563 981 614 961V702ZM965 1485L666 1114H532L719 1485H965Z" />
<glyph unicode="&#x10c;" glyph-name="Ccaron" horiz-adv-x="931" d="M866 16Q825 0 782 -10Q743 -18 696 -18Q416 -18 242 184Q68 385 68 717Q68 1063 238 1270Q410 1479 684 1479Q739 1479 780 1470Q829 1460 866 1444V1171Q837 1183 784 1196Q749 1204 707
1204Q562 1204 469 1075Q379 948 379 733Q379 530 473 401Q565 274 713 274Q754 274 788 283Q829 293 866 309V16ZM361 1964H482L629 1745L776 1964H897L729 1593H529L361 1964Z" />
<glyph unicode="&#x10d;" glyph-name="ccaron" horiz-adv-x="649" d="M614 702Q589 722 553 737Q528 747 492 748Q415 748 369 680Q322 610 322 498Q322 377 369 312T500 246Q533 246 559 258Q588 270 614 297V39Q569 10 526 -4T428 -18Q254 -18 154 119T53 492Q53
723 156 862Q256 999 428 999Q471 999 522 989Q563 981 614 961V702ZM414 1485H535L682 1266L829 1485H950L782 1114H582L414 1485Z" />
<glyph unicode="&#x111;" glyph-name="" horiz-adv-x="935" d="M563 842V1145H354V1325H563V1550H825V1325H950V1145H825V0H563V143Q526 60 471 20Q414 -21 344 -20Q209 -20 135 113T61 489Q61 729 137 860T352 991Q417 991 469 954Q520 918 563 842ZM563 506Q563
645 535 708T442 772Q383 772 356 709Q329 648 330 504Q330 365 360 293Q391 223 449 223Q510 223 537 287Q563 348 563 506Z" />
<glyph unicode="&#x11e;" glyph-name="Gbreve" horiz-adv-x="1138" d="M528 825H1071V791Q1071 783 1072 773T1073 758Q1073 392 938 186Q803 -19 567 -18Q336 -18 201 182T66 729Q66 1077 207 1278T588 1479Q752 1479 866 1382Q983 1284 1034 1104L772 983Q754
1089 707 1147Q662 1200 582 1200Q465 1200 410 1087Q357 978 356 729Q356 493 414 377Q473 256 582 256Q678 256 733 338Q788 422 788 567H528V825ZM299 1929H405Q415 1847 452 1816Q493 1781 569 1782Q647 1782 688 1816Q727 1849 733 1929H839Q839 1778 772
1702Q704 1626 569 1626Q438 1626 369 1701T299 1923V1929Z" />
<glyph unicode="&#x11f;" glyph-name="gbreve" horiz-adv-x="927" d="M563 981H825V74Q825 -237 741 -346Q659 -452 440 -453Q268 -453 172 -362Q78 -274 78 -113V-98H307Q307 -170 340 -205T436 -240Q507 -240 535 -203Q564 -164 563 -74V129Q514 57 463 25Q410
-10 350 -10Q209 -10 135 119T61 492Q61 734 137 860Q215 991 352 991Q420 991 471 952T563 831V981ZM563 506Q563 647 535 711Q507 772 442 772Q383 772 356 709Q329 648 330 504Q330 365 360 293Q391 223 449 223Q510 223 537 287Q563 348 563 506ZM451 1450H557Q567
1368 604 1337Q645 1302 721 1303Q799 1303 840 1337Q879 1370 885 1450H991Q991 1299 924 1223Q856 1147 721 1147Q590 1147 521 1222T451 1444V1450Z" />
<glyph unicode="&#x130;" glyph-name="Idot" horiz-adv-x="552" d="M127 0V1460H424V0H127ZM147 1724T147 1775T186 1865Q227 1906 276 1906Q329 1906 368 1868T407 1775Q407 1720 368 1683T276 1646Q225 1646 186 1685Z" />
<glyph unicode="&#x131;" glyph-name="dotlessi" horiz-adv-x="481" d="M106 0V981H377V0H106Z" />
<glyph unicode="&#x141;" glyph-name="Lslash" horiz-adv-x="747" d="M127 0V569L0 479V758L127 846V1460H418V1001L625 1149V870L418 723V285H750V0H127Z" />
<glyph unicode="&#x142;" glyph-name="lslash" horiz-adv-x="512" d="M121 557L0 473V684L121 768V1550H391V891L512 977V766L391 680V0H121V557Z" />
<glyph unicode="&#x152;" glyph-name="OE" horiz-adv-x="1478" d="M592 262Q692 262 748 377Q801 486 801 707Q801 967 752 1083T592 1200Q488 1200 436 1083Q385 968 385 731Q385 483 434 373T592 262ZM801 123Q758 53 690 20Q620 -15 532 -14Q331 -14 207 190Q82
397 82 731Q82 1090 211 1284Q340 1479 578 1479Q662 1479 717 1444Q776 1407 813 1335V1460H1415V1178H1075V881H1370V612H1075V285H1415V0H801V123Z" />
<glyph unicode="&#x153;" glyph-name="oe" horiz-adv-x="1433" d="M385 219T456 219T569 291Q608 361 608 494Q608 629 569 698T457 768Q385 768 344 696Q305 626 305 493T344 291Q385 219 456 219ZM1157 571Q1153 680 1118 731Q1081 782 1008 782T897 727T860
571H1157ZM860 420V412Q860 303 901 244T1018 184Q1061 184 1096 213Q1127 240 1149 295H1382Q1351 150 1249 66T1006 -18Q920 -18 852 10T733 96Q678 37 608 10Q534 -19 455 -18Q269 -18 158 119Q47 258 47 489Q47 725 157 862T455 999Q543 999 612 971Q684 942
731 885Q786 944 852 971Q922 1000 1006 999Q1201 999 1299 866T1397 467V420H860Z" />
<glyph unicode="&#x15e;" glyph-name="Scedilla" horiz-adv-x="784" d="M70 51V354Q119 311 178 283Q229 258 285 258Q361 258 401 297Q444 336 444 403Q444 485 330 584Q320 594 303 607T281 625Q146 745 96 840Q47 934 47 1057Q47 1247 154 1362Q263 1479 432
1479Q502 1479 553 1462Q616 1442 678 1407V1149Q606 1184 559 1200Q518 1214 483 1214Q422 1214 381 1174T340 1071Q340 1016 371 967Q402 916 510 823Q653 700 698 614Q741 532 741 412Q741 213 629 98Q515 -19 322 -18Q248 -18 186 0Q117 20 70 51ZM411 -438V-309Q468
-327 530 -342Q575 -352 622 -352Q665 -352 686 -334Q709 -316 709 -279T682 -226T600 -209H575Q571 -209 565 -210T557 -211V0H653V-90H665Q767 -90 815 -137Q864 -186 864 -281Q864 -381 807 -430Q746 -481 637 -481Q596 -481 536 -469Q452 -450 411 -438Z" />
<glyph unicode="&#x15f;" glyph-name="scedilla" horiz-adv-x="684" d="M27 84L139 283Q180 254 225 236Q264 220 293 219Q324 219 344 239T365 289Q365 342 264 403Q250 411 242 417T225 428Q131 491 90 555Q51 614 51 700Q51 837 137 918Q225 1000 369 999Q445
999 508 979Q578 956 637 915L522 721Q482 755 449 770Q412 786 387 786Q356 786 334 768Q314 750 313 721Q313 680 406 621Q414 615 429 606T451 592Q555 522 596 455Q637 389 637 303Q637 160 543 72Q447 -18 297 -18Q223 -18 156 6Q90 31 27 84ZM106 -438V-309Q163
-327 225 -342Q270 -352 317 -352Q360 -352 381 -334Q404 -316 404 -279T377 -226T295 -209H270Q266 -209 260 -210T252 -211V0H348V-90H360Q462 -90 510 -137Q559 -186 559 -281Q559 -381 502 -430Q441 -481 332 -481Q291 -481 231 -469Q147 -450 106 -438Z" />
<glyph unicode="&#x160;" glyph-name="Scaron" horiz-adv-x="784" d="M70 51V354Q119 311 178 283Q229 258 285 258Q361 258 401 297Q444 336 444 403Q444 485 330 584Q320 594 303 607T281 625Q146 745 96 840Q47 934 47 1057Q47 1247 154 1362Q263 1479 432
1479Q502 1479 553 1462Q616 1442 678 1407V1149Q606 1184 559 1200Q518 1214 483 1214Q422 1214 381 1174T340 1071Q340 1016 371 967Q402 916 510 823Q653 700 698 614Q741 532 741 412Q741 213 629 98Q515 -19 322 -18Q248 -18 186 0Q117 20 70 51ZM125 1964H246L393
1745L540 1964H661L493 1593H293L125 1964Z" />
<glyph unicode="&#x161;" glyph-name="scaron" horiz-adv-x="684" d="M27 84L139 283Q180 254 225 236Q264 220 293 219Q324 219 344 239T365 289Q365 342 264 403Q250 411 242 417T225 428Q131 491 90 555Q51 614 51 700Q51 837 137 918Q225 1000 369 999Q445
999 508 979Q578 956 637 915L522 721Q482 755 449 770Q412 786 387 786Q356 786 334 768Q314 750 313 721Q313 680 406 621Q414 615 429 606T451 592Q555 522 596 455Q637 389 637 303Q637 160 543 72Q447 -18 297 -18Q223 -18 156 6Q90 31 27 84ZM76 1485H197L344
1266L491 1485H612L444 1114H244L76 1485Z" />
<glyph unicode="&#x178;" glyph-name="Ydieresis" horiz-adv-x="800" d="M254 0V686L-84 1460H223L319 1196Q347 1125 369 1055Q377 1028 390 979T410 911Q433 1009 449 1063Q469 1129 492 1188L598 1460H883L543 686V0H254ZM118 1775Q118 1824 153 1859T237 1894T321
1859Q358 1822 358 1775Q358 1724 323 1690T237 1655Q188 1655 153 1691Q118 1730 118 1775ZM446 1775Q446 1824 481 1859T565 1894Q616 1894 651 1860T686 1775Q686 1724 651 1690T565 1655Q516 1655 481 1691Q446 1730 446 1775Z" />
<glyph unicode="&#x17d;" glyph-name="Zcaron" horiz-adv-x="876" d="M-16 0L455 1192H53V1460H848L383 285H807V0H-16ZM170 1964H291L438 1745L585 1964H706L538 1593H338L170 1964Z" />
<glyph unicode="&#x17e;" glyph-name="zcaron" horiz-adv-x="673" d="M18 0L301 762H41V981H651L373 236H631V0H18ZM70 1485H191L338 1266L485 1485H606L438 1114H238L70 1485Z" />
<glyph unicode="&#x192;" glyph-name="florin" horiz-adv-x="899" d="M295 670H125L158 883H330L379 1198Q399 1341 473 1411Q541 1477 680 1477Q717 1477 758 1470Q793 1464 842 1452L805 1221Q803 1221 800 1222T791 1225Q750 1233 729 1233Q692 1233 674 1210Q658
1192 645 1114L608 883H786L754 670H575L461 -49Q426 -272 360 -362Q292 -454 172 -455Q135 -455 92 -449Q63 -445 -2 -428L33 -201L66 -209Q74 -211 86 -211Q127 -211 145 -186Q165 -157 178 -72L295 670Z" />
<glyph unicode="&#x2c6;" glyph-name="circumflex" horiz-adv-x="1024" d="M244 1114L412 1485H612L780 1114H659L512 1331L365 1114H244Z" />
<glyph unicode="&#x2c7;" glyph-name="caron" horiz-adv-x="1024" d="M244 1485H365L512 1266L659 1485H780L612 1114H412L244 1485Z" />
<glyph unicode="&#x2d8;" glyph-name="breve" horiz-adv-x="1024" d="M242 1450H348Q358 1368 395 1337Q436 1302 512 1303Q590 1303 631 1337Q670 1370 676 1450H782Q782 1299 715 1223Q647 1147 512 1147Q381 1147 312 1222T242 1444V1450Z" />
<glyph unicode="&#x2d9;" glyph-name="dotaccent" horiz-adv-x="1024" d="M383 1245T383 1296T422 1386Q463 1427 512 1427Q565 1427 604 1389T643 1296Q643 1241 604 1204T512 1167Q461 1167 422 1206Z" />
<glyph unicode="&#x2da;" glyph-name="ring" horiz-adv-x="1024" d="M387 1360Q387 1305 422 1270T512 1235Q565 1235 602 1272T639 1360Q639 1413 602 1450T512 1487Q461 1487 424 1450T387 1360ZM248 1249T248 1362T323 1550T512 1626T700 1550Q778 1472 778
1362T701 1174T512 1096T324 1174Q248 1249 248 1362Z" />
<glyph unicode="&#x2db;" glyph-name="ogonek" horiz-adv-x="1024" d="M616 0Q563 -47 535 -102Q506 -155 506 -205Q506 -248 524 -266T584 -285H662V-459H569Q467 -459 414 -412Q363 -367 362 -274Q362 -200 401 -137Q438 -76 528 0H616Z" />
<glyph unicode="&#x2dc;" glyph-name="tilde" horiz-adv-x="1024" d="M780 1436Q762 1305 721 1249Q678 1192 604 1192Q586 1192 575 1194Q555 1198 543 1202L467 1229Q455 1233 438 1237Q428 1239 412 1239Q385 1239 367 1221Q351 1205 338 1161H244Q267 1282
307 1339Q350 1396 418 1397Q428 1397 452 1393T492 1382L567 1358Q571 1356 578 1354T590 1352Q598 1350 610 1350Q641 1350 659 1370Q675 1388 688 1436H780Z" />
<glyph unicode="&#x2dd;" glyph-name="hungarumlaut" horiz-adv-x="1024" d="M563 1114L694 1485H911L678 1114H563ZM313 1114L408 1485H616L420 1114H313Z" />
<glyph unicode="&#x3a9;" glyph-name="Omega" horiz-adv-x="1568" d="M1194 213H1499V0H897V229Q1057 325 1139 473Q1221 623 1221 825Q1221 1034 1100 1167Q981 1298 785 1298T467 1165Q348 1034 348 813Q348 623 432 471Q514 321 672 229V0H70V213H375Q234 340
164 487Q96 630 96 809Q96 1122 286 1316T784 1511Q1087 1511 1280 1319T1473 825Q1473 639 1407 492Q1344 350 1194 213Z" />
<glyph unicode="&#x3c0;" glyph-name="pi" horiz-adv-x="1366" d="M360 889H315Q262 889 231 858Q202 829 193 758H18Q45 944 119 1014Q189 1082 360 1081H1313L1274 889H1081L997 453Q997 449 994 436T989 412Q966 293 967 264Q967 209 989 182Q1012 157 1067
158Q1094 158 1110 160Q1155 166 1169 168L1135 0Q1108 -8 1073 -12Q1032 -16 999 -16Q861 -16 797 33Q734 82 733 186Q733 268 784 530L786 537L856 889H588L414 0H188L360 889Z" />
<glyph unicode="&#x2013;" glyph-name="endash" horiz-adv-x="1024" d="M0 367V614H1024V367H0Z" />
<glyph unicode="&#x2014;" glyph-name="emdash" horiz-adv-x="2048" d="M0 367V614H2048V367H0Z" />
<glyph unicode="&#x2018;" glyph-name="quoteleft" horiz-adv-x="514" d="M33 854L281 1460H483L319 854H33Z" />
<glyph unicode="&#x2019;" glyph-name="quoteright" horiz-adv-x="514" d="M33 854L197 1460H483L236 854H33Z" />
<glyph unicode="&#x201a;" glyph-name="quotesinglbase" horiz-adv-x="514" d="M33 -281L197 326H483L236 -281H33Z" />
<glyph unicode="&#x201c;" glyph-name="quotedblleft" horiz-adv-x="899" d="M868 1460L705 854H416L666 1460H868ZM483 1460L319 854H33L281 1460H483Z" />
<glyph unicode="&#x201d;" glyph-name="quotedblright" horiz-adv-x="899" d="M33 854L195 1460H483L236 854H33ZM416 854L580 1460H868L621 854H416Z" />
<glyph unicode="&#x201e;" glyph-name="quotedblbase" horiz-adv-x="899" d="M33 -281L195 326H483L236 -281H33ZM416 -281L580 326H868L621 -281H416Z" />
<glyph unicode="&#x2020;" glyph-name="dagger" horiz-adv-x="899" d="M313 -395V739H61V995H313V1460H588V995H840V739H588V-395H313Z" />
<glyph unicode="&#x2021;" glyph-name="daggerdbl" horiz-adv-x="899" d="M317 -395V37H51V289H317V786H51V1038H317V1460H584V1038H848V786H584V289H848V37H584V-395H317Z" />
<glyph unicode="&#x2022;" glyph-name="bullet" horiz-adv-x="1206" d="M307 762Q307 885 393 971T604 1057Q727 1057 813 971T899 762Q899 641 811 553T602 465T393 553Q307 639 307 762Z" />
<glyph unicode="&#x2026;" glyph-name="ellipsis" horiz-adv-x="2048" d="M518 166Q518 94 467 39Q418 -12 342 -12Q268 -12 217 39T166 166T217 291Q272 342 342 342T467 291Q518 242 518 166ZM1200 166Q1200 94 1149 39Q1100 -12 1024 -12Q950 -12 899 39T848
166T899 291Q954 342 1024 342T1149 291Q1200 242 1200 166ZM1884 166Q1884 94 1833 39Q1784 -12 1708 -12Q1634 -12 1583 39T1532 166T1583 291Q1638 342 1708 342T1833 291Q1884 242 1884 166Z" />
<glyph unicode="&#x2030;" glyph-name="perthousand" horiz-adv-x="2359" d="M385 -18L1110 1479H1272L551 -18H385ZM1909 418Q1909 275 1929 217Q1947 164 1996 164T2064 217T2083 418Q2083 568 2064 623Q2046 676 1995 676Q1946 676 1927 623Q1909 568 1909
418ZM2286 420Q2286 205 2212 94Q2136 -19 1995 -19T1780 94Q1704 211 1704 420Q1704 635 1777 747T1994 860T2212 748T2286 420ZM1212 418Q1212 267 1231 215Q1249 164 1298 164T1366 219Q1386 280 1386 418Q1386 561 1366 623Q1348 676 1299 676T1231 623Q1212
568 1212 418ZM1589 635T1589 420T1516 94Q1440 -19 1299 -19T1083 94Q1007 211 1008 420Q1008 631 1083 748Q1157 861 1298 860Q1441 860 1515 748ZM276 1042Q276 890 297 842Q320 789 365 788Q414 788 432 842Q450 893 451 1042Q451 1196 433 1247T365 1298Q320
1298 297 1243Q276 1189 276 1042ZM655 1038Q655 827 580 713Q504 600 365 600Q224 600 150 713Q74 830 74 1038Q74 1249 150 1366Q224 1479 365 1479T580 1366Q655 1249 655 1038Z" />
<glyph unicode="&#x2039;" glyph-name="guilsinglleft" horiz-adv-x="462" d="M432 135L283 51L31 500L283 928L432 844L233 500L432 135Z" />
<glyph unicode="&#x203a;" glyph-name="guilsinglright" horiz-adv-x="462" d="M31 135L227 500L31 844L180 928L432 500L180 51L31 135Z" />
<glyph unicode="&#x20a3;" glyph-name="franc" horiz-adv-x="1384" d="M115 0V1460H745V1190H397V887H715V618H397V0H115ZM899 0V981H1151V807Q1186 907 1239 950Q1298 999 1372 999V741H1354Q1250 741 1209 690Q1170 643 1170 461V0H899Z" />
<glyph unicode="&#x2122;" glyph-name="trademark" horiz-adv-x="1705" d="M809 1460H979L1120 1100L1253 1460H1423V918H1309V1346L1149 918H1090L924 1346V918H809V1460ZM225 1460H692V1366H524V918H395V1366H225V1460Z" />
<glyph unicode="&#x2202;" glyph-name="partialdiff" horiz-adv-x="1073" d="M758 639Q774 729 784 825Q792 899 793 973Q793 1090 764 1147Q736 1202 672 1202Q613 1202 524 1143Q440 1086 403 1085Q364 1085 338 1110T311 1171Q311 1239 389 1286Q469 1335 590
1335Q766 1335 877 1176Q990 1014 989 754Q989 414 840 195T463 -25Q301 -25 197 86T92 373Q92 570 205 696Q320 825 483 825Q585 825 651 780T758 639ZM705 504Q705 619 664 682T547 745Q443 745 373 614T303 276Q303 161 344 98Q384 37 461 37Q563 37 635 170Q705
301 705 504Z" />
<glyph unicode="&#x2206;" glyph-name="uni2206" horiz-adv-x="1394" d="M698 1196L319 213H1075L698 1196ZM569 1473H825L1399 0H-4L569 1473Z" />
<glyph unicode="&#x220f;" glyph-name="product" horiz-adv-x="1576" d="M154 1473H1421V-393H1135V1229H440V-393H154V1473Z" />
<glyph unicode="&#x2211;" glyph-name="summation" horiz-adv-x="1419" d="M61 1473H1341V1247H420L1067 563L406 -166H1380V-393H33V-233L745 553L61 1272V1473Z" />
<glyph unicode="&#x2212;" glyph-name="minus" horiz-adv-x="1705" d="M254 696H1452V526H254V696Z" />
<glyph unicode="&#x2215;" glyph-name="uni2215" horiz-adv-x="339" d="M-342 -18L512 1479H682L-172 -18H-342Z" />
<glyph unicode="&#x2219;" glyph-name="uni2219" horiz-adv-x="450" d="M401 729Q401 655 350 604T225 553Q149 553 100 602Q49 653 49 729T100 854Q155 905 225 905T350 854Q401 805 401 729Z" />
<glyph unicode="&#x221a;" glyph-name="radical" horiz-adv-x="1320" d="M1128 1675H1325V1565H1217L623 -41H541L225 831L94 782L66 877L371 985L618 297L1128 1675Z" />
<glyph unicode="&#x221e;" glyph-name="infinity" horiz-adv-x="1705" d="M928 559Q974 479 1038 436Q1099 395 1184 395Q1282 395 1343 456T1405 614Q1405 708 1348 772T1206 836Q1128 836 1065 772Q996 702 928 559ZM780 662Q734 742 670 784Q607 827 524 827Q426
827 365 766T303 606Q303 512 360 449Q415 388 500 387Q582 387 645 448T780 662ZM862 471Q792 338 713 275T541 211Q406 211 310 325T213 610Q213 788 299 899T518 1010Q612 1010 686 950Q762 891 844 750Q916 891 993 950Q1073 1011 1178 1012Q1307 1012 1401
897T1495 612Q1495 432 1411 324Q1325 213 1190 213Q1096 213 1024 270Q944 334 862 471Z" />
<glyph unicode="&#x222b;" glyph-name="integral'" horiz-adv-x="1118" d="M324 -258Q430 -258 446 434Q448 516 449 557Q461 1098 561 1323Q663 1552 874 1552Q964 1552 1018 1507Q1073 1462 1073 1395Q1073 1336 1039 1301T944 1266Q903 1266 870 1288Q841 1306
829 1354Q825 1374 823 1399Q819 1440 797 1440Q697 1440 678 825Q676 762 673 674T670 575Q662 296 639 150Q616 -6 580 -96Q525 -231 441 -301T246 -371Q160 -371 105 -328T49 -215Q49 -152 84 -119Q123 -84 184 -84Q221 -84 250 -102Q277 -118 291 -156Q295
-168 299 -215Q302 -258 324 -258Z" />
<glyph unicode="&#x2248;" glyph-name="approxequal" horiz-adv-x="1705" d="M1530 592V406Q1428 334 1329 299Q1239 266 1141 266Q1047 266 862 332Q672 400 563 399Q479 399 389 362Q295 323 178 242V426Q297 506 385 537Q483 572 565 571Q684 571 874 504T1151
436Q1234 436 1323 473Q1417 512 1530 592ZM1530 979V795Q1421 719 1329 686Q1239 653 1141 653Q1053 653 863 720T563 788Q485 788 393 754Q313 723 178 631V815Q276 883 383 924Q479 961 565 961Q684 961 874 893T1143 825Q1231 825 1323 860Q1409 893 1530 979Z"
/>
<glyph unicode="&#x2260;" glyph-name="notequal" horiz-adv-x="1705" d="M1204 1212L1327 1112L1157 897H1452V735H1049L852 485H1452V324H745L496 10L373 109L543 324H254V485H647L846 735H254V897H954L1204 1212Z" />
<glyph unicode="&#x2264;" glyph-name="lessequal" horiz-adv-x="1705" d="M260 178H1446V12H260V178ZM1446 1223V1047L557 760L1446 473V297L260 686V831L1446 1223Z" />
<glyph unicode="&#x2265;" glyph-name="greaterequal" horiz-adv-x="1705" d="M260 178H1448V12H260V178ZM260 1223L1446 831V686L260 297V473L1151 760L260 1047V1223Z" />
<glyph unicode="&#x25ca;" glyph-name="lozenge" horiz-adv-x="1011" d="M506 1409L121 592L506 -233L891 592L506 1409ZM506 1653L1006 592L506 -477L6 592L506 1653Z" />
<glyph unicode="&#xf000;" glyph-name="uniF000" horiz-adv-x="1617" d="M836 1217Q836 1219 835 1223T834 1231V1253Q834 1376 930 1483Q1028 1589 1165 1614Q1165 1612 1166 1604T1167 1591V1552Q1167 1421 1063 1317Q961 1215 860 1214H852H844L840 1215L836
1217ZM1505 403Q1390 153 1300 61Q1208 -35 1096 -35Q1045 -35 965 -2T842 31Q795 31 711 -2T584 -35Q519 -35 455 8Q392 51 326 141Q220 288 168 436Q113 593 113 737Q113 956 237 1093T561 1231Q629 1231 717 1196Q801 1163 840 1163Q873 1163 961 1198T1114
1233Q1227 1233 1313 1194Q1395 1157 1473 1069Q1371 1003 1322 924T1272 741Q1272 624 1331 541Q1392 454 1505 403Z" />
<glyph unicode="&#xf001;" glyph-name="uniF001" horiz-adv-x="980" d="M584 1243Q584 1306 629 1356Q672 1401 739 1401Q805 1401 850 1356T895 1243Q895 1177 850 1135Q801 1090 739 1090Q671 1090 629 1133Q584 1177 584 1243ZM606 0V981H874V0H606ZM512 1559V1327Q510
1327 506 1328T500 1329H481Q430 1329 412 1300Q394 1272 393 1147V981H512V774H393V0H123V774H25V981H123V1241Q123 1339 135 1389Q147 1436 176 1475Q211 1518 272 1544Q330 1569 408 1569Q437 1569 453 1567Q498 1561 512 1559Z" />
<glyph unicode="&#xf002;" glyph-name="uniF002" horiz-adv-x="980" d="M606 0V1550H874V0H606ZM512 1559V1327Q510 1327 506 1328T500 1329H481Q430 1329 412 1300Q394 1272 393 1147V981H512V774H393V0H123V774H25V981H123V1241Q123 1339 135 1389Q147 1436
176 1475Q211 1518 272 1544Q330 1569 408 1569Q437 1569 453 1567Q498 1561 512 1559Z" />
</font>
</defs>
</svg>
