<?xml version="1.0" standalone="no"?> <!DOCTYPE svg PUBLIC "-//W3C//DTD SVG 1.0//EN" "http://www.w3.org/TR/2001/REC-SVG-20010904/DTD/svg10.dtd" > <svg xmlns="http://www.w3.org/2000/svg" width="100%" height="100%">
<defs >
<font id="FuturaBT-ExtraBlackItalic" horiz-adv-x="1088" ><font-face
    font-family="Futura XBlkIt BT"
    units-per-em="2048"
    panose-1="2 11 9 3 2 2 4 9 2 4"
    ascent="1972"
    descent="-498"
    alphabetic="0" />
<missing-glyph horiz-adv-x="1228" d="M102 -362V1444H1126V-362H102ZM217 -248H1012V1329H217V-248Z" />
<glyph unicode=" " glyph-name="space" horiz-adv-x="700" />
<glyph unicode="!" glyph-name="exclam" horiz-adv-x="757" d="M131 610L297 1550H799L600 610H131ZM289 -33Q180 -33 103 39T25 211Q25 336 115 426Q203 514 332 514Q446 514 522 440T598 260Q598 141 506 55Q412 -33 289 -33Z" />
<glyph unicode="&quot;" glyph-name="quotedbl" horiz-adv-x="757" d="M690 1440V877H430V1440H690ZM326 1440V877H68V1440H326Z" />
<glyph unicode="#" glyph-name="numbersign" horiz-adv-x="1574" d="M946 834H707L629 621H868L946 834ZM938 1470L809 1104H1036L1165 1470H1454L1325 1104H1581L1481 834H1229L1153 621H1411L1311 350H1057L926 -16H637L768 350H541L410 -16H121L252 350H-6L94
621H348L422 834H164L262 1104H520L649 1470H938Z" />
<glyph unicode="$" glyph-name="dollar" horiz-adv-x="1402" d="M-25 229L238 604Q320 500 424 442Q526 385 621 385Q664 385 692 401Q719 415 719 442Q719 479 612 522Q571 538 563 543Q373 621 291 721Q207 823 207 963Q207 1158 338 1295T688 1462L713 1624H1075L1044
1442Q1120 1422 1198 1382Q1274 1343 1337 1290L1135 938Q1043 1016 975 1051Q901 1088 840 1087Q803 1087 781 1071T758 1026Q758 977 905 915L944 899Q1114 823 1185 729T1257 494Q1257 307 1128 168Q997 27 778 -18L731 -266H371L422 -4Q297 27 184 86T-25 229Z"
/>
<glyph unicode="%" glyph-name="percent" horiz-adv-x="1761" d="M1280 182Q1325 182 1358 258Q1391 332 1391 438Q1391 479 1378 502Q1366 522 1337 522Q1290 522 1257 446Q1224 372 1225 264Q1225 227 1239 203Q1251 182 1280 182ZM1683 414Q1683 215 1567 86Q1452
-41 1270 -41Q1114 -41 1028 47T942 295Q942 485 1061 614Q1178 739 1362 739Q1509 739 1597 651Q1683 566 1683 414ZM428 928Q469 928 504 1004Q537 1076 537 1182Q537 1225 524 1247Q512 1267 483 1268Q436 1268 403 1192Q370 1118 371 1010Q371 969 385 949T428
928ZM817 1153Q817 950 702 827Q585 700 403 700Q247 700 162 788T76 1036Q76 1231 195 1356Q312 1479 496 1479Q646 1479 731 1391T817 1153ZM340 -41L1212 1479H1413L539 -41H340Z" />
<glyph unicode="&amp;" glyph-name="ampersand" horiz-adv-x="1710" d="M870 969Q933 987 967 1020Q1002 1055 1001 1098Q1001 1131 979 1153T922 1176Q879 1176 856 1147Q831 1116 831 1069Q831 1044 842 1018Q852 989 870 969ZM764 391L610 594Q555 571 535
551Q510 526 510 496Q510 447 557 412T674 377Q678 377 707 381Q746 387 764 391ZM1024 72Q922 23 803 -8Q703 -35 596 -35Q348 -35 190 102Q28 241 29 442Q29 602 133 713Q235 822 444 887Q410 945 395 997Q379 1052 379 1102Q379 1276 520 1386Q659 1495 889
1495Q1116 1495 1260 1376Q1405 1255 1405 1075Q1405 944 1319 846Q1235 750 1075 696L1190 563Q1243 600 1305 651Q1371 706 1421 758L1663 459Q1624 422 1546 360Q1480 309 1425 279L1647 0H1085L1024 72Z" />
<glyph unicode="&apos;" glyph-name="quotesingle" horiz-adv-x="391" d="M326 1440V877H68V1440H326Z" />
<glyph unicode="(" glyph-name="parenleft" horiz-adv-x="890" d="M985 1327Q737 1116 625 903T512 434Q512 254 563 94Q616 -74 719 -223L410 -399Q252 -202 164 27Q82 242 82 475Q82 817 252 1094Q426 1375 762 1589L985 1327Z" />
<glyph unicode=")" glyph-name="parenright" horiz-adv-x="890" d="M-131 -135Q113 53 231 276Q348 494 348 768Q348 932 297 1098Q248 1258 143 1411L453 1587Q617 1380 696 1165T776 717Q776 365 608 90Q438 -189 100 -401L-131 -135Z" />
<glyph unicode="*" glyph-name="asterisk" horiz-adv-x="1064" d="M698 1194L922 1303L991 1083L741 1049L950 907L793 739L639 940L621 684L391 735L487 973L260 862L195 1081L446 1116L236 1257L391 1425L547 1229L563 1481L793 1430L698 1194Z" />
<glyph unicode="+" glyph-name="plus" horiz-adv-x="1705" d="M993 1221V748H1452V475H993V0H713V475H254V748H713V1221H993Z" />
<glyph unicode="," glyph-name="comma" horiz-adv-x="700" d="M-276 -336L94 379H612L154 -336H-276Z" />
<glyph unicode="-" glyph-name="hyphen" horiz-adv-x="899" d="M-10 309L70 719H834L756 309H-10Z" />
<glyph unicode="." glyph-name="period" horiz-adv-x="700" d="M274 -29Q159 -29 86 43Q8 117 8 217Q8 344 98 430Q190 518 317 518Q428 518 506 446Q582 376 582 266Q582 147 492 59T274 -29Z" />
<glyph unicode="/" glyph-name="slash" horiz-adv-x="1013" d="M0 -190L782 1497H1014L231 -190H0Z" />
<glyph unicode="0" glyph-name="zero" horiz-adv-x="1402" d="M764 997Q729 997 696 969Q665 940 643 879Q608 789 588 692Q568 598 567 530Q567 481 585 457T643 432Q672 432 694 449Q719 467 737 504Q777 575 805 688Q834 807 834 891Q834 948 817 971Q797 997
764 997ZM55 557Q55 756 115 934Q176 1120 279 1237Q383 1358 508 1417Q637 1478 782 1479Q1038 1479 1194 1317T1350 891Q1350 698 1288 514Q1225 326 1124 207Q1024 86 897 25Q768 -36 625 -37Q371 -37 213 127T55 557Z" />
<glyph unicode="1" glyph-name="one" horiz-adv-x="1402" d="M336 0L528 1038H354L430 1450H1106L838 0H336Z" />
<glyph unicode="2" glyph-name="two" horiz-adv-x="1402" d="M-23 0L31 291Q406 522 604 690Q799 854 799 942Q799 985 775 1009T705 1034Q656 1034 621 997Q588 960 582 899H127Q168 1186 330 1333Q490 1478 774 1479Q1026 1479 1181 1354T1337 1032Q1337 850
1200 694Q1061 536 788 403H1255L1180 0H-23Z" />
<glyph unicode="3" glyph-name="three" horiz-adv-x="1402" d="M516 469Q526 408 559 379Q596 348 659 348Q720 348 756 381Q793 414 793 465Q793 520 756 551Q721 580 649 580H633Q627 580 617 579T600 578L657 895Q677 891 688 891Q692 891 702 890T717 889Q780
889 823 922Q862 953 862 1008Q862 1053 834 1077Q807 1102 756 1102T668 1069Q633 1038 625 981H143Q192 1227 367 1352Q543 1479 834 1479Q1053 1479 1196 1366T1339 1081Q1339 948 1264 864Q1190 782 1032 735Q1157 710 1225 631Q1291 553 1290 432Q1290 225
1116 92Q946 -39 664 -39Q384 -39 215 96Q49 229 33 469H516Z" />
<glyph unicode="4" glyph-name="four" horiz-adv-x="1402" d="M621 0L670 270H-29L27 569L709 1456H1376L1225 641H1362L1294 270H1157L1108 0H621ZM737 641L793 928L799 958Q815 1048 834 1108H823Q805 1059 784 1018Q759 969 735 936L629 780Q592 727 571 705Q540
672 508 641H737Z" />
<glyph unicode="5" glyph-name="five" horiz-adv-x="1402" d="M129 518Q237 432 338 389Q434 348 545 348Q627 348 676 385T725 479Q725 571 625 626T358 682Q295 682 264 678Q227 674 174 662L422 1450H1350L1276 1051H723L698 934H733Q979 934 1116 817Q1255
700 1255 500Q1255 262 1067 111T584 -41Q434 -41 281 6T-14 143L129 518Z" />
<glyph unicode="6" glyph-name="six" horiz-adv-x="1402" d="M557 512Q557 461 594 424Q629 389 684 389Q741 389 776 424Q813 461 813 512T776 600Q741 635 684 635Q631 635 594 598T557 512ZM772 932Q831 940 842 942Q879 946 895 946Q956 946 1028 926Q1091
908 1149 868Q1237 809 1282 721Q1329 631 1329 530Q1329 409 1268 295Q1209 186 1094 96Q1000 28 893 -4Q778 -39 655 -39Q376 -39 215 114T53 530Q53 747 219 975Q383 1200 729 1450H1434L772 932Z" />
<glyph unicode="7" glyph-name="seven" horiz-adv-x="1402" d="M74 0L801 1032H160L246 1450H1518V1430L678 0H74Z" />
<glyph unicode="8" glyph-name="eight" horiz-adv-x="1402" d="M408 774Q308 807 256 881Q203 957 203 1061Q203 1249 360 1366Q514 1481 780 1481Q1048 1481 1202 1371T1356 1065Q1356 930 1274 846Q1192 760 1040 733Q1165 698 1235 614T1305 416Q1305 205 1137
82Q967 -41 674 -41Q377 -41 205 82Q31 207 31 410Q31 564 127 655Q226 749 408 774ZM829 1135T782 1135T703 1102T670 1018Q670 975 698 946Q725 919 776 920Q823 920 854 954Q887 991 887 1036T858 1108ZM680 594Q628 594 588 551Q549 510 549 449Q549 400 581
367T668 334Q725 334 762 375Q799 414 799 475Q799 526 766 559Q731 594 680 594Z" />
<glyph unicode="9" glyph-name="nine" horiz-adv-x="1402" d="M850 928Q850 979 813 1016Q778 1051 723 1051T633 1016Q596 979 596 928T633 840Q668 805 723 805Q776 805 813 842T850 928ZM635 508Q629 508 610 505T580 500Q562 498 514 498Q321 498 197 612Q76
725 76 909Q76 1159 266 1319T758 1479Q1024 1479 1192 1327Q1358 1176 1358 934Q1358 746 1268 571Q1180 401 997 256L678 0H-27L635 508Z" />
<glyph unicode=":" glyph-name="colon" horiz-adv-x="749" d="M274 -25Q161 -25 86 39Q8 105 8 190Q8 299 98 379Q184 457 317 457Q430 457 506 394T582 244Q582 133 492 53Q405 -25 274 -25ZM385 551Q272 551 197 614Q119 680 119 766Q119 875 209 954Q295 1032
428 1032Q539 1032 614 969Q692 903 692 817Q692 706 602 629T385 551Z" />
<glyph unicode=";" glyph-name="semicolon" horiz-adv-x="749" d="M375 551Q262 551 186 614Q108 680 109 766Q109 875 199 954Q285 1032 418 1032Q531 1032 606 969Q684 903 684 817Q684 706 594 629T375 551ZM-285 -336L84 379H602L143 -336H-285Z" />
<glyph unicode="&lt;" glyph-name="less" horiz-adv-x="1705" d="M1442 938L641 610L1442 283V-16L264 471V752L1442 1239V938Z" />
<glyph unicode="=" glyph-name="equal" horiz-adv-x="1705" d="M1452 512V240H254V512H1452ZM1452 983V711H254V983H1452Z" />
<glyph unicode="&gt;" glyph-name="greater" horiz-adv-x="1705" d="M1442 752V471L264 -16V283L1065 610L264 938V1239L1442 752Z" />
<glyph unicode="?" glyph-name="question" horiz-adv-x="1308" d="M315 606L387 954H397Q491 950 500 950Q644 950 715 987Q787 1024 786 1102Q786 1143 762 1165Q735 1188 694 1188Q649 1188 618 1155Q585 1120 584 1069H100Q125 1292 295 1423T733 1554Q997
1554 1153 1430T1309 1094Q1309 955 1239 844Q1173 740 1040 674Q960 635 858 621Q760 607 489 606H315ZM475 -41Q364 -41 287 31Q211 101 211 203Q211 328 301 418Q389 506 520 506Q631 506 709 432Q785 358 784 252Q784 133 692 47Q598 -41 475 -41Z" />
<glyph unicode="@" glyph-name="at" horiz-adv-x="2048" d="M1241 911L1290 993H1532L1376 367Q1372 351 1372 348V336Q1372 311 1384 299T1419 287Q1546 287 1651 428Q1753 567 1753 760Q1753 998 1579 1141Q1403 1286 1116 1286Q966 1286 850 1251Q723 1212
625 1145Q471 1036 387 877Q303 715 303 526Q303 231 501 57T1038 -117Q1194 -117 1346 -70Q1489 -25 1624 70L1739 -90Q1579 -211 1397 -270T1016 -330Q821 -330 662 -276Q492 -221 367 -119Q217 0 144 159T70 520Q70 695 125 852Q178 1006 289 1137Q439 1313
651 1409Q860 1503 1112 1503Q1497 1503 1739 1296Q1979 1089 1978 764Q1978 594 1911 449Q1843 306 1714 207Q1640 150 1561 123Q1475 94 1386 94Q1277 94 1219 131Q1164 166 1153 248Q1096 168 1026 131Q963 96 864 96Q692 96 606 184Q520 274 520 446Q520 694
663 858T1020 1022Q1094 1022 1151 993T1241 911ZM1126 494L1174 688Q1168 751 1130 793Q1095 832 1040 831Q942 831 872 715Q800 596 801 440Q801 368 831 328Q862 289 918 289Q989 289 1047 344Q1106 400 1126 494Z" />
<glyph unicode="A" glyph-name="A" horiz-adv-x="1462" d="M653 541H840L834 698Q834 700 833 712T831 735Q827 801 827 893V954Q827 962 828 975T829 995L793 881Q779 836 756 784L653 541ZM-143 0L621 1464H1200L1391 0H870L860 195H508L428 0H-143Z" />
<glyph unicode="B" glyph-name="B" horiz-adv-x="1433" d="M674 922H700Q802 922 849 946T897 1022Q897 1065 866 1085Q833 1108 778 1108H709L674 922ZM569 356H606Q737 356 790 385T844 479Q844 530 807 555T692 580H610L569 356ZM0 0L270 1464H774Q1077 1464
1235 1362T1393 1065Q1393 928 1313 848Q1231 766 1079 752Q1210 732 1286 651Q1362 573 1362 453Q1362 244 1192 121Q1026 0 727 0H0Z" />
<glyph unicode="C" glyph-name="C" horiz-adv-x="1308" d="M1141 539L1042 10Q974 -15 907 -27T774 -39Q639 -39 518 4T301 131Q197 221 138 358T78 647Q78 807 129 954Q178 1097 279 1212Q396 1351 565 1425Q733 1499 930 1499Q1039 1499 1126 1479Q1218 1459
1303 1415L1212 926Q1132 971 1065 991T922 1012Q787 1012 694 924Q606 838 606 700Q606 583 675 516T862 449Q925 449 999 473Q1080 500 1141 539Z" />
<glyph unicode="D" glyph-name="D" horiz-adv-x="1591" d="M612 440H618Q792 440 895 530Q995 618 995 776Q995 891 924 958Q856 1024 729 1024H719L612 440ZM0 0L270 1464H666Q850 1464 973 1446T1176 1391Q1348 1305 1440 1155Q1532 1003 1532 809Q1532 627
1452 463Q1372 301 1227 193Q1094 93 911 45Q737 0 461 0H0Z" />
<glyph unicode="E" glyph-name="E" horiz-adv-x="1265" d="M0 0L270 1464H1274L1202 1067H725L698 926H1147L1079 555H631L602 397H1122L1049 0H0Z" />
<glyph unicode="F" glyph-name="F" horiz-adv-x="1187" d="M0 0L270 1464H1241L1167 1067H733L700 891H1114L1042 506H629L535 0H0Z" />
<glyph unicode="G" glyph-name="G" horiz-adv-x="1638" d="M1436 170Q1284 64 1130 12Q978 -39 813 -39Q483 -39 281 151T78 647Q78 807 129 954Q178 1097 279 1212Q396 1349 563 1423Q732 1497 932 1497Q1168 1497 1331 1403Q1499 1307 1595 1122L1120 946Q1083
999 1032 1024Q983 1049 918 1049Q781 1049 690 946Q602 846 602 682Q602 549 682 465Q762 383 893 383Q899 383 911 384T930 385Q944 385 969 389L995 532H805L866 864H1563L1436 170Z" />
<glyph unicode="H" glyph-name="H" horiz-adv-x="1619" d="M0 0L270 1464H801L709 958H997L1090 1464H1622L1350 0H819L918 526H629L530 0H0Z" />
<glyph unicode="I" glyph-name="I" horiz-adv-x="827" d="M10 0L281 1464H819L549 0H10Z" />
<glyph unicode="J" glyph-name="J" horiz-adv-x="1011" d="M-61 55L76 510Q121 483 147 473T195 463Q254 463 285 506Q320 553 342 688L485 1464H1020L862 610Q825 410 782 309Q739 211 668 131Q586 45 487 4Q385 -39 270 -39Q174 -39 98 -16Q19 8 -61 55Z" />
<glyph unicode="K" glyph-name="K" horiz-adv-x="1486" d="M0 0L270 1464H801L690 870L1081 1464H1700L1147 725L1446 0H872L649 641L530 0H0Z" />
<glyph unicode="L" glyph-name="L" horiz-adv-x="1122" d="M0 0L270 1464H811L623 451H1073L989 0H0Z" />
<glyph unicode="M" glyph-name="M" horiz-adv-x="1945" d="M-76 0L362 1464H895L944 989Q952 887 954 834Q958 728 958 668L1309 1464H1843L1774 0H1286L1350 782Q1330 723 1307 668Q1260 557 1255 547L1001 0H700L618 760Q614 721 598 643Q588 592 567 522L420 0H-76Z" />
<glyph unicode="N" glyph-name="N" horiz-adv-x="1736" d="M0 0L270 1464H807L975 999Q977 995 980 985T987 965Q1044 809 1065 702L1206 1464H1737L1466 0H930L659 756Q657 668 614 422L612 410L537 0H0Z" />
<glyph unicode="O" glyph-name="O" horiz-adv-x="1744" d="M895 1012Q768 1012 686 924T604 702Q604 583 670 518Q740 448 848 449Q971 449 1055 541Q1139 635 1139 764Q1139 868 1069 942Q1001 1012 895 1012ZM815 -39Q657 -39 528 4Q403 45 301 133Q197 223
138 360T78 647Q78 807 129 954Q178 1097 279 1212Q396 1351 565 1425T928 1499Q1257 1499 1462 1309T1667 813Q1667 647 1616 506Q1563 361 1466 248Q1349 111 1180 35Q1014 -39 815 -39Z" />
<glyph unicode="P" glyph-name="P" horiz-adv-x="1507" d="M686 831H725Q844 831 897 866Q952 903 952 975Q952 1030 905 1055Q856 1082 758 1081H733L686 831ZM0 0L270 1464H834Q1158 1464 1319 1346T1481 989Q1481 733 1309 592Q1135 449 823 449H614L532 0H0Z" />
<glyph unicode="Q" glyph-name="Q" horiz-adv-x="1744" d="M897 1010Q774 1010 688 920Q604 834 604 698Q604 581 672 510Q740 440 850 440Q971 440 1057 532Q1141 622 1141 758Q1141 864 1071 938Q1003 1010 897 1010ZM1438 -236L940 -297L809 -31Q475 -27 279
158Q78 346 78 649Q78 807 129 954Q178 1097 279 1212Q396 1351 565 1425Q733 1499 928 1499Q1257 1499 1462 1309T1667 815Q1667 567 1555 375T1229 66L1438 -236Z" />
<glyph unicode="R" glyph-name="R" horiz-adv-x="1523" d="M0 0L270 1464H834Q1149 1464 1315 1352Q1479 1241 1479 1024Q1479 840 1384 721Q1288 600 1118 563L1329 0H786L627 532L528 0H0ZM678 815H717Q838 815 895 854T952 977Q952 1040 907 1071Q864 1100
762 1100H731L678 815Z" />
<glyph unicode="S" glyph-name="S" horiz-adv-x="1216" d="M-92 231L170 614Q254 510 356 449Q452 392 555 391Q598 391 624 407T651 449Q651 488 537 535L498 551Q316 627 225 731Q139 831 139 979Q139 1208 305 1352Q473 1497 743 1497Q895 1497 1030 1450Q1163
1403 1272 1313L1067 954Q973 1034 905 1069Q827 1108 772 1108Q733 1108 713 1090Q690 1072 690 1044Q690 993 821 938L877 915Q1047 839 1118 743T1190 502Q1190 273 1012 119T561 -35Q389 -35 224 32T-92 231Z" />
<glyph unicode="T" glyph-name="T" horiz-adv-x="1193" d="M193 0L381 1020H68L152 1464H1303L1221 1020H918L729 0H193Z" />
<glyph unicode="U" glyph-name="U" horiz-adv-x="1562" d="M254 1464H791L659 754Q655 734 635 610Q629 573 629 553Q629 498 657 465Q684 434 739 434Q807 434 840 483Q873 530 909 727L1044 1464H1579L1430 649Q1399 491 1362 389Q1325 291 1276 221Q1186 98
1040 29Q899 -39 727 -39Q434 -39 262 104Q94 245 94 496Q94 537 104 623Q110 682 139 838L254 1464Z" />
<glyph unicode="V" glyph-name="V" horiz-adv-x="1370" d="M293 0L45 1464H575L629 1006Q643 871 645 831Q651 749 651 666Q665 717 702 823Q729 903 768 985L985 1464H1567L768 0H293Z" />
<glyph unicode="W" glyph-name="W" horiz-adv-x="2064" d="M178 0L61 1464H571L590 1012Q594 938 594 907Q594 891 595 857T596 809T595 768T594 729Q594 704 590 651L909 1464H1331L1382 659Q1390 690 1430 817Q1452 888 1473 940L1675 1464H2232L1606 0H1071L1022
807Q1004 729 979 662Q946 568 928 522L707 0H178Z" />
<glyph unicode="X" glyph-name="X" horiz-adv-x="1456" d="M-213 0L442 782L98 1464H692L756 1323Q768 1294 788 1237Q806 1188 817 1149Q831 1188 848 1217Q875 1262 901 1298L1020 1464H1669L1059 723L1419 0H825L741 190Q727 223 715 262Q703 297 696 334L639
236Q623 205 600 178L461 0H-213Z" />
<glyph unicode="Y" glyph-name="Y" horiz-adv-x="1310" d="M233 0L346 608L-14 1464H563L627 1272Q645 1221 659 1161Q671 1114 678 1065Q701 1141 768 1247Q776 1259 778 1262L907 1464H1542L881 600L770 0H233Z" />
<glyph unicode="Z" glyph-name="Z" horiz-adv-x="1351" d="M-123 0L625 1032H111L190 1464H1536L788 446H1260L1178 0H-123Z" />
<glyph unicode="[" glyph-name="bracketleft" horiz-adv-x="890" d="M-25 -360L346 1550H1024L956 1198H698L463 -10H723L653 -360H-25Z" />
<glyph unicode="\" glyph-name="backslash" horiz-adv-x="1013" d="M125 1497H356L889 -190H657L125 1497Z" />
<glyph unicode="]" glyph-name="bracketright" horiz-adv-x="890" d="M866 1550L496 -360H-184L-115 -8H143L377 1200H119L186 1550H866Z" />
<glyph unicode="^" glyph-name="asciicircum" horiz-adv-x="2048" d="M1192 1462L1634 897H1331L1024 1206L715 897H412L854 1462H1192Z" />
<glyph unicode="_" glyph-name="underscore" horiz-adv-x="1024" d="M1024 -201V-483H0V-201H1024Z" />
<glyph unicode="`" glyph-name="grave" horiz-adv-x="1024" d="M326 1530H600L754 1178H600L326 1530Z" />
<glyph unicode="a" glyph-name="a" horiz-adv-x="1372" d="M643 647Q584 647 547 600Q508 551 508 481Q508 424 535 395Q563 364 614 365Q677 365 719 410Q758 451 758 524Q758 581 727 614T643 647ZM852 1034H1327L1135 0H676L713 139Q647 49 572 6T401 -37Q233
-37 127 90T20 422Q20 541 57 653Q92 759 164 858Q240 960 336 1013T541 1067Q641 1067 711 1022Q783 975 834 885L852 1034Z" />
<glyph unicode="b" glyph-name="b" horiz-adv-x="1400" d="M623 375Q684 375 727 420Q770 467 770 532Q770 589 739 623Q708 658 657 657Q600 657 559 610Q520 565 520 492Q520 435 547 406Q574 375 623 375ZM760 1550L666 1049Q660 1021 647 987Q627 932 618
913Q681 991 754 1028Q832 1067 913 1067Q1081 1067 1188 938Q1294 811 1294 608Q1294 491 1257 377Q1222 271 1151 172Q1075 70 979 17T774 -37Q682 -37 613 2T496 123L471 0H-12L272 1550H760Z" />
<glyph unicode="c" glyph-name="c" horiz-adv-x="966" d="M741 0Q688 -18 623 -29Q562 -39 520 -39Q299 -39 158 96Q19 229 18 444Q18 569 61 682T188 879Q276 971 395 1020Q508 1067 649 1067Q727 1067 791 1053Q850 1039 924 1008L854 623Q799 658 766 670Q729
684 690 684Q608 684 559 633Q508 578 508 500Q508 432 553 387Q596 344 670 344Q699 344 735 354Q778 366 807 383L741 0Z" />
<glyph unicode="d" glyph-name="d" horiz-adv-x="1400" d="M610 369Q667 369 711 416Q752 459 752 528Q752 585 721 618Q690 653 639 653Q582 653 541 606Q502 561 502 487Q502 432 530 399Q558 369 610 369ZM1427 1550L1139 0H680L713 127Q647 41 573 2Q497 -39
410 -39Q242 -39 133 88Q22 217 23 410Q23 533 61 651Q102 774 168 862Q240 960 340 1013T545 1067Q633 1067 711 1022Q783 981 840 885V909Q840 927 844 976T852 1053L940 1550H1427Z" />
<glyph unicode="e" glyph-name="e" horiz-adv-x="1234" d="M485 649H733V664Q733 715 707 741Q678 770 635 770Q582 770 543 741Q508 715 485 649ZM1145 457H459Q459 377 492 336Q526 293 584 293Q627 293 659 313Q694 336 729 385L1096 307Q1002 129 862 47Q717
-39 526 -39Q299 -39 156 96T12 444Q12 569 55 680Q98 793 178 874Q270 970 387 1018Q508 1067 637 1067Q864 1067 1008 936Q1153 803 1153 604Q1153 555 1151 530L1145 457Z" />
<glyph unicode="f" glyph-name="f" horiz-adv-x="901" d="M55 0L178 664H49L119 1034H246Q295 1319 416 1446Q539 1575 758 1575Q826 1575 877 1565Q938 1553 999 1532L928 1143Q903 1155 870 1167Q847 1175 825 1176Q780 1176 756 1143Q733 1112 727 1034H907L838
664H657L537 0H55Z" />
<glyph unicode="g" glyph-name="g" horiz-adv-x="1400" d="M649 659Q590 659 551 614T512 498Q512 443 539 414Q567 383 618 383Q683 383 723 426Q764 471 764 539Q764 594 733 626T649 659ZM854 1034H1329L1153 98Q1104 -164 936 -305Q772 -442 498 -442Q377
-442 260 -412Q137 -379 18 -322L182 -25Q250 -72 313 -92Q374 -112 446 -113Q540 -113 604 -57Q672 0 698 102L723 190Q660 104 578 61Q498 18 408 18Q234 18 129 131Q23 248 23 432Q23 536 61 653Q98 764 166 856Q243 957 338 1010Q434 1063 543 1063Q639 1063
713 1018Q784 975 836 883L854 1034Z" />
<glyph unicode="h" glyph-name="h" horiz-adv-x="1351" d="M-33 0L252 1550H743L647 1044Q645 1030 638 1004T629 969Q621 932 604 887Q688 983 768 1024T950 1065Q1087 1065 1167 981T1247 758Q1247 727 1243 662Q1241 629 1229 563L1126 0H635L731 520Q735 534
739 571Q741 587 741 621Q741 650 725 666Q707 684 680 684Q629 684 594 633Q561 584 539 459L455 0H-33Z" />
<glyph unicode="i" glyph-name="i" horiz-adv-x="724" d="M446 1087Q337 1087 264 1155T190 1321Q190 1429 276 1505Q364 1583 485 1583Q594 1583 667 1516T741 1350Q741 1244 653 1166T446 1087ZM-16 0L174 1034H662L471 0H-16Z" />
<glyph unicode="j" glyph-name="j" horiz-adv-x="724" d="M-98 -446L174 1034H662L387 -446H-98ZM446 1087Q337 1087 264 1155T190 1321Q190 1429 276 1505Q364 1583 485 1583Q594 1583 667 1516T741 1350Q741 1244 653 1166T446 1087Z" />
<glyph unicode="k" glyph-name="k" horiz-adv-x="1323" d="M-29 0L260 1550H741L565 602L862 1034H1399L973 522L1204 0H688L541 463L455 0H-29Z" />
<glyph unicode="l" glyph-name="l" horiz-adv-x="724" d="M469 0H-12L274 1550H756L469 0Z" />
<glyph unicode="m" glyph-name="m" horiz-adv-x="1996" d="M-33 0L160 1034H618L588 885Q676 979 762 1024Q844 1067 938 1067Q1030 1067 1098 1016Q1168 963 1202 862Q1272 962 1370 1016Q1464 1067 1581 1067Q1720 1067 1806 981Q1890 897 1890 754Q1890 717
1884 668Q1876 602 1870 563L1765 0H1274L1376 518Q1380 532 1384 565Q1386 581 1386 618Q1386 645 1370 666Q1356 682 1329 682Q1280 682 1249 635Q1216 588 1196 459L1112 0H618L721 518Q725 532 729 567Q731 581 731 610Q731 643 715 664Q700 682 672 682Q623
682 592 635Q559 588 539 459L455 0H-33Z" />
<glyph unicode="n" glyph-name="n" horiz-adv-x="1351" d="M-33 0L160 1034H618L588 885Q674 973 768 1022Q856 1067 952 1067Q1085 1067 1167 983T1249 758Q1249 719 1243 670Q1233 594 1229 563L1126 0H635L731 520Q735 538 739 571Q741 587 741 621Q741 650
725 666Q707 684 680 684Q627 684 594 635T539 461L455 0H-33Z" />
<glyph unicode="o" glyph-name="o" horiz-adv-x="1261" d="M608 653Q549 653 508 604Q467 553 467 485Q467 430 496 401Q527 370 575 371Q636 371 678 418Q717 463 717 539Q717 590 688 623Q660 653 608 653ZM12 442Q12 569 55 680T182 874Q270 964 391 1016Q508
1065 641 1065Q881 1065 1024 930T1167 571Q1167 467 1130 369Q1091 269 1028 188Q936 77 809 20Q678 -39 530 -39Q305 -39 158 96Q12 229 12 442Z" />
<glyph unicode="p" glyph-name="p" horiz-adv-x="1366" d="M-111 -446L162 1034H621L596 909Q655 987 729 1028Q799 1067 891 1067Q1059 1067 1167 940T1276 614Q1276 493 1239 377Q1204 268 1133 170Q1055 66 963 14Q869 -37 754 -37Q662 -37 594 6Q522 51 461
145Q465 120 465 115V96Q465 57 453 0Q453 0 449 -20L371 -446H-111ZM696 659Q637 659 592 614Q549 571 549 502Q549 444 580 410Q611 377 662 377Q719 377 760 424Q799 469 799 543Q799 600 772 629Q745 659 696 659Z" />
<glyph unicode="q" glyph-name="q" horiz-adv-x="1400" d="M641 649Q582 649 545 602Q506 553 506 483Q506 424 535 395Q566 364 618 365Q675 365 717 412Q756 457 756 528Q756 581 725 616Q694 649 641 649ZM850 1034H1325L1055 -446H571L651 -20Q655 9 662 31Q670
64 682 109Q625 37 555 0Q483 -37 397 -37Q231 -37 125 90T18 422Q18 541 55 653T160 858Q236 960 332 1013T537 1067Q635 1067 707 1022Q781 975 829 885L850 1034Z" />
<glyph unicode="r" glyph-name="r" horiz-adv-x="964" d="M-33 0L160 1034H606L571 893Q622 981 694 1024Q765 1067 854 1067Q868 1067 905 1063Q933 1060 973 1051L895 629Q852 645 803 655Q768 663 729 664Q645 664 602 621Q561 580 539 461L455 0H-33Z" />
<glyph unicode="s" glyph-name="s" horiz-adv-x="983" d="M-72 135L111 440Q187 364 258 326Q334 285 389 285Q414 285 428 297Q444 309 444 328Q444 357 375 393L367 397L289 438Q195 487 154 551Q109 619 109 702Q109 862 233 964T551 1067Q652 1067 754 1036T958
942L793 664Q742 711 692 739Q645 766 604 766Q577 766 563 754Q547 742 547 721Q547 698 606 670Q614 666 622 663T633 657L694 629Q788 586 833 521T879 354Q879 176 752 70Q621 -39 412 -39Q299 -39 178 4Q63 45 -72 135Z" />
<glyph unicode="t" glyph-name="t" horiz-adv-x="872" d="M51 0L172 662H43L113 1034H242L295 1323H782L729 1034H879L809 662H659L537 0H51Z" />
<glyph unicode="u" glyph-name="u" horiz-adv-x="1335" d="M145 1034H631L551 594Q551 590 549 578T545 557Q533 500 532 473Q532 430 553 410Q576 387 608 387Q657 387 682 424Q707 463 735 610L813 1034H1286L1200 567Q1139 231 995 98Q852 -37 569 -37Q319
-37 180 80T41 403Q41 471 72 633Q74 643 76 657L145 1034Z" />
<glyph unicode="v" glyph-name="v" horiz-adv-x="1122" d="M-25 1034H446L477 791Q479 775 482 740T487 692Q491 655 496 569Q521 645 541 694Q566 751 612 846L707 1034H1202L582 0H217L-25 1034Z" />
<glyph unicode="w" glyph-name="w" horiz-adv-x="1724" d="M166 0L-10 1034H455L481 807Q485 778 489 713Q491 666 496 563L711 1034H1030L1061 774Q1065 747 1069 682Q1071 655 1071 608V571Q1071 567 1070 560T1069 551L1292 1034H1790L1241 0H842L797 514Q766
418 707 297Q703 287 699 280T692 268L561 0H166Z" />
<glyph unicode="x" glyph-name="x" horiz-adv-x="1349" d="M-162 0L354 539L29 1034H569L629 926L639 905Q667 850 682 813Q707 854 719 872Q742 905 760 930L846 1034H1403L913 508L1253 0H717L590 207Q539 137 530 127Q493 82 487 76L416 0H-162Z" />
<glyph unicode="y" glyph-name="y" horiz-adv-x="1185" d="M-152 -446L233 186L0 1034H467L518 778Q530 715 537 672Q545 611 545 584Q553 621 573 676Q593 733 618 780L741 1034H1251L381 -446H-152Z" />
<glyph unicode="z" glyph-name="z" horiz-adv-x="1212" d="M-78 0L422 653H66L135 1034H1214L1208 1006L709 379H1094L1022 0H-78Z" />
<glyph unicode="{" glyph-name="braceleft" horiz-adv-x="1024" d="M905 1192Q903 1192 896 1193T883 1194H862Q776 1194 746 1164T715 1036V797Q715 666 668 608Q621 553 498 530Q621 507 668 453Q715 396 715 266V25Q715 -69 745 -100T860 -131Q862 -131 869
-130T883 -129H905V-414H825Q696 -414 614 -403Q542 -395 494 -369Q435 -338 410 -285Q385 -230 385 -98V160Q385 287 338 340Q293 391 180 391Q178 391 173 390T164 389H145V672H164Q168 672 173 671T180 670Q291 670 338 723T385 901V1159Q385 1292 410 1348Q435
1401 494 1432Q547 1459 614 1466Q696 1476 825 1477H905V1192Z" />
<glyph unicode="|" glyph-name="bar" horiz-adv-x="1024" d="M653 1565V-483H373V1565H653Z" />
<glyph unicode="}" glyph-name="braceright" horiz-adv-x="1024" d="M641 1159V901Q641 776 688 723T846 670Q848 670 853 671T862 672H881V389H862Q858 389 853 390T846 391Q733 391 688 340Q641 287 641 160V-98Q641 -229 617 -284T530 -371Q477 -396 416 -403Q338
-413 215 -414H121V-131H143Q149 -131 155 -132T164 -133Q250 -133 280 -103T311 25V266Q311 395 358 453Q405 508 528 530Q403 553 358 606Q311 663 311 795V1036Q311 1132 281 1163T164 1194H143Q137 1194 130 1193T121 1192V1477H201Q334 1477 412 1466Q484
1456 530 1432Q591 1401 616 1346T641 1159Z" />
<glyph unicode="~" glyph-name="asciitilde" horiz-adv-x="1705" d="M1530 543Q1424 473 1337 442Q1243 409 1159 410Q1106 410 1047 422Q990 434 893 467Q795 502 698 522Q632 536 561 537Q477 537 385 500T178 379V678Q303 756 395 786Q495 821 586 821Q644
821 709 809Q770 797 864 768Q866 768 928 745Q1073 692 1163 692Q1249 692 1337 729Q1427 766 1530 842V543Z" />
<glyph unicode="&#xa0;" glyph-name="uni00A0" horiz-adv-x="1402" />
<glyph unicode="&#xa1;" glyph-name="exclamdown" horiz-adv-x="757" d="M516 1550Q627 1550 705 1479Q781 1409 780 1307Q780 1180 690 1094Q598 1006 471 1006Q358 1006 283 1077T207 1257Q207 1376 299 1462Q393 1550 516 1550ZM672 907L508 -33H4L205 907H672Z" />
<glyph unicode="&#xa2;" glyph-name="cent" horiz-adv-x="1402" d="M969 23Q869 -2 834 -8Q791 -16 750 -16L721 -186H496L532 25Q385 78 303 193Q225 302 225 461Q225 688 354 852T705 1065L731 1229H961L936 1071Q991 1067 1057 1051Q1108 1039 1157 1016L1085
637Q1038 668 995 682Q954 696 915 696Q835 696 780 645Q727 596 727 514Q727 446 774 403Q819 360 895 360Q928 360 958 369Q995 379 1036 399L969 23Z" />
<glyph unicode="&#xa3;" glyph-name="sterling" horiz-adv-x="1402" d="M256 -35L27 223Q78 278 145 313Q208 346 287 362Q334 409 354 453Q379 506 379 549H117L172 834H334Q318 877 307 930Q299 971 299 1018Q299 1223 451 1352Q598 1479 852 1479Q1094 1479
1231 1348T1368 985H989Q979 1065 946 1102Q909 1141 848 1141Q770 1141 721 1092T672 956Q672 938 676 897Q678 868 688 834H1122L1069 549H717V530Q717 467 696 426Q673 383 625 348Q650 348 674 342T735 324L778 307Q796 299 813 297Q838 293 850 293Q895 293
946 321T1057 410L1290 162Q1182 58 1069 8Q960 -39 819 -39Q764 -39 715 -33Q656 -25 627 -16L539 6Q531 8 477 20Q459 24 428 25Q381 25 340 10Q293 -6 256 -35Z" />
<glyph unicode="&#xa4;" glyph-name="currency" horiz-adv-x="1239" d="M866 788T866 884T793 1054T623 1128Q525 1128 451 1055T377 885Q377 783 449 713Q525 641 623 641Q725 641 795 713Q866 788 866 884ZM385 1253Q442 1290 496 1305Q557 1321 622 1321T750
1305Q805 1291 858 1253L1057 1452L1190 1317L993 1114Q1027 1059 1042 1004Q1058 945 1059 885Q1059 828 1042 766Q1028 713 993 655L1190 455L1057 317L858 518Q809 485 748 467Q689 449 623 449T498 467T385 518L186 317L53 455L250 655Q215 708 201 764Q185
825 184 887Q184 946 201 1006Q217 1063 250 1114L53 1317L186 1452L385 1253Z" />
<glyph unicode="&#xa5;" glyph-name="yen" horiz-adv-x="1515" d="M373 0L471 508H0L35 690H453L383 854H63L98 1036H303L125 1450H635L707 1249Q727 1196 745 1128Q753 1101 776 991L864 1147Q901 1210 920 1237L1061 1450H1628L1313 1036H1524L1491 854H1171L1047
690H1460L1427 508H954L856 0H373Z" />
<glyph unicode="&#xa6;" glyph-name="brokenbar" horiz-adv-x="1024" d="M653 408V-350H373V408H653ZM653 1432V674H373V1432H653Z" />
<glyph unicode="&#xa7;" glyph-name="section" horiz-adv-x="1325" d="M670 694Q600 694 555 649T510 539Q510 490 543 463Q578 434 633 434Q705 434 748 477Q793 522 793 590Q793 639 760 666Q725 694 670 694ZM16 45H426V29Q426 -32 459 -65T551 -98Q612 -98
647 -66Q686 -31 686 16Q686 61 655 90Q622 119 545 137L395 174Q215 217 129 301Q41 387 41 516Q41 643 117 731Q191 817 328 848Q263 900 229 965Q194 1031 195 1102Q195 1271 354 1384Q516 1499 756 1499Q998 1499 1139 1382Q1278 1265 1282 1061H879V1071Q879
1126 844 1161Q811 1194 750 1194Q697 1194 662 1166T627 1096T666 1028Q706 1000 795 979L922 948Q1092 905 1178 819Q1262 735 1262 600Q1262 474 1188 385Q1114 295 977 264Q1049 213 1079 156Q1114 93 1114 18Q1114 -164 957 -278T543 -393Q295 -393 162 -281T16
45Z" />
<glyph unicode="&#xa8;" glyph-name="dieresis" horiz-adv-x="1024" d="M668 1364Q668 1423 711 1466T813 1509Q874 1509 917 1466T961 1364Q961 1301 920 1260Q877 1217 813 1217Q754 1217 711 1260T668 1364ZM295 1364Q295 1421 340 1466Q383 1509 442 1509Q503
1509 546 1466T590 1364Q590 1296 549 1257Q504 1216 443 1216T338 1260T295 1364Z" />
<glyph unicode="&#xa9;" glyph-name="copyright" horiz-adv-x="1705" d="M987 883Q985 942 948 981Q914 1018 856 1018Q784 1018 741 946Q700 878 700 745Q700 614 741 549T864 483Q925 483 956 520Q989 559 991 627H1239Q1233 477 1131 389T858 301Q661 301 551
418T440 737Q440 938 551 1061T840 1184Q1016 1184 1118 1104Q1219 1024 1229 883H987ZM1452 743Q1452 868 1407 973Q1360 1084 1278 1165Q1190 1253 1083 1296Q970 1341 854 1341Q733 1341 625 1298T434 1169Q346 1081 301 973T256 743Q256 620 301 516Q348 405
432 322T627 190Q731 145 854 145Q975 145 1083 190Q1185 233 1280 324Q1366 407 1409 514Q1452 622 1452 743ZM852 1493Q1008 1493 1145 1438Q1278 1385 1389 1274Q1495 1168 1550 1030T1606 741Q1606 587 1550 453Q1495 320 1389 215Q1278 109 1139 49Q998 -10
852 -10Q700 -10 567 47Q430 106 324 213Q222 315 160 457Q103 590 102 741Q102 895 160 1030Q217 1167 326 1278Q432 1384 563 1438Q698 1493 852 1493Z" />
<glyph unicode="&#xaa;" glyph-name="ordfeminine" horiz-adv-x="1028" d="M483 1194Q438 1194 410 1161T381 1079Q381 1038 401 1018T461 997Q508 997 538 1028T569 1108Q569 1147 545 1171Q522 1194 483 1194ZM639 1466H995L852 741H508L535 840Q486 777 428
745Q369 714 301 715Q176 715 96 805Q16 893 16 1036Q16 1120 43 1198T123 1341Q180 1413 254 1452Q324 1489 406 1489Q474 1489 532 1456Q587 1425 625 1360L639 1466Z" />
<glyph unicode="&#xab;" glyph-name="guillemotleft" horiz-adv-x="1138" d="M1087 813L831 526L1032 211L801 51L506 537L889 975L1087 813ZM596 813L340 526L539 211L309 51L12 537L397 975L596 813Z" />
<glyph unicode="&#xac;" glyph-name="logicalnot" horiz-adv-x="1705" d="M1452 868V367H1180V602H254V868H1452Z" />
<glyph unicode="&#xad;" glyph-name="uni00AD" horiz-adv-x="899" d="M-10 309L70 719H834L756 309H-10Z" />
<glyph unicode="&#xae;" glyph-name="registered" horiz-adv-x="1705" d="M823 1006H784V813H838Q895 813 925 837T956 911T924 983T823 1006ZM862 1165Q1036 1165 1128 1104Q1218 1045 1219 926Q1219 849 1176 791Q1135 736 1055 707L1233 352H954L809 664H784V352H528V1165H862ZM1452
743Q1452 868 1407 973Q1360 1084 1278 1165Q1190 1253 1083 1296Q970 1341 854 1341Q733 1341 625 1298T434 1169Q346 1081 301 973T256 743Q256 620 301 516Q348 405 432 322T627 190Q731 145 854 145Q975 145 1083 190Q1185 233 1280 324Q1366 407 1409 514Q1452
622 1452 743ZM852 1493Q1008 1493 1145 1438Q1278 1385 1389 1274Q1495 1168 1550 1030T1606 741Q1606 587 1550 453Q1495 320 1389 215Q1278 109 1139 49Q998 -10 852 -10Q700 -10 567 47Q430 106 324 213Q222 315 160 457Q103 590 102 741Q102 895 160 1030Q217
1167 326 1278Q432 1384 563 1438Q698 1493 852 1493Z" />
<glyph unicode="&#xaf;" glyph-name="overscore" horiz-adv-x="1024" d="M309 1278L342 1460H954L922 1278H309Z" />
<glyph unicode="&#xb0;" glyph-name="degree" horiz-adv-x="673" d="M489 1151Q489 1212 444 1257T336 1303T229 1260T186 1151Q186 1090 229 1042Q272 997 338 997Q401 997 444 1042Q489 1092 489 1151ZM203 1473T338 1473T565 1378Q659 1280 659 1149Q659 1016
565 922T336 827Q205 827 109 920Q15 1012 14 1149Q14 1284 108 1378Z" />
<glyph unicode="&#xb1;" glyph-name="plusminus" horiz-adv-x="1705" d="M1452 231V-41H254V231H1452ZM993 1262V952H1452V680H993V371H713V680H254V952H713V1262H993Z" />
<glyph unicode="&#xb2;" glyph-name="uni00B2" horiz-adv-x="925" d="M-14 575L20 750Q266 887 397 989Q526 1089 526 1141Q526 1166 510 1182Q496 1196 465 1196Q432 1196 410 1174Q390 1154 383 1114H84Q109 1288 217 1374Q328 1462 510 1462Q674 1462 780 1386Q882
1314 883 1194Q883 1083 793 991Q701 897 520 817H829L778 575H-14Z" />
<glyph unicode="&#xb3;" glyph-name="uni00B3" horiz-adv-x="925" d="M340 856Q346 821 370 803T436 784Q473 784 497 802T522 854T498 905T428 924H418Q414 924 407 923T395 922L434 1112Q442 1110 457 1110Q461 1110 466 1109T473 1108Q518 1108 543 1126Q570
1146 569 1180Q569 1205 551 1221Q531 1237 500 1237Q465 1237 440 1217Q417 1199 412 1163H94Q125 1308 242 1386Q357 1462 551 1462Q695 1462 791 1395Q885 1327 885 1225Q885 1147 836 1096Q787 1044 682 1016Q766 1000 809 955T852 836Q852 713 738 633T438
553Q256 553 143 635Q30 715 23 856H340Z" />
<glyph unicode="&#xb4;" glyph-name="acute" horiz-adv-x="1024" d="M401 1178L623 1530H940L569 1178H401Z" />
<glyph unicode="&#xb5;" glyph-name="uni00B5" horiz-adv-x="1370" d="M602 1087L518 473Q516 463 515 455T514 440V420Q514 352 544 320T641 287Q719 287 766 340Q809 389 825 500L909 1087H1327L1169 0H801L819 131Q780 61 737 29Q692 -4 631 -4T526 27Q479
62 455 121L383 -422H-29L180 1087H602Z" />
<glyph unicode="&#xb6;" glyph-name="paragraph" horiz-adv-x="1024" d="M1014 1337H913V0H711V1337H571V0H369V784Q205 794 109 887Q11 983 10 1130Q10 1288 117 1382Q226 1478 399 1479H1014V1337Z" />
<glyph unicode="&#xb7;" glyph-name="middot" horiz-adv-x="700" d="M332 446Q223 446 146 518T68 690Q68 817 158 903Q250 991 377 991Q488 991 565 920Q641 850 641 739Q641 622 549 535Q459 446 332 446Z" />
<glyph unicode="&#xb8;" glyph-name="cedilla" horiz-adv-x="1024" d="M43 -438L96 -303Q172 -332 217 -342Q272 -354 319 -354Q364 -354 389 -336T414 -283T375 -233Q332 -217 246 -217H223L297 0H416L383 -92Q500 -96 557 -137Q616 -180 616 -266Q616 -377 543
-438Q471 -497 338 -498Q283 -498 213 -483Q127 -465 43 -438Z" />
<glyph unicode="&#xb9;" glyph-name="uni00B9" horiz-adv-x="925" d="M221 575L348 1198H233L285 1446H731L553 575H221Z" />
<glyph unicode="&#xba;" glyph-name="ordmasculine" horiz-adv-x="944" d="M457 1198Q412 1198 381 1163Q350 1130 350 1081Q350 1046 372 1024T432 1001Q479 1001 510 1034Q539 1065 539 1118Q539 1157 519 1177T457 1198ZM10 1051Q10 1143 43 1217Q78 1295 137
1354Q203 1417 293 1452Q381 1487 481 1487Q661 1487 768 1393Q877 1297 877 1141Q877 1065 850 999Q821 931 772 872Q704 795 606 756Q506 715 397 715Q225 715 119 809Q10 906 10 1051Z" />
<glyph unicode="&#xbb;" glyph-name="guillemotright" horiz-adv-x="1138" d="M463 213L719 500L518 817L750 975L1044 492L662 53L463 213ZM-31 213L225 500L25 817L256 975L553 492L168 53L-31 213Z" />
<glyph unicode="&#xbc;" glyph-name="onequarter" horiz-adv-x="2107" d="M1618 0L1649 152H1208L1243 319L1673 815H2093L1999 358H2085L2042 152H1956L1925 0H1618ZM1692 358L1726 520Q1726 524 1727 527T1731 540T1737 565Q1741 577 1745 595T1751 621H1745Q1737
596 1718 565Q1706 545 1690 524L1622 436Q1604 411 1585 393Q1560 368 1546 358H1692ZM543 -39L1346 1479H1567L764 -39H543ZM211 633L332 1214H223L270 1444H696L526 633H211Z" />
<glyph unicode="&#xbd;" glyph-name="onehalf" horiz-adv-x="2107" d="M1212 0L1245 164Q1462 283 1606 387Q1731 479 1731 528Q1731 548 1714 565Q1700 579 1671 580Q1638 580 1618 559Q1596 537 1593 504H1307Q1332 664 1434 745T1714 827Q1870 827 1970 758Q2068
690 2068 578Q2068 476 1982 389Q1894 301 1724 225H2017L1970 0H1212ZM543 -39L1346 1479H1567L764 -39H543ZM211 633L332 1214H223L270 1444H696L526 633H211Z" />
<glyph unicode="&#xbe;" glyph-name="threequarters" horiz-adv-x="2107" d="M1618 0L1649 152H1208L1243 319L1673 815H2093L1999 358H2085L2042 152H1956L1925 0H1618ZM1692 358L1726 520Q1726 524 1727 527T1731 540T1737 565Q1741 577 1745 595T1751 621H1745Q1737
596 1718 565Q1706 545 1690 524L1622 436Q1604 411 1585 393Q1560 368 1546 358H1692ZM543 -39L1346 1479H1567L764 -39H543ZM326 895Q332 858 352 844Q375 828 416 827Q451 827 475 845T500 893Q500 924 478 940T410 956H379L414 1135H420Q449 1131 453 1130Q494
1130 518 1148T543 1198Q543 1223 524 1235Q504 1249 475 1249Q442 1249 422 1231Q399 1211 393 1182H90Q121 1319 231 1389Q344 1461 524 1460Q661 1460 754 1397Q844 1336 844 1239Q844 1165 797 1118Q748 1069 651 1044Q725 1032 770 987Q813 944 813 874Q813
755 705 684Q594 610 418 610T135 686Q31 762 20 895H326Z" />
<glyph unicode="&#xbf;" glyph-name="questiondown" horiz-adv-x="1308" d="M1008 907L936 559H924Q834 563 823 563Q679 563 608 526Q536 489 537 412Q537 372 561 350Q588 327 629 328Q672 328 704 360T739 444H1223Q1198 221 1028 90T590 -41Q328 -41 170 86Q14
211 14 422Q14 561 82 670Q148 774 281 840Q355 875 463 891Q578 907 834 907H1008ZM846 1554Q957 1554 1034 1483T1112 1311Q1112 1184 1022 1098Q930 1010 803 1010Q690 1010 615 1081T539 1262Q539 1381 631 1466Q725 1554 846 1554Z" />
<glyph unicode="&#xc0;" glyph-name="Agrave" horiz-adv-x="1462" d="M653 541H840L834 698Q834 700 833 712T831 735Q827 801 827 893V954Q827 962 828 975T829 995L793 881Q779 836 756 784L653 541ZM-143 0L621 1464H1200L1391 0H870L860 195H508L428 0H-143ZM637
1962H911L1065 1610H911L637 1962Z" />
<glyph unicode="&#xc1;" glyph-name="Aacute" horiz-adv-x="1462" d="M653 541H840L834 698Q834 700 833 712T831 735Q827 801 827 893V954Q827 962 828 975T829 995L793 881Q779 836 756 784L653 541ZM-143 0L621 1464H1200L1391 0H870L860 195H508L428 0H-143ZM712
1610L934 1962H1251L880 1610H712Z" />
<glyph unicode="&#xc2;" glyph-name="Acircumflex" horiz-adv-x="1462" d="M653 541H840L834 698Q834 700 833 712T831 735Q827 801 827 893V954Q827 962 828 975T829 995L793 881Q779 836 756 784L653 541ZM-143 0L621 1464H1200L1391 0H870L860 195H508L428
0H-143ZM1212 1610H1061L940 1778L733 1610H571L819 1962H1093L1212 1610Z" />
<glyph unicode="&#xc3;" glyph-name="Atilde" horiz-adv-x="1462" d="M653 541H840L834 698Q834 700 833 712T831 735Q827 801 827 893V954Q827 962 828 975T829 995L793 881Q779 836 756 784L653 541ZM-143 0L621 1464H1200L1391 0H870L860 195H508L428 0H-143ZM1276
1948Q1243 1817 1185 1753Q1130 1692 1040 1692Q1024 1692 995 1696Q981 1698 952 1706L889 1726Q885 1728 850 1737Q842 1739 825 1739Q786 1739 762 1714Q733 1685 725 1642H606Q637 1773 696 1839T841 1905Q851 1905 884 1900Q909 1897 934 1888L997 1868Q1009
1864 1029 1860T1052 1855Q1093 1855 1115 1875T1155 1948H1276Z" />
<glyph unicode="&#xc4;" glyph-name="Adieresis" horiz-adv-x="1462" d="M653 541H840L834 698Q834 700 833 712T831 735Q827 801 827 893V954Q827 962 828 975T829 995L793 881Q779 836 756 784L653 541ZM-143 0L621 1464H1200L1391 0H870L860 195H508L428 0H-143ZM979
1796Q979 1855 1022 1898T1124 1941Q1185 1941 1228 1898T1272 1796Q1272 1733 1231 1692Q1188 1649 1124 1649Q1065 1649 1022 1692T979 1796ZM606 1796Q606 1853 651 1898Q694 1941 753 1941Q814 1941 857 1898T901 1796Q901 1728 860 1689Q815 1648 754 1648T649
1692T606 1796Z" />
<glyph unicode="&#xc5;" glyph-name="Aring" horiz-adv-x="1462" d="M801 1704Q801 1663 834 1626Q865 1593 911 1593Q956 1593 989 1626T1022 1704T989 1782T911 1815Q864 1815 834 1782Q801 1745 801 1704ZM653 541H840L834 698Q834 700 833 712T831 735Q827
801 827 893V954Q827 962 828 975T829 995L793 881Q779 836 756 784L653 541ZM-143 0L625 1464L799 1460V1464Q731 1493 686 1561Q643 1627 643 1704Q643 1817 721 1894T909 1972Q1022 1972 1100 1894Q1180 1814 1180 1704Q1180 1620 1141 1561T1024 1464V1460L1192
1464L1391 0H870L860 195H508L428 0H-143Z" />
<glyph unicode="&#xc6;" glyph-name="AE" horiz-adv-x="1742" d="M588 543H780L762 1010Q747 952 725 887Q709 838 672 745L588 543ZM-160 0L563 1464H1548L1593 1071H1159L1180 922H1579L1622 557H1223L1243 393H1688L1735 0H811L797 201H453L373 0H-160Z" />
<glyph unicode="&#xc7;" glyph-name="Ccedilla" horiz-adv-x="1308" d="M1141 539L1042 10Q974 -15 907 -27T774 -39Q639 -39 518 4T301 131Q197 221 138 358T78 647Q78 807 129 954Q178 1097 279 1212Q396 1351 565 1425Q733 1499 930 1499Q1039 1499 1126 1479Q1218
1459 1303 1415L1212 926Q1132 971 1065 991T922 1012Q787 1012 694 924Q606 838 606 700Q606 583 675 516T862 449Q925 449 999 473Q1080 500 1141 539ZM389 -438L442 -303Q518 -332 563 -342Q618 -354 665 -354Q710 -354 735 -336T760 -283T721 -233Q678 -217
592 -217H569L643 0H762L729 -92Q846 -96 903 -137Q962 -180 962 -266Q962 -377 889 -438Q817 -497 684 -498Q629 -498 559 -483Q473 -465 389 -438Z" />
<glyph unicode="&#xc8;" glyph-name="Egrave" horiz-adv-x="1265" d="M0 0L270 1464H1274L1202 1067H725L698 926H1147L1079 555H631L602 397H1122L1049 0H0ZM543 1962H817L971 1610H817L543 1962Z" />
<glyph unicode="&#xc9;" glyph-name="Eacute" horiz-adv-x="1265" d="M0 0L270 1464H1274L1202 1067H725L698 926H1147L1079 555H631L602 397H1122L1049 0H0ZM618 1610L840 1962H1157L786 1610H618Z" />
<glyph unicode="&#xca;" glyph-name="Ecircumflex" horiz-adv-x="1265" d="M0 0L270 1464H1274L1202 1067H725L698 926H1147L1079 555H631L602 397H1122L1049 0H0ZM1118 1610H967L846 1778L639 1610H477L725 1962H999L1118 1610Z" />
<glyph unicode="&#xcb;" glyph-name="Edieresis" horiz-adv-x="1265" d="M0 0L270 1464H1274L1202 1067H725L698 926H1147L1079 555H631L602 397H1122L1049 0H0ZM885 1796Q885 1855 928 1898T1030 1941Q1091 1941 1134 1898T1178 1796Q1178 1733 1137 1692Q1094
1649 1030 1649Q971 1649 928 1692T885 1796ZM512 1796Q512 1853 557 1898Q600 1941 659 1941Q720 1941 763 1898T807 1796Q807 1728 766 1689Q721 1648 660 1648T555 1692T512 1796Z" />
<glyph unicode="&#xcc;" glyph-name="Igrave" horiz-adv-x="827" d="M10 0L281 1464H819L549 0H10ZM303 1962H577L731 1610H577L303 1962Z" />
<glyph unicode="&#xcd;" glyph-name="Iacute" horiz-adv-x="827" d="M10 0L281 1464H819L549 0H10ZM378 1610L600 1962H917L546 1610H378Z" />
<glyph unicode="&#xce;" glyph-name="Icircumflex" horiz-adv-x="827" d="M10 0L281 1464H819L549 0H10ZM878 1610H727L606 1778L399 1610H237L485 1962H759L878 1610Z" />
<glyph unicode="&#xcf;" glyph-name="Idieresis" horiz-adv-x="827" d="M10 0L281 1464H819L549 0H10ZM645 1796Q645 1855 688 1898T790 1941Q851 1941 894 1898T938 1796Q938 1733 897 1692Q854 1649 790 1649Q731 1649 688 1692T645 1796ZM272 1796Q272 1853
317 1898Q360 1941 419 1941Q480 1941 523 1898T567 1796Q567 1728 526 1689Q481 1648 420 1648T315 1692T272 1796Z" />
<glyph unicode="&#xd0;" glyph-name="Eth" horiz-adv-x="1615" d="M596 406H618Q624 406 632 405T643 403Q843 403 950 502Q1056 600 1057 780Q1057 917 983 987Q907 1059 768 1059H737Q733 1059 727 1058T717 1057L684 889H895L842 598H631L596 406ZM25 0L133
584H-25L35 903H190L295 1464H690Q874 1464 997 1446Q1124 1428 1200 1391Q1372 1307 1464 1156T1556 809Q1556 627 1477 463Q1395 297 1251 193Q1118 93 936 45Q762 0 485 0H25Z" />
<glyph unicode="&#xd1;" glyph-name="Ntilde" horiz-adv-x="1736" d="M0 0L270 1464H807L975 999Q977 995 980 985T987 965Q1044 809 1065 702L1206 1464H1737L1466 0H930L659 756Q657 668 614 422L612 410L537 0H0ZM1395 1948Q1362 1817 1304 1753Q1249 1692
1159 1692Q1143 1692 1114 1696Q1100 1698 1071 1706L1008 1726Q1004 1728 969 1737Q961 1739 944 1739Q905 1739 881 1714Q852 1685 844 1642H725Q756 1773 815 1839T960 1905Q970 1905 1003 1900Q1028 1897 1053 1888L1116 1868Q1128 1864 1148 1860T1171 1855Q1212
1855 1234 1875T1274 1948H1395Z" />
<glyph unicode="&#xd2;" glyph-name="Ograve" horiz-adv-x="1744" d="M895 1012Q768 1012 686 924T604 702Q604 583 670 518Q740 448 848 449Q971 449 1055 541Q1139 635 1139 764Q1139 868 1069 942Q1001 1012 895 1012ZM815 -39Q657 -39 528 4Q403 45 301 133Q197
223 138 360T78 647Q78 807 129 954Q178 1097 279 1212Q396 1351 565 1425T928 1499Q1257 1499 1462 1309T1667 813Q1667 647 1616 506Q1563 361 1466 248Q1349 111 1180 35Q1014 -39 815 -39ZM703 1962H977L1131 1610H977L703 1962Z" />
<glyph unicode="&#xd3;" glyph-name="Oacute" horiz-adv-x="1744" d="M895 1012Q768 1012 686 924T604 702Q604 583 670 518Q740 448 848 449Q971 449 1055 541Q1139 635 1139 764Q1139 868 1069 942Q1001 1012 895 1012ZM815 -39Q657 -39 528 4Q403 45 301 133Q197
223 138 360T78 647Q78 807 129 954Q178 1097 279 1212Q396 1351 565 1425T928 1499Q1257 1499 1462 1309T1667 813Q1667 647 1616 506Q1563 361 1466 248Q1349 111 1180 35Q1014 -39 815 -39ZM778 1610L1000 1962H1317L946 1610H778Z" />
<glyph unicode="&#xd4;" glyph-name="Ocircumflex" horiz-adv-x="1744" d="M895 1012Q768 1012 686 924T604 702Q604 583 670 518Q740 448 848 449Q971 449 1055 541Q1139 635 1139 764Q1139 868 1069 942Q1001 1012 895 1012ZM815 -39Q657 -39 528 4Q403 45 301
133Q197 223 138 360T78 647Q78 807 129 954Q178 1097 279 1212Q396 1351 565 1425T928 1499Q1257 1499 1462 1309T1667 813Q1667 647 1616 506Q1563 361 1466 248Q1349 111 1180 35Q1014 -39 815 -39ZM1278 1610H1127L1006 1778L799 1610H637L885 1962H1159L1278
1610Z" />
<glyph unicode="&#xd5;" glyph-name="Otilde" horiz-adv-x="1744" d="M895 1012Q768 1012 686 924T604 702Q604 583 670 518Q740 448 848 449Q971 449 1055 541Q1139 635 1139 764Q1139 868 1069 942Q1001 1012 895 1012ZM815 -39Q657 -39 528 4Q403 45 301 133Q197
223 138 360T78 647Q78 807 129 954Q178 1097 279 1212Q396 1351 565 1425T928 1499Q1257 1499 1462 1309T1667 813Q1667 647 1616 506Q1563 361 1466 248Q1349 111 1180 35Q1014 -39 815 -39ZM1342 1948Q1309 1817 1251 1753Q1196 1692 1106 1692Q1090 1692 1061
1696Q1047 1698 1018 1706L955 1726Q951 1728 916 1737Q908 1739 891 1739Q852 1739 828 1714Q799 1685 791 1642H672Q703 1773 762 1839T907 1905Q917 1905 950 1900Q975 1897 1000 1888L1063 1868Q1075 1864 1095 1860T1118 1855Q1159 1855 1181 1875T1221 1948H1342Z"
/>
<glyph unicode="&#xd6;" glyph-name="Odieresis" horiz-adv-x="1744" d="M895 1012Q768 1012 686 924T604 702Q604 583 670 518Q740 448 848 449Q971 449 1055 541Q1139 635 1139 764Q1139 868 1069 942Q1001 1012 895 1012ZM815 -39Q657 -39 528 4Q403 45 301
133Q197 223 138 360T78 647Q78 807 129 954Q178 1097 279 1212Q396 1351 565 1425T928 1499Q1257 1499 1462 1309T1667 813Q1667 647 1616 506Q1563 361 1466 248Q1349 111 1180 35Q1014 -39 815 -39ZM1045 1796Q1045 1855 1088 1898T1190 1941Q1251 1941 1294
1898T1338 1796Q1338 1733 1297 1692Q1254 1649 1190 1649Q1131 1649 1088 1692T1045 1796ZM672 1796Q672 1853 717 1898Q760 1941 819 1941Q880 1941 923 1898T967 1796Q967 1728 926 1689Q881 1648 820 1648T715 1692T672 1796Z" />
<glyph unicode="&#xd7;" glyph-name="multiply" horiz-adv-x="1705" d="M874 805L1300 1231L1495 1036L1069 610L1495 184L1300 -10L874 416L449 -10L254 184L680 610L254 1036L449 1231L874 805Z" />
<glyph unicode="&#xd8;" glyph-name="Oslash" horiz-adv-x="1744" d="M711 438Q738 424 776 418Q821 410 848 410Q985 410 1081 516Q1175 618 1176 774Q1176 815 1167 846Q1155 887 1143 909L711 438ZM1036 1016Q1001 1034 967 1044Q936 1052 903 1053Q758 1053
664 950Q568 844 567 698Q567 657 575 625Q583 590 604 547L1036 1016ZM244 -68L127 27L258 170Q168 274 123 393Q78 510 78 645Q78 805 129 954Q180 1101 279 1217Q396 1356 565 1430Q733 1504 932 1503Q1061 1503 1169 1473Q1284 1440 1370 1382L1485 1503L1595
1405L1489 1286Q1575 1188 1622 1067Q1667 950 1667 813Q1667 653 1616 504Q1567 359 1466 244Q1349 105 1182 31Q1016 -43 813 -43Q684 -43 573 -14Q471 13 377 74L244 -68Z" />
<glyph unicode="&#xd9;" glyph-name="Ugrave" horiz-adv-x="1562" d="M254 1464H791L659 754Q655 734 635 610Q629 573 629 553Q629 498 657 465Q684 434 739 434Q807 434 840 483Q873 530 909 727L1044 1464H1579L1430 649Q1399 491 1362 389Q1325 291 1276 221Q1186
98 1040 29Q899 -39 727 -39Q434 -39 262 104Q94 245 94 496Q94 537 104 623Q110 682 139 838L254 1464ZM670 1962H944L1098 1610H944L670 1962Z" />
<glyph unicode="&#xda;" glyph-name="Uacute" horiz-adv-x="1562" d="M254 1464H791L659 754Q655 734 635 610Q629 573 629 553Q629 498 657 465Q684 434 739 434Q807 434 840 483Q873 530 909 727L1044 1464H1579L1430 649Q1399 491 1362 389Q1325 291 1276 221Q1186
98 1040 29Q899 -39 727 -39Q434 -39 262 104Q94 245 94 496Q94 537 104 623Q110 682 139 838L254 1464ZM745 1610L967 1962H1284L913 1610H745Z" />
<glyph unicode="&#xdb;" glyph-name="Ucircumflex" horiz-adv-x="1562" d="M254 1464H791L659 754Q655 734 635 610Q629 573 629 553Q629 498 657 465Q684 434 739 434Q807 434 840 483Q873 530 909 727L1044 1464H1579L1430 649Q1399 491 1362 389Q1325 291 1276
221Q1186 98 1040 29Q899 -39 727 -39Q434 -39 262 104Q94 245 94 496Q94 537 104 623Q110 682 139 838L254 1464ZM1245 1610H1094L973 1778L766 1610H604L852 1962H1126L1245 1610Z" />
<glyph unicode="&#xdc;" glyph-name="Udieresis" horiz-adv-x="1562" d="M254 1464H791L659 754Q655 734 635 610Q629 573 629 553Q629 498 657 465Q684 434 739 434Q807 434 840 483Q873 530 909 727L1044 1464H1579L1430 649Q1399 491 1362 389Q1325 291 1276
221Q1186 98 1040 29Q899 -39 727 -39Q434 -39 262 104Q94 245 94 496Q94 537 104 623Q110 682 139 838L254 1464ZM1012 1796Q1012 1855 1055 1898T1157 1941Q1218 1941 1261 1898T1305 1796Q1305 1733 1264 1692Q1221 1649 1157 1649Q1098 1649 1055 1692T1012
1796ZM639 1796Q639 1853 684 1898Q727 1941 786 1941Q847 1941 890 1898T934 1796Q934 1728 893 1689Q848 1648 787 1648T682 1692T639 1796Z" />
<glyph unicode="&#xdd;" glyph-name="Yacute" horiz-adv-x="1310" d="M233 0L346 608L-14 1464H563L627 1272Q645 1221 659 1161Q671 1114 678 1065Q701 1141 768 1247Q776 1259 778 1262L907 1464H1542L881 600L770 0H233ZM618 1610L840 1962H1157L786 1610H618Z" />
<glyph unicode="&#xde;" glyph-name="Thorn" horiz-adv-x="1521" d="M643 608H684Q797 608 854 643Q909 676 909 750Q909 807 862 831Q813 858 713 858H696H688L643 608ZM0 0L270 1464H803L762 1241H788Q1112 1241 1274 1122Q1438 1001 1438 770Q1438 512 1268
369T786 225H780H571L532 0H0Z" />
<glyph unicode="&#xdf;" glyph-name="germandbls" horiz-adv-x="1409" d="M473 0H-6L193 1071Q238 1329 391 1450Q543 1571 817 1571Q1042 1571 1176 1462Q1313 1349 1313 1178Q1313 1051 1239 971Q1163 889 1030 862Q1157 833 1225 748Q1295 660 1294 524Q1294
413 1260 324Q1221 226 1155 150Q1087 70 977 31T721 -8Q693 -8 610 -2Q583 0 549 0L604 293H608Q633 289 639 289Q717 289 770 373Q821 455 821 592Q821 668 791 698T684 733L739 1024Q755 1022 784 1018Q798 1016 819 1016Q860 1016 883 1040Q906 1067 906 1110T879
1177T807 1202Q746 1202 715 1153Q682 1102 649 930L473 0Z" />
<glyph unicode="&#xe0;" glyph-name="agrave" horiz-adv-x="1372" d="M643 647Q584 647 547 600Q508 551 508 481Q508 424 535 395Q563 364 614 365Q677 365 719 410Q758 451 758 524Q758 581 727 614T643 647ZM852 1034H1327L1135 0H676L713 139Q647 49 572 6T401
-37Q233 -37 127 90T20 422Q20 541 57 653Q92 759 164 858Q240 960 336 1013T541 1067Q641 1067 711 1022Q783 975 834 885L852 1034ZM527 1530H801L955 1178H801L527 1530Z" />
<glyph unicode="&#xe1;" glyph-name="aacute" horiz-adv-x="1372" d="M643 647Q584 647 547 600Q508 551 508 481Q508 424 535 395Q563 364 614 365Q677 365 719 410Q758 451 758 524Q758 581 727 614T643 647ZM852 1034H1327L1135 0H676L713 139Q647 49 572 6T401
-37Q233 -37 127 90T20 422Q20 541 57 653Q92 759 164 858Q240 960 336 1013T541 1067Q641 1067 711 1022Q783 975 834 885L852 1034ZM602 1178L824 1530H1141L770 1178H602Z" />
<glyph unicode="&#xe2;" glyph-name="acircumflex" horiz-adv-x="1372" d="M643 647Q584 647 547 600Q508 551 508 481Q508 424 535 395Q563 364 614 365Q677 365 719 410Q758 451 758 524Q758 581 727 614T643 647ZM852 1034H1327L1135 0H676L713 139Q647 49
572 6T401 -37Q233 -37 127 90T20 422Q20 541 57 653Q92 759 164 858Q240 960 336 1013T541 1067Q641 1067 711 1022Q783 975 834 885L852 1034ZM1102 1178H951L830 1346L623 1178H461L709 1530H983L1102 1178Z" />
<glyph unicode="&#xe3;" glyph-name="atilde" horiz-adv-x="1372" d="M643 647Q584 647 547 600Q508 551 508 481Q508 424 535 395Q563 364 614 365Q677 365 719 410Q758 451 758 524Q758 581 727 614T643 647ZM852 1034H1327L1135 0H676L713 139Q647 49 572 6T401
-37Q233 -37 127 90T20 422Q20 541 57 653Q92 759 164 858Q240 960 336 1013T541 1067Q641 1067 711 1022Q783 975 834 885L852 1034ZM1166 1516Q1133 1385 1075 1321Q1020 1260 930 1260Q914 1260 885 1264Q871 1266 842 1274L779 1294Q775 1296 740 1305Q732
1307 715 1307Q676 1307 652 1282Q623 1253 615 1210H496Q527 1341 586 1407T731 1473Q741 1473 774 1468Q799 1465 824 1456L887 1436Q899 1432 919 1428T942 1423Q983 1423 1005 1443T1045 1516H1166Z" />
<glyph unicode="&#xe4;" glyph-name="adieresis" horiz-adv-x="1372" d="M643 647Q584 647 547 600Q508 551 508 481Q508 424 535 395Q563 364 614 365Q677 365 719 410Q758 451 758 524Q758 581 727 614T643 647ZM852 1034H1327L1135 0H676L713 139Q647 49 572
6T401 -37Q233 -37 127 90T20 422Q20 541 57 653Q92 759 164 858Q240 960 336 1013T541 1067Q641 1067 711 1022Q783 975 834 885L852 1034ZM869 1364Q869 1423 912 1466T1014 1509Q1075 1509 1118 1466T1162 1364Q1162 1301 1121 1260Q1078 1217 1014 1217Q955
1217 912 1260T869 1364ZM496 1364Q496 1421 541 1466Q584 1509 643 1509Q704 1509 747 1466T791 1364Q791 1296 750 1257Q705 1216 644 1216T539 1260T496 1364Z" />
<glyph unicode="&#xe5;" glyph-name="aring" horiz-adv-x="1374" d="M680 1378Q680 1333 715 1299T795 1264T874 1298T909 1378Q909 1425 875 1460T795 1495T715 1460T680 1378ZM524 1376Q524 1487 602 1569Q678 1647 793 1647Q906 1647 983 1569Q1063 1489 1063
1376Q1063 1261 983 1186Q901 1108 793 1108Q680 1108 602 1185T524 1376ZM643 647Q584 647 547 600Q508 551 508 481Q508 424 535 395Q563 364 614 365Q677 365 719 410Q758 451 758 524Q758 581 727 614T643 647ZM852 1034H1327L1135 0H676L713 139Q647 49 572
6T401 -37Q233 -37 127 90T20 422Q20 541 57 653Q92 759 164 858Q240 960 336 1013T541 1067Q641 1067 711 1022Q783 975 834 885L852 1034Z" />
<glyph unicode="&#xe6;" glyph-name="ae" horiz-adv-x="1988" d="M1241 649H1487V664Q1487 711 1460 741Q1435 770 1391 770Q1338 770 1298 741Q1264 715 1241 649ZM1024 922Q1114 996 1204 1032Q1296 1069 1397 1069Q1614 1069 1763 936Q1908 805 1909 604Q1909
551 1907 527T1901 457H1212Q1212 377 1245 336Q1278 293 1339 293Q1380 293 1413 313Q1452 338 1485 385L1851 307Q1763 135 1620 49Q1479 -37 1284 -37Q1163 -37 1077 -2Q987 35 905 106Q794 38 682 4Q578 -29 459 -29Q234 -29 106 63Q-19 155 -18 319Q-18 485
115 590Q244 692 467 692Q541 692 623 676Q693 662 780 625L781 630Q782 635 782 637V657Q782 735 707 782Q635 827 502 827Q414 827 317 805Q225 783 127 737L172 1004Q311 1041 387 1053Q496 1069 575 1069Q731 1069 842 1032Q954 996 1024 922ZM580 252Q645
252 684 276Q723 301 723 340Q723 383 682 412Q643 439 571 438Q508 438 469 414T430 350Q430 307 471 279Q510 252 580 252Z" />
<glyph unicode="&#xe7;" glyph-name="ccedilla" horiz-adv-x="966" d="M741 0Q688 -18 623 -29Q562 -39 520 -39Q299 -39 158 96Q19 229 18 444Q18 569 61 682T188 879Q276 971 395 1020Q508 1067 649 1067Q727 1067 791 1053Q850 1039 924 1008L854 623Q799 658
766 670Q729 684 690 684Q608 684 559 633Q508 578 508 500Q508 432 553 387Q596 344 670 344Q699 344 735 354Q778 366 807 383L741 0ZM131 -438L184 -303Q260 -332 305 -342Q360 -354 407 -354Q452 -354 477 -336T502 -283T463 -233Q420 -217 334 -217H311L385
0H504L471 -92Q588 -96 645 -137Q704 -180 704 -266Q704 -377 631 -438Q559 -497 426 -498Q371 -498 301 -483Q215 -465 131 -438Z" />
<glyph unicode="&#xe8;" glyph-name="egrave" horiz-adv-x="1234" d="M485 649H733V664Q733 715 707 741Q678 770 635 770Q582 770 543 741Q508 715 485 649ZM1145 457H459Q459 377 492 336Q526 293 584 293Q627 293 659 313Q694 336 729 385L1096 307Q1002 129
862 47Q717 -39 526 -39Q299 -39 156 96T12 444Q12 569 55 680Q98 793 178 874Q270 970 387 1018Q508 1067 637 1067Q864 1067 1008 936Q1153 803 1153 604Q1153 555 1151 530L1145 457ZM406 1530H680L834 1178H680L406 1530Z" />
<glyph unicode="&#xe9;" glyph-name="eacute" horiz-adv-x="1234" d="M485 649H733V664Q733 715 707 741Q678 770 635 770Q582 770 543 741Q508 715 485 649ZM1145 457H459Q459 377 492 336Q526 293 584 293Q627 293 659 313Q694 336 729 385L1096 307Q1002 129
862 47Q717 -39 526 -39Q299 -39 156 96T12 444Q12 569 55 680Q98 793 178 874Q270 970 387 1018Q508 1067 637 1067Q864 1067 1008 936Q1153 803 1153 604Q1153 555 1151 530L1145 457ZM481 1178L703 1530H1020L649 1178H481Z" />
<glyph unicode="&#xea;" glyph-name="ecircumflex" horiz-adv-x="1234" d="M485 649H733V664Q733 715 707 741Q678 770 635 770Q582 770 543 741Q508 715 485 649ZM1145 457H459Q459 377 492 336Q526 293 584 293Q627 293 659 313Q694 336 729 385L1096 307Q1002
129 862 47Q717 -39 526 -39Q299 -39 156 96T12 444Q12 569 55 680Q98 793 178 874Q270 970 387 1018Q508 1067 637 1067Q864 1067 1008 936Q1153 803 1153 604Q1153 555 1151 530L1145 457ZM981 1178H830L709 1346L502 1178H340L588 1530H862L981 1178Z" />
<glyph unicode="&#xeb;" glyph-name="edieresis" horiz-adv-x="1234" d="M485 649H733V664Q733 715 707 741Q678 770 635 770Q582 770 543 741Q508 715 485 649ZM1145 457H459Q459 377 492 336Q526 293 584 293Q627 293 659 313Q694 336 729 385L1096 307Q1002
129 862 47Q717 -39 526 -39Q299 -39 156 96T12 444Q12 569 55 680Q98 793 178 874Q270 970 387 1018Q508 1067 637 1067Q864 1067 1008 936Q1153 803 1153 604Q1153 555 1151 530L1145 457ZM748 1364Q748 1423 791 1466T893 1509Q954 1509 997 1466T1041 1364Q1041
1301 1000 1260Q957 1217 893 1217Q834 1217 791 1260T748 1364ZM375 1364Q375 1421 420 1466Q463 1509 522 1509Q583 1509 626 1466T670 1364Q670 1296 629 1257Q584 1216 523 1216T418 1260T375 1364Z" />
<glyph unicode="&#xec;" glyph-name="igrave" horiz-adv-x="724" d="M-16 0L174 1034H662L471 0H-16ZM183 1530H457L611 1178H457L183 1530Z" />
<glyph unicode="&#xed;" glyph-name="iacute" horiz-adv-x="724" d="M-16 0L174 1034H662L471 0H-16ZM258 1178L480 1530H797L426 1178H258Z" />
<glyph unicode="&#xee;" glyph-name="icircumflex" horiz-adv-x="724" d="M-16 0L174 1034H662L471 0H-16ZM758 1178H607L486 1346L279 1178H117L365 1530H639L758 1178Z" />
<glyph unicode="&#xef;" glyph-name="idieresis" horiz-adv-x="724" d="M-16 0L174 1034H662L471 0H-16ZM525 1364Q525 1423 568 1466T670 1509Q731 1509 774 1466T818 1364Q818 1301 777 1260Q734 1217 670 1217Q611 1217 568 1260T525 1364ZM152 1364Q152 1421
197 1466Q240 1509 299 1509Q360 1509 403 1466T447 1364Q447 1296 406 1257Q361 1216 300 1216T195 1260T152 1364Z" />
<glyph unicode="&#xf0;" glyph-name="eth" horiz-adv-x="1261" d="M201 1165L451 1249Q418 1286 403 1303Q366 1342 344 1368L604 1559L711 1452Q734 1429 799 1358L1104 1460L1163 1317L899 1227Q1040 1055 1110 895Q1176 743 1176 575Q1176 303 999 133Q819
-41 549 -41Q311 -41 162 90T12 430Q12 659 145 804T487 950Q512 950 569 942Q622 934 664 922Q646 965 612 1024Q594 1057 549 1118L246 1022L201 1165ZM590 614Q531 614 490 567T449 451Q449 404 477 371Q504 342 557 342Q623 342 661 387T700 504Q700 553 670
583T590 614Z" />
<glyph unicode="&#xf1;" glyph-name="ntilde" horiz-adv-x="1351" d="M-33 0L160 1034H618L588 885Q674 973 768 1022Q856 1067 952 1067Q1085 1067 1167 983T1249 758Q1249 719 1243 670Q1233 594 1229 563L1126 0H635L731 520Q735 538 739 571Q741 587 741 621Q741
650 725 666Q707 684 680 684Q627 684 594 635T539 461L455 0H-33ZM1121 1516Q1088 1385 1030 1321Q975 1260 885 1260Q869 1260 840 1264Q826 1266 797 1274L734 1294Q730 1296 695 1305Q687 1307 670 1307Q631 1307 607 1282Q578 1253 570 1210H451Q482 1341
541 1407T686 1473Q696 1473 729 1468Q754 1465 779 1456L842 1436Q854 1432 874 1428T897 1423Q938 1423 960 1443T1000 1516H1121Z" />
<glyph unicode="&#xf2;" glyph-name="ograve" horiz-adv-x="1261" d="M608 653Q549 653 508 604Q467 553 467 485Q467 430 496 401Q527 370 575 371Q636 371 678 418Q717 463 717 539Q717 590 688 623Q660 653 608 653ZM12 442Q12 569 55 680T182 874Q270 964
391 1016Q508 1065 641 1065Q881 1065 1024 930T1167 571Q1167 467 1130 369Q1091 269 1028 188Q936 77 809 20Q678 -39 530 -39Q305 -39 158 96Q12 229 12 442ZM412 1530H686L840 1178H686L412 1530Z" />
<glyph unicode="&#xf3;" glyph-name="oacute" horiz-adv-x="1261" d="M608 653Q549 653 508 604Q467 553 467 485Q467 430 496 401Q527 370 575 371Q636 371 678 418Q717 463 717 539Q717 590 688 623Q660 653 608 653ZM12 442Q12 569 55 680T182 874Q270 964
391 1016Q508 1065 641 1065Q881 1065 1024 930T1167 571Q1167 467 1130 369Q1091 269 1028 188Q936 77 809 20Q678 -39 530 -39Q305 -39 158 96Q12 229 12 442ZM487 1178L709 1530H1026L655 1178H487Z" />
<glyph unicode="&#xf4;" glyph-name="ocircumflex" horiz-adv-x="1261" d="M608 653Q549 653 508 604Q467 553 467 485Q467 430 496 401Q527 370 575 371Q636 371 678 418Q717 463 717 539Q717 590 688 623Q660 653 608 653ZM12 442Q12 569 55 680T182 874Q270
964 391 1016Q508 1065 641 1065Q881 1065 1024 930T1167 571Q1167 467 1130 369Q1091 269 1028 188Q936 77 809 20Q678 -39 530 -39Q305 -39 158 96Q12 229 12 442ZM987 1178H836L715 1346L508 1178H346L594 1530H868L987 1178Z" />
<glyph unicode="&#xf5;" glyph-name="otilde" horiz-adv-x="1261" d="M608 653Q549 653 508 604Q467 553 467 485Q467 430 496 401Q527 370 575 371Q636 371 678 418Q717 463 717 539Q717 590 688 623Q660 653 608 653ZM12 442Q12 569 55 680T182 874Q270 964
391 1016Q508 1065 641 1065Q881 1065 1024 930T1167 571Q1167 467 1130 369Q1091 269 1028 188Q936 77 809 20Q678 -39 530 -39Q305 -39 158 96Q12 229 12 442ZM1051 1516Q1018 1385 960 1321Q905 1260 815 1260Q799 1260 770 1264Q756 1266 727 1274L664 1294Q660
1296 625 1305Q617 1307 600 1307Q561 1307 537 1282Q508 1253 500 1210H381Q412 1341 471 1407T616 1473Q626 1473 659 1468Q684 1465 709 1456L772 1436Q784 1432 804 1428T827 1423Q868 1423 890 1443T930 1516H1051Z" />
<glyph unicode="&#xf6;" glyph-name="odieresis" horiz-adv-x="1261" d="M608 653Q549 653 508 604Q467 553 467 485Q467 430 496 401Q527 370 575 371Q636 371 678 418Q717 463 717 539Q717 590 688 623Q660 653 608 653ZM12 442Q12 569 55 680T182 874Q270 964
391 1016Q508 1065 641 1065Q881 1065 1024 930T1167 571Q1167 467 1130 369Q1091 269 1028 188Q936 77 809 20Q678 -39 530 -39Q305 -39 158 96Q12 229 12 442ZM754 1364Q754 1423 797 1466T899 1509Q960 1509 1003 1466T1047 1364Q1047 1301 1006 1260Q963 1217
899 1217Q840 1217 797 1260T754 1364ZM381 1364Q381 1421 426 1466Q469 1509 528 1509Q589 1509 632 1466T676 1364Q676 1296 635 1257Q590 1216 529 1216T424 1260T381 1364Z" />
<glyph unicode="&#xf7;" glyph-name="divide" horiz-adv-x="1705" d="M854 371Q928 371 981 317Q1036 262 1036 189T981 59Q928 6 852 6T723 59T670 188T723 317T854 371ZM1452 748V475H254V748H1452ZM854 1217Q926 1217 981 1162T1036 1032T981 903Q928 850 852
850T723 903T670 1032T725 1163Q778 1217 854 1217Z" />
<glyph unicode="&#xf8;" glyph-name="oslash" horiz-adv-x="1261" d="M430 408L686 690Q666 698 645 702Q620 706 612 707Q530 707 475 639T420 473Q420 457 422 446Q428 412 430 408ZM131 -90L37 -14L145 113Q75 185 43 264Q10 342 10 434Q10 559 55 678Q98 791
180 872Q272 966 391 1016Q512 1065 641 1065Q725 1065 799 1047Q867 1031 940 989L1047 1106L1145 1026L1040 911Q1103 843 1137 758Q1168 676 1167 571Q1167 432 1110 315Q1051 192 946 106Q860 36 756 0T535 -37Q458 -37 387 -18Q307 2 248 35L131 -90ZM754
616L500 334Q531 326 541 324Q570 320 578 319Q658 319 711 385T764 553Q764 576 762 586Q758 606 754 616Z" />
<glyph unicode="&#xf9;" glyph-name="ugrave" horiz-adv-x="1335" d="M145 1034H631L551 594Q551 590 549 578T545 557Q533 500 532 473Q532 430 553 410Q576 387 608 387Q657 387 682 424Q707 463 735 610L813 1034H1286L1200 567Q1139 231 995 98Q852 -37 569
-37Q319 -37 180 80T41 403Q41 471 72 633Q74 643 76 657L145 1034ZM476 1530H750L904 1178H750L476 1530Z" />
<glyph unicode="&#xfa;" glyph-name="uacute" horiz-adv-x="1335" d="M145 1034H631L551 594Q551 590 549 578T545 557Q533 500 532 473Q532 430 553 410Q576 387 608 387Q657 387 682 424Q707 463 735 610L813 1034H1286L1200 567Q1139 231 995 98Q852 -37 569
-37Q319 -37 180 80T41 403Q41 471 72 633Q74 643 76 657L145 1034ZM551 1178L773 1530H1090L719 1178H551Z" />
<glyph unicode="&#xfb;" glyph-name="ucircumflex" horiz-adv-x="1335" d="M145 1034H631L551 594Q551 590 549 578T545 557Q533 500 532 473Q532 430 553 410Q576 387 608 387Q657 387 682 424Q707 463 735 610L813 1034H1286L1200 567Q1139 231 995 98Q852 -37
569 -37Q319 -37 180 80T41 403Q41 471 72 633Q74 643 76 657L145 1034ZM1051 1178H900L779 1346L572 1178H410L658 1530H932L1051 1178Z" />
<glyph unicode="&#xfc;" glyph-name="udieresis" horiz-adv-x="1335" d="M145 1034H631L551 594Q551 590 549 578T545 557Q533 500 532 473Q532 430 553 410Q576 387 608 387Q657 387 682 424Q707 463 735 610L813 1034H1286L1200 567Q1139 231 995 98Q852 -37
569 -37Q319 -37 180 80T41 403Q41 471 72 633Q74 643 76 657L145 1034ZM818 1364Q818 1423 861 1466T963 1509Q1024 1509 1067 1466T1111 1364Q1111 1301 1070 1260Q1027 1217 963 1217Q904 1217 861 1260T818 1364ZM445 1364Q445 1421 490 1466Q533 1509 592
1509Q653 1509 696 1466T740 1364Q740 1296 699 1257Q654 1216 593 1216T488 1260T445 1364Z" />
<glyph unicode="&#xfd;" glyph-name="yacute" horiz-adv-x="1185" d="M-152 -446L233 186L0 1034H467L518 778Q530 715 537 672Q545 611 545 584Q553 621 573 676Q593 733 618 780L741 1034H1251L381 -446H-152ZM483 1178L705 1530H1022L651 1178H483Z" />
<glyph unicode="&#xfe;" glyph-name="thorn" horiz-adv-x="1368" d="M-111 -446L258 1550H739L653 1081Q649 1048 637 1016L600 918Q661 992 733 1030Q801 1067 881 1067Q1057 1067 1167 942Q1276 819 1276 614Q1276 503 1237 381Q1198 260 1133 170Q1055 66 963
14Q869 -37 754 -37Q660 -37 592 6Q522 51 461 145V139Q465 98 465 94Q465 49 451 -8Q449 -14 449 -20L371 -446H-111ZM696 659Q635 659 592 614T549 502Q549 447 579 412T662 377Q719 377 760 424Q799 469 799 543Q799 600 772 629Q745 659 696 659Z" />
<glyph unicode="&#xff;" glyph-name="ydieresis" horiz-adv-x="1185" d="M-152 -446L233 186L0 1034H467L518 778Q530 715 537 672Q545 611 545 584Q553 621 573 676Q593 733 618 780L741 1034H1251L381 -446H-152ZM750 1364Q750 1423 793 1466T895 1509Q956 1509
999 1466T1043 1364Q1043 1301 1002 1260Q959 1217 895 1217Q836 1217 793 1260T750 1364ZM377 1364Q377 1421 422 1466Q465 1509 524 1509Q585 1509 628 1466T672 1364Q672 1296 631 1257Q586 1216 525 1216T420 1260T377 1364Z" />
<glyph unicode="&#x106;" glyph-name="Cacute" horiz-adv-x="1308" d="M1141 539L1042 10Q974 -15 907 -27T774 -39Q639 -39 518 4T301 131Q197 221 138 358T78 647Q78 807 129 954Q178 1097 279 1212Q396 1351 565 1425Q733 1499 930 1499Q1039 1499 1126 1479Q1218
1459 1303 1415L1212 926Q1132 971 1065 991T922 1012Q787 1012 694 924Q606 838 606 700Q606 583 675 516T862 449Q925 449 999 473Q1080 500 1141 539ZM766 1610L988 1962H1305L934 1610H766Z" />
<glyph unicode="&#x107;" glyph-name="cacute" horiz-adv-x="966" d="M741 0Q688 -18 623 -29Q562 -39 520 -39Q299 -39 158 96Q19 229 18 444Q18 569 61 682T188 879Q276 971 395 1020Q508 1067 649 1067Q727 1067 791 1053Q850 1039 924 1008L854 623Q799 658
766 670Q729 684 690 684Q608 684 559 633Q508 578 508 500Q508 432 553 387Q596 344 670 344Q699 344 735 354Q778 366 807 383L741 0ZM454 1178L676 1530H993L622 1178H454Z" />
<glyph unicode="&#x10c;" glyph-name="Ccaron" horiz-adv-x="1308" d="M1141 539L1042 10Q974 -15 907 -27T774 -39Q639 -39 518 4T301 131Q197 221 138 358T78 647Q78 807 129 954Q178 1097 279 1212Q396 1351 565 1425Q733 1499 930 1499Q1039 1499 1126 1479Q1218
1459 1303 1415L1212 926Q1132 971 1065 991T922 1012Q787 1012 694 924Q606 838 606 700Q606 583 675 516T862 449Q925 449 999 473Q1080 500 1141 539ZM703 1962H852L973 1794L1182 1962H1344L1094 1610H822L703 1962Z" />
<glyph unicode="&#x10d;" glyph-name="ccaron" horiz-adv-x="966" d="M741 0Q688 -18 623 -29Q562 -39 520 -39Q299 -39 158 96Q19 229 18 444Q18 569 61 682T188 879Q276 971 395 1020Q508 1067 649 1067Q727 1067 791 1053Q850 1039 924 1008L854 623Q799 658
766 670Q729 684 690 684Q608 684 559 633Q508 578 508 500Q508 432 553 387Q596 344 670 344Q699 344 735 354Q778 366 807 383L741 0ZM391 1530H540L661 1362L870 1530H1032L782 1178H510L391 1530Z" />
<glyph unicode="&#x111;" glyph-name="" horiz-adv-x="1400" d="M610 369Q667 369 711 416Q752 459 752 528Q752 585 721 618Q690 653 639 653Q582 653 541 606Q502 561 502 487Q502 432 530 399Q558 369 610 369ZM1413 1550L1384 1395H1618L1573 1155H1339L1124
0H680L713 127Q650 43 574 2T410 -39Q246 -39 136 90T25 410Q25 664 176 852Q326 1038 539 1038Q631 1038 702 997Q772 958 831 864Q833 895 838 948Q838 956 846 1010L872 1155H526L571 1395H918L946 1550H1413Z" />
<glyph unicode="&#x11e;" glyph-name="Gbreve" horiz-adv-x="1638" d="M1436 170Q1284 64 1130 12Q978 -39 813 -39Q483 -39 281 151T78 647Q78 807 129 954Q178 1097 279 1212Q396 1349 563 1423Q732 1497 932 1497Q1168 1497 1331 1403Q1499 1307 1595 1122L1120
946Q1083 999 1032 1024Q983 1049 918 1049Q781 1049 690 946Q602 846 602 682Q602 549 682 465Q762 383 893 383Q899 383 911 384T930 385Q944 385 969 389L995 532H805L866 864H1563L1436 170ZM729 1948H866V1937Q866 1876 901 1845T1008 1814Q1088 1814 1135
1847Q1186 1882 1219 1948H1362Q1319 1796 1223 1718T987 1640Q856 1640 793 1706Q727 1776 727 1905V1925Q727 1931 728 1938T729 1948Z" />
<glyph unicode="&#x11f;" glyph-name="gbreve" horiz-adv-x="1400" d="M649 659Q590 659 551 614T512 498Q512 443 539 414Q567 383 618 383Q683 383 723 426Q764 471 764 539Q764 594 733 626T649 659ZM854 1034H1329L1153 98Q1104 -164 936 -305Q772 -442 498
-442Q377 -442 260 -412Q137 -379 18 -322L182 -25Q250 -72 313 -92Q374 -112 446 -113Q540 -113 604 -57Q672 0 698 102L723 190Q660 104 578 61Q498 18 408 18Q234 18 129 131Q23 248 23 432Q23 536 61 653Q98 764 166 856Q243 957 338 1010Q434 1063 543 1063Q639
1063 713 1018Q784 975 836 883L854 1034ZM534 1516H671V1505Q671 1444 706 1413T813 1382Q893 1382 940 1415Q991 1450 1024 1516H1167Q1124 1364 1028 1286T792 1208Q661 1208 598 1274Q532 1344 532 1473V1493Q532 1499 533 1506T534 1516Z" />
<glyph unicode="&#x130;" glyph-name="Idot" horiz-adv-x="827" d="M10 0L281 1464H819L549 0H10ZM448 1771Q448 1832 493 1877T600 1923Q663 1923 706 1878Q751 1829 751 1771Q751 1705 708 1663T600 1620Q543 1620 493 1665Q448 1708 448 1771Z" />
<glyph unicode="&#x131;" glyph-name="dotlessi" horiz-adv-x="724" d="M-16 0L174 1034H662L471 0H-16Z" />
<glyph unicode="&#x141;" glyph-name="Lslash" horiz-adv-x="1155" d="M43 0L131 473L35 420L-90 684L199 846L313 1464H842L778 1114L958 1217L1110 961L707 731L653 440H1114L1032 0H43Z" />
<glyph unicode="&#x142;" glyph-name="lslash" horiz-adv-x="780" d="M670 995L768 1053L868 825L625 686L498 0H14L88 393Q90 401 102 457Q108 480 119 510L31 457L-70 688L166 819L303 1550H784L705 1118Q701 1095 692 1065L670 995Z" />
<glyph unicode="&#x152;" glyph-name="OE" horiz-adv-x="2297" d="M922 1014Q789 1014 694 924Q604 836 604 702Q604 583 676 514T870 444Q1003 444 1095 536T1188 764Q1188 873 1112 944Q1041 1014 922 1014ZM2304 1464L2230 1067H1755L1729 926H2177L2109 555H1661L1632
397H2150L2077 0H1139L1192 219Q1096 82 981 23Q861 -38 698 -39Q409 -39 240 137Q72 311 72 612Q72 782 125 942Q176 1098 279 1221Q390 1356 549 1429T885 1503Q1047 1503 1167 1438Q1290 1372 1362 1243L1405 1464H2304Z" />
<glyph unicode="&#x153;" glyph-name="oe" horiz-adv-x="1912" d="M1163 647H1409V666Q1409 711 1382 741Q1357 770 1313 770Q1256 770 1221 741Q1183 710 1163 647ZM1821 457H1135Q1135 381 1169 336Q1204 293 1262 293Q1307 293 1335 313Q1368 336 1405 385L1774
307Q1678 131 1542 49Q1401 -37 1219 -37Q1117 -37 1030 -8Q948 19 887 78Q797 21 707 -10Q627 -37 526 -37Q299 -37 156 98T12 444Q12 569 55 680T180 872Q272 964 393 1016Q510 1065 641 1065Q743 1065 823 1038Q915 1007 973 958Q1045 1009 1135 1038Q1217 1065
1319 1065Q1542 1065 1686 934Q1831 801 1831 604Q1831 559 1829 535Q1825 486 1821 457ZM608 653Q549 653 508 604Q467 553 467 485Q467 430 496 401Q527 370 575 371Q636 371 678 418Q717 463 717 539Q717 590 688 623Q660 653 608 653Z" />
<glyph unicode="&#x15e;" glyph-name="Scedilla" horiz-adv-x="1216" d="M-92 231L170 614Q254 510 356 449Q452 392 555 391Q598 391 624 407T651 449Q651 488 537 535L498 551Q316 627 225 731Q139 831 139 979Q139 1208 305 1352Q473 1497 743 1497Q895 1497
1030 1450Q1163 1403 1272 1313L1067 954Q973 1034 905 1069Q827 1108 772 1108Q733 1108 713 1090Q690 1072 690 1044Q690 993 821 938L877 915Q1047 839 1118 743T1190 502Q1190 273 1012 119T561 -35Q389 -35 224 32T-92 231ZM139 -438L192 -303Q268 -332 313
-342Q368 -354 415 -354Q460 -354 485 -336T510 -283T471 -233Q428 -217 342 -217H319L393 0H512L479 -92Q596 -96 653 -137Q712 -180 712 -266Q712 -377 639 -438Q567 -497 434 -498Q379 -498 309 -483Q223 -465 139 -438Z" />
<glyph unicode="&#x15f;" glyph-name="scedilla" horiz-adv-x="983" d="M-72 135L111 440Q187 364 258 326Q334 285 389 285Q414 285 428 297Q444 309 444 328Q444 357 375 393L367 397L289 438Q195 487 154 551Q109 619 109 702Q109 862 233 964T551 1067Q652
1067 754 1036T958 942L793 664Q742 711 692 739Q645 766 604 766Q577 766 563 754Q547 742 547 721Q547 698 606 670Q614 666 622 663T633 657L694 629Q788 586 833 521T879 354Q879 176 752 70Q621 -39 412 -39Q299 -39 178 4Q63 45 -72 135ZM281 -438L334 -303Q410
-332 455 -342Q510 -354 557 -354Q602 -354 627 -336T652 -283T613 -233Q570 -217 484 -217H461L535 0H654L621 -92Q738 -96 795 -137Q854 -180 854 -266Q854 -377 781 -438Q709 -497 576 -498Q521 -498 451 -483Q365 -465 281 -438Z" />
<glyph unicode="&#x160;" glyph-name="Scaron" horiz-adv-x="1216" d="M-92 231L170 614Q254 510 356 449Q452 392 555 391Q598 391 624 407T651 449Q651 488 537 535L498 551Q316 627 225 731Q139 831 139 979Q139 1208 305 1352Q473 1497 743 1497Q895 1497
1030 1450Q1163 1403 1272 1313L1067 954Q973 1034 905 1069Q827 1108 772 1108Q733 1108 713 1090Q690 1072 690 1044Q690 993 821 938L877 915Q1047 839 1118 743T1190 502Q1190 273 1012 119T561 -35Q389 -35 224 32T-92 231ZM508 1962H657L778 1794L987 1962H1149L899
1610H627L508 1962Z" />
<glyph unicode="&#x161;" glyph-name="scaron" horiz-adv-x="983" d="M-72 135L111 440Q187 364 258 326Q334 285 389 285Q414 285 428 297Q444 309 444 328Q444 357 375 393L367 397L289 438Q195 487 154 551Q109 619 109 702Q109 862 233 964T551 1067Q652 1067
754 1036T958 942L793 664Q742 711 692 739Q645 766 604 766Q577 766 563 754Q547 742 547 721Q547 698 606 670Q614 666 622 663T633 657L694 629Q788 586 833 521T879 354Q879 176 752 70Q621 -39 412 -39Q299 -39 178 4Q63 45 -72 135ZM576 1530H725L846 1362L1055
1530H1217L967 1178H695L576 1530Z" />
<glyph unicode="&#x178;" glyph-name="Ydieresis" horiz-adv-x="1310" d="M233 0L346 608L-14 1464H563L627 1272Q645 1221 659 1161Q671 1114 678 1065Q701 1141 768 1247Q776 1259 778 1262L907 1464H1542L881 600L770 0H233ZM885 1796Q885 1855 928 1898T1030
1941Q1091 1941 1134 1898T1178 1796Q1178 1733 1137 1692Q1094 1649 1030 1649Q971 1649 928 1692T885 1796ZM512 1796Q512 1853 557 1898Q600 1941 659 1941Q720 1941 763 1898T807 1796Q807 1728 766 1689Q721 1648 660 1648T555 1692T512 1796Z" />
<glyph unicode="&#x17d;" glyph-name="Zcaron" horiz-adv-x="1351" d="M-123 0L625 1032H111L190 1464H1536L788 446H1260L1178 0H-123ZM576 1962H725L846 1794L1055 1962H1217L967 1610H695L576 1962Z" />
<glyph unicode="&#x17e;" glyph-name="zcaron" horiz-adv-x="1212" d="M-78 0L422 653H66L135 1034H1214L1208 1006L709 379H1094L1022 0H-78ZM434 1530H583L704 1362L913 1530H1075L825 1178H553L434 1530Z" />
<glyph unicode="&#x192;" glyph-name="florin" horiz-adv-x="1402" d="M434 610H244L295 895H489L526 1096Q549 1217 573 1268Q602 1329 645 1372Q702 1429 795 1464Q881 1497 985 1497Q1063 1497 1130 1491Q1189 1485 1255 1468L1194 1096Q1161 1104 1147 1106Q1118
1110 1112 1110Q1065 1110 1042 1081Q1015 1048 1004 979L989 895H1171L1120 610H938L852 150Q817 -40 786 -123Q753 -213 702 -276Q643 -352 537 -391Q426 -432 289 -432Q244 -432 188 -426Q110 -418 70 -410L135 -39L172 -45Q184 -47 207 -47Q326 -47 387 330Q389
348 393 362T397 385L434 610Z" />
<glyph unicode="&#x2c6;" glyph-name="circumflex" horiz-adv-x="1024" d="M901 1178H750L629 1346L422 1178H260L508 1530H782L901 1178Z" />
<glyph unicode="&#x2c7;" glyph-name="caron" horiz-adv-x="1024" d="M338 1530H487L608 1362L817 1530H979L729 1178H457L338 1530Z" />
<glyph unicode="&#x2d8;" glyph-name="breve" horiz-adv-x="1024" d="M346 1516H483V1505Q483 1444 518 1413T625 1382Q705 1382 752 1415Q803 1450 836 1516H979Q936 1364 840 1286T604 1208Q473 1208 410 1274Q344 1344 344 1473V1493Q344 1499 345 1506T346 1516Z" />
<glyph unicode="&#x2d9;" glyph-name="dotaccent" horiz-adv-x="1024" d="M471 1339Q471 1400 516 1445T623 1491Q686 1491 729 1446Q774 1397 774 1339Q774 1273 731 1231T623 1188Q566 1188 516 1233Q471 1276 471 1339Z" />
<glyph unicode="&#x2da;" glyph-name="ring" horiz-adv-x="1024" d="M524 1481T524 1428T559 1341Q598 1306 647 1307Q700 1307 735 1341T770 1427T733 1515T647 1552Q596 1552 559 1516Q524 1481 524 1428ZM377 1315T377 1429T455 1622Q535 1702 647 1702T840
1622T920 1430T840 1237Q762 1159 647 1159T455 1237Z" />
<glyph unicode="&#x2db;" glyph-name="ogonek" horiz-adv-x="1024" d="M461 0Q400 -53 369 -100Q342 -141 342 -195Q342 -230 360 -248T416 -266H532L496 -467H438Q280 -467 217 -422Q151 -375 152 -270Q152 -194 199 -129Q245 -64 346 0H461Z" />
<glyph unicode="&#x2dc;" glyph-name="tilde" horiz-adv-x="1024" d="M965 1516Q932 1385 874 1321Q819 1260 729 1260Q713 1260 684 1264Q670 1266 641 1274L578 1294Q574 1296 539 1305Q531 1307 514 1307Q475 1307 451 1282Q422 1253 414 1210H295Q326 1341
385 1407T530 1473Q540 1473 573 1468Q598 1465 623 1456L686 1436Q698 1432 718 1428T741 1423Q782 1423 804 1443T844 1516H965Z" />
<glyph unicode="&#x2dd;" glyph-name="hungarumlaut" horiz-adv-x="1024" d="M659 1178L842 1530H1114L793 1178H659ZM358 1178L496 1530H758L481 1178H358Z" />
<glyph unicode="&#x3a9;" glyph-name="Omega" horiz-adv-x="1705" d="M1671 350V0H1010V403Q1076 481 1110 579T1145 782Q1145 946 1065 1044T852 1143T639 1044Q561 948 561 782Q561 678 596 580T696 403V0H35V350H406Q259 434 190 559Q118 690 119 860Q119 1151
319 1331T852 1511T1384 1331Q1587 1151 1587 860Q1587 690 1516 559Q1448 434 1300 350H1671Z" />
<glyph unicode="&#x3c0;" glyph-name="pi" horiz-adv-x="1714" d="M1661 846H1481L1362 0H944L1063 846H836L717 0H299L418 846H389Q356 846 332 809Q305 768 299 713H41Q78 930 168 1008Q260 1088 481 1087H1702L1661 846Z" />
<glyph unicode="&#x2013;" glyph-name="endash" horiz-adv-x="1024" d="M958 705L879 326H-27L53 705H958Z" />
<glyph unicode="&#x2014;" glyph-name="emdash" horiz-adv-x="2048" d="M-41 326L39 705H2087L2007 326H-41Z" />
<glyph unicode="&#x2018;" glyph-name="quoteleft" horiz-adv-x="700" d="M897 1464L528 750H8L467 1464H897Z" />
<glyph unicode="&#x2019;" glyph-name="quoteright" horiz-adv-x="700" d="M14 750L383 1464H903L442 750H14Z" />
<glyph unicode="&#x201a;" glyph-name="quotesinglbase" horiz-adv-x="700" d="M-276 -336L94 379H612L154 -336H-276Z" />
<glyph unicode="&#x201c;" glyph-name="quotedblleft" horiz-adv-x="1339" d="M897 1464L528 750H10L469 1464H897ZM1538 1464L1169 750H649L1108 1464H1538Z" />
<glyph unicode="&#x201d;" glyph-name="quotedblright" horiz-adv-x="1339" d="M653 750L1024 1464H1542L1083 750H653ZM14 750L383 1464H903L442 750H14Z" />
<glyph unicode="&#x201e;" glyph-name="quotedblbase" horiz-adv-x="1339" d="M-276 -336L94 379H612L154 -336H-276ZM365 -336L733 379H1253L793 -336H365Z" />
<glyph unicode="&#x2020;" glyph-name="dagger" horiz-adv-x="1325" d="M199 -449L416 668H94L178 1094H500L569 1460H1049L977 1094H1282L1198 668H895L678 -449H199Z" />
<glyph unicode="&#x2021;" glyph-name="daggerdbl" horiz-adv-x="1325" d="M244 -446L311 -90H-31L43 289H385L475 752H133L207 1137H551L614 1460H1036L973 1137H1307L1231 752H899L809 289H1143L1069 -90H735L666 -446H244Z" />
<glyph unicode="&#x2022;" glyph-name="bullet" horiz-adv-x="1206" d="M307 762Q307 885 393 971T604 1057Q727 1057 813 971T899 762Q899 641 811 553T602 465T393 553Q307 639 307 762Z" />
<glyph unicode="&#x2026;" glyph-name="ellipsis" horiz-adv-x="2048" d="M520 -29Q405 -29 332 43Q254 117 254 217Q254 344 344 430Q436 518 563 518Q674 518 752 446Q828 376 828 266Q828 147 738 59T520 -29ZM946 -29Q831 -29 758 43Q680 117 680 217Q680
344 770 430Q862 518 989 518Q1100 518 1178 446Q1254 376 1254 266Q1254 147 1164 59T946 -29ZM1630 -29Q1515 -29 1442 43Q1364 117 1364 217Q1364 344 1454 430Q1546 518 1673 518Q1784 518 1862 446Q1938 376 1938 266Q1938 147 1848 59T1630 -29Z" />
<glyph unicode="&#x2030;" glyph-name="perthousand" horiz-adv-x="2594" d="M2114 182Q2159 182 2191 258Q2224 332 2224 438Q2224 479 2212 502Q2200 522 2171 522Q2124 522 2091 446Q2058 372 2058 264Q2058 223 2072 203T2114 182ZM2519 414Q2519 215 2402
86Q2287 -41 2103 -41Q1947 -41 1862 47T1776 295Q1776 485 1894 614Q2011 739 2195 739Q2345 739 2431 651Q2519 559 2519 414ZM1280 182Q1325 182 1358 258Q1391 332 1391 438Q1391 479 1378 502Q1366 522 1337 522Q1290 522 1257 446Q1224 372 1225 264Q1225
227 1239 203Q1251 182 1280 182ZM1683 414Q1683 215 1567 86Q1452 -41 1270 -41Q1114 -41 1028 47T942 295Q942 485 1061 614Q1178 739 1362 739Q1509 739 1597 651Q1683 566 1683 414ZM428 928Q469 928 504 1004Q537 1076 537 1182Q537 1225 524 1247Q512 1267
483 1268Q436 1268 403 1192Q370 1118 371 1010Q371 969 385 949T428 928ZM817 1153Q817 950 702 827Q585 700 403 700Q247 700 162 788T76 1036Q76 1231 195 1356Q312 1479 496 1479Q646 1479 731 1391T817 1153ZM340 -41L1212 1479H1413L539 -41H340Z" />
<glyph unicode="&#x2039;" glyph-name="guilsinglleft" horiz-adv-x="643" d="M594 815L338 526L539 211L307 53L12 537L395 975L594 815Z" />
<glyph unicode="&#x203a;" glyph-name="guilsinglright" horiz-adv-x="643" d="M-31 213L225 500L25 817L256 975L553 492L168 53L-31 213Z" />
<glyph unicode="&#x20a3;" glyph-name="franc" horiz-adv-x="2150" d="M0 0L270 1464H1241L1167 1067H733L700 891H1114L1042 506H629L535 0H0ZM1155 0L1348 1034H1794L1759 893Q1810 981 1882 1024Q1953 1067 2042 1067Q2056 1067 2093 1063Q2121 1060 2161 1051L2083
629Q2040 645 1991 655Q1956 663 1917 664Q1833 664 1790 621Q1749 580 1727 461L1643 0H1155Z" />
<glyph unicode="&#x2122;" glyph-name="trademark" horiz-adv-x="1705" d="M1044 1468L1143 1202L1241 1468H1497V909H1315V1276L1178 909H1108L971 1276V909H788V1468H1044ZM690 1468V1317H528V909H326V1317H164V1468H690Z" />
<glyph unicode="&#x2202;" glyph-name="partialdiff" horiz-adv-x="1138" d="M770 715Q797 850 805 926Q815 1018 815 1075Q815 1181 789 1234T711 1288Q676 1288 653 1268Q633 1250 602 1196Q563 1122 510 1077Q465 1038 410 1038Q349 1038 308 1075T266 1171Q266
1257 368 1318T618 1380Q841 1380 971 1217Q1098 1057 1098 768Q1098 418 930 199Q762 -22 498 -23Q281 -23 160 92Q37 209 37 410Q37 613 164 750T471 887Q566 887 643 844Q717 803 770 715ZM694 553Q694 666 660 725T561 784Q471 784 410 643Q351 506 350 289Q350
176 385 117Q418 60 485 59Q577 59 635 199Q694 342 694 553Z" />
<glyph unicode="&#x2206;" glyph-name="uni2206" horiz-adv-x="1503" d="M958 309L752 1014L545 309H958ZM991 1473L1509 0H-6L512 1473H991Z" />
<glyph unicode="&#x220f;" glyph-name="product" horiz-adv-x="1687" d="M139 1473H1538V-393H1065V1081H612V-393H139V1473Z" />
<glyph unicode="&#x2211;" glyph-name="summation" horiz-adv-x="1581" d="M80 1473H1448V1120H670L1229 563L688 -37H1534V-393H59V-193L723 545L80 1174V1473Z" />
<glyph unicode="&#x2212;" glyph-name="minus" horiz-adv-x="1705" d="M1452 750V473H254V750H1452Z" />
<glyph unicode="&#x2215;" glyph-name="uni2215" horiz-adv-x="339" d="M-342 -39L461 1479H682L-121 -39H-342Z" />
<glyph unicode="&#x2219;" glyph-name="uni2219" horiz-adv-x="700" d="M332 446Q223 446 146 518T68 690Q68 817 158 903Q250 991 377 991Q488 991 565 920Q641 850 641 739Q641 622 549 535Q459 446 332 446Z" />
<glyph unicode="&#x221a;" glyph-name="radical" horiz-adv-x="1394" d="M1399 1737V1565H1313L725 -41H582L281 786L125 727L84 881L479 1020L688 420L1171 1737H1399Z" />
<glyph unicode="&#x221e;" glyph-name="infinity" horiz-adv-x="1705" d="M975 561Q1016 502 1069 475Q1126 446 1194 446Q1278 446 1331 489T1384 598T1335 707Q1284 752 1219 752Q1151 752 1096 709Q1038 663 975 561ZM731 653Q690 712 637 739Q580 768 512
768Q429 768 377 725Q324 682 324 614Q324 548 371 506T489 463Q555 463 612 508Q663 549 731 653ZM856 791Q922 918 1006 981Q1088 1044 1180 1044Q1323 1044 1425 918Q1525 793 1526 606Q1526 411 1436 291T1202 170Q1116 170 1039 223T850 424Q780 293 705 233Q623
170 528 170Q385 170 283 297Q183 422 182 608Q182 803 272 923T504 1044Q588 1044 666 991Q741 941 856 791Z" />
<glyph unicode="&#x222b;" glyph-name="integral'" horiz-adv-x="1329" d="M379 -244Q410 -244 432 -203Q461 -152 475 -88Q495 16 502 297Q506 508 510 590Q530 1100 653 1331Q774 1558 1022 1559Q1143 1559 1212 1501Q1284 1442 1284 1350Q1284 1280 1237 1237Q1192
1194 1122 1194Q1056 1194 1022 1235T987 1354V1364Q987 1368 988 1373T989 1380Q989 1407 981 1417Q971 1429 954 1430Q850 1430 827 768Q825 711 825 682Q813 347 788 197T715 -70Q650 -221 549 -297Q449 -373 311 -373Q192 -373 123 -315Q51 -256 51 -164Q51
-92 96 -49Q139 -8 217 -8Q278 -8 313 -45Q348 -84 348 -150Q348 -154 347 -164T346 -180V-203Q346 -226 354 -233Q365 -244 379 -244Z" />
<glyph unicode="&#x2248;" glyph-name="approxequal" horiz-adv-x="1705" d="M1530 309Q1413 235 1335 209Q1241 176 1157 176Q1067 176 877 240Q680 306 561 305Q478 305 389 268Q299 231 178 147V446Q295 522 391 555T588 588Q709 588 897 524Q1090 458 1165
459Q1245 459 1333 494Q1415 527 1530 608V309ZM1530 774Q1417 700 1335 672Q1245 641 1159 641Q1069 641 879 705Q682 771 561 770Q475 770 387 733Q295 694 178 614V913Q293 987 391 1020Q487 1053 588 1053Q709 1053 897 990T1165 926Q1249 926 1337 961Q1419
994 1530 1075V774Z" />
<glyph unicode="&#x2260;" glyph-name="notequal" horiz-adv-x="1705" d="M1384 1116L1272 977H1452V717H1094L922 506H1452V244H748L506 -55L307 104L420 244H254V506H594L764 717H254V977H944L1188 1278L1384 1116Z" />
<glyph unicode="&#x2264;" glyph-name="lessequal" horiz-adv-x="1705" d="M1454 236V-35H254V236H1454ZM1452 999L748 791L1452 582V301L254 672V909L1452 1282V999Z" />
<glyph unicode="&#x2265;" glyph-name="greaterequal" horiz-adv-x="1705" d="M1454 236V-35H254V236H1454ZM1452 909V672L256 301V582L961 791L256 999V1282L1452 909Z" />
<glyph unicode="&#x25ca;" glyph-name="lozenge" horiz-adv-x="1011" d="M506 1409L121 588L506 -233L891 588L506 1409ZM506 1653L1006 588L506 -477L6 588L506 1653Z" />
<glyph unicode="&#xf000;" glyph-name="uniF000" horiz-adv-x="1617" d="M836 1217Q836 1219 835 1223T834 1231V1253Q834 1376 930 1483Q1028 1589 1165 1614Q1165 1612 1166 1604T1167 1591V1552Q1167 1421 1063 1317Q961 1215 860 1214H852H844L840 1215L836
1217ZM1505 403Q1390 153 1300 61Q1208 -35 1096 -35Q1045 -35 965 -2T842 31Q795 31 711 -2T584 -35Q519 -35 455 8Q392 51 326 141Q220 288 168 436Q113 593 113 737Q113 956 237 1093T561 1231Q629 1231 717 1196Q801 1163 840 1163Q877 1163 961 1196Q1049
1231 1114 1231Q1227 1231 1313 1192Q1402 1152 1473 1069Q1371 1003 1322 924T1272 741Q1272 624 1331 541Q1392 454 1505 403Z" />
<glyph unicode="&#xf001;" glyph-name="uniF001" horiz-adv-x="1552" d="M49 0L172 664H45L113 1034H242Q291 1319 412 1446Q535 1575 752 1575Q820 1575 870 1565Q931 1553 993 1532L922 1143Q897 1155 864 1167Q841 1175 819 1176Q774 1176 750 1143Q727 1112
721 1034H901L831 664H653L530 0H49ZM813 0L1006 1034H1493L1300 0H813ZM1278 1087Q1169 1087 1096 1155T1022 1321Q1022 1429 1108 1505Q1196 1583 1315 1583Q1426 1583 1499 1516T1573 1350Q1573 1242 1487 1165Q1399 1087 1278 1087Z" />
<glyph unicode="&#xf002;" glyph-name="uniF002" horiz-adv-x="1552" d="M1296 0H813L1102 1550H1583L1296 0ZM49 0L172 664H45L113 1034H242Q291 1319 412 1446Q535 1575 752 1575Q820 1575 870 1565Q931 1553 993 1532L922 1143Q897 1155 864 1167Q841 1175
819 1176Q774 1176 750 1143Q727 1112 721 1034H901L831 664H653L530 0H49Z" />
</font>
</defs>
</svg>
